M48
; DRILL file KiCad 10.0.1 date 2026-05-23T19:25:33
; FORMAT={-:-/ absolute / metric / decimal}
; #@! TF.CreationDate,2026-05-23T19:25:33+05:30
; #@! TF.GenerationSoftware,Kicad,Pcbnew,10.0.1
; #@! TF.FileFunction,Plated,1,2,PTH
FMAT,2
METRIC
; #@! TA.AperFunction,Plated,PTH,ViaDrill
T1C0.300
; #@! TA.AperFunction,Plated,PTH,ViaDrill
T2C0.500
; #@! TA.AperFunction,Plated,PTH,ComponentDrill
T3C1.300
%
G90
G05
T1
X112.25Y-68.4
X114.15Y-71.685
T2
X74.422Y-64.008
X74.422Y-65.024
X74.422Y-66.04
X74.422Y-67.31
X74.422Y-68.834
X74.422Y-70.104
X74.422Y-71.12
X74.422Y-72.136
X74.422Y-73.152
X74.422Y-74.168
X75.184Y-63.246
X75.438Y-74.168
X76.708Y-62.992
X76.708Y-74.168
X77.724Y-74.168
X78.232Y-62.992
X78.74Y-74.168
X79.502Y-62.992
X79.756Y-74.168
X80.518Y-62.992
X81.026Y-74.168
X81.534Y-62.992
X82.55Y-74.168
X83.312Y-62.992
X83.566Y-74.422
X83.566Y-75.692
X83.566Y-76.708
X83.646Y-77.724
X83.646Y-78.74
X83.646Y-80.05
X84.074Y-64.516
X84.836Y-80.01
X85.09Y-64.516
X85.598Y-68.834
X85.852Y-80.01
X86.106Y-64.516
X87.122Y-64.516
X87.376Y-69.596
X88.392Y-64.516
X89.154Y-69.596
X89.6Y-80.054
X89.916Y-64.516
X90.619Y-80.054
X90.754Y-69.557
X90.932Y-64.516
X91.9Y-74.3
X91.9Y-75.35
X91.9Y-76.6
X91.9Y-77.7
X91.9Y-78.95
X91.927Y-68.501
X91.948Y-64.516
X91.948Y-80.264
X92.964Y-64.516
X93.3Y-74.55
X93.98Y-64.516
X94.319Y-74.55
X95.25Y-64.516
X95.296Y-74.55
X96.273Y-74.55
X96.774Y-64.516
X97.25Y-74.55
X98.15Y-74.542
X98.399Y-63.75
X99.169Y-74.542
X99.937Y-63.229
X100.146Y-74.542
X101.123Y-74.542
X101.344Y-62.708
X102.1Y-74.542
X102.855Y-62.134
X103.038Y-60.336
X103.077Y-74.552
X104.2Y-74.6
X104.2Y-75.55
X104.2Y-77.0
X104.2Y-78.3
X104.25Y-79.35
X104.445Y-60.388
X104.523Y-58.772
X104.85Y-80.25
X105.85Y-80.3
X106.269Y-57.808
X106.95Y-80.25
X110.601Y-80.123
X111.325Y-57.834
X111.578Y-80.124
X112.522Y-65.786
X112.776Y-60.452
X112.776Y-71.882
X112.776Y-74.168
X112.776Y-75.184
X112.776Y-76.2
X112.776Y-77.216
X112.776Y-78.486
X112.776Y-80.01
X113.265Y-63.81
X113.306Y-58.903
X113.793Y-68.384
X114.3Y-75.184
X114.478Y-60.44
X115.316Y-61.214
X115.57Y-75.184
X115.824Y-61.976
X116.773Y-75.183
X116.923Y-62.249
X117.75Y-75.184
X117.9Y-62.25
X118.727Y-75.153
X118.877Y-62.219
X119.704Y-75.127
X119.854Y-62.193
X120.681Y-75.138
X120.831Y-62.204
X121.673Y-75.133
X122.55Y-62.95
X122.65Y-75.134
X123.527Y-62.951
X123.627Y-75.103
X124.504Y-62.92
X124.604Y-75.077
X125.481Y-62.894
X125.581Y-75.088
X126.746Y-62.992
X127.0Y-64.008
X127.0Y-65.024
X127.0Y-66.294
X127.0Y-67.818
X127.0Y-69.088
X127.0Y-70.104
X127.0Y-71.12
X127.0Y-72.136
X127.0Y-73.406
X127.0Y-74.93
T3
X120.132Y-66.605
X120.132Y-71.685
M30
