%TF.GenerationSoftware,KiCad,Pcbnew,10.0.1*%
%TF.CreationDate,2026-05-23T19:25:26+05:30*%
%TF.ProjectId,Voltage,566f6c74-6167-4652-9e6b-696361645f70,rev?*%
%TF.SameCoordinates,Original*%
%TF.FileFunction,Copper,L1,Top*%
%TF.FilePolarity,Positive*%
%FSLAX46Y46*%
G04 Gerber Fmt 4.6, Leading zero omitted, Abs format (unit mm)*
G04 Created by KiCad (PCBNEW 10.0.1) date 2026-05-23 19:25:26*
%MOMM*%
%LPD*%
G01*
G04 APERTURE LIST*
G04 Aperture macros list*
%AMRoundRect*
0 Rectangle with rounded corners*
0 $1 Rounding radius*
0 $2 $3 $4 $5 $6 $7 $8 $9 X,Y pos of 4 corners*
0 Add a 4 corners polygon primitive as box body*
4,1,4,$2,$3,$4,$5,$6,$7,$8,$9,$2,$3,0*
0 Add four circle primitives for the rounded corners*
1,1,$1+$1,$2,$3*
1,1,$1+$1,$4,$5*
1,1,$1+$1,$6,$7*
1,1,$1+$1,$8,$9*
0 Add four rect primitives between the rounded corners*
20,1,$1+$1,$2,$3,$4,$5,0*
20,1,$1+$1,$4,$5,$6,$7,0*
20,1,$1+$1,$6,$7,$8,$9,0*
20,1,$1+$1,$8,$9,$2,$3,0*%
G04 Aperture macros list end*
%TA.AperFunction,SMDPad,CuDef*%
%ADD10RoundRect,0.250000X-0.550000X1.500000X-0.550000X-1.500000X0.550000X-1.500000X0.550000X1.500000X0*%
%TD*%
%TA.AperFunction,SMDPad,CuDef*%
%ADD11RoundRect,0.112500X-0.577500X0.112500X-0.577500X-0.112500X0.577500X-0.112500X0.577500X0.112500X0*%
%TD*%
%TA.AperFunction,SMDPad,CuDef*%
%ADD12RoundRect,0.250000X-0.400000X0.575000X-0.400000X-0.575000X0.400000X-0.575000X0.400000X0.575000X0*%
%TD*%
%TA.AperFunction,SMDPad,CuDef*%
%ADD13RoundRect,0.250000X-0.525000X0.462500X-0.525000X-0.462500X0.525000X-0.462500X0.525000X0.462500X0*%
%TD*%
%TA.AperFunction,SMDPad,CuDef*%
%ADD14RoundRect,0.250000X-0.700000X0.650000X-0.700000X-0.650000X0.700000X-0.650000X0.700000X0.650000X0*%
%TD*%
%TA.AperFunction,SMDPad,CuDef*%
%ADD15RoundRect,0.250000X-0.700000X0.250000X-0.700000X-0.250000X0.700000X-0.250000X0.700000X0.250000X0*%
%TD*%
%TA.AperFunction,SMDPad,CuDef*%
%ADD16RoundRect,0.140000X0.170000X-0.140000X0.170000X0.140000X-0.170000X0.140000X-0.170000X-0.140000X0*%
%TD*%
%TA.AperFunction,ComponentPad*%
%ADD17RoundRect,0.250000X-1.050000X1.050000X-1.050000X-1.050000X1.050000X-1.050000X1.050000X1.050000X0*%
%TD*%
%TA.AperFunction,ComponentPad*%
%ADD18C,2.600000*%
%TD*%
%TA.AperFunction,SMDPad,CuDef*%
%ADD19RoundRect,0.250000X0.550000X-1.500000X0.550000X1.500000X-0.550000X1.500000X-0.550000X-1.500000X0*%
%TD*%
%TA.AperFunction,SMDPad,CuDef*%
%ADD20RoundRect,0.250000X-0.850000X-0.350000X0.850000X-0.350000X0.850000X0.350000X-0.850000X0.350000X0*%
%TD*%
%TA.AperFunction,SMDPad,CuDef*%
%ADD21RoundRect,0.249997X-2.950003X-2.650003X2.950003X-2.650003X2.950003X2.650003X-2.950003X2.650003X0*%
%TD*%
%TA.AperFunction,ViaPad*%
%ADD22C,0.800000*%
%TD*%
%TA.AperFunction,ViaPad*%
%ADD23C,0.600000*%
%TD*%
%TA.AperFunction,Conductor*%
%ADD24C,0.200000*%
%TD*%
G04 APERTURE END LIST*
D10*
%TO.P,C4,1*%
%TO.N,+5V*%
X87650000Y-73050000D03*
%TO.P,C4,2*%
%TO.N,GND*%
X87650000Y-78450000D03*
%TD*%
D11*
%TO.P,J1,1,VBUS_1*%
%TO.N,+5V*%
X82010000Y-67550000D03*
%TO.P,J1,2,D-_2*%
%TO.N,unconnected-(J1-D--Pad2)*%
X82010000Y-68200000D03*
%TO.P,J1,3,D+_3*%
%TO.N,unconnected-(J1-D+-Pad3)*%
X82010000Y-68850000D03*
%TO.P,J1,4,ID_4*%
%TO.N,unconnected-(J1-ID-Pad4)*%
X82010000Y-69500000D03*
%TO.P,J1,5,GND_5*%
%TO.N,GND*%
X82010000Y-70150000D03*
D12*
%TO.P,J1,SH,Shield_SH*%
X79350000Y-65475000D03*
D13*
X81925000Y-66362500D03*
D14*
X79350000Y-67700000D03*
D15*
X79350000Y-70400000D03*
D13*
X81925000Y-71337500D03*
D12*
X79350000Y-72225000D03*
%TD*%
D16*
%TO.P,C2,1*%
%TO.N,+3.3V*%
X108842500Y-69357500D03*
%TO.P,C2,2*%
%TO.N,GND*%
X108842500Y-68397500D03*
%TD*%
D17*
%TO.P,J2,1,Pin_1_1*%
%TO.N,+3.3V*%
X120132500Y-66605000D03*
D18*
%TO.P,J2,2,Pin_2_2*%
%TO.N,GND*%
X120132500Y-71685000D03*
%TD*%
D10*
%TO.P,C1,1*%
%TO.N,+3.3V*%
X108750000Y-73050000D03*
%TO.P,C1,2*%
%TO.N,GND*%
X108750000Y-78450000D03*
%TD*%
D19*
%TO.P,C5,1*%
%TO.N,+3.3V*%
X108800000Y-64700000D03*
%TO.P,C5,2*%
%TO.N,GND*%
X108800000Y-59300000D03*
%TD*%
D16*
%TO.P,C3,1*%
%TO.N,+5V*%
X87500000Y-67130000D03*
%TO.P,C3,2*%
%TO.N,GND*%
X87500000Y-66170000D03*
%TD*%
D20*
%TO.P,U1,1,GND_1*%
%TO.N,GND*%
X95360000Y-66670000D03*
%TO.P,U1,2,VO_2*%
%TO.N,+3.3V*%
X95360000Y-68950000D03*
D21*
X101660000Y-68950000D03*
D20*
%TO.P,U1,3,VI_3*%
%TO.N,+5V*%
X95360000Y-71230000D03*
%TD*%
D22*
%TO.N,GND*%
X127000000Y-73406000D03*
X113305619Y-58902774D03*
X74422000Y-64008000D03*
X113264815Y-63810201D03*
X104200000Y-78300000D03*
X80518000Y-62992000D03*
X127000000Y-66294000D03*
X83566000Y-74422000D03*
X127000000Y-70104000D03*
X93980000Y-64516000D03*
X87376000Y-69596000D03*
X105850000Y-80300000D03*
X91900000Y-78950000D03*
X103037770Y-60336103D03*
X91948000Y-80264000D03*
X119853741Y-62193375D03*
X83312000Y-62992000D03*
X95295998Y-74550000D03*
X85852000Y-80010000D03*
X85090000Y-64516000D03*
X114300000Y-75184000D03*
X76708000Y-62992000D03*
X83566000Y-76708000D03*
X124603741Y-75077375D03*
X84074000Y-64516000D03*
X112522000Y-65786000D03*
X115316000Y-61214000D03*
X102099739Y-74542064D03*
X102855346Y-62134280D03*
X127000000Y-74930000D03*
X97249739Y-74550000D03*
X112776000Y-76200000D03*
X96774000Y-64516000D03*
X81534000Y-62992000D03*
X112776000Y-74168000D03*
X90619298Y-80054026D03*
X104200000Y-74600000D03*
X122650000Y-75134000D03*
X74422000Y-67310000D03*
X127000000Y-72136000D03*
X91948000Y-64516000D03*
X112776000Y-78486000D03*
X75184000Y-63246000D03*
X117900000Y-62250000D03*
X127000000Y-67818000D03*
X74422000Y-65024000D03*
X75438000Y-74168000D03*
X85598000Y-68834000D03*
X89154000Y-69596000D03*
X84836000Y-80010000D03*
X79756000Y-74168000D03*
X74422000Y-66040000D03*
X125580612Y-75087671D03*
X104200000Y-77000000D03*
X104200000Y-75550000D03*
X123526871Y-62950714D03*
X116923129Y-62249286D03*
X79502000Y-62992000D03*
X96272869Y-74550000D03*
X99169127Y-74542064D03*
X78740000Y-74168000D03*
X110601013Y-80122807D03*
X123626871Y-75103114D03*
X74422000Y-71120000D03*
X126746000Y-62992000D03*
X104850000Y-80250000D03*
X88392000Y-64516000D03*
X99936567Y-63228822D03*
X115570000Y-75184000D03*
X127000000Y-69088000D03*
X91900000Y-76600000D03*
X91926741Y-68501277D03*
X103076610Y-74552360D03*
X74422000Y-72136000D03*
X111577884Y-80123521D03*
X111325018Y-57834292D03*
X98398996Y-63750033D03*
X101343836Y-62707611D03*
X87122000Y-64516000D03*
X83645998Y-80050000D03*
X98150000Y-74542064D03*
X112776000Y-75184000D03*
X76708000Y-74168000D03*
D23*
X112250000Y-68400000D03*
D22*
X127000000Y-65024000D03*
X83566000Y-75692000D03*
X93300000Y-74550000D03*
X122550000Y-62950000D03*
X120680612Y-75137671D03*
X92964000Y-64516000D03*
X91900000Y-77700000D03*
X113792540Y-68383824D03*
X74422000Y-68834000D03*
X77724000Y-74168000D03*
X120830612Y-62203671D03*
X101122869Y-74542064D03*
X118726871Y-75153114D03*
X90932000Y-64516000D03*
X112776000Y-71882000D03*
X115824000Y-61976000D03*
X74422000Y-73152000D03*
X89916000Y-64516000D03*
X112776000Y-60452000D03*
X121673129Y-75133286D03*
X116773129Y-75183286D03*
X118876871Y-62219114D03*
X100145998Y-74542064D03*
X81026000Y-74168000D03*
X106950000Y-80250000D03*
X119703741Y-75127375D03*
X89600171Y-80054026D03*
X74422000Y-74168000D03*
X112776000Y-80010000D03*
X125480612Y-62894089D03*
X91900000Y-75350000D03*
X86106000Y-64516000D03*
X114478342Y-60440345D03*
X91900000Y-74300000D03*
X127000000Y-64008000D03*
X83645998Y-77724000D03*
X117750000Y-75184000D03*
D23*
X114150000Y-71685000D03*
D22*
X94319127Y-74550000D03*
X74422000Y-70104000D03*
X127000000Y-71120000D03*
X95250000Y-64516000D03*
X104523220Y-58772471D03*
X90754017Y-69556728D03*
X78232000Y-62992000D03*
X106269276Y-57808232D03*
X104250000Y-79350000D03*
X112776000Y-77216000D03*
X104445039Y-60388224D03*
X83645998Y-78740000D03*
X124503742Y-62919828D03*
X82550000Y-74168000D03*
%TD*%
%TO.N,+5V*%
D24*
X87650000Y-72500001D02*
X87650000Y-73050000D01*
X82010000Y-67550000D02*
X82699999Y-67550000D01*
X82699999Y-67550000D02*
X87650000Y-72500001D01*
%TO.N,GND*%
X82010000Y-70150000D02*
X82010000Y-71252500D01*
X111602500Y-68397500D02*
X108842500Y-68397500D01*
X112250000Y-68400000D02*
X111605000Y-68400000D01*
X82010000Y-71252500D02*
X81925000Y-71337500D01*
X111605000Y-68400000D02*
X111602500Y-68397500D01*
%TD*%
%TA.AperFunction,Conductor*%
%TO.N,+5V*%
G36*
X86587652Y-66630262D02*
G01*
X86622463Y-66636038D01*
X86635693Y-66640235D01*
X86650482Y-66650197D01*
X86667481Y-66655591D01*
X86678860Y-66669312D01*
X86693642Y-66679270D01*
X86700697Y-66695645D01*
X86712082Y-66709374D01*
X86721284Y-66743429D01*
X86721288Y-66743437D01*
X86721289Y-66743445D01*
X86722319Y-66751906D01*
X86718305Y-66801484D01*
X86695495Y-66879999D01*
X86695496Y-66880000D01*
X86984994Y-66880000D01*
X87017713Y-66884394D01*
X87048701Y-66892872D01*
X87067445Y-66900808D01*
X87072617Y-66902223D01*
X87074465Y-66902744D01*
X87218208Y-66944506D01*
X87218215Y-66944508D01*
X87228997Y-66947641D01*
X87228999Y-66947641D01*
X87229002Y-66947642D01*
X87229005Y-66947642D01*
X87229007Y-66947643D01*
X87265310Y-66950500D01*
X87265318Y-66950500D01*
X87734682Y-66950500D01*
X87734690Y-66950500D01*
X87770993Y-66947643D01*
X87770995Y-66947642D01*
X87770997Y-66947642D01*
X87770999Y-66947641D01*
X87771017Y-66947640D01*
X87771715Y-66947442D01*
X87780601Y-66944972D01*
X87781792Y-66944506D01*
X87850758Y-66924469D01*
X87926389Y-66902496D01*
X87926389Y-66902495D01*
X87926392Y-66902494D01*
X87926395Y-66902494D01*
X87926395Y-66902493D01*
X87930366Y-66901340D01*
X87930370Y-66901339D01*
X87955699Y-66893980D01*
X87959520Y-66891128D01*
X87969978Y-66887761D01*
X87982294Y-66884392D01*
X88015006Y-66880000D01*
X88304504Y-66880000D01*
X88304933Y-66879426D01*
X88300575Y-66848475D01*
X88300615Y-66834591D01*
X88320492Y-66767610D01*
X88373415Y-66722014D01*
X88379095Y-66719439D01*
X88438026Y-66708616D01*
X91542000Y-66902580D01*
X91576553Y-66909772D01*
X91598527Y-66917744D01*
X91608904Y-66924469D01*
X91617469Y-66926483D01*
X91645367Y-66948102D01*
X91647108Y-66949902D01*
X91660341Y-66966125D01*
X91783666Y-67146518D01*
X91951544Y-67392078D01*
X91967113Y-67423751D01*
X91971265Y-67436533D01*
X91973255Y-67506375D01*
X91937169Y-67566205D01*
X91881427Y-67595617D01*
X91873109Y-67597552D01*
X91845013Y-67600777D01*
X91838042Y-67600777D01*
X91664093Y-67635377D01*
X91664086Y-67635378D01*
X91664063Y-67635386D01*
X91500213Y-67703254D01*
X91500195Y-67703262D01*
X91500180Y-67703271D01*
X91352703Y-67801813D01*
X91352702Y-67801814D01*
X91352696Y-67801819D01*
X91227283Y-67927232D01*
X91227278Y-67927238D01*
X91227277Y-67927239D01*
X91128735Y-68074716D01*
X91128726Y-68074731D01*
X91128718Y-68074749D01*
X91060850Y-68238599D01*
X91060842Y-68238622D01*
X91060840Y-68238629D01*
X91026241Y-68412576D01*
X91026241Y-68523810D01*
X91026240Y-68523814D01*
X91026241Y-68523817D01*
X91021216Y-68558751D01*
X91017305Y-68572068D01*
X90979528Y-68630844D01*
X90915975Y-68659865D01*
X90915970Y-68659865D01*
X90915970Y-68659866D01*
X90915969Y-68659865D01*
X90905075Y-68661432D01*
X90863240Y-68660312D01*
X90860993Y-68659865D01*
X90842708Y-68656228D01*
X90842707Y-68656228D01*
X90665318Y-68656228D01*
X90491369Y-68690828D01*
X90491362Y-68690829D01*
X90491339Y-68690837D01*
X90327489Y-68758705D01*
X90327471Y-68758713D01*
X90327456Y-68758722D01*
X90179979Y-68857264D01*
X90179978Y-68857265D01*
X90179972Y-68857270D01*
X90054567Y-68982675D01*
X90054550Y-68982694D01*
X90054547Y-68982698D01*
X90052117Y-68986335D01*
X90028531Y-69012588D01*
X90017885Y-69021484D01*
X89953820Y-69049366D01*
X89884861Y-69038191D01*
X89884850Y-69038186D01*
X89884849Y-69038185D01*
X89874930Y-69033440D01*
X89840764Y-69009264D01*
X89728038Y-68896538D01*
X89728037Y-68896537D01*
X89728036Y-68896536D01*
X89580559Y-68797994D01*
X89580558Y-68797993D01*
X89580553Y-68797990D01*
X89580540Y-68797983D01*
X89580526Y-68797977D01*
X89416676Y-68730109D01*
X89416653Y-68730101D01*
X89416646Y-68730099D01*
X89242698Y-68695500D01*
X89242694Y-68695500D01*
X89242691Y-68695500D01*
X89065309Y-68695500D01*
X89065306Y-68695500D01*
X89065301Y-68695500D01*
X88891352Y-68730100D01*
X88891345Y-68730101D01*
X88891322Y-68730109D01*
X88727472Y-68797977D01*
X88727454Y-68797985D01*
X88727439Y-68797994D01*
X88579962Y-68896536D01*
X88579961Y-68896537D01*
X88579955Y-68896542D01*
X88454539Y-69021958D01*
X88378006Y-69136497D01*
X88354422Y-69162752D01*
X88343774Y-69171651D01*
X88279711Y-69199537D01*
X88210751Y-69188367D01*
X88208975Y-69187517D01*
X88206024Y-69186106D01*
X88156430Y-69143137D01*
X88075464Y-69021965D01*
X88075461Y-69021961D01*
X88075459Y-69021958D01*
X87950043Y-68896542D01*
X87950037Y-68896537D01*
X87950036Y-68896536D01*
X87802559Y-68797994D01*
X87802558Y-68797993D01*
X87802553Y-68797990D01*
X87802540Y-68797983D01*
X87802526Y-68797977D01*
X87638676Y-68730109D01*
X87638653Y-68730101D01*
X87638646Y-68730099D01*
X87464698Y-68695500D01*
X87464694Y-68695500D01*
X87464691Y-68695500D01*
X87287309Y-68695500D01*
X87287306Y-68695500D01*
X87287301Y-68695500D01*
X87113352Y-68730100D01*
X87113345Y-68730101D01*
X87113322Y-68730109D01*
X86949472Y-68797977D01*
X86949454Y-68797985D01*
X86949439Y-68797994D01*
X86801962Y-68896536D01*
X86801961Y-68896537D01*
X86801955Y-68896542D01*
X86722787Y-68975710D01*
X86722786Y-68975713D01*
X86694532Y-68996864D01*
X86684608Y-69002283D01*
X86616335Y-69017135D01*
X86550870Y-68992719D01*
X86508999Y-68936785D01*
X86508997Y-68936781D01*
X86506313Y-68929583D01*
X86498500Y-68886263D01*
X86498500Y-68745125D01*
X86498074Y-68743169D01*
X86463896Y-68571341D01*
X86463893Y-68571332D01*
X86458682Y-68558751D01*
X86455052Y-68549987D01*
X86455052Y-68549988D01*
X86412478Y-68447202D01*
X86412478Y-68447201D01*
X86404586Y-68428149D01*
X86396016Y-68407459D01*
X86396009Y-68407446D01*
X86297464Y-68259965D01*
X86297461Y-68259961D01*
X86297456Y-68259955D01*
X86172043Y-68134542D01*
X86172037Y-68134537D01*
X86172036Y-68134536D01*
X86024559Y-68035994D01*
X86024558Y-68035993D01*
X86024553Y-68035990D01*
X86024540Y-68035983D01*
X86024526Y-68035977D01*
X85860676Y-67968109D01*
X85860653Y-67968101D01*
X85860646Y-67968099D01*
X85686698Y-67933500D01*
X85686694Y-67933500D01*
X85686691Y-67933500D01*
X85509309Y-67933500D01*
X85509306Y-67933500D01*
X85509301Y-67933500D01*
X85335352Y-67968100D01*
X85335345Y-67968101D01*
X85335322Y-67968109D01*
X85171472Y-68035977D01*
X85171454Y-68035985D01*
X85171439Y-68035994D01*
X85023962Y-68134536D01*
X85023961Y-68134537D01*
X85023955Y-68134542D01*
X84898542Y-68259955D01*
X84898537Y-68259961D01*
X84898536Y-68259962D01*
X84799994Y-68407439D01*
X84799985Y-68407454D01*
X84799977Y-68407472D01*
X84732109Y-68571322D01*
X84732101Y-68571345D01*
X84732099Y-68571352D01*
X84697500Y-68745299D01*
X84697500Y-68922699D01*
X84732099Y-69096646D01*
X84732101Y-69096653D01*
X84732109Y-69096676D01*
X84799977Y-69260526D01*
X84799985Y-69260544D01*
X84799994Y-69260559D01*
X84898536Y-69408036D01*
X84898537Y-69408037D01*
X84898542Y-69408043D01*
X85023955Y-69533456D01*
X85023961Y-69533461D01*
X85023965Y-69533464D01*
X85171446Y-69632009D01*
X85171459Y-69632016D01*
X85290550Y-69681344D01*
X85335334Y-69699894D01*
X85335336Y-69699894D01*
X85335341Y-69699896D01*
X85501680Y-69732982D01*
X85504403Y-69733704D01*
X85509306Y-69734500D01*
X85686693Y-69734500D01*
X85690814Y-69734500D01*
X85698667Y-69732117D01*
X85744682Y-69722964D01*
X85744683Y-69722964D01*
X85860653Y-69699897D01*
X85860653Y-69699896D01*
X85860658Y-69699896D01*
X85860661Y-69699894D01*
X85860666Y-69699894D01*
X85863854Y-69698573D01*
X85871835Y-69695273D01*
X85871876Y-69695251D01*
X86024540Y-69632016D01*
X86024540Y-69632015D01*
X86024547Y-69632013D01*
X86172035Y-69533464D01*
X86198190Y-69507309D01*
X86251216Y-69454283D01*
X86251220Y-69454281D01*
X86279459Y-69433140D01*
X86289391Y-69427717D01*
X86306813Y-69423926D01*
X86312538Y-69420801D01*
X86319041Y-69421266D01*
X86357660Y-69412864D01*
X86423125Y-69437278D01*
X86464999Y-69493210D01*
X86465001Y-69493214D01*
X86467682Y-69500402D01*
X86475500Y-69543736D01*
X86475500Y-69684699D01*
X86510099Y-69858646D01*
X86510101Y-69858653D01*
X86510109Y-69858676D01*
X86577977Y-70022526D01*
X86577985Y-70022544D01*
X86577994Y-70022559D01*
X86676536Y-70170036D01*
X86676537Y-70170037D01*
X86676542Y-70170043D01*
X86801955Y-70295456D01*
X86801961Y-70295461D01*
X86801965Y-70295464D01*
X86949446Y-70394009D01*
X86949459Y-70394016D01*
X86977209Y-70405510D01*
X87071144Y-70444419D01*
X87071182Y-70444434D01*
X87072363Y-70444923D01*
X87113334Y-70461894D01*
X87113336Y-70461894D01*
X87113341Y-70461896D01*
X87279680Y-70494982D01*
X87282403Y-70495704D01*
X87287306Y-70496500D01*
X87464693Y-70496500D01*
X87468814Y-70496500D01*
X87476667Y-70494117D01*
X87522682Y-70484964D01*
X87522683Y-70484964D01*
X87638653Y-70461897D01*
X87638653Y-70461896D01*
X87638658Y-70461896D01*
X87638661Y-70461894D01*
X87638666Y-70461894D01*
X87641854Y-70460573D01*
X87649835Y-70457273D01*
X87649876Y-70457251D01*
X87802540Y-70394016D01*
X87802540Y-70394015D01*
X87802547Y-70394013D01*
X87950035Y-70295464D01*
X88075464Y-70170035D01*
X88120014Y-70103360D01*
X88125015Y-70095876D01*
X88133358Y-70083388D01*
X88151995Y-70055497D01*
X88175575Y-70029248D01*
X88186232Y-70020341D01*
X88202574Y-70013229D01*
X88205606Y-70010696D01*
X88209526Y-70010203D01*
X88250295Y-69992460D01*
X88319257Y-70003635D01*
X88323984Y-70005897D01*
X88373571Y-70048864D01*
X88454536Y-70170036D01*
X88454537Y-70170037D01*
X88454542Y-70170043D01*
X88579955Y-70295456D01*
X88579961Y-70295461D01*
X88579965Y-70295464D01*
X88727446Y-70394009D01*
X88727459Y-70394016D01*
X88755209Y-70405510D01*
X88849144Y-70444419D01*
X88849182Y-70444434D01*
X88850363Y-70444923D01*
X88891334Y-70461894D01*
X88891336Y-70461894D01*
X88891341Y-70461896D01*
X89057680Y-70494982D01*
X89060403Y-70495704D01*
X89065306Y-70496500D01*
X89242693Y-70496500D01*
X89246814Y-70496500D01*
X89254667Y-70494117D01*
X89300682Y-70484964D01*
X89300683Y-70484964D01*
X89416653Y-70461897D01*
X89416653Y-70461896D01*
X89416658Y-70461896D01*
X89416661Y-70461894D01*
X89416666Y-70461894D01*
X89419854Y-70460573D01*
X89427835Y-70457273D01*
X89427876Y-70457251D01*
X89580540Y-70394016D01*
X89580540Y-70394015D01*
X89580547Y-70394013D01*
X89728035Y-70295464D01*
X89853464Y-70170035D01*
X89855895Y-70166395D01*
X89879470Y-70140149D01*
X89890123Y-70131246D01*
X89954185Y-70103360D01*
X90023150Y-70114533D01*
X90033087Y-70119287D01*
X90067248Y-70143459D01*
X90179978Y-70256189D01*
X90179982Y-70256192D01*
X90327463Y-70354737D01*
X90327476Y-70354744D01*
X90450036Y-70405509D01*
X90491351Y-70422622D01*
X90491353Y-70422622D01*
X90491358Y-70422624D01*
X90657697Y-70455710D01*
X90660420Y-70456432D01*
X90665323Y-70457228D01*
X90842710Y-70457228D01*
X90846831Y-70457228D01*
X90854684Y-70454845D01*
X90900699Y-70445692D01*
X90900700Y-70445692D01*
X91016670Y-70422625D01*
X91016670Y-70422624D01*
X91016675Y-70422624D01*
X91016678Y-70422622D01*
X91016683Y-70422622D01*
X91019871Y-70421301D01*
X91027852Y-70418001D01*
X91027893Y-70417979D01*
X91180557Y-70354744D01*
X91180557Y-70354743D01*
X91180564Y-70354741D01*
X91328052Y-70256192D01*
X91453481Y-70130763D01*
X91552030Y-69983275D01*
X91619911Y-69819394D01*
X91619911Y-69819391D01*
X91619913Y-69819387D01*
X91629049Y-69773456D01*
X91630004Y-69768656D01*
X91654516Y-69645423D01*
X91654517Y-69645421D01*
X91654517Y-69532921D01*
X91654543Y-69531653D01*
X91655165Y-69529684D01*
X91659539Y-69499260D01*
X91663450Y-69485941D01*
X91674347Y-69468983D01*
X91675597Y-69465031D01*
X91678368Y-69462727D01*
X91701223Y-69427164D01*
X91764775Y-69398139D01*
X91775681Y-69396571D01*
X91817521Y-69397692D01*
X91823576Y-69398897D01*
X91826163Y-69399412D01*
X91832176Y-69400608D01*
X91838049Y-69401777D01*
X91838050Y-69401777D01*
X91838052Y-69401777D01*
X92015434Y-69401777D01*
X92019555Y-69401777D01*
X92027408Y-69399394D01*
X92073423Y-69390241D01*
X92073424Y-69390241D01*
X92189394Y-69367174D01*
X92189394Y-69367173D01*
X92189399Y-69367173D01*
X92189402Y-69367171D01*
X92189407Y-69367171D01*
X92192595Y-69365850D01*
X92200576Y-69362550D01*
X92200617Y-69362528D01*
X92353281Y-69299293D01*
X92353281Y-69299292D01*
X92353288Y-69299290D01*
X92362128Y-69293382D01*
X92369244Y-69288629D01*
X92435921Y-69267751D01*
X92503301Y-69286235D01*
X92549992Y-69338214D01*
X92562071Y-69395718D01*
X92550176Y-69765450D01*
X92550176Y-69765451D01*
X92548560Y-69815644D01*
X92554585Y-69911379D01*
X92554586Y-69911389D01*
X92561953Y-69957661D01*
X92561954Y-69957665D01*
X92585955Y-70050530D01*
X92585956Y-70050533D01*
X92653760Y-70177426D01*
X92653767Y-70177437D01*
X92694609Y-70233038D01*
X92695103Y-70233720D01*
X92795940Y-70336399D01*
X92795941Y-70336400D01*
X92828824Y-70354744D01*
X92919824Y-70405510D01*
X92921592Y-70406496D01*
X92961195Y-70421677D01*
X92986832Y-70431505D01*
X93120692Y-70461897D01*
X93127140Y-70463361D01*
X93681522Y-70508063D01*
X93746762Y-70533072D01*
X93788125Y-70589383D01*
X93792477Y-70659117D01*
X93789261Y-70670666D01*
X93770494Y-70727299D01*
X93770493Y-70727304D01*
X93760000Y-70830007D01*
X93760000Y-70830013D01*
X93760000Y-70980000D01*
X96959999Y-70980000D01*
X96959999Y-70907143D01*
X96959945Y-70905326D01*
X96959890Y-70901644D01*
X96959890Y-70901639D01*
X96979575Y-70834600D01*
X97032379Y-70788845D01*
X97101537Y-70778901D01*
X97165093Y-70807926D01*
X97202867Y-70866704D01*
X97206841Y-70894347D01*
X97207672Y-70894298D01*
X97312651Y-72663182D01*
X97309707Y-72698353D01*
X97306311Y-72713101D01*
X97272085Y-72774014D01*
X97214115Y-72805923D01*
X97202704Y-72808632D01*
X97171404Y-72811957D01*
X93514234Y-72733550D01*
X93512291Y-72733493D01*
X93510352Y-72733421D01*
X93508443Y-72733335D01*
X90982152Y-72600517D01*
X89712531Y-75530528D01*
X89712528Y-75530531D01*
X89712529Y-75530531D01*
X89694029Y-75560589D01*
X89683606Y-75573102D01*
X89626730Y-75611643D01*
X89612864Y-75616159D01*
X89579294Y-75622161D01*
X86399875Y-75746106D01*
X86364767Y-75742447D01*
X86349608Y-75738630D01*
X86334247Y-75729584D01*
X86316966Y-75725234D01*
X86289412Y-75703179D01*
X86279810Y-75692934D01*
X86258089Y-75660941D01*
X86238095Y-75618453D01*
X85758821Y-74599995D01*
X86350001Y-74599995D01*
X86360493Y-74702694D01*
X86360493Y-74702695D01*
X86360494Y-74702697D01*
X86415641Y-74869119D01*
X86415643Y-74869124D01*
X86507684Y-75018345D01*
X86631654Y-75142315D01*
X86780875Y-75234356D01*
X86780880Y-75234358D01*
X86947299Y-75289504D01*
X86947300Y-75289504D01*
X86947302Y-75289505D01*
X86947309Y-75289506D01*
X87050019Y-75299999D01*
X87399999Y-75299999D01*
X87900000Y-75299999D01*
X88249960Y-75299999D01*
X88249972Y-75299999D01*
X88249986Y-75299998D01*
X88352697Y-75289505D01*
X88519119Y-75234358D01*
X88519124Y-75234356D01*
X88668345Y-75142315D01*
X88792315Y-75018345D01*
X88884356Y-74869124D01*
X88884358Y-74869119D01*
X88939505Y-74702697D01*
X88939506Y-74702690D01*
X88949999Y-74599986D01*
X88950000Y-74599973D01*
X88950000Y-73300000D01*
X87900000Y-73300000D01*
X87900000Y-75299999D01*
X87399999Y-75299999D01*
X87400000Y-75299998D01*
X87400000Y-73300000D01*
X86350001Y-73300000D01*
X86350001Y-74599995D01*
X85758821Y-74599995D01*
X84700000Y-72350000D01*
X84699996Y-72349994D01*
X84699995Y-72349991D01*
X84699066Y-72348486D01*
X84699027Y-72348412D01*
X84698871Y-72348169D01*
X84213579Y-71561997D01*
X84213580Y-71561995D01*
X84213574Y-71561989D01*
X84175326Y-71500028D01*
X84175313Y-71500007D01*
X86350000Y-71500007D01*
X86350000Y-71500013D01*
X86350000Y-72800000D01*
X87400000Y-72800000D01*
X87900000Y-72800000D01*
X88949999Y-72800000D01*
X88949999Y-71629995D01*
X93760001Y-71629995D01*
X93770493Y-71732694D01*
X93770493Y-71732695D01*
X93770494Y-71732697D01*
X93825641Y-71899119D01*
X93825643Y-71899124D01*
X93917684Y-72048345D01*
X94041654Y-72172315D01*
X94190875Y-72264356D01*
X94190880Y-72264358D01*
X94357299Y-72319504D01*
X94357300Y-72319504D01*
X94357302Y-72319505D01*
X94357309Y-72319506D01*
X94460019Y-72329999D01*
X95109999Y-72329999D01*
X95610000Y-72329999D01*
X96259960Y-72329999D01*
X96259972Y-72329999D01*
X96259986Y-72329998D01*
X96362697Y-72319505D01*
X96529119Y-72264358D01*
X96529124Y-72264356D01*
X96678345Y-72172315D01*
X96802315Y-72048345D01*
X96894356Y-71899124D01*
X96894358Y-71899119D01*
X96949505Y-71732697D01*
X96949506Y-71732690D01*
X96959999Y-71629986D01*
X96960000Y-71629973D01*
X96960000Y-71480000D01*
X95610000Y-71480000D01*
X95610000Y-72329999D01*
X95109999Y-72329999D01*
X95110000Y-72329998D01*
X95110000Y-71480000D01*
X93760001Y-71480000D01*
X93760001Y-71629995D01*
X88949999Y-71629995D01*
X88949999Y-71500028D01*
X88949998Y-71500013D01*
X88943994Y-71441240D01*
X88943994Y-71441239D01*
X88939505Y-71397303D01*
X88884358Y-71230880D01*
X88884356Y-71230875D01*
X88792315Y-71081654D01*
X88668345Y-70957684D01*
X88519124Y-70865643D01*
X88519119Y-70865641D01*
X88519110Y-70865638D01*
X88352699Y-70810494D01*
X88352694Y-70810493D01*
X88249991Y-70800000D01*
X88249986Y-70800000D01*
X87900000Y-70800000D01*
X87900000Y-72800000D01*
X87400000Y-72800000D01*
X87400000Y-70800000D01*
X87050037Y-70800000D01*
X87050028Y-70800000D01*
X87050012Y-70800001D01*
X87050002Y-70800001D01*
X87050002Y-70800002D01*
X86947304Y-70810493D01*
X86947302Y-70810494D01*
X86780887Y-70865638D01*
X86780879Y-70865641D01*
X86780877Y-70865642D01*
X86780875Y-70865643D01*
X86681394Y-70927003D01*
X86631652Y-70957685D01*
X86507685Y-71081652D01*
X86415641Y-71230879D01*
X86415638Y-71230888D01*
X86360494Y-71397299D01*
X86360493Y-71397304D01*
X86350000Y-71500007D01*
X84175313Y-71500007D01*
X83499697Y-70405509D01*
X83197592Y-69916100D01*
X83189790Y-69901310D01*
X83184825Y-69890129D01*
X83174158Y-69839814D01*
X83174158Y-69808048D01*
X83179080Y-69773463D01*
X83197765Y-69709156D01*
X83200500Y-69674405D01*
X83200499Y-69325596D01*
X83197765Y-69290844D01*
X83179083Y-69226540D01*
X83174159Y-69191945D01*
X83174159Y-69158054D01*
X83179083Y-69123458D01*
X83186864Y-69096676D01*
X83197765Y-69059156D01*
X83200500Y-69024405D01*
X83200499Y-68675596D01*
X83197765Y-68640844D01*
X83179083Y-68576540D01*
X83174159Y-68541945D01*
X83174159Y-68508054D01*
X83179083Y-68473458D01*
X83186711Y-68447202D01*
X83197765Y-68409156D01*
X83200500Y-68374405D01*
X83200499Y-68025596D01*
X83197765Y-67990844D01*
X83154555Y-67842113D01*
X83075715Y-67708802D01*
X83075714Y-67708801D01*
X83075713Y-67708799D01*
X83075710Y-67708795D01*
X82966209Y-67599294D01*
X82965316Y-67598520D01*
X82964120Y-67597582D01*
X82961462Y-67595403D01*
X82961920Y-67594843D01*
X82948786Y-67583694D01*
X82939436Y-67573679D01*
X82940854Y-67572354D01*
X82937455Y-67566861D01*
X82925806Y-67557336D01*
X82919443Y-67537753D01*
X82908609Y-67520244D01*
X82908516Y-67504121D01*
X82904216Y-67490886D01*
X82908271Y-67461529D01*
X82908255Y-67458674D01*
X82907759Y-67458567D01*
X82908241Y-67456344D01*
X82908239Y-67455822D01*
X82909588Y-67450690D01*
X82909833Y-67450282D01*
X82910585Y-67447881D01*
X82911171Y-67448064D01*
X82926302Y-67422972D01*
X82941809Y-67394557D01*
X82956366Y-67380000D01*
X86695496Y-67380000D01*
X86737968Y-67526195D01*
X86802539Y-67635380D01*
X86820278Y-67665374D01*
X86820285Y-67665383D01*
X86934616Y-67779714D01*
X86934625Y-67779721D01*
X87073804Y-67862031D01*
X87229086Y-67907144D01*
X87229089Y-67907145D01*
X87250000Y-67908789D01*
X87750000Y-67908789D01*
X87770905Y-67907146D01*
X87770907Y-67907145D01*
X87770910Y-67907145D01*
X87926195Y-67862031D01*
X88065374Y-67779721D01*
X88065383Y-67779714D01*
X88179714Y-67665383D01*
X88179721Y-67665374D01*
X88262031Y-67526195D01*
X88304504Y-67380000D01*
X88304503Y-67380000D01*
X87750000Y-67380000D01*
X87750000Y-67908789D01*
X87250000Y-67908789D01*
X87250000Y-67380000D01*
X86695496Y-67380000D01*
X82956366Y-67380000D01*
X82962446Y-67373920D01*
X82990695Y-67352774D01*
X83013785Y-67340166D01*
X83073210Y-67325000D01*
X83185944Y-67325000D01*
X83188425Y-67325000D01*
X83151476Y-67189085D01*
X83151225Y-67188094D01*
X83151291Y-67186315D01*
X83147445Y-67155116D01*
X83147619Y-67146526D01*
X83147366Y-67144476D01*
X83147462Y-67143499D01*
X83147391Y-67142102D01*
X83147601Y-67142091D01*
X83152724Y-67090282D01*
X83180303Y-67007055D01*
X83183173Y-66999279D01*
X83194369Y-66971802D01*
X83194370Y-66971803D01*
X83201980Y-66953127D01*
X83245505Y-66898477D01*
X83251215Y-66894463D01*
X83313072Y-66872274D01*
X86496492Y-66629178D01*
X86502521Y-66628865D01*
X86508613Y-66628699D01*
X86514628Y-66628683D01*
X86587652Y-66630262D01*
G37*
%TD.AperFunction*%
%TD*%
%TA.AperFunction,Conductor*%
%TO.N,+3.3V*%
G36*
X113079007Y-62685834D02*
G01*
X113140885Y-62718284D01*
X113175395Y-62779036D01*
X113171583Y-62848801D01*
X113130657Y-62905430D01*
X113078881Y-62929043D01*
X113002155Y-62944305D01*
X113002147Y-62944307D01*
X112838274Y-63012184D01*
X112838261Y-63012191D01*
X112690780Y-63110736D01*
X112690776Y-63110739D01*
X112565353Y-63236162D01*
X112565350Y-63236166D01*
X112466805Y-63383647D01*
X112466798Y-63383660D01*
X112398921Y-63547533D01*
X112398918Y-63547542D01*
X112364315Y-63721505D01*
X112364315Y-63898896D01*
X112398918Y-64072859D01*
X112398921Y-64072868D01*
X112466798Y-64236741D01*
X112466805Y-64236754D01*
X112565350Y-64384235D01*
X112565353Y-64384239D01*
X112690776Y-64509662D01*
X112690780Y-64509665D01*
X112838261Y-64608210D01*
X112838274Y-64608217D01*
X112940436Y-64650533D01*
X113002149Y-64676095D01*
X113002151Y-64676095D01*
X113002156Y-64676097D01*
X113176119Y-64710700D01*
X113176122Y-64710701D01*
X113176124Y-64710701D01*
X113353508Y-64710701D01*
X113353509Y-64710700D01*
X113411497Y-64699165D01*
X113527473Y-64676097D01*
X113527476Y-64676095D01*
X113527481Y-64676095D01*
X113691362Y-64608214D01*
X113838850Y-64509665D01*
X113964279Y-64384236D01*
X114062828Y-64236748D01*
X114130709Y-64072867D01*
X114132986Y-64061423D01*
X114165314Y-63898896D01*
X114165315Y-63898894D01*
X114165315Y-63721507D01*
X114165314Y-63721505D01*
X114130711Y-63547542D01*
X114130708Y-63547533D01*
X114062831Y-63383660D01*
X114062824Y-63383647D01*
X113964279Y-63236166D01*
X113964276Y-63236162D01*
X113838853Y-63110739D01*
X113775631Y-63068495D01*
X113730827Y-63014882D01*
X113722120Y-62945557D01*
X113752275Y-62882530D01*
X113811718Y-62845811D01*
X113868841Y-62843801D01*
X115805041Y-63231041D01*
X121587514Y-63182036D01*
X121607208Y-63187638D01*
X121627671Y-63188361D01*
X121640129Y-63197003D01*
X121654715Y-63201152D01*
X121668255Y-63216513D01*
X121685081Y-63228185D01*
X121698563Y-63250898D01*
X121700916Y-63253567D01*
X121703103Y-63258531D01*
X121703682Y-63259928D01*
X121751987Y-63376547D01*
X121752140Y-63376777D01*
X121754571Y-63382637D01*
X121754939Y-63386047D01*
X121760259Y-63399789D01*
X122972091Y-68200511D01*
X122969413Y-68270329D01*
X122929413Y-68327616D01*
X122872248Y-68353173D01*
X122443183Y-68424684D01*
X121586761Y-68567420D01*
X121517398Y-68559025D01*
X121463585Y-68514462D01*
X121442407Y-68447879D01*
X121460588Y-68380416D01*
X121501279Y-68339569D01*
X121650845Y-68247315D01*
X121774815Y-68123345D01*
X121866856Y-67974124D01*
X121866858Y-67974119D01*
X121922005Y-67807697D01*
X121922006Y-67807690D01*
X121932499Y-67704986D01*
X121932500Y-67704973D01*
X121932500Y-66855000D01*
X120732501Y-66855000D01*
X120757521Y-66794598D01*
X120782500Y-66669019D01*
X120782500Y-66540981D01*
X120757521Y-66415402D01*
X120732501Y-66355000D01*
X121932499Y-66355000D01*
X121932499Y-65505028D01*
X121932498Y-65505013D01*
X121922005Y-65402302D01*
X121866858Y-65235880D01*
X121866856Y-65235875D01*
X121774815Y-65086654D01*
X121650845Y-64962684D01*
X121501624Y-64870643D01*
X121501619Y-64870641D01*
X121335197Y-64815494D01*
X121335190Y-64815493D01*
X121232486Y-64805000D01*
X120382500Y-64805000D01*
X120382500Y-66004998D01*
X120322098Y-65979979D01*
X120196519Y-65955000D01*
X120068481Y-65955000D01*
X119942902Y-65979979D01*
X119882500Y-66004998D01*
X119882500Y-64805000D01*
X119032528Y-64805000D01*
X119032512Y-64805001D01*
X118929802Y-64815494D01*
X118763380Y-64870641D01*
X118763375Y-64870643D01*
X118614154Y-64962684D01*
X118490184Y-65086654D01*
X118398143Y-65235875D01*
X118398141Y-65235880D01*
X118342994Y-65402302D01*
X118342993Y-65402309D01*
X118332500Y-65505013D01*
X118332500Y-66355000D01*
X119532499Y-66355000D01*
X119507479Y-66415402D01*
X119482500Y-66540981D01*
X119482500Y-66669019D01*
X119507479Y-66794598D01*
X119532499Y-66855000D01*
X118332501Y-66855000D01*
X118332501Y-67704986D01*
X118342994Y-67807697D01*
X118398141Y-67974119D01*
X118398143Y-67974124D01*
X118490184Y-68123345D01*
X118614154Y-68247315D01*
X118763375Y-68339356D01*
X118763380Y-68339358D01*
X118929802Y-68394505D01*
X118929809Y-68394506D01*
X119032519Y-68404999D01*
X119882499Y-68404999D01*
X119882500Y-68404998D01*
X119882500Y-67205001D01*
X119942902Y-67230021D01*
X120068481Y-67255000D01*
X120196519Y-67255000D01*
X120322098Y-67230021D01*
X120382500Y-67205001D01*
X120382500Y-68404999D01*
X121063030Y-68404999D01*
X121130069Y-68424684D01*
X121175824Y-68477488D01*
X121185768Y-68546646D01*
X121156743Y-68610202D01*
X121097965Y-68647976D01*
X121083415Y-68651312D01*
X115805033Y-69531042D01*
X111055041Y-70531041D01*
X110810377Y-75179649D01*
X110787196Y-75245562D01*
X110732060Y-75288478D01*
X110704589Y-75295813D01*
X109743479Y-75437152D01*
X109674289Y-75427430D01*
X109621338Y-75381845D01*
X109601439Y-75314869D01*
X109620908Y-75247767D01*
X109660342Y-75208932D01*
X109768343Y-75142317D01*
X109892315Y-75018345D01*
X109984356Y-74869124D01*
X109984358Y-74869119D01*
X110039505Y-74702697D01*
X110039506Y-74702690D01*
X110049999Y-74599986D01*
X110050000Y-74599973D01*
X110050000Y-73300000D01*
X109000000Y-73300000D01*
X109000000Y-75299999D01*
X109008041Y-75308040D01*
X109047694Y-75319684D01*
X109093449Y-75372488D01*
X109103393Y-75441646D01*
X109074368Y-75505202D01*
X109015590Y-75542976D01*
X108998696Y-75546680D01*
X107471900Y-75771208D01*
X107402710Y-75761486D01*
X107360540Y-75730182D01*
X106371618Y-74599986D01*
X107450001Y-74599986D01*
X107460494Y-74702697D01*
X107515641Y-74869119D01*
X107515643Y-74869124D01*
X107607684Y-75018345D01*
X107731654Y-75142315D01*
X107880875Y-75234356D01*
X107880880Y-75234358D01*
X108047302Y-75289505D01*
X108047309Y-75289506D01*
X108150019Y-75299999D01*
X108499999Y-75299999D01*
X108500000Y-75299998D01*
X108500000Y-73300000D01*
X107450001Y-73300000D01*
X107450001Y-74599986D01*
X106371618Y-74599986D01*
X105305041Y-73381041D01*
X98430829Y-73183221D01*
X98364385Y-73161617D01*
X98322444Y-73112587D01*
X97866213Y-72154502D01*
X97863915Y-72145022D01*
X97860341Y-72139826D01*
X97854229Y-72105065D01*
X97853477Y-72081012D01*
X97871056Y-72013393D01*
X97922405Y-71966011D01*
X97991219Y-71953911D01*
X98055650Y-71980935D01*
X98082955Y-72012043D01*
X98117683Y-72068346D01*
X98241653Y-72192316D01*
X98390874Y-72284357D01*
X98390879Y-72284359D01*
X98557301Y-72339505D01*
X98660017Y-72349999D01*
X101409999Y-72349999D01*
X101910000Y-72349999D01*
X104659974Y-72349999D01*
X104659988Y-72349998D01*
X104762699Y-72339505D01*
X104929120Y-72284359D01*
X104929125Y-72284357D01*
X105078346Y-72192316D01*
X105202316Y-72068346D01*
X105294357Y-71919125D01*
X105294359Y-71919120D01*
X105349505Y-71752698D01*
X105359999Y-71649988D01*
X105360000Y-71649975D01*
X105360000Y-71500013D01*
X107450000Y-71500013D01*
X107450000Y-72800000D01*
X108500000Y-72800000D01*
X109000000Y-72800000D01*
X110049999Y-72800000D01*
X110049999Y-71500028D01*
X110049998Y-71500013D01*
X110039505Y-71397302D01*
X109984358Y-71230880D01*
X109984356Y-71230875D01*
X109892315Y-71081654D01*
X109768345Y-70957684D01*
X109619124Y-70865643D01*
X109619119Y-70865641D01*
X109452697Y-70810494D01*
X109452690Y-70810493D01*
X109349986Y-70800000D01*
X109000000Y-70800000D01*
X109000000Y-72800000D01*
X108500000Y-72800000D01*
X108500000Y-70800000D01*
X108150028Y-70800000D01*
X108150012Y-70800001D01*
X108047302Y-70810494D01*
X107880880Y-70865641D01*
X107880875Y-70865643D01*
X107731654Y-70957684D01*
X107607684Y-71081654D01*
X107515643Y-71230875D01*
X107515641Y-71230880D01*
X107460494Y-71397302D01*
X107460493Y-71397309D01*
X107450000Y-71500013D01*
X105360000Y-71500013D01*
X105360000Y-69607500D01*
X108037996Y-69607500D01*
X108080468Y-69753695D01*
X108162778Y-69892874D01*
X108162785Y-69892883D01*
X108277116Y-70007214D01*
X108277125Y-70007221D01*
X108416304Y-70089531D01*
X108571589Y-70134645D01*
X108592500Y-70136289D01*
X109092500Y-70136289D01*
X109113410Y-70134645D01*
X109268695Y-70089531D01*
X109407874Y-70007221D01*
X109407883Y-70007214D01*
X109522214Y-69892883D01*
X109522221Y-69892874D01*
X109604531Y-69753695D01*
X109647004Y-69607500D01*
X109092500Y-69607500D01*
X109092500Y-70136289D01*
X108592500Y-70136289D01*
X108592500Y-69607500D01*
X108037996Y-69607500D01*
X105360000Y-69607500D01*
X105360000Y-69200000D01*
X101910000Y-69200000D01*
X101910000Y-72349999D01*
X101409999Y-72349999D01*
X101410000Y-72349998D01*
X101410000Y-69200000D01*
X97960001Y-69200000D01*
X97960001Y-70394804D01*
X97940316Y-70461843D01*
X97887512Y-70507598D01*
X97818354Y-70517542D01*
X97755905Y-70489464D01*
X97155041Y-69981041D01*
X96886636Y-69985370D01*
X96819287Y-69966769D01*
X96772687Y-69914710D01*
X96761630Y-69845721D01*
X96789626Y-69781705D01*
X96796959Y-69773701D01*
X96802316Y-69768344D01*
X96894356Y-69619124D01*
X96894358Y-69619119D01*
X96949505Y-69452697D01*
X96949506Y-69452690D01*
X96959999Y-69349986D01*
X96960000Y-69349973D01*
X96960000Y-69200000D01*
X93760001Y-69200000D01*
X93760001Y-69349986D01*
X93770494Y-69452697D01*
X93825641Y-69619119D01*
X93825643Y-69619124D01*
X93917684Y-69768345D01*
X93952998Y-69803659D01*
X93986483Y-69864982D01*
X93981499Y-69934674D01*
X93939627Y-69990607D01*
X93874163Y-70015024D01*
X93855351Y-70014939D01*
X93167769Y-69959496D01*
X93102528Y-69934487D01*
X93061165Y-69878176D01*
X93053799Y-69831910D01*
X93055415Y-69781705D01*
X93125225Y-67611861D01*
X93147055Y-67545490D01*
X93201303Y-67501457D01*
X93251250Y-67491867D01*
X93881841Y-67502496D01*
X93948535Y-67523306D01*
X93967428Y-67538796D01*
X94041344Y-67612712D01*
X94069800Y-67630264D01*
X94190569Y-67704754D01*
X94237294Y-67756702D01*
X94248517Y-67825664D01*
X94220674Y-67889747D01*
X94190570Y-67915831D01*
X94041659Y-68007680D01*
X94041655Y-68007683D01*
X93917684Y-68131654D01*
X93825643Y-68280875D01*
X93825641Y-68280880D01*
X93770494Y-68447302D01*
X93770493Y-68447309D01*
X93760000Y-68550013D01*
X93760000Y-68700000D01*
X96959999Y-68700000D01*
X96959999Y-68550028D01*
X96959998Y-68550013D01*
X96949505Y-68447302D01*
X96894358Y-68280880D01*
X96894356Y-68280875D01*
X96802315Y-68131654D01*
X96678345Y-68007684D01*
X96529429Y-67915832D01*
X96482705Y-67863884D01*
X96471482Y-67794921D01*
X96499326Y-67730839D01*
X96529426Y-67704756D01*
X96678656Y-67612712D01*
X96802712Y-67488656D01*
X96894814Y-67339334D01*
X96949999Y-67172797D01*
X96960500Y-67070009D01*
X96960499Y-66967596D01*
X96970525Y-66918755D01*
X97071980Y-66682021D01*
X97257121Y-66250011D01*
X97960000Y-66250011D01*
X97960000Y-68700000D01*
X101410000Y-68700000D01*
X101910000Y-68700000D01*
X105359999Y-68700000D01*
X105359999Y-68192802D01*
X108032000Y-68192802D01*
X108032000Y-68602197D01*
X108034856Y-68638491D01*
X108034857Y-68638497D01*
X108080004Y-68793890D01*
X108080007Y-68793897D01*
X108092410Y-68814870D01*
X108109593Y-68882594D01*
X108092412Y-68941108D01*
X108080468Y-68961304D01*
X108037996Y-69107500D01*
X108344148Y-69107500D01*
X108407266Y-69124767D01*
X108416105Y-69129994D01*
X108416108Y-69129994D01*
X108416110Y-69129996D01*
X108571502Y-69175142D01*
X108571505Y-69175142D01*
X108571507Y-69175143D01*
X108607810Y-69178000D01*
X108607818Y-69178000D01*
X109077182Y-69178000D01*
X109077190Y-69178000D01*
X109113493Y-69175143D01*
X109113495Y-69175142D01*
X109113497Y-69175142D01*
X109268889Y-69129996D01*
X109268889Y-69129995D01*
X109268895Y-69129994D01*
X109277733Y-69124767D01*
X109340852Y-69107500D01*
X109647005Y-69107500D01*
X109661462Y-69088244D01*
X109661467Y-69086726D01*
X109699409Y-69028056D01*
X109763047Y-68999212D01*
X109780344Y-68998000D01*
X111500285Y-68998000D01*
X111502110Y-68998013D01*
X111517502Y-68998239D01*
X111525943Y-69000501D01*
X111671178Y-69000501D01*
X111672061Y-69000514D01*
X111704639Y-69010603D01*
X111737275Y-69020186D01*
X111738792Y-69021179D01*
X111738803Y-69021183D01*
X111738810Y-69021191D01*
X111739127Y-69021399D01*
X111870814Y-69109390D01*
X111870827Y-69109397D01*
X112016498Y-69169735D01*
X112016503Y-69169737D01*
X112168644Y-69200000D01*
X112171153Y-69200499D01*
X112171156Y-69200500D01*
X112171158Y-69200500D01*
X112328844Y-69200500D01*
X112328845Y-69200499D01*
X112483497Y-69169737D01*
X112629179Y-69109394D01*
X112760289Y-69021789D01*
X112784078Y-68998000D01*
X112876097Y-68905982D01*
X112877430Y-68907315D01*
X112927908Y-68872923D01*
X112997753Y-68871043D01*
X113057526Y-68907223D01*
X113069133Y-68922027D01*
X113093072Y-68957854D01*
X113093078Y-68957862D01*
X113218501Y-69083285D01*
X113218505Y-69083288D01*
X113365986Y-69181833D01*
X113365999Y-69181840D01*
X113488903Y-69232747D01*
X113529874Y-69249718D01*
X113529876Y-69249718D01*
X113529881Y-69249720D01*
X113703844Y-69284323D01*
X113703847Y-69284324D01*
X113703849Y-69284324D01*
X113881233Y-69284324D01*
X113881234Y-69284323D01*
X113939222Y-69272788D01*
X114055198Y-69249720D01*
X114055201Y-69249718D01*
X114055206Y-69249718D01*
X114219087Y-69181837D01*
X114366575Y-69083288D01*
X114492004Y-68957859D01*
X114590553Y-68810371D01*
X114658434Y-68646490D01*
X114667245Y-68602197D01*
X114693039Y-68472519D01*
X114693040Y-68472517D01*
X114693040Y-68295130D01*
X114693039Y-68295128D01*
X114658436Y-68121165D01*
X114658433Y-68121156D01*
X114590556Y-67957283D01*
X114590549Y-67957270D01*
X114492004Y-67809789D01*
X114492001Y-67809785D01*
X114366578Y-67684362D01*
X114366574Y-67684359D01*
X114219093Y-67585814D01*
X114219080Y-67585807D01*
X114055207Y-67517930D01*
X114055198Y-67517927D01*
X113881234Y-67483324D01*
X113881231Y-67483324D01*
X113703849Y-67483324D01*
X113703846Y-67483324D01*
X113529881Y-67517927D01*
X113529872Y-67517930D01*
X113365999Y-67585807D01*
X113365986Y-67585814D01*
X113218505Y-67684359D01*
X113218501Y-67684362D01*
X113093076Y-67809787D01*
X113056370Y-67864721D01*
X113002757Y-67909525D01*
X112933432Y-67918231D01*
X112870405Y-67888075D01*
X112865588Y-67883509D01*
X112760292Y-67778213D01*
X112760288Y-67778210D01*
X112629185Y-67690609D01*
X112629172Y-67690602D01*
X112483501Y-67630264D01*
X112483489Y-67630261D01*
X112328845Y-67599500D01*
X112328842Y-67599500D01*
X112171158Y-67599500D01*
X112171155Y-67599500D01*
X112016510Y-67630261D01*
X112016498Y-67630264D01*
X111870827Y-67690602D01*
X111870814Y-67690609D01*
X111742868Y-67776101D01*
X111724822Y-67781751D01*
X111708913Y-67791976D01*
X111677950Y-67796427D01*
X111676190Y-67796979D01*
X111673978Y-67796999D01*
X111523443Y-67796999D01*
X111523439Y-67796999D01*
X111515832Y-67797000D01*
X111515831Y-67796999D01*
X111515831Y-67797000D01*
X109509167Y-67797000D01*
X109442128Y-67777315D01*
X109421486Y-67760681D01*
X109408192Y-67747387D01*
X109408184Y-67747381D01*
X109312182Y-67690606D01*
X109268895Y-67665006D01*
X109268894Y-67665005D01*
X109268893Y-67665005D01*
X109268890Y-67665004D01*
X109113497Y-67619857D01*
X109113491Y-67619856D01*
X109077197Y-67617000D01*
X109077190Y-67617000D01*
X108607810Y-67617000D01*
X108607802Y-67617000D01*
X108571508Y-67619856D01*
X108571502Y-67619857D01*
X108416109Y-67665004D01*
X108416106Y-67665005D01*
X108276815Y-67747381D01*
X108276807Y-67747387D01*
X108162387Y-67861807D01*
X108162381Y-67861815D01*
X108080005Y-68001106D01*
X108080004Y-68001109D01*
X108034857Y-68156502D01*
X108034856Y-68156508D01*
X108032000Y-68192802D01*
X105359999Y-68192802D01*
X105359999Y-66250026D01*
X105359998Y-66250011D01*
X105359995Y-66249986D01*
X107500001Y-66249986D01*
X107510494Y-66352697D01*
X107565641Y-66519119D01*
X107565643Y-66519124D01*
X107657684Y-66668345D01*
X107781654Y-66792315D01*
X107930875Y-66884356D01*
X107930880Y-66884358D01*
X108097302Y-66939505D01*
X108097309Y-66939506D01*
X108200019Y-66949999D01*
X108549999Y-66949999D01*
X109050000Y-66949999D01*
X109399972Y-66949999D01*
X109399986Y-66949998D01*
X109502697Y-66939505D01*
X109669119Y-66884358D01*
X109669124Y-66884356D01*
X109818345Y-66792315D01*
X109942315Y-66668345D01*
X110034356Y-66519124D01*
X110034358Y-66519119D01*
X110089505Y-66352697D01*
X110089506Y-66352690D01*
X110099999Y-66249986D01*
X110100000Y-66249973D01*
X110100000Y-65697304D01*
X111621500Y-65697304D01*
X111621500Y-65874695D01*
X111656103Y-66048658D01*
X111656106Y-66048667D01*
X111723983Y-66212540D01*
X111723990Y-66212553D01*
X111822535Y-66360034D01*
X111822538Y-66360038D01*
X111947961Y-66485461D01*
X111947965Y-66485464D01*
X112095446Y-66584009D01*
X112095459Y-66584016D01*
X112218363Y-66634923D01*
X112259334Y-66651894D01*
X112259336Y-66651894D01*
X112259341Y-66651896D01*
X112433304Y-66686499D01*
X112433307Y-66686500D01*
X112433309Y-66686500D01*
X112610693Y-66686500D01*
X112610694Y-66686499D01*
X112616870Y-66685270D01*
X112633206Y-66682022D01*
X112633211Y-66682021D01*
X112720586Y-66664640D01*
X112784666Y-66651894D01*
X112948547Y-66584013D01*
X113096035Y-66485464D01*
X113221464Y-66360035D01*
X113320013Y-66212547D01*
X113387894Y-66048666D01*
X113391811Y-66028978D01*
X113422499Y-65874695D01*
X113422500Y-65874693D01*
X113422500Y-65697306D01*
X113422499Y-65697304D01*
X113388438Y-65526065D01*
X113388436Y-65526059D01*
X113387894Y-65523335D01*
X113387893Y-65523332D01*
X113320016Y-65359459D01*
X113320009Y-65359446D01*
X113221464Y-65211965D01*
X113221461Y-65211961D01*
X113096038Y-65086538D01*
X113096034Y-65086535D01*
X112948553Y-64987990D01*
X112948540Y-64987983D01*
X112784667Y-64920106D01*
X112784658Y-64920103D01*
X112610694Y-64885500D01*
X112610691Y-64885500D01*
X112433309Y-64885500D01*
X112433306Y-64885500D01*
X112259341Y-64920103D01*
X112259332Y-64920106D01*
X112095459Y-64987983D01*
X112095446Y-64987990D01*
X111947965Y-65086535D01*
X111947961Y-65086538D01*
X111822538Y-65211961D01*
X111822535Y-65211965D01*
X111723990Y-65359446D01*
X111723983Y-65359459D01*
X111656106Y-65523332D01*
X111656103Y-65523341D01*
X111621500Y-65697304D01*
X110100000Y-65697304D01*
X110100000Y-64950000D01*
X109050000Y-64950000D01*
X109050000Y-66949999D01*
X108549999Y-66949999D01*
X108550000Y-66949998D01*
X108550000Y-64950000D01*
X107500001Y-64950000D01*
X107500001Y-66249986D01*
X105359995Y-66249986D01*
X105349505Y-66147300D01*
X105294359Y-65980879D01*
X105294357Y-65980874D01*
X105202316Y-65831653D01*
X105078346Y-65707683D01*
X104929125Y-65615642D01*
X104929120Y-65615640D01*
X104762698Y-65560494D01*
X104659988Y-65550000D01*
X101910000Y-65550000D01*
X101910000Y-68700000D01*
X101410000Y-68700000D01*
X101410000Y-65550000D01*
X98660026Y-65550000D01*
X98660010Y-65550001D01*
X98557300Y-65560494D01*
X98390879Y-65615640D01*
X98390874Y-65615642D01*
X98241653Y-65707683D01*
X98117683Y-65831653D01*
X98025642Y-65980874D01*
X98025640Y-65980879D01*
X97970494Y-66147301D01*
X97960000Y-66250011D01*
X97257121Y-66250011D01*
X97627380Y-65386045D01*
X97671881Y-65332181D01*
X97699257Y-65318255D01*
X103707176Y-63150013D01*
X107500000Y-63150013D01*
X107500000Y-64450000D01*
X108550000Y-64450000D01*
X109050000Y-64450000D01*
X110099999Y-64450000D01*
X110099999Y-63150028D01*
X110099998Y-63150013D01*
X110089505Y-63047302D01*
X110034358Y-62880880D01*
X110034356Y-62880875D01*
X109942315Y-62731654D01*
X109818345Y-62607684D01*
X109669124Y-62515643D01*
X109669119Y-62515641D01*
X109502697Y-62460494D01*
X109502690Y-62460493D01*
X109399986Y-62450000D01*
X109050000Y-62450000D01*
X109050000Y-64450000D01*
X108550000Y-64450000D01*
X108550000Y-62450000D01*
X108200028Y-62450000D01*
X108200012Y-62450001D01*
X108097302Y-62460494D01*
X107930880Y-62515641D01*
X107930875Y-62515643D01*
X107781654Y-62607684D01*
X107657684Y-62731654D01*
X107565643Y-62880875D01*
X107565641Y-62880880D01*
X107510494Y-63047302D01*
X107510493Y-63047309D01*
X107500000Y-63150013D01*
X103707176Y-63150013D01*
X107843957Y-61657060D01*
X107910365Y-61652106D01*
X113079007Y-62685834D01*
G37*
%TD.AperFunction*%
%TD*%
%TA.AperFunction,Conductor*%
%TO.N,GND*%
G36*
X87426886Y-69203382D02*
G01*
X87455862Y-69209145D01*
X87479233Y-69213793D01*
X87502493Y-69220848D01*
X87551814Y-69241278D01*
X87573251Y-69252736D01*
X87573254Y-69252738D01*
X87617645Y-69282399D01*
X87617647Y-69282400D01*
X87636438Y-69297822D01*
X87674175Y-69335559D01*
X87689595Y-69354348D01*
X87736117Y-69423971D01*
X87736121Y-69423976D01*
X87736125Y-69423982D01*
X87782205Y-69476209D01*
X87814282Y-69512565D01*
X87828333Y-69542618D01*
X87843263Y-69572227D01*
X87843064Y-69574126D01*
X87843874Y-69575858D01*
X87839445Y-69608744D01*
X87835999Y-69641718D01*
X87834760Y-69643542D01*
X87834550Y-69645103D01*
X87818079Y-69672125D01*
X87813110Y-69678328D01*
X87799526Y-69691436D01*
X87775946Y-69717685D01*
X87731693Y-69774648D01*
X87713056Y-69802539D01*
X87713031Y-69802576D01*
X87710245Y-69806745D01*
X87710233Y-69806761D01*
X87704707Y-69815035D01*
X87704699Y-69815046D01*
X87689596Y-69837648D01*
X87674177Y-69856436D01*
X87636435Y-69894178D01*
X87617645Y-69909599D01*
X87573256Y-69939259D01*
X87551819Y-69950717D01*
X87551817Y-69950718D01*
X87502501Y-69971145D01*
X87479242Y-69978201D01*
X87452870Y-69983447D01*
X87426877Y-69988617D01*
X87402688Y-69991000D01*
X87349309Y-69991000D01*
X87325118Y-69988617D01*
X87308784Y-69985368D01*
X87272760Y-69978202D01*
X87249500Y-69971146D01*
X87200179Y-69950717D01*
X87178740Y-69939258D01*
X87134352Y-69909599D01*
X87115562Y-69894178D01*
X87106384Y-69885000D01*
X87077816Y-69856431D01*
X87062400Y-69837648D01*
X87038818Y-69802355D01*
X87032736Y-69793252D01*
X87021278Y-69771814D01*
X87000851Y-69722498D01*
X86993794Y-69699236D01*
X86983382Y-69646888D01*
X86981000Y-69622698D01*
X86981000Y-69543742D01*
X86981000Y-69543736D01*
X86976271Y-69490892D01*
X86977741Y-69483501D01*
X86975831Y-69476209D01*
X86984465Y-69449703D01*
X86989903Y-69422368D01*
X86995676Y-69415286D01*
X86997472Y-69409775D01*
X87015485Y-69390990D01*
X87021357Y-69383790D01*
X87023374Y-69382142D01*
X87025724Y-69380384D01*
X87039794Y-69369459D01*
X87042605Y-69366441D01*
X87049146Y-69361102D01*
X87054568Y-69358815D01*
X87080227Y-69333155D01*
X87115562Y-69297819D01*
X87134347Y-69282401D01*
X87178749Y-69252732D01*
X87200169Y-69241283D01*
X87249501Y-69220850D01*
X87272754Y-69213796D01*
X87325113Y-69203381D01*
X87349303Y-69201000D01*
X87402698Y-69201000D01*
X87426886Y-69203382D01*
G37*
%TD.AperFunction*%
%TA.AperFunction,Conductor*%
G36*
X89204886Y-69203382D02*
G01*
X89233862Y-69209145D01*
X89257233Y-69213793D01*
X89280496Y-69220850D01*
X89329811Y-69241277D01*
X89329814Y-69241278D01*
X89351250Y-69252735D01*
X89395648Y-69282401D01*
X89414438Y-69297822D01*
X89483317Y-69366701D01*
X89483329Y-69366712D01*
X89543361Y-69417339D01*
X89548777Y-69421906D01*
X89582943Y-69446082D01*
X89630984Y-69474296D01*
X89643448Y-69481616D01*
X89664455Y-69503978D01*
X89687010Y-69524789D01*
X89688159Y-69529209D01*
X89691287Y-69532539D01*
X89696870Y-69562710D01*
X89704593Y-69592410D01*
X89703169Y-69596750D01*
X89704001Y-69601242D01*
X89692385Y-69629643D01*
X89682825Y-69658803D01*
X89678951Y-69662490D01*
X89677552Y-69665913D01*
X89658891Y-69684742D01*
X89652653Y-69689814D01*
X89565962Y-69743367D01*
X89555309Y-69752270D01*
X89503404Y-69802355D01*
X89479829Y-69828601D01*
X89479185Y-69829429D01*
X89471355Y-69837258D01*
X89471345Y-69837267D01*
X89414435Y-69894178D01*
X89395645Y-69909599D01*
X89351256Y-69939259D01*
X89329817Y-69950718D01*
X89280501Y-69971145D01*
X89257242Y-69978201D01*
X89230870Y-69983447D01*
X89204877Y-69988617D01*
X89180688Y-69991000D01*
X89127309Y-69991000D01*
X89103118Y-69988617D01*
X89086784Y-69985368D01*
X89050760Y-69978202D01*
X89027500Y-69971146D01*
X88978179Y-69950717D01*
X88956740Y-69939258D01*
X88912352Y-69909599D01*
X88893562Y-69894178D01*
X88855820Y-69856436D01*
X88840398Y-69837644D01*
X88793881Y-69768024D01*
X88793877Y-69768019D01*
X88715716Y-69679429D01*
X88686124Y-69616135D01*
X88695449Y-69546891D01*
X88722599Y-69508157D01*
X88730481Y-69500553D01*
X88754065Y-69474298D01*
X88798313Y-69417339D01*
X88840406Y-69354342D01*
X88855816Y-69335565D01*
X88893566Y-69297815D01*
X88912351Y-69282399D01*
X88956743Y-69252737D01*
X88978174Y-69241281D01*
X89027501Y-69220850D01*
X89050754Y-69213796D01*
X89103113Y-69203381D01*
X89127303Y-69201000D01*
X89180698Y-69201000D01*
X89204886Y-69203382D01*
G37*
%TD.AperFunction*%
%TA.AperFunction,Conductor*%
G36*
X91113951Y-69143728D02*
G01*
X91172729Y-69181503D01*
X91201752Y-69245059D01*
X91191811Y-69314211D01*
X91178429Y-69343516D01*
X91178428Y-69343517D01*
X91174516Y-69356840D01*
X91174512Y-69356853D01*
X91159184Y-69427318D01*
X91150938Y-69484673D01*
X91151489Y-69486148D01*
X91151744Y-69498923D01*
X91151486Y-69507100D01*
X91149149Y-69521290D01*
X91149123Y-69522558D01*
X91149017Y-69532921D01*
X91149017Y-69585364D01*
X91148955Y-69587330D01*
X91148493Y-69588736D01*
X91146634Y-69607612D01*
X91136220Y-69659964D01*
X91129164Y-69683225D01*
X91108734Y-69732547D01*
X91097275Y-69753985D01*
X91067616Y-69798373D01*
X91052195Y-69817163D01*
X91014452Y-69854906D01*
X90995662Y-69870327D01*
X90951273Y-69899987D01*
X90929834Y-69911446D01*
X90880518Y-69931873D01*
X90857259Y-69938929D01*
X90830887Y-69944175D01*
X90804894Y-69949345D01*
X90780705Y-69951728D01*
X90727327Y-69951728D01*
X90703135Y-69949345D01*
X90650772Y-69938929D01*
X90627512Y-69931873D01*
X90578198Y-69911447D01*
X90556765Y-69899991D01*
X90512368Y-69870327D01*
X90493582Y-69854908D01*
X90424693Y-69786019D01*
X90424683Y-69786010D01*
X90359233Y-69730814D01*
X90359222Y-69730806D01*
X90325078Y-69706646D01*
X90325065Y-69706638D01*
X90264564Y-69671107D01*
X90243555Y-69648744D01*
X90221001Y-69627933D01*
X90219851Y-69623512D01*
X90216725Y-69620184D01*
X90211141Y-69590012D01*
X90203419Y-69560311D01*
X90204841Y-69555971D01*
X90204011Y-69551481D01*
X90215626Y-69523080D01*
X90225188Y-69493919D01*
X90229060Y-69490231D01*
X90230460Y-69486811D01*
X90249122Y-69467980D01*
X90255351Y-69462914D01*
X90342021Y-69409383D01*
X90352667Y-69400487D01*
X90404563Y-69350420D01*
X90428149Y-69324167D01*
X90428806Y-69323320D01*
X90493585Y-69258540D01*
X90512371Y-69243125D01*
X90556760Y-69213465D01*
X90578191Y-69202009D01*
X90627518Y-69181578D01*
X90650771Y-69174524D01*
X90703130Y-69164109D01*
X90727320Y-69161728D01*
X90807948Y-69161728D01*
X90821753Y-69162499D01*
X90849701Y-69165630D01*
X90849703Y-69165630D01*
X90849712Y-69165631D01*
X90891547Y-69166751D01*
X90915970Y-69165331D01*
X90915970Y-69165365D01*
X90915975Y-69165365D01*
X90918491Y-69165185D01*
X90977046Y-69161782D01*
X90978527Y-69161568D01*
X90979097Y-69161487D01*
X90981839Y-69161289D01*
X90983685Y-69160964D01*
X90992234Y-69159762D01*
X91008492Y-69158050D01*
X91012373Y-69156278D01*
X91015771Y-69153339D01*
X91032246Y-69147201D01*
X91044084Y-69143726D01*
X91113951Y-69143728D01*
G37*
%TD.AperFunction*%
%TA.AperFunction,Conductor*%
G36*
X85648886Y-68441382D02*
G01*
X85683917Y-68448349D01*
X85701233Y-68451793D01*
X85724496Y-68458850D01*
X85773811Y-68479277D01*
X85773814Y-68479278D01*
X85795250Y-68490735D01*
X85839649Y-68520401D01*
X85858438Y-68535822D01*
X85896176Y-68573561D01*
X85911594Y-68592347D01*
X85917315Y-68600909D01*
X85941259Y-68636742D01*
X85952717Y-68658180D01*
X85966162Y-68690639D01*
X85973147Y-68707501D01*
X85980203Y-68730762D01*
X85990617Y-68783115D01*
X85993000Y-68807307D01*
X85993000Y-68886263D01*
X85993896Y-68896277D01*
X85997727Y-68939109D01*
X85996848Y-68943522D01*
X85998198Y-68947816D01*
X85990093Y-68977478D01*
X85984093Y-69007636D01*
X85980635Y-69012091D01*
X85979782Y-69015215D01*
X85969346Y-69026638D01*
X85957177Y-69042320D01*
X85953013Y-69046067D01*
X85948271Y-69049618D01*
X85948592Y-69050047D01*
X85914762Y-69080498D01*
X85912665Y-69081503D01*
X85906120Y-69087598D01*
X85893781Y-69096835D01*
X85893773Y-69096842D01*
X85858434Y-69132180D01*
X85839647Y-69147598D01*
X85795257Y-69177259D01*
X85773817Y-69188718D01*
X85724501Y-69209145D01*
X85701242Y-69216201D01*
X85677872Y-69220850D01*
X85648877Y-69226617D01*
X85624688Y-69229000D01*
X85571310Y-69229000D01*
X85547118Y-69226617D01*
X85494755Y-69216201D01*
X85471496Y-69209145D01*
X85422180Y-69188718D01*
X85400743Y-69177260D01*
X85356352Y-69147599D01*
X85337562Y-69132178D01*
X85325075Y-69119691D01*
X85299816Y-69094431D01*
X85284400Y-69075648D01*
X85269632Y-69053546D01*
X85254736Y-69031252D01*
X85243278Y-69009814D01*
X85222851Y-68960498D01*
X85215794Y-68937236D01*
X85205382Y-68884888D01*
X85203000Y-68860698D01*
X85203000Y-68807298D01*
X85205382Y-68783110D01*
X85209017Y-68764832D01*
X85215794Y-68730758D01*
X85222848Y-68707502D01*
X85243280Y-68658177D01*
X85254729Y-68636754D01*
X85284408Y-68592337D01*
X85299815Y-68573565D01*
X85337570Y-68535811D01*
X85356343Y-68520404D01*
X85400745Y-68490735D01*
X85422174Y-68479281D01*
X85471501Y-68458850D01*
X85494754Y-68451796D01*
X85547113Y-68441381D01*
X85571303Y-68439000D01*
X85624698Y-68439000D01*
X85648886Y-68441382D01*
G37*
%TD.AperFunction*%
%TA.AperFunction,Conductor*%
G36*
X92565484Y-67777480D02*
G01*
X92604916Y-67835159D01*
X92610917Y-67877453D01*
X92605601Y-68042699D01*
X92599309Y-68238278D01*
X92586198Y-68645786D01*
X92564368Y-68712158D01*
X92510120Y-68756191D01*
X92446810Y-68764832D01*
X92426900Y-68762331D01*
X92426897Y-68762331D01*
X92284874Y-68785345D01*
X92218190Y-68806226D01*
X92191953Y-68818776D01*
X92185899Y-68821475D01*
X92053242Y-68876422D01*
X92029983Y-68883478D01*
X92003611Y-68888724D01*
X91977618Y-68893894D01*
X91953429Y-68896277D01*
X91872827Y-68896277D01*
X91859018Y-68895506D01*
X91853093Y-68894842D01*
X91831067Y-68892373D01*
X91814788Y-68891937D01*
X91789220Y-68891252D01*
X91789216Y-68891252D01*
X91789209Y-68891252D01*
X91789207Y-68891252D01*
X91703759Y-68896214D01*
X91703731Y-68896217D01*
X91700691Y-68896654D01*
X91700684Y-68896655D01*
X91692837Y-68897784D01*
X91692823Y-68897786D01*
X91635733Y-68914550D01*
X91634679Y-68914841D01*
X91600733Y-68914272D01*
X91566810Y-68914272D01*
X91565901Y-68913688D01*
X91564819Y-68913670D01*
X91536576Y-68894842D01*
X91508032Y-68876499D01*
X91507582Y-68875514D01*
X91506683Y-68874915D01*
X91493114Y-68843834D01*
X91479006Y-68812943D01*
X91479160Y-68811871D01*
X91478728Y-68810882D01*
X91484115Y-68777401D01*
X91488948Y-68743787D01*
X91502321Y-68714510D01*
X91506232Y-68701193D01*
X91521566Y-68630723D01*
X91526591Y-68595789D01*
X91529435Y-68542541D01*
X91531741Y-68523810D01*
X91531741Y-68472436D01*
X91531814Y-68470314D01*
X91532307Y-68468825D01*
X91534123Y-68450387D01*
X91537933Y-68431230D01*
X91544535Y-68398035D01*
X91551591Y-68374776D01*
X91552509Y-68372560D01*
X91572021Y-68325454D01*
X91583470Y-68304031D01*
X91613149Y-68259614D01*
X91628556Y-68240842D01*
X91666311Y-68203088D01*
X91685084Y-68187681D01*
X91729486Y-68158012D01*
X91750919Y-68146556D01*
X91800243Y-68126126D01*
X91823495Y-68119073D01*
X91901823Y-68103493D01*
X91911831Y-68101925D01*
X91930754Y-68099754D01*
X91987644Y-68089905D01*
X91995962Y-68087970D01*
X92117324Y-68042699D01*
X92117325Y-68042699D01*
X92134234Y-68033777D01*
X92173069Y-68013286D01*
X92278943Y-67938658D01*
X92370030Y-67827282D01*
X92380802Y-67809422D01*
X92432280Y-67762185D01*
X92501128Y-67750276D01*
X92565484Y-67777480D01*
G37*
%TD.AperFunction*%
%TA.AperFunction,Conductor*%
G36*
X113843418Y-67991206D02*
G01*
X113858975Y-67994300D01*
X113895781Y-68001621D01*
X113919041Y-68008677D01*
X113968357Y-68029104D01*
X113989796Y-68040563D01*
X114034182Y-68070221D01*
X114052972Y-68085642D01*
X114090718Y-68123388D01*
X114106135Y-68142172D01*
X114135800Y-68186568D01*
X114147258Y-68208005D01*
X114167687Y-68257328D01*
X114174742Y-68280584D01*
X114177403Y-68293958D01*
X114184233Y-68328295D01*
X114185157Y-68332937D01*
X114187540Y-68357131D01*
X114187540Y-68410512D01*
X114185157Y-68434705D01*
X114174741Y-68487065D01*
X114167685Y-68510324D01*
X114147257Y-68559642D01*
X114135798Y-68581081D01*
X114106139Y-68625469D01*
X114090718Y-68644259D01*
X114052975Y-68682002D01*
X114034184Y-68697424D01*
X113989800Y-68727080D01*
X113968362Y-68738538D01*
X113919032Y-68758971D01*
X113895773Y-68766027D01*
X113843420Y-68776441D01*
X113819231Y-68778824D01*
X113765852Y-68778824D01*
X113741659Y-68776441D01*
X113727076Y-68773540D01*
X113689294Y-68766024D01*
X113666037Y-68758969D01*
X113616720Y-68738542D01*
X113595282Y-68727083D01*
X113550893Y-68697423D01*
X113532107Y-68682005D01*
X113491545Y-68641444D01*
X113478809Y-68626513D01*
X113478697Y-68626359D01*
X113466939Y-68610129D01*
X113466926Y-68610111D01*
X113455337Y-68595331D01*
X113430521Y-68566041D01*
X113430509Y-68566030D01*
X113377415Y-68522468D01*
X113331807Y-68485048D01*
X113320243Y-68468076D01*
X113304964Y-68454351D01*
X113300969Y-68439787D01*
X113292467Y-68427309D01*
X113291914Y-68406778D01*
X113286481Y-68386971D01*
X113290993Y-68372560D01*
X113290587Y-68357464D01*
X113301223Y-68339892D01*
X113307360Y-68320294D01*
X113324914Y-68300751D01*
X113326767Y-68297691D01*
X113330946Y-68294037D01*
X113333344Y-68292033D01*
X113380523Y-68252606D01*
X113380529Y-68252601D01*
X113476677Y-68145563D01*
X113478935Y-68142183D01*
X113494357Y-68123388D01*
X113532104Y-68085641D01*
X113550883Y-68070229D01*
X113595286Y-68040559D01*
X113616720Y-68029104D01*
X113654909Y-68013286D01*
X113666043Y-68008674D01*
X113689301Y-68001619D01*
X113715684Y-67996371D01*
X113741656Y-67991206D01*
X113765844Y-67988824D01*
X113819229Y-67988824D01*
X113843418Y-67991206D01*
G37*
%TD.AperFunction*%
%TA.AperFunction,Conductor*%
G36*
X112291027Y-68107381D02*
G01*
X112324079Y-68113956D01*
X112347325Y-68121006D01*
X112378458Y-68133902D01*
X112399890Y-68145359D01*
X112427895Y-68164072D01*
X112446684Y-68179491D01*
X112480647Y-68213453D01*
X112508147Y-68240953D01*
X112517832Y-68250382D01*
X112522649Y-68254948D01*
X112527240Y-68259185D01*
X112532597Y-68264128D01*
X112532603Y-68264133D01*
X112577238Y-68293958D01*
X112592859Y-68312649D01*
X112611533Y-68328295D01*
X112614864Y-68338981D01*
X112622043Y-68347571D01*
X112625078Y-68371741D01*
X112632329Y-68394998D01*
X112629354Y-68405789D01*
X112630749Y-68416896D01*
X112620236Y-68438868D01*
X112613762Y-68462355D01*
X112604240Y-68472300D01*
X112600593Y-68479923D01*
X112591095Y-68489409D01*
X112561920Y-68515551D01*
X112560476Y-68516239D01*
X112553481Y-68522468D01*
X112518667Y-68548528D01*
X112518648Y-68548545D01*
X112446685Y-68620506D01*
X112427897Y-68635925D01*
X112399888Y-68654640D01*
X112378450Y-68666099D01*
X112347331Y-68678989D01*
X112324071Y-68686045D01*
X112307340Y-68689373D01*
X112291031Y-68692617D01*
X112266841Y-68695000D01*
X112233159Y-68695000D01*
X112208970Y-68692617D01*
X112175924Y-68686044D01*
X112152667Y-68678988D01*
X112121547Y-68666098D01*
X112100109Y-68654640D01*
X112057781Y-68626357D01*
X112056782Y-68625162D01*
X112015514Y-68598148D01*
X112015400Y-68598073D01*
X111997265Y-68586173D01*
X111992060Y-68584645D01*
X111987863Y-68584304D01*
X111980808Y-68581341D01*
X111960802Y-68572204D01*
X111953786Y-68568728D01*
X111911555Y-68546117D01*
X111878042Y-68533930D01*
X111868712Y-68531938D01*
X111851524Y-68526890D01*
X111849788Y-68526366D01*
X111827669Y-68519517D01*
X111769452Y-68480884D01*
X111741363Y-68416909D01*
X111752321Y-68347904D01*
X111798846Y-68295778D01*
X111837990Y-68279899D01*
X111851348Y-68276994D01*
X111880217Y-68263807D01*
X111892296Y-68259185D01*
X111892259Y-68259076D01*
X111893877Y-68258518D01*
X111893905Y-68258510D01*
X111893921Y-68258504D01*
X111937884Y-68237470D01*
X111982224Y-68217219D01*
X111988083Y-68213453D01*
X112023712Y-68196407D01*
X112100119Y-68145351D01*
X112121544Y-68133900D01*
X112152669Y-68121008D01*
X112175918Y-68113955D01*
X112208970Y-68107381D01*
X112233154Y-68105000D01*
X112266842Y-68105000D01*
X112291027Y-68107381D01*
G37*
%TD.AperFunction*%
%TA.AperFunction,Conductor*%
G36*
X112572878Y-65393382D02*
G01*
X112588435Y-65396476D01*
X112625241Y-65403797D01*
X112648501Y-65410853D01*
X112697817Y-65431280D01*
X112719256Y-65442739D01*
X112763642Y-65472397D01*
X112782432Y-65487818D01*
X112820178Y-65525564D01*
X112835595Y-65544348D01*
X112865260Y-65588744D01*
X112876714Y-65610174D01*
X112897147Y-65659502D01*
X112897148Y-65659504D01*
X112904203Y-65682762D01*
X112913139Y-65727685D01*
X112914617Y-65735112D01*
X112917000Y-65759305D01*
X112917000Y-65812692D01*
X112914617Y-65836884D01*
X112904203Y-65889236D01*
X112897147Y-65912497D01*
X112876717Y-65961819D01*
X112865258Y-65983257D01*
X112835599Y-66027645D01*
X112820178Y-66046435D01*
X112782435Y-66084178D01*
X112763645Y-66099599D01*
X112719257Y-66129258D01*
X112697818Y-66140717D01*
X112648500Y-66161145D01*
X112625242Y-66168201D01*
X112616204Y-66169999D01*
X112572881Y-66178617D01*
X112548689Y-66181000D01*
X112495312Y-66181000D01*
X112471119Y-66178617D01*
X112456536Y-66175716D01*
X112418754Y-66168200D01*
X112395497Y-66161145D01*
X112346180Y-66140718D01*
X112324740Y-66129258D01*
X112280357Y-66099602D01*
X112261567Y-66084181D01*
X112223819Y-66046433D01*
X112208403Y-66027650D01*
X112178733Y-65983246D01*
X112167280Y-65961819D01*
X112146849Y-65912492D01*
X112139795Y-65889237D01*
X112129382Y-65836883D01*
X112127000Y-65812694D01*
X112127000Y-65759303D01*
X112129382Y-65735114D01*
X112139794Y-65682765D01*
X112146851Y-65659502D01*
X112167281Y-65610179D01*
X112178740Y-65588740D01*
X112208397Y-65544355D01*
X112223813Y-65525570D01*
X112261569Y-65487814D01*
X112280342Y-65472406D01*
X112324752Y-65442732D01*
X112346171Y-65431283D01*
X112395509Y-65410847D01*
X112418761Y-65403795D01*
X112445144Y-65398547D01*
X112471116Y-65393382D01*
X112495304Y-65391000D01*
X112548689Y-65391000D01*
X112572878Y-65393382D01*
G37*
%TD.AperFunction*%
%TA.AperFunction,Conductor*%
G36*
X113411600Y-63414078D02*
G01*
X113434950Y-63435052D01*
X113494788Y-63488802D01*
X113506459Y-63496600D01*
X113506465Y-63496604D01*
X113525256Y-63512026D01*
X113562990Y-63549760D01*
X113578411Y-63568550D01*
X113608073Y-63612942D01*
X113619533Y-63634382D01*
X113639962Y-63683704D01*
X113647017Y-63706961D01*
X113657432Y-63759314D01*
X113659815Y-63783508D01*
X113659815Y-63836889D01*
X113657432Y-63861082D01*
X113647016Y-63913442D01*
X113639960Y-63936700D01*
X113639960Y-63936701D01*
X113619532Y-63986019D01*
X113608073Y-64007458D01*
X113578414Y-64051846D01*
X113562993Y-64070636D01*
X113525250Y-64108379D01*
X113506459Y-64123801D01*
X113462075Y-64153457D01*
X113440637Y-64164915D01*
X113391307Y-64185348D01*
X113368048Y-64192404D01*
X113315695Y-64202818D01*
X113291506Y-64205201D01*
X113238127Y-64205201D01*
X113213934Y-64202818D01*
X113199351Y-64199917D01*
X113161569Y-64192401D01*
X113138312Y-64185346D01*
X113088995Y-64164919D01*
X113067555Y-64153459D01*
X113023172Y-64123803D01*
X113023170Y-64123801D01*
X113004382Y-64108382D01*
X112966634Y-64070634D01*
X112951218Y-64051851D01*
X112921548Y-64007447D01*
X112910097Y-63986025D01*
X112889664Y-63936693D01*
X112882610Y-63913438D01*
X112872197Y-63861084D01*
X112869815Y-63836895D01*
X112869815Y-63783504D01*
X112872197Y-63759315D01*
X112882609Y-63706966D01*
X112889666Y-63683703D01*
X112910096Y-63634380D01*
X112921555Y-63612941D01*
X112951212Y-63568556D01*
X112966628Y-63549771D01*
X113004384Y-63512015D01*
X113023157Y-63496607D01*
X113067567Y-63466933D01*
X113088976Y-63455489D01*
X113138328Y-63435047D01*
X113161573Y-63427997D01*
X113177503Y-63424829D01*
X113288636Y-63388970D01*
X113288635Y-63388970D01*
X113290660Y-63388317D01*
X113360505Y-63386464D01*
X113411600Y-63414078D01*
G37*
%TD.AperFunction*%
%TA.AperFunction,Conductor*%
G36*
X107564348Y-57155521D02*
G01*
X107577667Y-57159432D01*
X107592680Y-57169081D01*
X107609800Y-57174113D01*
X107621458Y-57187575D01*
X107636445Y-57197206D01*
X107643859Y-57213440D01*
X107655541Y-57226929D01*
X107665456Y-57260728D01*
X107665471Y-57260761D01*
X107665476Y-57260796D01*
X107665571Y-57261458D01*
X107659406Y-57321327D01*
X107657129Y-57327609D01*
X107646090Y-57350451D01*
X107565642Y-57480876D01*
X107565642Y-57480877D01*
X107565638Y-57480888D01*
X107510494Y-57647299D01*
X107510493Y-57647304D01*
X107500000Y-57750007D01*
X107500000Y-57750010D01*
X107500000Y-57750013D01*
X107500000Y-59050000D01*
X110099999Y-59050000D01*
X110099999Y-57750028D01*
X110099998Y-57750013D01*
X110089505Y-57647302D01*
X110034358Y-57480880D01*
X110034356Y-57480875D01*
X109956573Y-57354768D01*
X109942510Y-57322400D01*
X109938847Y-57309013D01*
X109940140Y-57239156D01*
X109978993Y-57181090D01*
X109979619Y-57180568D01*
X110033732Y-57154453D01*
X110040281Y-57153092D01*
X110065504Y-57150500D01*
X129707671Y-57150500D01*
X129742606Y-57155523D01*
X129757604Y-57159927D01*
X129816355Y-57197672D01*
X129816379Y-57197700D01*
X129816382Y-57197702D01*
X129816383Y-57197704D01*
X129817542Y-57199041D01*
X129845018Y-57253902D01*
X129846663Y-57261460D01*
X129849500Y-57287831D01*
X129849500Y-82782670D01*
X129849499Y-82782676D01*
X129849500Y-82782679D01*
X129844475Y-82817614D01*
X129840070Y-82832612D01*
X129802327Y-82891355D01*
X129802292Y-82891385D01*
X129802291Y-82891387D01*
X129802289Y-82891387D01*
X129800958Y-82892542D01*
X129746097Y-82920018D01*
X129738539Y-82921663D01*
X129712168Y-82924500D01*
X71842330Y-82924500D01*
X71842325Y-82924499D01*
X71842323Y-82924500D01*
X71807389Y-82919475D01*
X71792390Y-82915070D01*
X71733644Y-82877327D01*
X71733615Y-82877293D01*
X71733614Y-82877293D01*
X71733613Y-82877291D01*
X71732457Y-82875958D01*
X71704977Y-82821083D01*
X71703332Y-82813521D01*
X71700500Y-82787168D01*
X71700500Y-79999995D01*
X86350001Y-79999995D01*
X86360493Y-80102694D01*
X86360493Y-80102695D01*
X86360494Y-80102697D01*
X86415641Y-80269119D01*
X86415643Y-80269124D01*
X86507684Y-80418345D01*
X86631654Y-80542315D01*
X86780875Y-80634356D01*
X86780880Y-80634358D01*
X86947299Y-80689504D01*
X86947300Y-80689504D01*
X86947302Y-80689505D01*
X86947309Y-80689506D01*
X87050019Y-80699999D01*
X87399999Y-80699999D01*
X87900000Y-80699999D01*
X88249960Y-80699999D01*
X88249972Y-80699999D01*
X88249986Y-80699998D01*
X88352697Y-80689505D01*
X88519119Y-80634358D01*
X88519124Y-80634356D01*
X88668345Y-80542315D01*
X88792315Y-80418345D01*
X88884356Y-80269124D01*
X88884358Y-80269119D01*
X88939505Y-80102697D01*
X88939506Y-80102690D01*
X88949998Y-79999995D01*
X107450001Y-79999995D01*
X107460493Y-80102694D01*
X107460493Y-80102695D01*
X107460494Y-80102697D01*
X107515641Y-80269119D01*
X107515643Y-80269124D01*
X107607684Y-80418345D01*
X107731654Y-80542315D01*
X107880875Y-80634356D01*
X107880880Y-80634358D01*
X108047299Y-80689504D01*
X108047300Y-80689504D01*
X108047302Y-80689505D01*
X108047309Y-80689506D01*
X108150019Y-80699999D01*
X108499999Y-80699999D01*
X109000000Y-80699999D01*
X109349960Y-80699999D01*
X109349972Y-80699999D01*
X109349986Y-80699998D01*
X109452697Y-80689505D01*
X109619119Y-80634358D01*
X109619124Y-80634356D01*
X109768345Y-80542315D01*
X109892315Y-80418345D01*
X109984356Y-80269124D01*
X109984358Y-80269119D01*
X110039505Y-80102697D01*
X110039506Y-80102690D01*
X110049999Y-79999986D01*
X110050000Y-79999973D01*
X110050000Y-78700000D01*
X109000000Y-78700000D01*
X109000000Y-80699999D01*
X108499999Y-80699999D01*
X108500000Y-80699998D01*
X108500000Y-78700000D01*
X107450001Y-78700000D01*
X107450001Y-79999995D01*
X88949998Y-79999995D01*
X88949999Y-79999986D01*
X88950000Y-79999973D01*
X88950000Y-78700000D01*
X87900000Y-78700000D01*
X87900000Y-80699999D01*
X87399999Y-80699999D01*
X87400000Y-80699998D01*
X87400000Y-78700000D01*
X86350001Y-78700000D01*
X86350001Y-79999995D01*
X71700500Y-79999995D01*
X71700500Y-72849995D01*
X78200001Y-72849995D01*
X78210493Y-72952694D01*
X78210493Y-72952695D01*
X78210494Y-72952697D01*
X78265641Y-73119119D01*
X78265643Y-73119124D01*
X78357684Y-73268345D01*
X78481654Y-73392315D01*
X78630875Y-73484356D01*
X78630880Y-73484358D01*
X78797299Y-73539504D01*
X78797300Y-73539504D01*
X78797302Y-73539505D01*
X78797309Y-73539506D01*
X78900019Y-73549999D01*
X79099999Y-73549999D01*
X79600000Y-73549999D01*
X79799960Y-73549999D01*
X79799972Y-73549999D01*
X79799986Y-73549998D01*
X79902697Y-73539505D01*
X80069119Y-73484358D01*
X80069124Y-73484356D01*
X80218345Y-73392315D01*
X80342315Y-73268345D01*
X80434356Y-73119124D01*
X80434358Y-73119119D01*
X80489505Y-72952697D01*
X80489506Y-72952690D01*
X80499999Y-72849986D01*
X80500000Y-72849973D01*
X80500000Y-72475000D01*
X79600000Y-72475000D01*
X79600000Y-73549999D01*
X79099999Y-73549999D01*
X79100000Y-73549998D01*
X79100000Y-72475000D01*
X78200001Y-72475000D01*
X78200001Y-72849995D01*
X71700500Y-72849995D01*
X71700500Y-70699995D01*
X77900001Y-70699995D01*
X77910493Y-70802694D01*
X77910493Y-70802695D01*
X77910494Y-70802697D01*
X77965641Y-70969119D01*
X77965643Y-70969124D01*
X78057684Y-71118345D01*
X78057685Y-71118346D01*
X78181653Y-71242314D01*
X78187321Y-71246796D01*
X78186733Y-71247539D01*
X78204226Y-71262139D01*
X78214681Y-71273763D01*
X78244877Y-71336767D01*
X78246185Y-71344804D01*
X78241501Y-71403727D01*
X78210496Y-71497291D01*
X78210495Y-71497298D01*
X78210492Y-71497311D01*
X78200000Y-71600005D01*
X78200000Y-71600013D01*
X78200000Y-71975000D01*
X79100000Y-71975000D01*
X79100000Y-70650000D01*
X77900001Y-70650000D01*
X77900001Y-70699995D01*
X71700500Y-70699995D01*
X71700500Y-70100007D01*
X77900000Y-70100007D01*
X77900000Y-70100013D01*
X77900000Y-70150000D01*
X79100000Y-70150000D01*
X79100000Y-69400000D01*
X78600037Y-69400000D01*
X78600028Y-69400000D01*
X78600012Y-69400001D01*
X78600002Y-69400001D01*
X78600002Y-69400002D01*
X78497304Y-69410493D01*
X78497302Y-69410494D01*
X78330887Y-69465638D01*
X78330879Y-69465641D01*
X78330877Y-69465642D01*
X78330875Y-69465643D01*
X78268725Y-69503978D01*
X78181652Y-69557685D01*
X78057685Y-69681652D01*
X78057684Y-69681654D01*
X77975407Y-69815046D01*
X77965641Y-69830879D01*
X77965638Y-69830888D01*
X77910494Y-69997299D01*
X77910493Y-69997304D01*
X77900000Y-70100007D01*
X71700500Y-70100007D01*
X71700500Y-68399995D01*
X77900001Y-68399995D01*
X77910493Y-68502694D01*
X77910493Y-68502695D01*
X77910494Y-68502697D01*
X77917490Y-68523810D01*
X77958277Y-68646898D01*
X77965641Y-68669119D01*
X77965643Y-68669124D01*
X78057684Y-68818345D01*
X78181654Y-68942315D01*
X78330875Y-69034356D01*
X78330880Y-69034358D01*
X78497299Y-69089504D01*
X78497300Y-69089504D01*
X78497302Y-69089505D01*
X78497309Y-69089506D01*
X78600019Y-69099999D01*
X79099999Y-69099999D01*
X79100000Y-69099998D01*
X79100000Y-67950000D01*
X77900001Y-67950000D01*
X77900001Y-68399995D01*
X71700500Y-68399995D01*
X71700500Y-67000007D01*
X77900000Y-67000007D01*
X77900000Y-67000013D01*
X77900000Y-67450000D01*
X79100000Y-67450000D01*
X79100000Y-65725000D01*
X79600000Y-65725000D01*
X79600000Y-69099999D01*
X80099960Y-69099999D01*
X80099972Y-69099999D01*
X80099986Y-69099998D01*
X80202697Y-69089505D01*
X80369119Y-69034358D01*
X80369124Y-69034356D01*
X80518342Y-68942317D01*
X80595215Y-68865443D01*
X80610653Y-68856948D01*
X80613099Y-68854471D01*
X80611768Y-68852802D01*
X80616789Y-68848798D01*
X80619989Y-68847491D01*
X80622764Y-68844681D01*
X80623477Y-68844289D01*
X80629663Y-68840912D01*
X80630837Y-68843062D01*
X80650416Y-68835069D01*
X80655752Y-68832134D01*
X80659871Y-68831209D01*
X80681476Y-68822390D01*
X80750171Y-68835147D01*
X80787883Y-68870620D01*
X80794284Y-68875348D01*
X80795050Y-68877362D01*
X80801064Y-68883019D01*
X80812623Y-68909301D01*
X80814023Y-68913854D01*
X80817349Y-68935987D01*
X80819124Y-68940653D01*
X80818497Y-68943625D01*
X80819500Y-68950297D01*
X80819500Y-69024392D01*
X80819501Y-69024416D01*
X80822234Y-69059154D01*
X80822236Y-69059160D01*
X80842519Y-69128979D01*
X80843010Y-69133300D01*
X80844200Y-69135404D01*
X80844679Y-69147991D01*
X80847245Y-69170567D01*
X80846907Y-69176548D01*
X80845839Y-69183472D01*
X80845839Y-69195451D01*
X80845642Y-69198938D01*
X80844311Y-69202673D01*
X80840916Y-69226536D01*
X80822236Y-69290835D01*
X80822235Y-69290838D01*
X80822234Y-69290846D01*
X80819500Y-69325583D01*
X80819500Y-69541647D01*
X80819499Y-69541649D01*
X80819500Y-69541650D01*
X80817838Y-69553208D01*
X80814476Y-69576585D01*
X80811289Y-69587438D01*
X80773514Y-69646215D01*
X80709957Y-69675238D01*
X80640807Y-69665297D01*
X80633829Y-69662110D01*
X80597657Y-69636996D01*
X80518346Y-69557685D01*
X80518345Y-69557684D01*
X80369124Y-69465643D01*
X80369119Y-69465641D01*
X80333947Y-69453986D01*
X80202699Y-69410494D01*
X80202694Y-69410493D01*
X80099991Y-69400000D01*
X80099986Y-69400000D01*
X79600000Y-69400000D01*
X79600000Y-71975000D01*
X80513342Y-71975000D01*
X80513344Y-71975000D01*
X80528436Y-71971148D01*
X80528698Y-71972175D01*
X80529189Y-71972068D01*
X80544848Y-71963520D01*
X80562620Y-71964792D01*
X80580030Y-71961003D01*
X80596746Y-71967235D01*
X80614540Y-71968509D01*
X80645473Y-71985402D01*
X80645498Y-71985411D01*
X80645516Y-71985425D01*
X80648341Y-71987540D01*
X80683941Y-72029406D01*
X80684694Y-72030848D01*
X80689825Y-72042964D01*
X80690209Y-72043476D01*
X80690242Y-72043948D01*
X80692484Y-72049240D01*
X80715638Y-72119113D01*
X80715641Y-72119120D01*
X80715651Y-72119138D01*
X80807681Y-72268341D01*
X80807684Y-72268345D01*
X80931654Y-72392315D01*
X81080875Y-72484356D01*
X81080880Y-72484358D01*
X81247299Y-72539504D01*
X81247300Y-72539504D01*
X81247302Y-72539505D01*
X81247309Y-72539506D01*
X81350019Y-72549999D01*
X81674999Y-72549999D01*
X82175000Y-72549999D01*
X82499960Y-72549999D01*
X82499972Y-72549999D01*
X82499986Y-72549998D01*
X82602697Y-72539505D01*
X82769119Y-72484358D01*
X82769124Y-72484356D01*
X82918345Y-72392315D01*
X83042315Y-72268345D01*
X83134356Y-72119124D01*
X83134358Y-72119119D01*
X83189505Y-71952697D01*
X83189506Y-71952690D01*
X83199999Y-71849986D01*
X83200000Y-71849973D01*
X83200000Y-71587500D01*
X82175000Y-71587500D01*
X82175000Y-72549999D01*
X81674999Y-72549999D01*
X81675000Y-72549998D01*
X81675000Y-71479329D01*
X81680023Y-71444393D01*
X81684427Y-71429395D01*
X81694069Y-71414386D01*
X81694685Y-71412290D01*
X81696334Y-71410860D01*
X81722172Y-71370644D01*
X81723541Y-71369457D01*
X81778420Y-71341977D01*
X81785979Y-71340333D01*
X81812332Y-71337500D01*
X81925000Y-71337500D01*
X81925000Y-71229329D01*
X81926186Y-71221083D01*
X81930023Y-71194393D01*
X81934217Y-71180112D01*
X81934427Y-71179394D01*
X81972172Y-71120644D01*
X81972200Y-71120619D01*
X81972199Y-71120619D01*
X81973541Y-71119456D01*
X82028420Y-71091977D01*
X82035979Y-71090333D01*
X82062332Y-71087500D01*
X83227052Y-71087500D01*
X83228751Y-71086572D01*
X83241751Y-71087500D01*
X83251361Y-71087500D01*
X83251361Y-71088186D01*
X83298443Y-71091547D01*
X83354382Y-71133411D01*
X83360641Y-71142602D01*
X83597159Y-71525761D01*
X83635269Y-71587500D01*
X83743698Y-71763154D01*
X83777145Y-71817339D01*
X83787214Y-71833650D01*
X83787215Y-71833652D01*
X84251110Y-72585161D01*
X84257791Y-72597495D01*
X85188023Y-74574236D01*
X85188024Y-74574236D01*
X85301435Y-74815235D01*
X85800703Y-75876181D01*
X85839870Y-75944883D01*
X85839873Y-75944888D01*
X85839882Y-75944903D01*
X85861587Y-75976872D01*
X85875927Y-75994797D01*
X85910981Y-76038615D01*
X85920583Y-76048860D01*
X85973526Y-76097826D01*
X85993442Y-76113767D01*
X86001075Y-76119877D01*
X86001096Y-76119893D01*
X86060457Y-76160818D01*
X86060459Y-76160819D01*
X86060461Y-76160820D01*
X86093095Y-76174211D01*
X86093096Y-76174212D01*
X86226177Y-76228829D01*
X86241336Y-76232646D01*
X86312367Y-76245224D01*
X86347475Y-76248883D01*
X86419566Y-76251222D01*
X86434603Y-76250635D01*
X86502356Y-76267691D01*
X86550134Y-76318671D01*
X86562767Y-76387390D01*
X86536241Y-76452029D01*
X86527117Y-76462220D01*
X86507685Y-76481652D01*
X86415641Y-76630879D01*
X86415638Y-76630888D01*
X86360494Y-76797299D01*
X86360493Y-76797304D01*
X86350000Y-76900007D01*
X86350000Y-76900010D01*
X86350000Y-76900013D01*
X86350000Y-78200000D01*
X88949999Y-78200000D01*
X88949999Y-76900029D01*
X88949998Y-76900012D01*
X88939505Y-76797302D01*
X88884358Y-76630880D01*
X88884356Y-76630875D01*
X88792315Y-76481654D01*
X88682040Y-76371379D01*
X88648555Y-76310056D01*
X88653539Y-76240364D01*
X88695411Y-76184431D01*
X88760875Y-76160014D01*
X88764833Y-76159795D01*
X89479268Y-76131943D01*
X89598989Y-76127277D01*
X89629774Y-76123940D01*
X89668262Y-76119770D01*
X89701832Y-76113768D01*
X89769406Y-76096809D01*
X89783272Y-76092293D01*
X89910300Y-76030115D01*
X89967176Y-75991574D01*
X90072011Y-75896633D01*
X90082434Y-75884120D01*
X90124525Y-75825549D01*
X90143025Y-75795491D01*
X90172348Y-75740523D01*
X90172352Y-75740507D01*
X90172658Y-75739762D01*
X90174597Y-75735580D01*
X90174595Y-75735579D01*
X90176355Y-75731515D01*
X90176358Y-75731512D01*
X91272085Y-73202808D01*
X91316802Y-73149123D01*
X91383444Y-73128135D01*
X91392367Y-73128281D01*
X93481903Y-73238138D01*
X93485693Y-73238323D01*
X93487602Y-73238409D01*
X93487808Y-73238417D01*
X93487820Y-73238418D01*
X93487819Y-73238418D01*
X93491550Y-73238572D01*
X93493326Y-73238637D01*
X93493533Y-73238645D01*
X93497468Y-73238776D01*
X93499411Y-73238833D01*
X93503399Y-73238934D01*
X97160569Y-73317341D01*
X97224803Y-73314629D01*
X97224820Y-73314627D01*
X97224824Y-73314627D01*
X97256086Y-73311306D01*
X97256088Y-73311305D01*
X97256103Y-73311304D01*
X97319466Y-73300462D01*
X97330877Y-73297753D01*
X97457874Y-73248768D01*
X97515844Y-73216859D01*
X97613812Y-73144186D01*
X97679381Y-73120056D01*
X97747589Y-73135206D01*
X97796778Y-73184827D01*
X97799642Y-73190466D01*
X97866048Y-73329918D01*
X97907103Y-73393129D01*
X97938312Y-73441179D01*
X97980253Y-73490209D01*
X98023269Y-73528826D01*
X98078973Y-73578835D01*
X98144605Y-73611120D01*
X98208079Y-73642344D01*
X98274523Y-73663948D01*
X98320040Y-73671834D01*
X98416278Y-73688511D01*
X98416283Y-73688511D01*
X98416288Y-73688512D01*
X105015819Y-73878427D01*
X105082261Y-73900031D01*
X105105568Y-73920720D01*
X105677387Y-74574227D01*
X105991191Y-74932860D01*
X106960333Y-76040451D01*
X106980113Y-76063056D01*
X107059236Y-76136072D01*
X107059239Y-76136074D01*
X107059241Y-76136076D01*
X107059248Y-76136081D01*
X107101394Y-76167368D01*
X107101403Y-76167373D01*
X107101406Y-76167376D01*
X107194191Y-76221975D01*
X107332372Y-76262069D01*
X107401562Y-76271791D01*
X107401565Y-76271791D01*
X107401567Y-76271791D01*
X107401678Y-76271791D01*
X107444390Y-76271653D01*
X107518163Y-76271416D01*
X107585263Y-76290884D01*
X107631188Y-76343541D01*
X107641354Y-76412667D01*
X107612534Y-76476316D01*
X107608282Y-76480896D01*
X107607685Y-76481651D01*
X107515641Y-76630879D01*
X107515638Y-76630888D01*
X107460494Y-76797299D01*
X107460493Y-76797304D01*
X107450000Y-76900007D01*
X107450000Y-76900010D01*
X107450000Y-76900013D01*
X107450000Y-78200000D01*
X110049999Y-78200000D01*
X110049999Y-76900028D01*
X110049998Y-76900013D01*
X110039505Y-76797302D01*
X109984358Y-76630880D01*
X109984356Y-76630875D01*
X109892315Y-76481654D01*
X109768345Y-76357684D01*
X109619124Y-76265643D01*
X109619119Y-76265641D01*
X109619110Y-76265638D01*
X109452698Y-76210494D01*
X109452703Y-76210494D01*
X109349987Y-76200000D01*
X109346832Y-76199840D01*
X109346840Y-76199679D01*
X109346839Y-76199679D01*
X109346841Y-76199655D01*
X109346874Y-76199007D01*
X109317757Y-76190457D01*
X109285063Y-76181479D01*
X109284304Y-76180634D01*
X109283217Y-76180315D01*
X109261044Y-76154726D01*
X109238386Y-76129489D01*
X109238204Y-76128368D01*
X109237462Y-76127511D01*
X109232637Y-76093958D01*
X109227227Y-76060516D01*
X109227679Y-76059476D01*
X109227518Y-76058353D01*
X109241598Y-76027521D01*
X109255128Y-75996459D01*
X109256177Y-75995598D01*
X109256543Y-75994797D01*
X109281391Y-75972881D01*
X109287211Y-75968993D01*
X109288882Y-75968231D01*
X109347660Y-75930457D01*
X109347662Y-75930455D01*
X109363091Y-75917086D01*
X109426647Y-75888063D01*
X109478845Y-75891713D01*
X109495802Y-75896633D01*
X109603951Y-75928013D01*
X109673141Y-75937735D01*
X109673144Y-75937735D01*
X109673146Y-75937735D01*
X109673258Y-75937735D01*
X109812064Y-75937288D01*
X109817026Y-75937273D01*
X110778136Y-75795934D01*
X110834993Y-75784203D01*
X110862464Y-75776868D01*
X110917592Y-75758699D01*
X111042553Y-75687382D01*
X111097689Y-75644466D01*
X111097692Y-75644463D01*
X111197498Y-75540828D01*
X111264064Y-75413272D01*
X111287245Y-75347359D01*
X111315178Y-75206218D01*
X111506714Y-71567014D01*
X118332500Y-71567014D01*
X118332500Y-71802985D01*
X118363299Y-72036914D01*
X118404288Y-72189888D01*
X118424370Y-72264836D01*
X118424375Y-72264852D01*
X118514655Y-72482810D01*
X118514673Y-72482842D01*
X118547387Y-72539504D01*
X118632644Y-72687171D01*
X118632645Y-72687172D01*
X118695221Y-72768723D01*
X119415423Y-72048520D01*
X119476745Y-72015037D01*
X119546437Y-72020021D01*
X119602370Y-72061893D01*
X119606191Y-72067292D01*
X119627612Y-72099351D01*
X119627616Y-72099355D01*
X119627616Y-72099356D01*
X119718143Y-72189883D01*
X119718146Y-72189885D01*
X119718149Y-72189888D01*
X119750185Y-72211293D01*
X119794989Y-72264904D01*
X119803697Y-72334229D01*
X119773543Y-72397257D01*
X119768975Y-72402076D01*
X119048775Y-73122276D01*
X119048775Y-73122277D01*
X119130327Y-73184854D01*
X119130328Y-73184855D01*
X119334671Y-73302834D01*
X119334680Y-73302839D01*
X119334683Y-73302840D01*
X119334688Y-73302843D01*
X119464754Y-73356717D01*
X119488658Y-73375979D01*
X119552660Y-73393128D01*
X119552663Y-73393129D01*
X119552661Y-73393129D01*
X119780585Y-73454200D01*
X120014514Y-73484999D01*
X120014529Y-73485000D01*
X120250459Y-73485000D01*
X120250471Y-73485000D01*
X120250485Y-73484999D01*
X120484414Y-73454200D01*
X120712337Y-73393129D01*
X120712349Y-73393123D01*
X120712352Y-73393123D01*
X120930310Y-73302843D01*
X120930311Y-73302841D01*
X120930319Y-73302839D01*
X120930328Y-73302834D01*
X121134681Y-73184850D01*
X121216223Y-73122279D01*
X121216223Y-73122276D01*
X120496022Y-72402076D01*
X120462538Y-72340754D01*
X120467522Y-72271063D01*
X120509394Y-72215129D01*
X120514802Y-72211301D01*
X120546851Y-72189888D01*
X120637388Y-72099351D01*
X120658795Y-72067313D01*
X120712404Y-72022509D01*
X120781729Y-72013800D01*
X120844757Y-72043954D01*
X120849574Y-72048520D01*
X121569776Y-72768723D01*
X121569778Y-72768723D01*
X121569779Y-72768723D01*
X121632350Y-72687181D01*
X121750334Y-72482828D01*
X121750339Y-72482819D01*
X121783784Y-72402076D01*
X121840623Y-72264852D01*
X121840623Y-72264849D01*
X121840629Y-72264837D01*
X121901700Y-72036914D01*
X121932499Y-71802985D01*
X121932500Y-71802971D01*
X121932500Y-71567028D01*
X121932499Y-71567014D01*
X121901700Y-71333085D01*
X121840629Y-71105162D01*
X121840624Y-71105152D01*
X121840623Y-71105146D01*
X121750343Y-70887188D01*
X121750339Y-70887180D01*
X121750334Y-70887171D01*
X121632355Y-70682828D01*
X121632354Y-70682827D01*
X121569777Y-70601275D01*
X121569776Y-70601275D01*
X120849576Y-71321475D01*
X120788253Y-71354960D01*
X120718561Y-71349976D01*
X120662628Y-71308104D01*
X120658806Y-71302704D01*
X120637388Y-71270649D01*
X120637383Y-71270644D01*
X120637383Y-71270643D01*
X120546853Y-71180113D01*
X120514813Y-71158705D01*
X120470008Y-71105092D01*
X120461301Y-71035767D01*
X120491456Y-70972740D01*
X120496009Y-70967935D01*
X121216223Y-70247721D01*
X121216220Y-70247719D01*
X121134672Y-70185145D01*
X121134671Y-70185144D01*
X120930328Y-70067165D01*
X120930319Y-70067160D01*
X120930318Y-70067159D01*
X120930310Y-70067155D01*
X120800244Y-70013281D01*
X120776341Y-69994019D01*
X120712338Y-69976870D01*
X120708419Y-69975820D01*
X120618505Y-69951728D01*
X120484414Y-69915799D01*
X120250485Y-69885000D01*
X120014514Y-69885000D01*
X119780585Y-69915799D01*
X119574028Y-69971145D01*
X119552662Y-69976870D01*
X119552646Y-69976875D01*
X119334688Y-70067155D01*
X119334656Y-70067173D01*
X119130321Y-70185147D01*
X119130314Y-70185152D01*
X119048775Y-70247719D01*
X119048775Y-70247721D01*
X119768976Y-70967922D01*
X119802461Y-71029245D01*
X119797477Y-71098937D01*
X119755605Y-71154870D01*
X119750187Y-71158704D01*
X119718149Y-71180111D01*
X119718143Y-71180116D01*
X119627616Y-71270643D01*
X119627611Y-71270649D01*
X119606204Y-71302687D01*
X119552591Y-71347492D01*
X119483266Y-71356198D01*
X119420239Y-71326042D01*
X119415438Y-71321491D01*
X118695221Y-70601275D01*
X118695219Y-70601275D01*
X118632652Y-70682814D01*
X118632647Y-70682821D01*
X118514673Y-70887156D01*
X118514655Y-70887188D01*
X118424375Y-71105146D01*
X118424370Y-71105162D01*
X118380029Y-71270649D01*
X118363300Y-71333082D01*
X118363298Y-71333093D01*
X118333893Y-71556437D01*
X118332500Y-71567014D01*
X111506714Y-71567014D01*
X111534408Y-71040832D01*
X111557589Y-70974921D01*
X111612725Y-70932004D01*
X111632688Y-70926011D01*
X115896144Y-70028440D01*
X115901258Y-70027476D01*
X121166519Y-69149934D01*
X121196384Y-69144027D01*
X121210934Y-69140691D01*
X121240379Y-69133000D01*
X121371257Y-69073231D01*
X121371259Y-69073229D01*
X121375285Y-69071391D01*
X121375699Y-69072299D01*
X121439419Y-69058431D01*
X121454234Y-69060392D01*
X121456658Y-69060862D01*
X121456661Y-69060863D01*
X121526024Y-69069258D01*
X121669864Y-69066042D01*
X122955351Y-68851795D01*
X123078564Y-68814653D01*
X123135729Y-68789096D01*
X123245557Y-68722057D01*
X123315905Y-68646897D01*
X123343872Y-68617017D01*
X123343880Y-68617007D01*
X123356767Y-68598550D01*
X123383354Y-68560472D01*
X123383858Y-68559762D01*
X123383877Y-68559723D01*
X123383879Y-68559722D01*
X123448622Y-68431230D01*
X123474542Y-68289704D01*
X123477220Y-68219886D01*
X123462217Y-68076790D01*
X122250385Y-63276068D01*
X122231666Y-63217291D01*
X122226346Y-63203549D01*
X122226345Y-63203549D01*
X122225709Y-63201906D01*
X122225040Y-63200138D01*
X122222810Y-63194107D01*
X122221488Y-63188938D01*
X122219057Y-63183078D01*
X122218797Y-63182590D01*
X122210690Y-63163019D01*
X122209629Y-63160370D01*
X122209078Y-63158946D01*
X122208732Y-63158292D01*
X122170124Y-63065084D01*
X122165697Y-63054725D01*
X122163510Y-63049761D01*
X122158921Y-63039647D01*
X122158919Y-63039644D01*
X122158916Y-63039637D01*
X122156848Y-63035877D01*
X122155705Y-63030701D01*
X122133252Y-62992875D01*
X122119770Y-62970162D01*
X122078551Y-62910834D01*
X122045817Y-62880383D01*
X122033927Y-62866894D01*
X122002976Y-62840531D01*
X121973204Y-62812835D01*
X121963477Y-62806087D01*
X121953750Y-62798600D01*
X121924396Y-62773597D01*
X121857543Y-62743748D01*
X121852639Y-62741429D01*
X121787124Y-62708667D01*
X121749167Y-62701834D01*
X121749167Y-62701833D01*
X121743111Y-62700742D01*
X121725818Y-62695824D01*
X121725814Y-62695823D01*
X121685569Y-62690383D01*
X121682883Y-62689900D01*
X121682871Y-62689899D01*
X121645522Y-62683176D01*
X121645511Y-62683175D01*
X121633658Y-62682756D01*
X121621436Y-62681717D01*
X121617850Y-62681232D01*
X121583230Y-62676554D01*
X121583229Y-62676554D01*
X115865781Y-62725007D01*
X115840412Y-62722603D01*
X113967983Y-62348118D01*
X113967978Y-62348117D01*
X113967971Y-62348116D01*
X113967968Y-62348116D01*
X113851082Y-62338614D01*
X113851055Y-62338614D01*
X113793941Y-62340623D01*
X113677986Y-62358321D01*
X113628423Y-62379894D01*
X113559097Y-62388600D01*
X113499466Y-62360068D01*
X113499458Y-62360080D01*
X113499394Y-62360034D01*
X113496071Y-62358444D01*
X113492738Y-62355337D01*
X113492273Y-62354887D01*
X113472537Y-62340624D01*
X113375655Y-62270608D01*
X113375649Y-62270605D01*
X113375648Y-62270604D01*
X113375648Y-62270603D01*
X113313777Y-62238158D01*
X113178144Y-62190150D01*
X113178141Y-62190149D01*
X109940645Y-61542650D01*
X109878767Y-61510200D01*
X109844257Y-61449448D01*
X109848070Y-61379683D01*
X109877278Y-61333381D01*
X109942315Y-61268345D01*
X110034356Y-61119124D01*
X110034358Y-61119119D01*
X110089505Y-60952697D01*
X110089506Y-60952690D01*
X110099999Y-60849986D01*
X110100000Y-60849973D01*
X110100000Y-59550000D01*
X107500001Y-59550000D01*
X107500001Y-60849995D01*
X107510493Y-60952694D01*
X107510494Y-60952699D01*
X107557536Y-61094664D01*
X107559937Y-61164492D01*
X107524205Y-61224534D01*
X107481924Y-61250304D01*
X103535576Y-62674531D01*
X102146710Y-63175769D01*
X97527647Y-64842776D01*
X97470066Y-64867698D01*
X97470059Y-64867701D01*
X97442717Y-64881609D01*
X97442685Y-64881626D01*
X97388672Y-64913465D01*
X97388670Y-64913467D01*
X97282176Y-65010217D01*
X97282174Y-65010218D01*
X97282171Y-65010222D01*
X97237672Y-65064083D01*
X97237672Y-65064084D01*
X97162749Y-65186925D01*
X97162748Y-65186926D01*
X96927352Y-65736200D01*
X96882852Y-65790065D01*
X96816294Y-65811321D01*
X96748810Y-65793218D01*
X96725697Y-65775036D01*
X96678346Y-65727685D01*
X96678345Y-65727684D01*
X96529124Y-65635643D01*
X96529119Y-65635641D01*
X96526023Y-65634615D01*
X96362699Y-65580494D01*
X96362694Y-65580493D01*
X96259991Y-65570000D01*
X96259986Y-65570000D01*
X95610000Y-65570000D01*
X95610000Y-66528170D01*
X95609999Y-66528176D01*
X95610000Y-66528179D01*
X95604975Y-66563112D01*
X95604335Y-66565293D01*
X95600570Y-66578112D01*
X95562827Y-66636855D01*
X95562792Y-66636885D01*
X95562791Y-66636887D01*
X95562789Y-66636887D01*
X95561458Y-66638042D01*
X95506597Y-66665518D01*
X95499039Y-66667163D01*
X95472668Y-66670000D01*
X95360000Y-66670000D01*
X95360000Y-66778170D01*
X95359999Y-66778176D01*
X95360000Y-66778179D01*
X95354975Y-66813114D01*
X95350570Y-66828112D01*
X95312827Y-66886855D01*
X95312792Y-66886885D01*
X95312791Y-66886887D01*
X95312789Y-66886887D01*
X95311458Y-66888042D01*
X95256597Y-66915518D01*
X95249039Y-66917163D01*
X95222668Y-66920000D01*
X93760001Y-66920000D01*
X93723682Y-66956319D01*
X93720411Y-66953048D01*
X93687512Y-66981556D01*
X93633912Y-66992744D01*
X93259763Y-66986438D01*
X93155947Y-66995433D01*
X93155933Y-66995435D01*
X93105990Y-67005024D01*
X93105987Y-67005024D01*
X93105986Y-67005025D01*
X93083211Y-67011895D01*
X93006208Y-67035122D01*
X92925774Y-67083230D01*
X92886387Y-67106789D01*
X92882720Y-67108982D01*
X92820884Y-67159174D01*
X92815685Y-67166851D01*
X92730809Y-67258663D01*
X92730806Y-67258667D01*
X92689923Y-67341067D01*
X92642493Y-67392372D01*
X92574855Y-67409890D01*
X92508483Y-67388059D01*
X92464451Y-67333810D01*
X92456659Y-67307090D01*
X92452036Y-67280363D01*
X92447884Y-67267581D01*
X92420768Y-67200755D01*
X92420762Y-67200742D01*
X92405202Y-67169087D01*
X92368851Y-67106798D01*
X92368846Y-67106789D01*
X92077643Y-66680836D01*
X92052054Y-66646607D01*
X92038821Y-66630384D01*
X92010456Y-66598464D01*
X92008715Y-66596664D01*
X92008711Y-66596660D01*
X92008699Y-66596649D01*
X91955003Y-66548532D01*
X91927112Y-66526918D01*
X91897136Y-66506939D01*
X91867126Y-66486936D01*
X91867124Y-66486935D01*
X91839296Y-66476021D01*
X91829353Y-66471609D01*
X91770922Y-66442549D01*
X91748957Y-66434580D01*
X91679556Y-66414877D01*
X91645030Y-66407691D01*
X91645021Y-66407689D01*
X91645009Y-66407687D01*
X91644993Y-66407684D01*
X91644982Y-66407683D01*
X91573534Y-66398064D01*
X91573535Y-66398064D01*
X91454322Y-66390615D01*
X89524254Y-66270007D01*
X93760000Y-66270007D01*
X93760000Y-66270013D01*
X93760000Y-66420000D01*
X95110000Y-66420000D01*
X95110000Y-65570000D01*
X94460037Y-65570000D01*
X94460028Y-65570000D01*
X94460012Y-65570001D01*
X94460002Y-65570001D01*
X94460002Y-65570002D01*
X94357304Y-65580493D01*
X94357302Y-65580494D01*
X94190887Y-65635638D01*
X94190879Y-65635641D01*
X94190877Y-65635642D01*
X94190875Y-65635643D01*
X94114484Y-65682762D01*
X94041652Y-65727685D01*
X93917685Y-65851652D01*
X93917684Y-65851654D01*
X93842773Y-65973104D01*
X93825641Y-66000879D01*
X93825638Y-66000888D01*
X93770494Y-66167299D01*
X93770493Y-66167304D01*
X93760000Y-66270007D01*
X89524254Y-66270007D01*
X88469556Y-66204100D01*
X88469554Y-66204100D01*
X88469553Y-66204100D01*
X88346715Y-66211431D01*
X88346711Y-66211431D01*
X88346706Y-66211432D01*
X88287791Y-66222252D01*
X88287783Y-66222254D01*
X88170378Y-66259040D01*
X88164697Y-66261615D01*
X88164692Y-66261618D01*
X88043478Y-66339038D01*
X88043469Y-66339044D01*
X88032606Y-66348403D01*
X88014874Y-66356438D01*
X87999786Y-66368741D01*
X87974516Y-66374727D01*
X87968966Y-66377243D01*
X87965639Y-66377666D01*
X87962783Y-66377989D01*
X87947740Y-66378995D01*
X87915028Y-66383387D01*
X87914859Y-66383421D01*
X87912982Y-66383634D01*
X87907930Y-66382752D01*
X87864423Y-66379499D01*
X87771015Y-66352361D01*
X87771000Y-66352358D01*
X87771001Y-66352358D01*
X87770997Y-66352357D01*
X87770991Y-66352356D01*
X87762925Y-66351721D01*
X87734704Y-66349500D01*
X87734697Y-66349500D01*
X87734690Y-66349500D01*
X87641830Y-66349500D01*
X87641825Y-66349499D01*
X87641823Y-66349500D01*
X87606889Y-66344475D01*
X87591890Y-66340070D01*
X87533144Y-66302327D01*
X87533115Y-66302293D01*
X87533114Y-66302293D01*
X87533113Y-66302291D01*
X87531957Y-66300958D01*
X87504477Y-66246083D01*
X87502832Y-66238521D01*
X87500000Y-66212168D01*
X87500000Y-66170000D01*
X87391830Y-66170000D01*
X87391825Y-66169999D01*
X87391823Y-66170000D01*
X87356889Y-66164975D01*
X87341890Y-66160570D01*
X87283144Y-66122827D01*
X87283115Y-66122793D01*
X87283114Y-66122793D01*
X87283113Y-66122791D01*
X87281957Y-66121458D01*
X87254477Y-66066583D01*
X87252832Y-66059021D01*
X87250000Y-66032668D01*
X87250000Y-65920000D01*
X87750000Y-65920000D01*
X88304503Y-65920000D01*
X88304504Y-65920000D01*
X88262031Y-65773804D01*
X88179721Y-65634625D01*
X88179714Y-65634616D01*
X88065383Y-65520285D01*
X88065374Y-65520278D01*
X87984411Y-65472397D01*
X87926197Y-65437969D01*
X87926193Y-65437967D01*
X87926184Y-65437963D01*
X87770928Y-65392857D01*
X87770920Y-65392855D01*
X87770912Y-65392854D01*
X87750000Y-65391209D01*
X87750000Y-65920000D01*
X87250000Y-65920000D01*
X87250000Y-65391210D01*
X87249999Y-65391209D01*
X87229084Y-65392854D01*
X87229078Y-65392855D01*
X87229070Y-65392857D01*
X87073814Y-65437963D01*
X87073805Y-65437967D01*
X87073801Y-65437969D01*
X86934627Y-65520276D01*
X86934615Y-65520285D01*
X86820285Y-65634615D01*
X86820276Y-65634627D01*
X86737968Y-65773804D01*
X86737967Y-65773807D01*
X86692854Y-65929086D01*
X86692723Y-65930005D01*
X86692668Y-65931443D01*
X86690000Y-65965355D01*
X86690000Y-66002462D01*
X86689912Y-66004804D01*
X86679526Y-66035814D01*
X86670315Y-66067185D01*
X86668491Y-66068765D01*
X86667724Y-66071056D01*
X86642212Y-66091536D01*
X86617511Y-66112940D01*
X86614871Y-66113484D01*
X86613238Y-66114796D01*
X86603554Y-66115818D01*
X86563322Y-66124117D01*
X86525527Y-66123300D01*
X86513347Y-66123184D01*
X86507226Y-66123201D01*
X86494874Y-66123386D01*
X86489297Y-66123538D01*
X86488752Y-66123553D01*
X86488750Y-66123553D01*
X86488716Y-66123554D01*
X86476339Y-66124043D01*
X86470314Y-66124356D01*
X86457963Y-66125147D01*
X83274578Y-66368241D01*
X83274572Y-66368242D01*
X83142393Y-66396460D01*
X83137922Y-66398064D01*
X83080534Y-66418650D01*
X83080532Y-66418650D01*
X83080529Y-66418652D01*
X82960509Y-66480918D01*
X82960499Y-66480924D01*
X82954798Y-66484932D01*
X82954794Y-66484935D01*
X82855174Y-66578765D01*
X82792876Y-66610401D01*
X82770155Y-66612500D01*
X82066830Y-66612500D01*
X82066825Y-66612499D01*
X82066823Y-66612500D01*
X82031889Y-66607475D01*
X82016890Y-66603070D01*
X81958144Y-66565327D01*
X81958115Y-66565293D01*
X81958114Y-66565293D01*
X81958113Y-66565291D01*
X81956957Y-66563958D01*
X81929477Y-66509083D01*
X81927832Y-66501521D01*
X81925000Y-66475168D01*
X81925000Y-66362500D01*
X81816830Y-66362500D01*
X81816825Y-66362499D01*
X81816823Y-66362500D01*
X81781889Y-66357475D01*
X81766890Y-66353070D01*
X81708144Y-66315327D01*
X81708115Y-66315293D01*
X81708114Y-66315293D01*
X81708113Y-66315291D01*
X81706957Y-66313958D01*
X81679477Y-66259083D01*
X81677832Y-66251521D01*
X81675000Y-66225168D01*
X81675000Y-66112500D01*
X82175000Y-66112500D01*
X83199999Y-66112500D01*
X83199999Y-65850028D01*
X83199998Y-65850013D01*
X83189505Y-65747302D01*
X83134358Y-65580880D01*
X83134356Y-65580875D01*
X83042315Y-65431654D01*
X82918345Y-65307684D01*
X82769124Y-65215643D01*
X82769119Y-65215641D01*
X82769110Y-65215638D01*
X82602699Y-65160494D01*
X82602694Y-65160493D01*
X82499991Y-65150000D01*
X82499986Y-65150000D01*
X82175000Y-65150000D01*
X82175000Y-66112500D01*
X81675000Y-66112500D01*
X81675000Y-65150000D01*
X81350028Y-65150000D01*
X81350012Y-65150001D01*
X81350002Y-65150001D01*
X81350002Y-65150002D01*
X81247304Y-65160493D01*
X81247302Y-65160494D01*
X81080887Y-65215638D01*
X81080879Y-65215641D01*
X81080877Y-65215642D01*
X81080875Y-65215643D01*
X80981394Y-65277003D01*
X80931652Y-65307685D01*
X80807684Y-65431653D01*
X80807681Y-65431657D01*
X80715644Y-65580871D01*
X80715641Y-65580880D01*
X80713037Y-65588740D01*
X80694940Y-65643349D01*
X80679185Y-65674928D01*
X80671286Y-65686337D01*
X80616941Y-65730250D01*
X80547481Y-65737811D01*
X80547470Y-65737809D01*
X80543998Y-65737187D01*
X80525351Y-65729290D01*
X80524804Y-65730989D01*
X80506239Y-65725000D01*
X80506238Y-65725000D01*
X79600000Y-65725000D01*
X79100000Y-65725000D01*
X78200001Y-65725000D01*
X78200001Y-66099995D01*
X78210494Y-66202700D01*
X78239302Y-66289640D01*
X78239304Y-66289642D01*
X78239304Y-66289646D01*
X78239305Y-66289647D01*
X78241331Y-66300958D01*
X78245526Y-66324383D01*
X78246064Y-66340008D01*
X78228698Y-66407685D01*
X78228690Y-66407698D01*
X78224527Y-66414692D01*
X78185034Y-66454815D01*
X78185240Y-66455102D01*
X78183568Y-66456304D01*
X78183078Y-66456803D01*
X78181664Y-66457675D01*
X78181659Y-66457679D01*
X78181652Y-66457685D01*
X78057683Y-66581655D01*
X77965641Y-66730879D01*
X77965638Y-66730888D01*
X77910494Y-66897299D01*
X77910493Y-66897304D01*
X77900000Y-67000007D01*
X71700500Y-67000007D01*
X71700500Y-64850007D01*
X78200000Y-64850007D01*
X78200000Y-64850010D01*
X78200000Y-64850013D01*
X78200000Y-65225000D01*
X79100000Y-65225000D01*
X79600000Y-65225000D01*
X80499999Y-65225000D01*
X80499999Y-64850028D01*
X80499998Y-64850013D01*
X80489505Y-64747302D01*
X80434358Y-64580880D01*
X80434356Y-64580875D01*
X80342315Y-64431654D01*
X80218345Y-64307684D01*
X80069124Y-64215643D01*
X80069119Y-64215641D01*
X80069110Y-64215638D01*
X79902699Y-64160494D01*
X79902694Y-64160493D01*
X79799991Y-64150000D01*
X79799986Y-64150000D01*
X79600000Y-64150000D01*
X79600000Y-65225000D01*
X79100000Y-65225000D01*
X79100000Y-64150000D01*
X78900037Y-64150000D01*
X78900029Y-64150000D01*
X78900019Y-64150000D01*
X78900006Y-64150001D01*
X78797304Y-64160493D01*
X78797302Y-64160494D01*
X78630887Y-64215638D01*
X78630879Y-64215641D01*
X78630877Y-64215642D01*
X78630875Y-64215643D01*
X78531394Y-64277003D01*
X78481652Y-64307685D01*
X78357685Y-64431652D01*
X78265641Y-64580879D01*
X78265638Y-64580888D01*
X78210494Y-64747299D01*
X78210493Y-64747304D01*
X78200000Y-64850007D01*
X71700500Y-64850007D01*
X71700500Y-57292329D01*
X71705523Y-57257393D01*
X71709927Y-57242395D01*
X71747672Y-57183644D01*
X71747700Y-57183619D01*
X71747699Y-57183619D01*
X71749041Y-57182456D01*
X71803920Y-57154977D01*
X71811479Y-57153333D01*
X71837832Y-57150500D01*
X107529416Y-57150500D01*
X107564348Y-57155521D01*
G37*
%TD.AperFunction*%
%TD*%
M02*
