%TF.GenerationSoftware,KiCad,Pcbnew,10.0.1*%
%TF.CreationDate,2026-05-23T19:25:26+05:30*%
%TF.ProjectId,Voltage,566f6c74-6167-4652-9e6b-696361645f70,rev?*%
%TF.SameCoordinates,Original*%
%TF.FileFunction,Legend,Top*%
%TF.FilePolarity,Positive*%
%FSLAX46Y46*%
G04 Gerber Fmt 4.6, Leading zero omitted, Abs format (unit mm)*
G04 Created by KiCad (PCBNEW 10.0.1) date 2026-05-23 19:25:26*
%MOMM*%
%LPD*%
G01*
G04 APERTURE LIST*
%ADD10C,0.150000*%
%ADD11C,0.120000*%
G04 APERTURE END LIST*
D10*
X80351333Y-62335580D02*
X80303714Y-62383200D01*
X80303714Y-62383200D02*
X80160857Y-62430819D01*
X80160857Y-62430819D02*
X80065619Y-62430819D01*
X80065619Y-62430819D02*
X79922762Y-62383200D01*
X79922762Y-62383200D02*
X79827524Y-62287961D01*
X79827524Y-62287961D02*
X79779905Y-62192723D01*
X79779905Y-62192723D02*
X79732286Y-62002247D01*
X79732286Y-62002247D02*
X79732286Y-61859390D01*
X79732286Y-61859390D02*
X79779905Y-61668914D01*
X79779905Y-61668914D02*
X79827524Y-61573676D01*
X79827524Y-61573676D02*
X79922762Y-61478438D01*
X79922762Y-61478438D02*
X80065619Y-61430819D01*
X80065619Y-61430819D02*
X80160857Y-61430819D01*
X80160857Y-61430819D02*
X80303714Y-61478438D01*
X80303714Y-61478438D02*
X80351333Y-61526057D01*
X81303714Y-62430819D02*
X80732286Y-62430819D01*
X81018000Y-62430819D02*
X81018000Y-61430819D01*
X81018000Y-61430819D02*
X80922762Y-61573676D01*
X80922762Y-61573676D02*
X80827524Y-61668914D01*
X80827524Y-61668914D02*
X80732286Y-61716533D01*
X85177333Y-63859580D02*
X85129714Y-63907200D01*
X85129714Y-63907200D02*
X84986857Y-63954819D01*
X84986857Y-63954819D02*
X84891619Y-63954819D01*
X84891619Y-63954819D02*
X84748762Y-63907200D01*
X84748762Y-63907200D02*
X84653524Y-63811961D01*
X84653524Y-63811961D02*
X84605905Y-63716723D01*
X84605905Y-63716723D02*
X84558286Y-63526247D01*
X84558286Y-63526247D02*
X84558286Y-63383390D01*
X84558286Y-63383390D02*
X84605905Y-63192914D01*
X84605905Y-63192914D02*
X84653524Y-63097676D01*
X84653524Y-63097676D02*
X84748762Y-63002438D01*
X84748762Y-63002438D02*
X84891619Y-62954819D01*
X84891619Y-62954819D02*
X84986857Y-62954819D01*
X84986857Y-62954819D02*
X85129714Y-63002438D01*
X85129714Y-63002438D02*
X85177333Y-63050057D01*
X86129714Y-63954819D02*
X85558286Y-63954819D01*
X85844000Y-63954819D02*
X85844000Y-62954819D01*
X85844000Y-62954819D02*
X85748762Y-63097676D01*
X85748762Y-63097676D02*
X85653524Y-63192914D01*
X85653524Y-63192914D02*
X85558286Y-63240533D01*
X92543333Y-63859580D02*
X92495714Y-63907200D01*
X92495714Y-63907200D02*
X92352857Y-63954819D01*
X92352857Y-63954819D02*
X92257619Y-63954819D01*
X92257619Y-63954819D02*
X92114762Y-63907200D01*
X92114762Y-63907200D02*
X92019524Y-63811961D01*
X92019524Y-63811961D02*
X91971905Y-63716723D01*
X91971905Y-63716723D02*
X91924286Y-63526247D01*
X91924286Y-63526247D02*
X91924286Y-63383390D01*
X91924286Y-63383390D02*
X91971905Y-63192914D01*
X91971905Y-63192914D02*
X92019524Y-63097676D01*
X92019524Y-63097676D02*
X92114762Y-63002438D01*
X92114762Y-63002438D02*
X92257619Y-62954819D01*
X92257619Y-62954819D02*
X92352857Y-62954819D01*
X92352857Y-62954819D02*
X92495714Y-63002438D01*
X92495714Y-63002438D02*
X92543333Y-63050057D01*
X93495714Y-63954819D02*
X92924286Y-63954819D01*
X93210000Y-63954819D02*
X93210000Y-62954819D01*
X93210000Y-62954819D02*
X93114762Y-63097676D01*
X93114762Y-63097676D02*
X93019524Y-63192914D01*
X93019524Y-63192914D02*
X92924286Y-63240533D01*
X126071333Y-76559580D02*
X126023714Y-76607200D01*
X126023714Y-76607200D02*
X125880857Y-76654819D01*
X125880857Y-76654819D02*
X125785619Y-76654819D01*
X125785619Y-76654819D02*
X125642762Y-76607200D01*
X125642762Y-76607200D02*
X125547524Y-76511961D01*
X125547524Y-76511961D02*
X125499905Y-76416723D01*
X125499905Y-76416723D02*
X125452286Y-76226247D01*
X125452286Y-76226247D02*
X125452286Y-76083390D01*
X125452286Y-76083390D02*
X125499905Y-75892914D01*
X125499905Y-75892914D02*
X125547524Y-75797676D01*
X125547524Y-75797676D02*
X125642762Y-75702438D01*
X125642762Y-75702438D02*
X125785619Y-75654819D01*
X125785619Y-75654819D02*
X125880857Y-75654819D01*
X125880857Y-75654819D02*
X126023714Y-75702438D01*
X126023714Y-75702438D02*
X126071333Y-75750057D01*
X127023714Y-76654819D02*
X126452286Y-76654819D01*
X126738000Y-76654819D02*
X126738000Y-75654819D01*
X126738000Y-75654819D02*
X126642762Y-75797676D01*
X126642762Y-75797676D02*
X126547524Y-75892914D01*
X126547524Y-75892914D02*
X126452286Y-75940533D01*
X126325333Y-62081580D02*
X126277714Y-62129200D01*
X126277714Y-62129200D02*
X126134857Y-62176819D01*
X126134857Y-62176819D02*
X126039619Y-62176819D01*
X126039619Y-62176819D02*
X125896762Y-62129200D01*
X125896762Y-62129200D02*
X125801524Y-62033961D01*
X125801524Y-62033961D02*
X125753905Y-61938723D01*
X125753905Y-61938723D02*
X125706286Y-61748247D01*
X125706286Y-61748247D02*
X125706286Y-61605390D01*
X125706286Y-61605390D02*
X125753905Y-61414914D01*
X125753905Y-61414914D02*
X125801524Y-61319676D01*
X125801524Y-61319676D02*
X125896762Y-61224438D01*
X125896762Y-61224438D02*
X126039619Y-61176819D01*
X126039619Y-61176819D02*
X126134857Y-61176819D01*
X126134857Y-61176819D02*
X126277714Y-61224438D01*
X126277714Y-61224438D02*
X126325333Y-61272057D01*
X127277714Y-62176819D02*
X126706286Y-62176819D01*
X126992000Y-62176819D02*
X126992000Y-61176819D01*
X126992000Y-61176819D02*
X126896762Y-61319676D01*
X126896762Y-61319676D02*
X126801524Y-61414914D01*
X126801524Y-61414914D02*
X126706286Y-61462533D01*
X73765580Y-64740666D02*
X73813200Y-64788285D01*
X73813200Y-64788285D02*
X73860819Y-64931142D01*
X73860819Y-64931142D02*
X73860819Y-65026380D01*
X73860819Y-65026380D02*
X73813200Y-65169237D01*
X73813200Y-65169237D02*
X73717961Y-65264475D01*
X73717961Y-65264475D02*
X73622723Y-65312094D01*
X73622723Y-65312094D02*
X73432247Y-65359713D01*
X73432247Y-65359713D02*
X73289390Y-65359713D01*
X73289390Y-65359713D02*
X73098914Y-65312094D01*
X73098914Y-65312094D02*
X73003676Y-65264475D01*
X73003676Y-65264475D02*
X72908438Y-65169237D01*
X72908438Y-65169237D02*
X72860819Y-65026380D01*
X72860819Y-65026380D02*
X72860819Y-64931142D01*
X72860819Y-64931142D02*
X72908438Y-64788285D01*
X72908438Y-64788285D02*
X72956057Y-64740666D01*
X73860819Y-63788285D02*
X73860819Y-64359713D01*
X73860819Y-64073999D02*
X72860819Y-64073999D01*
X72860819Y-64073999D02*
X73003676Y-64169237D01*
X73003676Y-64169237D02*
X73098914Y-64264475D01*
X73098914Y-64264475D02*
X73146533Y-64359713D01*
X73765580Y-71794666D02*
X73813200Y-71842285D01*
X73813200Y-71842285D02*
X73860819Y-71985142D01*
X73860819Y-71985142D02*
X73860819Y-72080380D01*
X73860819Y-72080380D02*
X73813200Y-72223237D01*
X73813200Y-72223237D02*
X73717961Y-72318475D01*
X73717961Y-72318475D02*
X73622723Y-72366094D01*
X73622723Y-72366094D02*
X73432247Y-72413713D01*
X73432247Y-72413713D02*
X73289390Y-72413713D01*
X73289390Y-72413713D02*
X73098914Y-72366094D01*
X73098914Y-72366094D02*
X73003676Y-72318475D01*
X73003676Y-72318475D02*
X72908438Y-72223237D01*
X72908438Y-72223237D02*
X72860819Y-72080380D01*
X72860819Y-72080380D02*
X72860819Y-71985142D01*
X72860819Y-71985142D02*
X72908438Y-71842285D01*
X72908438Y-71842285D02*
X72956057Y-71794666D01*
X73860819Y-70842285D02*
X73860819Y-71413713D01*
X73860819Y-71127999D02*
X72860819Y-71127999D01*
X72860819Y-71127999D02*
X73003676Y-71223237D01*
X73003676Y-71223237D02*
X73098914Y-71318475D01*
X73098914Y-71318475D02*
X73146533Y-71413713D01*
X78456666Y-73484419D02*
X78504285Y-73436800D01*
X78504285Y-73436800D02*
X78647142Y-73389180D01*
X78647142Y-73389180D02*
X78742380Y-73389180D01*
X78742380Y-73389180D02*
X78885237Y-73436800D01*
X78885237Y-73436800D02*
X78980475Y-73532038D01*
X78980475Y-73532038D02*
X79028094Y-73627276D01*
X79028094Y-73627276D02*
X79075713Y-73817752D01*
X79075713Y-73817752D02*
X79075713Y-73960609D01*
X79075713Y-73960609D02*
X79028094Y-74151085D01*
X79028094Y-74151085D02*
X78980475Y-74246323D01*
X78980475Y-74246323D02*
X78885237Y-74341561D01*
X78885237Y-74341561D02*
X78742380Y-74389180D01*
X78742380Y-74389180D02*
X78647142Y-74389180D01*
X78647142Y-74389180D02*
X78504285Y-74341561D01*
X78504285Y-74341561D02*
X78456666Y-74293942D01*
X77504285Y-73389180D02*
X78075713Y-73389180D01*
X77789999Y-73389180D02*
X77789999Y-74389180D01*
X77789999Y-74389180D02*
X77885237Y-74246323D01*
X77885237Y-74246323D02*
X77980475Y-74151085D01*
X77980475Y-74151085D02*
X78075713Y-74103466D01*
X92359580Y-75916666D02*
X92407200Y-75964285D01*
X92407200Y-75964285D02*
X92454819Y-76107142D01*
X92454819Y-76107142D02*
X92454819Y-76202380D01*
X92454819Y-76202380D02*
X92407200Y-76345237D01*
X92407200Y-76345237D02*
X92311961Y-76440475D01*
X92311961Y-76440475D02*
X92216723Y-76488094D01*
X92216723Y-76488094D02*
X92026247Y-76535713D01*
X92026247Y-76535713D02*
X91883390Y-76535713D01*
X91883390Y-76535713D02*
X91692914Y-76488094D01*
X91692914Y-76488094D02*
X91597676Y-76440475D01*
X91597676Y-76440475D02*
X91502438Y-76345237D01*
X91502438Y-76345237D02*
X91454819Y-76202380D01*
X91454819Y-76202380D02*
X91454819Y-76107142D01*
X91454819Y-76107142D02*
X91502438Y-75964285D01*
X91502438Y-75964285D02*
X91550057Y-75916666D01*
X91788152Y-75059523D02*
X92454819Y-75059523D01*
X91407200Y-75297618D02*
X92121485Y-75535713D01*
X92121485Y-75535713D02*
X92121485Y-74916666D01*
X83782819Y-68151333D02*
X84497104Y-68151333D01*
X84497104Y-68151333D02*
X84639961Y-68198952D01*
X84639961Y-68198952D02*
X84735200Y-68294190D01*
X84735200Y-68294190D02*
X84782819Y-68437047D01*
X84782819Y-68437047D02*
X84782819Y-68532285D01*
X84782819Y-67151333D02*
X84782819Y-67722761D01*
X84782819Y-67437047D02*
X83782819Y-67437047D01*
X83782819Y-67437047D02*
X83925676Y-67532285D01*
X83925676Y-67532285D02*
X84020914Y-67627523D01*
X84020914Y-67627523D02*
X84068533Y-67722761D01*
X107502080Y-68744166D02*
X107549700Y-68791785D01*
X107549700Y-68791785D02*
X107597319Y-68934642D01*
X107597319Y-68934642D02*
X107597319Y-69029880D01*
X107597319Y-69029880D02*
X107549700Y-69172737D01*
X107549700Y-69172737D02*
X107454461Y-69267975D01*
X107454461Y-69267975D02*
X107359223Y-69315594D01*
X107359223Y-69315594D02*
X107168747Y-69363213D01*
X107168747Y-69363213D02*
X107025890Y-69363213D01*
X107025890Y-69363213D02*
X106835414Y-69315594D01*
X106835414Y-69315594D02*
X106740176Y-69267975D01*
X106740176Y-69267975D02*
X106644938Y-69172737D01*
X106644938Y-69172737D02*
X106597319Y-69029880D01*
X106597319Y-69029880D02*
X106597319Y-68934642D01*
X106597319Y-68934642D02*
X106644938Y-68791785D01*
X106644938Y-68791785D02*
X106692557Y-68744166D01*
X106692557Y-68363213D02*
X106644938Y-68315594D01*
X106644938Y-68315594D02*
X106597319Y-68220356D01*
X106597319Y-68220356D02*
X106597319Y-67982261D01*
X106597319Y-67982261D02*
X106644938Y-67887023D01*
X106644938Y-67887023D02*
X106692557Y-67839404D01*
X106692557Y-67839404D02*
X106787795Y-67791785D01*
X106787795Y-67791785D02*
X106883033Y-67791785D01*
X106883033Y-67791785D02*
X107025890Y-67839404D01*
X107025890Y-67839404D02*
X107597319Y-68410832D01*
X107597319Y-68410832D02*
X107597319Y-67791785D01*
X122390819Y-70691333D02*
X123105104Y-70691333D01*
X123105104Y-70691333D02*
X123247961Y-70738952D01*
X123247961Y-70738952D02*
X123343200Y-70834190D01*
X123343200Y-70834190D02*
X123390819Y-70977047D01*
X123390819Y-70977047D02*
X123390819Y-71072285D01*
X122486057Y-70262761D02*
X122438438Y-70215142D01*
X122438438Y-70215142D02*
X122390819Y-70119904D01*
X122390819Y-70119904D02*
X122390819Y-69881809D01*
X122390819Y-69881809D02*
X122438438Y-69786571D01*
X122438438Y-69786571D02*
X122486057Y-69738952D01*
X122486057Y-69738952D02*
X122581295Y-69691333D01*
X122581295Y-69691333D02*
X122676533Y-69691333D01*
X122676533Y-69691333D02*
X122819390Y-69738952D01*
X122819390Y-69738952D02*
X123390819Y-70310380D01*
X123390819Y-70310380D02*
X123390819Y-69691333D01*
X113459580Y-75916666D02*
X113507200Y-75964285D01*
X113507200Y-75964285D02*
X113554819Y-76107142D01*
X113554819Y-76107142D02*
X113554819Y-76202380D01*
X113554819Y-76202380D02*
X113507200Y-76345237D01*
X113507200Y-76345237D02*
X113411961Y-76440475D01*
X113411961Y-76440475D02*
X113316723Y-76488094D01*
X113316723Y-76488094D02*
X113126247Y-76535713D01*
X113126247Y-76535713D02*
X112983390Y-76535713D01*
X112983390Y-76535713D02*
X112792914Y-76488094D01*
X112792914Y-76488094D02*
X112697676Y-76440475D01*
X112697676Y-76440475D02*
X112602438Y-76345237D01*
X112602438Y-76345237D02*
X112554819Y-76202380D01*
X112554819Y-76202380D02*
X112554819Y-76107142D01*
X112554819Y-76107142D02*
X112602438Y-75964285D01*
X112602438Y-75964285D02*
X112650057Y-75916666D01*
X113554819Y-74964285D02*
X113554819Y-75535713D01*
X113554819Y-75249999D02*
X112554819Y-75249999D01*
X112554819Y-75249999D02*
X112697676Y-75345237D01*
X112697676Y-75345237D02*
X112792914Y-75440475D01*
X112792914Y-75440475D02*
X112840533Y-75535713D01*
X104809580Y-62166666D02*
X104857200Y-62214285D01*
X104857200Y-62214285D02*
X104904819Y-62357142D01*
X104904819Y-62357142D02*
X104904819Y-62452380D01*
X104904819Y-62452380D02*
X104857200Y-62595237D01*
X104857200Y-62595237D02*
X104761961Y-62690475D01*
X104761961Y-62690475D02*
X104666723Y-62738094D01*
X104666723Y-62738094D02*
X104476247Y-62785713D01*
X104476247Y-62785713D02*
X104333390Y-62785713D01*
X104333390Y-62785713D02*
X104142914Y-62738094D01*
X104142914Y-62738094D02*
X104047676Y-62690475D01*
X104047676Y-62690475D02*
X103952438Y-62595237D01*
X103952438Y-62595237D02*
X103904819Y-62452380D01*
X103904819Y-62452380D02*
X103904819Y-62357142D01*
X103904819Y-62357142D02*
X103952438Y-62214285D01*
X103952438Y-62214285D02*
X104000057Y-62166666D01*
X103904819Y-61261904D02*
X103904819Y-61738094D01*
X103904819Y-61738094D02*
X104381009Y-61785713D01*
X104381009Y-61785713D02*
X104333390Y-61738094D01*
X104333390Y-61738094D02*
X104285771Y-61642856D01*
X104285771Y-61642856D02*
X104285771Y-61404761D01*
X104285771Y-61404761D02*
X104333390Y-61309523D01*
X104333390Y-61309523D02*
X104381009Y-61261904D01*
X104381009Y-61261904D02*
X104476247Y-61214285D01*
X104476247Y-61214285D02*
X104714342Y-61214285D01*
X104714342Y-61214285D02*
X104809580Y-61261904D01*
X104809580Y-61261904D02*
X104857200Y-61309523D01*
X104857200Y-61309523D02*
X104904819Y-61404761D01*
X104904819Y-61404761D02*
X104904819Y-61642856D01*
X104904819Y-61642856D02*
X104857200Y-61738094D01*
X104857200Y-61738094D02*
X104809580Y-61785713D01*
X86699580Y-66816666D02*
X86747200Y-66864285D01*
X86747200Y-66864285D02*
X86794819Y-67007142D01*
X86794819Y-67007142D02*
X86794819Y-67102380D01*
X86794819Y-67102380D02*
X86747200Y-67245237D01*
X86747200Y-67245237D02*
X86651961Y-67340475D01*
X86651961Y-67340475D02*
X86556723Y-67388094D01*
X86556723Y-67388094D02*
X86366247Y-67435713D01*
X86366247Y-67435713D02*
X86223390Y-67435713D01*
X86223390Y-67435713D02*
X86032914Y-67388094D01*
X86032914Y-67388094D02*
X85937676Y-67340475D01*
X85937676Y-67340475D02*
X85842438Y-67245237D01*
X85842438Y-67245237D02*
X85794819Y-67102380D01*
X85794819Y-67102380D02*
X85794819Y-67007142D01*
X85794819Y-67007142D02*
X85842438Y-66864285D01*
X85842438Y-66864285D02*
X85890057Y-66816666D01*
X85794819Y-66483332D02*
X85794819Y-65864285D01*
X85794819Y-65864285D02*
X86175771Y-66197618D01*
X86175771Y-66197618D02*
X86175771Y-66054761D01*
X86175771Y-66054761D02*
X86223390Y-65959523D01*
X86223390Y-65959523D02*
X86271009Y-65911904D01*
X86271009Y-65911904D02*
X86366247Y-65864285D01*
X86366247Y-65864285D02*
X86604342Y-65864285D01*
X86604342Y-65864285D02*
X86699580Y-65911904D01*
X86699580Y-65911904D02*
X86747200Y-65959523D01*
X86747200Y-65959523D02*
X86794819Y-66054761D01*
X86794819Y-66054761D02*
X86794819Y-66340475D01*
X86794819Y-66340475D02*
X86747200Y-66435713D01*
X86747200Y-66435713D02*
X86699580Y-66483332D01*
X99638095Y-63904819D02*
X99638095Y-64714342D01*
X99638095Y-64714342D02*
X99685714Y-64809580D01*
X99685714Y-64809580D02*
X99733333Y-64857200D01*
X99733333Y-64857200D02*
X99828571Y-64904819D01*
X99828571Y-64904819D02*
X100019047Y-64904819D01*
X100019047Y-64904819D02*
X100114285Y-64857200D01*
X100114285Y-64857200D02*
X100161904Y-64809580D01*
X100161904Y-64809580D02*
X100209523Y-64714342D01*
X100209523Y-64714342D02*
X100209523Y-63904819D01*
X101209523Y-64904819D02*
X100638095Y-64904819D01*
X100923809Y-64904819D02*
X100923809Y-63904819D01*
X100923809Y-63904819D02*
X100828571Y-64047676D01*
X100828571Y-64047676D02*
X100733333Y-64142914D01*
X100733333Y-64142914D02*
X100638095Y-64190533D01*
%TO.C,C4*%
D11*
X84240000Y-73404437D02*
X84240000Y-79160000D01*
X84240000Y-79160000D02*
X86590000Y-79160000D01*
X85304437Y-72340000D02*
X84240000Y-73404437D01*
X85304437Y-72340000D02*
X86590000Y-72340000D01*
X89497500Y-71312500D02*
X89497500Y-72100000D01*
X89891250Y-71706250D02*
X89103750Y-71706250D01*
X89995563Y-72340000D02*
X88710000Y-72340000D01*
X89995563Y-72340000D02*
X91060000Y-73404437D01*
X91060000Y-73404437D02*
X91060000Y-79160000D01*
X91060000Y-79160000D02*
X88710000Y-79160000D01*
%TO.C,J1*%
X77950000Y-65040000D02*
X78210000Y-65040000D01*
X78210000Y-72660000D02*
X77950000Y-72660000D01*
X80490000Y-65040000D02*
X82260000Y-65040000D01*
X82260000Y-65040000D02*
X82260000Y-65420000D01*
X82260000Y-72660000D02*
X80490000Y-72660000D01*
X82260000Y-72660000D02*
X82260000Y-72280000D01*
%TO.C,C2*%
X108482500Y-68985336D02*
X108482500Y-68769664D01*
X109202500Y-68985336D02*
X109202500Y-68769664D01*
%TO.C,J2*%
X114712500Y-63945000D02*
X126152500Y-63945000D01*
X114712500Y-66305000D02*
X114712500Y-63945000D01*
X114712500Y-74345000D02*
X114712500Y-66905000D01*
X115332500Y-63945000D02*
X115332500Y-74345000D01*
X117832500Y-63945000D02*
X117832500Y-74345000D01*
X124032500Y-63945000D02*
X124032500Y-74345000D01*
X126152500Y-63945000D02*
X126152500Y-74345000D01*
X126152500Y-74345000D02*
X114712500Y-74345000D01*
X114712500Y-66605000D02*
X114102500Y-67045000D01*
X114102500Y-66165000D01*
X114712500Y-66605000D01*
G36*
X114712500Y-66605000D02*
G01*
X114102500Y-67045000D01*
X114102500Y-66165000D01*
X114712500Y-66605000D01*
G37*
%TO.C,C1*%
X105340000Y-73404437D02*
X105340000Y-79160000D01*
X105340000Y-79160000D02*
X107690000Y-79160000D01*
X106404437Y-72340000D02*
X105340000Y-73404437D01*
X106404437Y-72340000D02*
X107690000Y-72340000D01*
X110597500Y-71312500D02*
X110597500Y-72100000D01*
X110991250Y-71706250D02*
X110203750Y-71706250D01*
X111095563Y-72340000D02*
X109810000Y-72340000D01*
X111095563Y-72340000D02*
X112160000Y-73404437D01*
X112160000Y-73404437D02*
X112160000Y-79160000D01*
X112160000Y-79160000D02*
X109810000Y-79160000D01*
%TO.C,C5*%
X105390000Y-58590000D02*
X107740000Y-58590000D01*
X105390000Y-64345563D02*
X105390000Y-58590000D01*
X106454437Y-65410000D02*
X105390000Y-64345563D01*
X106454437Y-65410000D02*
X107740000Y-65410000D01*
X106558750Y-66043750D02*
X107346250Y-66043750D01*
X106952500Y-66437500D02*
X106952500Y-65650000D01*
X111145563Y-65410000D02*
X109860000Y-65410000D01*
X111145563Y-65410000D02*
X112210000Y-64345563D01*
X112210000Y-58590000D02*
X109860000Y-58590000D01*
X112210000Y-64345563D02*
X112210000Y-58590000D01*
%TO.C,C3*%
X87140000Y-66757836D02*
X87140000Y-66542164D01*
X87860000Y-66757836D02*
X87860000Y-66542164D01*
%TO.C,U1*%
X97090000Y-65500000D02*
X97090000Y-65770000D01*
X97090000Y-72400000D02*
X97090000Y-72130000D01*
X103510000Y-65500000D02*
X97090000Y-65500000D01*
X103510000Y-72400000D02*
X97090000Y-72400000D01*
X95360000Y-65810000D02*
X95020000Y-65340000D01*
X95700000Y-65340000D01*
X95360000Y-65810000D01*
G36*
X95360000Y-65810000D02*
G01*
X95020000Y-65340000D01*
X95700000Y-65340000D01*
X95360000Y-65810000D01*
G37*
%TD*%
M02*
