%TF.GenerationSoftware,KiCad,Pcbnew,10.0.1*%
%TF.CreationDate,2026-05-25T15:11:06+05:30*%
%TF.ProjectId,Water alarm Project,57617465-7220-4616-9c61-726d2050726f,rev?*%
%TF.SameCoordinates,Original*%
%TF.FileFunction,Legend,Bot*%
%TF.FilePolarity,Positive*%
%FSLAX46Y46*%
G04 Gerber Fmt 4.6, Leading zero omitted, Abs format (unit mm)*
G04 Created by KiCad (PCBNEW 10.0.1) date 2026-05-25 15:11:06*
%MOMM*%
%LPD*%
G01*
G04 APERTURE LIST*
%ADD10C,0.200000*%
%ADD11C,0.500000*%
%ADD12C,0.000000*%
G04 APERTURE END LIST*
D10*
G36*
X159926709Y-126578304D02*
G01*
X160102991Y-127270000D01*
X160252590Y-127270000D01*
X160428811Y-126578304D01*
X160268283Y-126578304D01*
X160177424Y-127035526D01*
X160086566Y-126578304D01*
X159926709Y-126578304D01*
G37*
G36*
X159195385Y-127270000D02*
G01*
X159349075Y-127270000D01*
X159349075Y-126740481D01*
X159339549Y-126623855D01*
X159477486Y-127168394D01*
X159558818Y-127168394D01*
X159697487Y-126623855D01*
X159687901Y-126740481D01*
X159687901Y-127270000D01*
X159841591Y-127270000D01*
X159841591Y-126199239D01*
X159690648Y-126199239D01*
X159522609Y-126788780D01*
X159518518Y-126837140D01*
X159514427Y-126788780D01*
X159346327Y-126199239D01*
X159195385Y-126199239D01*
X159195385Y-127270000D01*
G37*
G36*
X159022826Y-126584199D02*
G01*
X159048835Y-126599753D01*
X159064661Y-126624791D01*
X159070577Y-126662995D01*
X159070577Y-126789330D01*
X158929160Y-126789330D01*
X158929160Y-126695540D01*
X158779562Y-126695540D01*
X158779562Y-126851856D01*
X158990648Y-126851856D01*
X159031008Y-126857751D01*
X159057017Y-126873305D01*
X159072843Y-126898343D01*
X159078759Y-126936547D01*
X159078759Y-127189216D01*
X159072944Y-127227656D01*
X159057474Y-127252680D01*
X159032260Y-127268096D01*
X158993396Y-127273907D01*
X158887517Y-127263405D01*
X158780966Y-127246552D01*
X158780966Y-127270000D01*
X158631367Y-127270000D01*
X158631367Y-127146901D01*
X158779562Y-127146901D01*
X158929160Y-127152763D01*
X158929160Y-126957369D01*
X158779562Y-126957369D01*
X158779562Y-127146901D01*
X158631367Y-127146901D01*
X158631367Y-126662995D01*
X158637232Y-126624671D01*
X158652877Y-126599640D01*
X158678479Y-126584156D01*
X158718073Y-126578304D01*
X158982466Y-126578304D01*
X159022826Y-126584199D01*
G37*
G36*
X158051901Y-126578304D02*
G01*
X158224764Y-127262733D01*
X158291015Y-127524012D01*
X158450872Y-127524012D01*
X158379125Y-127266092D01*
X158554003Y-126578304D01*
X158393475Y-126578304D01*
X158302616Y-127035526D01*
X158211758Y-126578304D01*
X158051901Y-126578304D01*
G37*
G36*
X157464741Y-126504237D02*
G01*
X157468198Y-126537162D01*
X157479312Y-126574173D01*
X157499607Y-126616284D01*
X157793309Y-127129316D01*
X157466085Y-127129316D01*
X157466085Y-127270000D01*
X157984551Y-127270000D01*
X157984551Y-127170348D01*
X157622522Y-126533668D01*
X157622522Y-126336015D01*
X157817184Y-126336015D01*
X157817184Y-126535317D01*
X157973621Y-126535317D01*
X157973621Y-126283930D01*
X157967370Y-126246503D01*
X157950329Y-126221416D01*
X157921552Y-126205411D01*
X157875924Y-126199239D01*
X157562377Y-126199239D01*
X157516783Y-126205409D01*
X157488024Y-126221411D01*
X157470990Y-126246499D01*
X157464741Y-126283930D01*
X157464741Y-126504237D01*
G37*
G36*
X157298572Y-126205391D02*
G01*
X157327137Y-126221362D01*
X157344087Y-126246446D01*
X157350314Y-126283930D01*
X157350314Y-127185308D01*
X157344156Y-127222951D01*
X157327458Y-127248025D01*
X157299475Y-127263904D01*
X157255364Y-127270000D01*
X156922034Y-127270000D01*
X156877148Y-127263865D01*
X156848759Y-127247921D01*
X156831886Y-127222840D01*
X156825680Y-127185308D01*
X156825680Y-127133224D01*
X156982117Y-127133224D01*
X157193204Y-127133224D01*
X157193204Y-126336015D01*
X156982117Y-126336015D01*
X156982117Y-127133224D01*
X156825680Y-127133224D01*
X156825680Y-126283930D01*
X156831886Y-126246399D01*
X156848759Y-126221318D01*
X156877148Y-126205373D01*
X156922034Y-126199239D01*
X157253349Y-126199239D01*
X157298572Y-126205391D01*
G37*
G36*
X156195655Y-126504237D02*
G01*
X156199113Y-126537162D01*
X156210226Y-126574173D01*
X156230521Y-126616284D01*
X156524223Y-127129316D01*
X156196999Y-127129316D01*
X156196999Y-127270000D01*
X156715465Y-127270000D01*
X156715465Y-127170348D01*
X156353436Y-126533668D01*
X156353436Y-126336015D01*
X156548098Y-126336015D01*
X156548098Y-126535317D01*
X156704535Y-126535317D01*
X156704535Y-126283930D01*
X156698284Y-126246503D01*
X156681243Y-126221416D01*
X156652466Y-126205411D01*
X156606838Y-126199239D01*
X156293292Y-126199239D01*
X156247697Y-126205409D01*
X156218939Y-126221411D01*
X156201905Y-126246499D01*
X156195655Y-126283930D01*
X156195655Y-126504237D01*
G37*
G36*
X156030389Y-126205334D02*
G01*
X156058373Y-126221214D01*
X156075070Y-126246288D01*
X156081228Y-126283930D01*
X156081228Y-127185308D01*
X156075001Y-127222792D01*
X156058051Y-127247876D01*
X156029486Y-127263848D01*
X155984263Y-127270000D01*
X155659787Y-127270000D01*
X155614901Y-127263865D01*
X155586512Y-127247921D01*
X155569638Y-127222840D01*
X155563433Y-127185308D01*
X155563433Y-127133224D01*
X155719870Y-127133224D01*
X155924118Y-127133224D01*
X155924118Y-126793237D01*
X155719870Y-126793237D01*
X155719870Y-127133224D01*
X155563433Y-127133224D01*
X155563433Y-126741153D01*
X155569638Y-126703621D01*
X155586512Y-126678540D01*
X155614901Y-126662596D01*
X155659787Y-126656461D01*
X155924118Y-126656461D01*
X155924118Y-126336015D01*
X155723290Y-126336015D01*
X155723290Y-126523593D01*
X155566181Y-126523593D01*
X155566181Y-126283930D01*
X155572384Y-126246394D01*
X155589250Y-126221313D01*
X155617622Y-126205372D01*
X155662473Y-126199239D01*
X155986278Y-126199239D01*
X156030389Y-126205334D01*
G37*
D11*
X158746000Y-109389232D02*
X158746000Y-111674947D01*
X159888857Y-110532089D02*
X157603142Y-110532089D01*
D12*
%TO.C,G\u002A\u002A\u002A*%
G36*
X160518800Y-123211200D02*
G01*
X160518000Y-123212000D01*
X160517200Y-123211200D01*
X160518000Y-123210400D01*
X160518800Y-123211200D01*
G37*
G36*
X160422800Y-123152000D02*
G01*
X160422000Y-123152800D01*
X160421200Y-123152000D01*
X160422000Y-123151200D01*
X160422800Y-123152000D01*
G37*
G36*
X158029200Y-122814400D02*
G01*
X158028400Y-122815200D01*
X158027600Y-122814400D01*
X158028400Y-122813600D01*
X158029200Y-122814400D01*
G37*
G36*
X157988558Y-122379520D02*
G01*
X157988922Y-122382357D01*
X157989043Y-122387442D01*
X157988948Y-122394242D01*
X157988660Y-122402226D01*
X157988204Y-122410862D01*
X157987605Y-122419620D01*
X157986889Y-122427966D01*
X157986079Y-122435370D01*
X157985200Y-122441299D01*
X157984543Y-122444864D01*
X157980294Y-122464587D01*
X157975082Y-122483362D01*
X157968623Y-122502030D01*
X157960630Y-122521429D01*
X157950819Y-122542400D01*
X157938953Y-122564861D01*
X157924026Y-122589311D01*
X157907765Y-122612434D01*
X157890386Y-122634030D01*
X157872102Y-122653895D01*
X157853131Y-122671829D01*
X157833687Y-122687629D01*
X157813986Y-122701094D01*
X157794243Y-122712021D01*
X157774672Y-122720210D01*
X157755491Y-122725458D01*
X157751427Y-122726105D01*
X157741735Y-122726862D01*
X157731280Y-122726874D01*
X157721358Y-122726163D01*
X157713267Y-122724750D01*
X157708110Y-122723232D01*
X157694085Y-122717030D01*
X157682063Y-122708367D01*
X157672138Y-122697337D01*
X157664401Y-122684039D01*
X157658948Y-122668569D01*
X157657865Y-122663895D01*
X157656809Y-122657925D01*
X157656400Y-122653525D01*
X157656400Y-122648312D01*
X157665940Y-122657412D01*
X157669769Y-122660797D01*
X157678099Y-122666935D01*
X157686340Y-122671655D01*
X157689507Y-122673129D01*
X157693704Y-122674847D01*
X157697622Y-122675924D01*
X157702131Y-122676510D01*
X157708101Y-122676752D01*
X157716400Y-122676800D01*
X157722157Y-122676732D01*
X157732000Y-122676125D01*
X157740870Y-122674700D01*
X157749683Y-122672229D01*
X157759354Y-122668482D01*
X157770800Y-122663232D01*
X157773820Y-122661746D01*
X157794336Y-122649926D01*
X157814934Y-122635144D01*
X157835457Y-122617600D01*
X157855748Y-122597491D01*
X157875650Y-122575016D01*
X157895004Y-122550374D01*
X157913655Y-122523763D01*
X157931444Y-122495382D01*
X157948215Y-122465428D01*
X157963810Y-122434101D01*
X157978072Y-122401600D01*
X157979083Y-122399148D01*
X157982204Y-122391760D01*
X157984921Y-122385582D01*
X157986974Y-122381199D01*
X157988098Y-122379200D01*
X157988558Y-122379520D01*
G37*
G36*
X156946980Y-119636171D02*
G01*
X156948801Y-119638206D01*
X156952201Y-119642249D01*
X156956880Y-119647938D01*
X156962539Y-119654909D01*
X156968878Y-119662800D01*
X156993489Y-119694202D01*
X157019534Y-119728654D01*
X157046678Y-119765717D01*
X157074813Y-119805237D01*
X157103829Y-119847059D01*
X157133620Y-119891029D01*
X157164076Y-119936994D01*
X157195089Y-119984800D01*
X157201037Y-119994089D01*
X157208811Y-120006297D01*
X157217198Y-120019525D01*
X157226041Y-120033524D01*
X157235186Y-120048045D01*
X157244479Y-120062842D01*
X157253765Y-120077665D01*
X157262889Y-120092266D01*
X157271696Y-120106396D01*
X157280031Y-120119808D01*
X157287741Y-120132253D01*
X157294669Y-120143482D01*
X157300662Y-120153248D01*
X157305565Y-120161303D01*
X157309222Y-120167396D01*
X157311480Y-120171282D01*
X157312182Y-120172710D01*
X157311181Y-120172784D01*
X157307286Y-120172794D01*
X157300758Y-120172710D01*
X157291921Y-120172541D01*
X157281098Y-120172296D01*
X157268610Y-120171983D01*
X157254780Y-120171610D01*
X157239932Y-120171186D01*
X157224387Y-120170720D01*
X157208468Y-120170219D01*
X157192498Y-120169693D01*
X157176799Y-120169150D01*
X157174457Y-120169070D01*
X157164903Y-120168814D01*
X157156646Y-120168703D01*
X157150159Y-120168736D01*
X157145918Y-120168912D01*
X157144399Y-120169229D01*
X157145123Y-120170942D01*
X157147151Y-120175002D01*
X157150243Y-120180944D01*
X157154159Y-120188305D01*
X157158658Y-120196626D01*
X157175018Y-120226976D01*
X157198375Y-120271458D01*
X157221008Y-120315925D01*
X157242767Y-120360058D01*
X157263505Y-120403539D01*
X157283074Y-120446049D01*
X157301323Y-120487269D01*
X157318106Y-120526880D01*
X157333273Y-120564563D01*
X157346675Y-120600000D01*
X157355424Y-120624000D01*
X157349820Y-120617600D01*
X157345334Y-120612353D01*
X157338628Y-120604262D01*
X157330655Y-120594455D01*
X157321771Y-120583381D01*
X157312333Y-120571490D01*
X157302696Y-120559230D01*
X157293219Y-120547051D01*
X157284256Y-120535402D01*
X157276164Y-120524733D01*
X157248143Y-120486865D01*
X157219983Y-120447619D01*
X157191568Y-120406815D01*
X157162710Y-120364173D01*
X157133217Y-120319410D01*
X157102899Y-120272246D01*
X157071566Y-120222400D01*
X157069856Y-120219649D01*
X157061414Y-120206012D01*
X157052652Y-120191773D01*
X157043722Y-120177186D01*
X157034780Y-120162508D01*
X157025977Y-120147995D01*
X157017468Y-120133904D01*
X157009407Y-120120490D01*
X157001946Y-120108009D01*
X156995240Y-120096717D01*
X156989442Y-120086871D01*
X156984706Y-120078727D01*
X156981185Y-120072540D01*
X156979033Y-120068567D01*
X156978403Y-120067064D01*
X156978986Y-120066987D01*
X156982322Y-120066971D01*
X156988290Y-120067097D01*
X156996525Y-120067352D01*
X157006664Y-120067718D01*
X157018344Y-120068181D01*
X157031202Y-120068724D01*
X157044875Y-120069334D01*
X157058998Y-120069993D01*
X157073210Y-120070686D01*
X157087146Y-120071398D01*
X157100443Y-120072113D01*
X157112739Y-120072816D01*
X157118778Y-120073165D01*
X157127796Y-120073655D01*
X157135673Y-120074046D01*
X157141726Y-120074306D01*
X157145270Y-120074400D01*
X157151062Y-120074400D01*
X157143579Y-120060400D01*
X157141280Y-120056094D01*
X157114201Y-120004589D01*
X157088137Y-119953555D01*
X157063227Y-119903286D01*
X157039609Y-119854071D01*
X157017420Y-119806204D01*
X156996798Y-119759975D01*
X156977880Y-119715676D01*
X156960805Y-119673600D01*
X156956291Y-119662145D01*
X156952782Y-119653227D01*
X156950190Y-119646607D01*
X156948388Y-119641943D01*
X156947249Y-119638892D01*
X156946644Y-119637114D01*
X156946447Y-119636267D01*
X156946530Y-119636009D01*
X156946765Y-119636000D01*
X156946980Y-119636171D01*
G37*
G36*
X155516985Y-122893017D02*
G01*
X155516289Y-122894848D01*
X155514135Y-122899392D01*
X155510576Y-122906552D01*
X155505659Y-122916230D01*
X155499436Y-122928329D01*
X155491956Y-122942751D01*
X155483269Y-122959400D01*
X155473426Y-122978177D01*
X155462476Y-122998986D01*
X155460542Y-123002664D01*
X155455148Y-123013026D01*
X155450378Y-123022339D01*
X155446410Y-123030248D01*
X155443418Y-123036399D01*
X155441581Y-123040437D01*
X155441074Y-123042006D01*
X155441644Y-123042101D01*
X155444956Y-123042183D01*
X155450867Y-123042150D01*
X155458990Y-123042008D01*
X155468938Y-123041766D01*
X155480322Y-123041430D01*
X155492754Y-123041008D01*
X155509928Y-123040424D01*
X155548071Y-123039370D01*
X155586292Y-123038633D01*
X155624319Y-123038208D01*
X155661879Y-123038090D01*
X155698701Y-123038273D01*
X155734512Y-123038752D01*
X155769040Y-123039522D01*
X155802012Y-123040576D01*
X155833155Y-123041909D01*
X155862198Y-123043516D01*
X155888869Y-123045392D01*
X155912893Y-123047530D01*
X155934000Y-123049925D01*
X155942000Y-123050957D01*
X155927600Y-123054651D01*
X155905836Y-123060012D01*
X155879213Y-123066104D01*
X155850253Y-123072305D01*
X155819402Y-123078531D01*
X155787106Y-123084698D01*
X155753811Y-123090719D01*
X155719965Y-123096510D01*
X155686013Y-123101986D01*
X155652400Y-123107063D01*
X155630357Y-123110220D01*
X155607727Y-123113346D01*
X155584921Y-123116369D01*
X155561638Y-123119326D01*
X155537575Y-123122250D01*
X155512432Y-123125175D01*
X155485907Y-123128136D01*
X155457698Y-123131168D01*
X155427505Y-123134303D01*
X155395025Y-123137578D01*
X155359958Y-123141025D01*
X155322000Y-123144680D01*
X155321992Y-123144681D01*
X155311766Y-123145628D01*
X155302114Y-123146469D01*
X155293687Y-123147152D01*
X155287139Y-123147622D01*
X155283122Y-123147829D01*
X155275444Y-123148000D01*
X155280950Y-123138000D01*
X155282143Y-123135824D01*
X155285016Y-123130562D01*
X155289101Y-123123067D01*
X155294213Y-123113679D01*
X155300167Y-123102738D01*
X155306778Y-123090584D01*
X155313859Y-123077558D01*
X155321227Y-123064000D01*
X155327047Y-123053302D01*
X155333911Y-123040727D01*
X155340220Y-123029209D01*
X155345813Y-123019043D01*
X155350529Y-123010521D01*
X155354207Y-123003935D01*
X155356684Y-122999577D01*
X155357800Y-122997742D01*
X155358066Y-122997215D01*
X155357566Y-122996613D01*
X155355665Y-122996229D01*
X155352003Y-122996049D01*
X155346221Y-122996061D01*
X155337960Y-122996251D01*
X155326862Y-122996605D01*
X155308290Y-122997206D01*
X155271272Y-122998203D01*
X155234069Y-122998950D01*
X155197056Y-122999449D01*
X155160608Y-122999699D01*
X155125101Y-122999701D01*
X155090910Y-122999457D01*
X155058409Y-122998966D01*
X155027974Y-122998230D01*
X154999979Y-122997248D01*
X154974800Y-122996022D01*
X154967233Y-122995578D01*
X154956171Y-122994896D01*
X154944339Y-122994135D01*
X154932177Y-122993327D01*
X154920125Y-122992502D01*
X154908625Y-122991693D01*
X154898115Y-122990929D01*
X154889038Y-122990243D01*
X154881832Y-122989664D01*
X154876940Y-122989225D01*
X154874800Y-122988957D01*
X154874726Y-122988844D01*
X154876495Y-122988111D01*
X154880946Y-122986831D01*
X154887743Y-122985086D01*
X154896551Y-122982954D01*
X154907036Y-122980516D01*
X154918862Y-122977852D01*
X154931695Y-122975041D01*
X154945200Y-122972164D01*
X154955485Y-122970030D01*
X154993710Y-122962505D01*
X155034715Y-122955028D01*
X155078174Y-122947649D01*
X155123758Y-122940422D01*
X155171142Y-122933399D01*
X155219999Y-122926632D01*
X155270000Y-122920174D01*
X155282580Y-122918627D01*
X155297242Y-122916864D01*
X155313190Y-122914979D01*
X155330144Y-122913003D01*
X155347827Y-122910967D01*
X155365958Y-122908901D01*
X155384259Y-122906836D01*
X155402450Y-122904803D01*
X155420254Y-122902833D01*
X155437390Y-122900956D01*
X155453579Y-122899203D01*
X155468544Y-122897605D01*
X155482004Y-122896192D01*
X155493680Y-122894996D01*
X155503294Y-122894046D01*
X155510567Y-122893374D01*
X155515219Y-122893011D01*
X155516972Y-122892986D01*
X155516985Y-122893017D01*
G37*
G36*
X155456723Y-121085860D02*
G01*
X155460962Y-121086902D01*
X155467466Y-121088621D01*
X155475779Y-121090888D01*
X155485449Y-121093578D01*
X155496022Y-121096561D01*
X155507043Y-121099711D01*
X155518058Y-121102901D01*
X155528614Y-121106003D01*
X155538256Y-121108889D01*
X155570024Y-121118725D01*
X155609387Y-121131463D01*
X155650547Y-121145366D01*
X155693631Y-121160478D01*
X155738765Y-121176848D01*
X155786076Y-121194520D01*
X155835688Y-121213543D01*
X155887729Y-121233963D01*
X155942324Y-121255825D01*
X155999600Y-121279177D01*
X156003553Y-121280802D01*
X156016438Y-121286095D01*
X156028406Y-121291008D01*
X156039117Y-121295402D01*
X156048231Y-121299135D01*
X156055406Y-121302070D01*
X156060302Y-121304066D01*
X156062580Y-121304985D01*
X156066359Y-121306457D01*
X156062580Y-121309383D01*
X156060958Y-121310532D01*
X156056941Y-121313303D01*
X156050881Y-121317454D01*
X156043094Y-121322770D01*
X156033896Y-121329036D01*
X156023603Y-121336039D01*
X156012531Y-121343563D01*
X156000995Y-121351396D01*
X155989312Y-121359321D01*
X155977797Y-121367125D01*
X155966768Y-121374593D01*
X155956538Y-121381510D01*
X155947426Y-121387664D01*
X155939746Y-121392838D01*
X155933814Y-121396818D01*
X155929947Y-121399391D01*
X155929784Y-121399499D01*
X155928766Y-121400277D01*
X155928374Y-121401082D01*
X155928890Y-121402085D01*
X155930595Y-121403458D01*
X155933770Y-121405373D01*
X155938698Y-121408000D01*
X155945658Y-121411513D01*
X155954934Y-121416082D01*
X155966806Y-121421879D01*
X155988241Y-121432431D01*
X156019867Y-121448326D01*
X156052220Y-121464943D01*
X156084894Y-121482061D01*
X156117481Y-121499458D01*
X156149575Y-121516912D01*
X156180769Y-121534201D01*
X156210655Y-121551103D01*
X156238827Y-121567396D01*
X156264878Y-121582858D01*
X156288400Y-121597268D01*
X156290499Y-121598579D01*
X156300847Y-121605099D01*
X156311493Y-121611879D01*
X156322061Y-121618673D01*
X156332176Y-121625237D01*
X156341461Y-121631324D01*
X156349542Y-121636689D01*
X156356042Y-121641084D01*
X156360587Y-121644265D01*
X156362800Y-121645985D01*
X156363250Y-121646897D01*
X156361200Y-121646654D01*
X156359361Y-121646163D01*
X156354749Y-121644978D01*
X156348428Y-121643381D01*
X156341200Y-121641574D01*
X156324024Y-121637158D01*
X156296403Y-121629547D01*
X156266429Y-121620745D01*
X156234421Y-121610862D01*
X156200702Y-121600003D01*
X156165591Y-121588278D01*
X156129410Y-121575793D01*
X156092480Y-121562657D01*
X156055121Y-121548977D01*
X156017654Y-121534862D01*
X155980400Y-121520418D01*
X155976275Y-121518791D01*
X155961769Y-121513025D01*
X155946080Y-121506724D01*
X155929451Y-121499991D01*
X155912126Y-121492929D01*
X155894351Y-121485639D01*
X155876367Y-121478224D01*
X155858421Y-121470787D01*
X155840755Y-121463429D01*
X155823613Y-121456253D01*
X155807240Y-121449362D01*
X155791880Y-121442857D01*
X155777776Y-121436841D01*
X155765172Y-121431416D01*
X155754313Y-121426685D01*
X155745442Y-121422750D01*
X155738804Y-121419713D01*
X155734642Y-121417677D01*
X155733200Y-121416743D01*
X155733513Y-121416410D01*
X155736023Y-121414523D01*
X155740821Y-121411166D01*
X155747638Y-121406519D01*
X155756203Y-121400759D01*
X155766246Y-121394066D01*
X155777499Y-121386616D01*
X155789691Y-121378589D01*
X155802551Y-121370163D01*
X155815812Y-121361516D01*
X155829201Y-121352828D01*
X155842451Y-121344275D01*
X155855290Y-121336036D01*
X155877380Y-121321911D01*
X155804090Y-121284836D01*
X155792402Y-121278912D01*
X155759080Y-121261883D01*
X155728125Y-121245833D01*
X155699112Y-121230532D01*
X155671618Y-121215749D01*
X155645220Y-121201256D01*
X155619492Y-121186824D01*
X155594012Y-121172223D01*
X155568356Y-121157223D01*
X155560320Y-121152451D01*
X155548696Y-121145462D01*
X155536631Y-121138121D01*
X155524415Y-121130611D01*
X155512335Y-121123115D01*
X155500682Y-121115816D01*
X155489743Y-121108897D01*
X155479807Y-121102540D01*
X155471164Y-121096929D01*
X155464101Y-121092247D01*
X155458908Y-121088676D01*
X155455873Y-121086399D01*
X155455284Y-121085600D01*
X155456723Y-121085860D01*
G37*
G36*
X156120093Y-120237507D02*
G01*
X156123341Y-120239392D01*
X156128274Y-120242497D01*
X156135131Y-120246967D01*
X156144152Y-120252949D01*
X156155576Y-120260589D01*
X156185698Y-120281138D01*
X156223193Y-120307612D01*
X156262512Y-120336287D01*
X156303504Y-120367051D01*
X156346019Y-120399787D01*
X156389905Y-120434382D01*
X156435013Y-120470721D01*
X156481192Y-120508689D01*
X156484973Y-120511830D01*
X156498895Y-120523423D01*
X156513104Y-120535296D01*
X156527390Y-120547269D01*
X156541541Y-120559163D01*
X156555347Y-120570800D01*
X156568595Y-120581999D01*
X156581075Y-120592582D01*
X156592577Y-120602369D01*
X156602888Y-120611181D01*
X156611797Y-120618838D01*
X156619095Y-120625163D01*
X156624568Y-120629975D01*
X156628007Y-120633095D01*
X156629200Y-120634344D01*
X156629151Y-120634463D01*
X156627251Y-120635526D01*
X156623148Y-120637056D01*
X156617600Y-120638765D01*
X156610753Y-120640709D01*
X156601312Y-120643405D01*
X156590360Y-120646544D01*
X156578250Y-120650026D01*
X156565335Y-120653746D01*
X156551967Y-120657604D01*
X156538500Y-120661497D01*
X156525285Y-120665323D01*
X156512677Y-120668980D01*
X156501027Y-120672365D01*
X156490688Y-120675377D01*
X156482014Y-120677913D01*
X156475357Y-120679872D01*
X156471070Y-120681150D01*
X156469505Y-120681646D01*
X156469530Y-120681699D01*
X156470963Y-120683274D01*
X156474458Y-120686902D01*
X156479843Y-120692410D01*
X156486945Y-120699625D01*
X156495595Y-120708372D01*
X156505619Y-120718478D01*
X156516845Y-120729771D01*
X156529103Y-120742076D01*
X156542221Y-120755219D01*
X156556025Y-120769028D01*
X156565776Y-120778784D01*
X156587679Y-120800783D01*
X156607605Y-120820938D01*
X156625794Y-120839507D01*
X156642486Y-120856745D01*
X156657921Y-120872911D01*
X156672339Y-120888260D01*
X156685979Y-120903050D01*
X156699083Y-120917538D01*
X156711890Y-120931980D01*
X156724640Y-120946633D01*
X156737573Y-120961754D01*
X156750929Y-120977600D01*
X156753757Y-120980989D01*
X156760354Y-120988977D01*
X156767448Y-120997656D01*
X156774757Y-121006674D01*
X156782001Y-121015679D01*
X156788899Y-121024319D01*
X156795172Y-121032243D01*
X156800539Y-121039097D01*
X156804720Y-121044532D01*
X156807434Y-121048194D01*
X156808400Y-121049732D01*
X156807943Y-121049685D01*
X156805258Y-121048304D01*
X156800463Y-121045477D01*
X156793897Y-121041425D01*
X156785899Y-121036365D01*
X156776807Y-121030516D01*
X156766960Y-121024097D01*
X156756697Y-121017327D01*
X156746357Y-121010423D01*
X156736279Y-121003604D01*
X156726800Y-120997089D01*
X156691353Y-120972123D01*
X156645490Y-120938740D01*
X156598750Y-120903512D01*
X156550885Y-120866248D01*
X156501651Y-120826760D01*
X156450800Y-120784859D01*
X156447988Y-120782511D01*
X156435113Y-120771714D01*
X156421587Y-120760305D01*
X156407618Y-120748464D01*
X156393412Y-120736369D01*
X156379174Y-120724198D01*
X156365112Y-120712131D01*
X156351430Y-120700345D01*
X156338335Y-120689019D01*
X156326034Y-120678333D01*
X156314732Y-120668463D01*
X156304635Y-120659590D01*
X156295951Y-120651892D01*
X156288884Y-120645546D01*
X156283641Y-120640733D01*
X156280428Y-120637629D01*
X156279452Y-120636415D01*
X156279958Y-120636181D01*
X156283128Y-120635154D01*
X156289203Y-120633370D01*
X156298211Y-120630822D01*
X156310178Y-120627502D01*
X156325132Y-120623402D01*
X156343100Y-120618516D01*
X156364110Y-120612835D01*
X156388188Y-120606352D01*
X156400649Y-120602991D01*
X156412499Y-120599771D01*
X156423006Y-120596893D01*
X156431821Y-120594451D01*
X156438593Y-120592545D01*
X156442972Y-120591270D01*
X156444610Y-120590723D01*
X156444551Y-120590592D01*
X156442952Y-120588761D01*
X156439351Y-120584955D01*
X156433957Y-120579389D01*
X156426981Y-120572277D01*
X156418633Y-120563833D01*
X156409125Y-120554270D01*
X156398667Y-120543802D01*
X156387469Y-120532644D01*
X156358531Y-120503700D01*
X156326248Y-120470940D01*
X156295987Y-120439671D01*
X156267492Y-120409616D01*
X156240505Y-120380497D01*
X156214770Y-120352036D01*
X156190030Y-120323956D01*
X156166028Y-120295979D01*
X156142506Y-120267827D01*
X156139000Y-120263571D01*
X156132568Y-120255730D01*
X156126949Y-120248842D01*
X156122451Y-120243283D01*
X156119380Y-120239432D01*
X156118043Y-120237668D01*
X156117694Y-120236808D01*
X156118291Y-120236694D01*
X156120093Y-120237507D01*
G37*
G36*
X155074766Y-122018907D02*
G01*
X155095264Y-122019684D01*
X155118116Y-122020855D01*
X155143063Y-122022401D01*
X155169851Y-122024300D01*
X155198222Y-122026531D01*
X155227920Y-122029074D01*
X155258688Y-122031908D01*
X155290269Y-122035011D01*
X155322408Y-122038362D01*
X155354847Y-122041942D01*
X155387330Y-122045728D01*
X155419600Y-122049699D01*
X155422800Y-122050108D01*
X155432139Y-122051332D01*
X155443506Y-122052854D01*
X155456614Y-122054634D01*
X155471173Y-122056631D01*
X155486894Y-122058803D01*
X155503489Y-122061111D01*
X155520669Y-122063514D01*
X155538145Y-122065969D01*
X155555628Y-122068437D01*
X155572829Y-122070876D01*
X155589460Y-122073246D01*
X155605232Y-122075505D01*
X155619855Y-122077613D01*
X155633042Y-122079529D01*
X155644502Y-122081211D01*
X155653949Y-122082620D01*
X155661091Y-122083713D01*
X155665642Y-122084451D01*
X155667311Y-122084791D01*
X155667276Y-122084916D01*
X155665831Y-122086821D01*
X155662430Y-122090866D01*
X155657230Y-122096873D01*
X155650390Y-122104664D01*
X155642067Y-122114062D01*
X155632418Y-122124888D01*
X155621603Y-122136966D01*
X155609778Y-122150117D01*
X155597101Y-122164163D01*
X155583730Y-122178928D01*
X155577438Y-122185885D01*
X155570585Y-122193512D01*
X155564715Y-122200098D01*
X155560123Y-122205314D01*
X155557100Y-122208828D01*
X155555940Y-122210308D01*
X155557002Y-122211166D01*
X155560459Y-122212327D01*
X155565540Y-122213494D01*
X155573281Y-122215011D01*
X155593130Y-122219106D01*
X155615436Y-122223952D01*
X155639772Y-122229444D01*
X155665710Y-122235477D01*
X155692824Y-122241946D01*
X155720685Y-122248746D01*
X155748865Y-122255771D01*
X155776938Y-122262918D01*
X155804475Y-122270080D01*
X155831050Y-122277153D01*
X155856234Y-122284033D01*
X155879600Y-122290613D01*
X155888009Y-122293053D01*
X155901488Y-122297064D01*
X155915827Y-122301433D01*
X155930701Y-122306054D01*
X155945783Y-122310817D01*
X155960745Y-122315616D01*
X155975261Y-122320344D01*
X155989004Y-122324892D01*
X156001647Y-122329153D01*
X156012863Y-122333019D01*
X156022326Y-122336384D01*
X156029708Y-122339138D01*
X156034682Y-122341176D01*
X156036922Y-122342388D01*
X156036928Y-122342482D01*
X156035097Y-122342808D01*
X156030587Y-122343032D01*
X156023818Y-122343157D01*
X156015210Y-122343188D01*
X156005181Y-122343128D01*
X155994150Y-122342981D01*
X155982538Y-122342751D01*
X155970763Y-122342441D01*
X155959244Y-122342055D01*
X155948400Y-122341597D01*
X155931232Y-122340737D01*
X155882021Y-122337780D01*
X155832227Y-122334051D01*
X155781442Y-122329507D01*
X155729257Y-122324109D01*
X155675265Y-122317814D01*
X155619056Y-122310581D01*
X155560223Y-122302369D01*
X155550129Y-122300898D01*
X155535785Y-122298776D01*
X155520421Y-122296474D01*
X155504359Y-122294041D01*
X155487922Y-122291528D01*
X155471432Y-122288986D01*
X155455209Y-122286465D01*
X155439577Y-122284015D01*
X155424856Y-122281687D01*
X155411368Y-122279532D01*
X155399436Y-122277600D01*
X155389382Y-122275942D01*
X155381526Y-122274607D01*
X155376191Y-122273647D01*
X155373699Y-122273112D01*
X155373664Y-122273101D01*
X155372919Y-122272884D01*
X155372353Y-122272617D01*
X155372108Y-122272135D01*
X155372328Y-122271275D01*
X155373155Y-122269872D01*
X155374733Y-122267764D01*
X155377205Y-122264786D01*
X155380713Y-122260776D01*
X155385401Y-122255569D01*
X155391412Y-122249002D01*
X155398888Y-122240911D01*
X155407973Y-122231133D01*
X155418810Y-122219504D01*
X155431541Y-122205860D01*
X155446310Y-122190038D01*
X155450777Y-122185249D01*
X155460725Y-122174547D01*
X155468718Y-122165871D01*
X155474933Y-122159009D01*
X155479547Y-122153749D01*
X155482739Y-122149879D01*
X155484686Y-122147188D01*
X155485565Y-122145462D01*
X155485555Y-122144491D01*
X155484832Y-122144062D01*
X155484805Y-122144056D01*
X155482365Y-122143512D01*
X155477184Y-122142359D01*
X155469636Y-122140679D01*
X155460093Y-122138555D01*
X155448927Y-122136071D01*
X155436510Y-122133309D01*
X155423216Y-122130352D01*
X155402429Y-122125689D01*
X155349417Y-122113398D01*
X155299022Y-122101102D01*
X155250825Y-122088686D01*
X155204404Y-122076037D01*
X155159340Y-122063043D01*
X155115212Y-122049590D01*
X155071600Y-122035564D01*
X155022000Y-122019200D01*
X155039600Y-122018683D01*
X155041856Y-122018624D01*
X155056878Y-122018547D01*
X155074766Y-122018907D01*
G37*
G36*
X158788716Y-120628332D02*
G01*
X158824222Y-120651201D01*
X158868050Y-120682673D01*
X158910665Y-120716560D01*
X158951802Y-120752650D01*
X158991198Y-120790729D01*
X159028590Y-120830583D01*
X159063714Y-120872000D01*
X159088634Y-120904142D01*
X159123217Y-120953094D01*
X159155384Y-121004056D01*
X159185097Y-121056934D01*
X159212318Y-121111634D01*
X159237010Y-121168060D01*
X159259135Y-121226120D01*
X159278655Y-121285717D01*
X159295532Y-121346758D01*
X159309728Y-121409149D01*
X159321206Y-121472794D01*
X159329929Y-121537600D01*
X159331499Y-121551782D01*
X159333011Y-121566049D01*
X159334298Y-121579155D01*
X159335379Y-121591497D01*
X159336272Y-121603471D01*
X159336993Y-121615475D01*
X159337562Y-121627903D01*
X159337995Y-121641153D01*
X159338311Y-121655621D01*
X159338528Y-121671703D01*
X159338663Y-121689796D01*
X159338735Y-121710296D01*
X159338761Y-121733600D01*
X159338752Y-121739200D01*
X159338719Y-121759084D01*
X159338508Y-121788457D01*
X159338097Y-121815556D01*
X159337458Y-121840894D01*
X159336566Y-121864982D01*
X159335393Y-121888333D01*
X159333914Y-121911460D01*
X159332103Y-121934874D01*
X159329932Y-121959088D01*
X159327375Y-121984614D01*
X159324406Y-122011965D01*
X159320558Y-122046330D01*
X159330413Y-122059965D01*
X159371102Y-122115120D01*
X159415463Y-122172746D01*
X159460265Y-122228404D01*
X159505307Y-122281857D01*
X159550390Y-122332869D01*
X159595314Y-122381204D01*
X159639880Y-122426624D01*
X159670000Y-122456448D01*
X159683600Y-122460832D01*
X159700674Y-122466769D01*
X159719787Y-122474179D01*
X159740049Y-122482681D01*
X159760699Y-122491933D01*
X159780976Y-122501595D01*
X159800120Y-122511324D01*
X159817368Y-122520781D01*
X159818876Y-122521654D01*
X159826139Y-122525990D01*
X159835184Y-122531543D01*
X159845311Y-122537874D01*
X159855817Y-122544547D01*
X159866000Y-122551122D01*
X159867751Y-122552252D01*
X159873018Y-122555608D01*
X159880828Y-122560550D01*
X159891067Y-122567008D01*
X159903625Y-122574911D01*
X159918389Y-122584189D01*
X159935247Y-122594773D01*
X159954088Y-122606591D01*
X159974798Y-122619574D01*
X159997266Y-122633652D01*
X160021380Y-122648754D01*
X160047028Y-122664811D01*
X160074098Y-122681752D01*
X160102478Y-122699506D01*
X160132056Y-122718005D01*
X160162719Y-122737177D01*
X160194356Y-122756953D01*
X160226855Y-122777261D01*
X160260103Y-122798034D01*
X160293989Y-122819199D01*
X160328400Y-122840687D01*
X160348636Y-122853323D01*
X160382616Y-122874545D01*
X160415955Y-122895374D01*
X160448544Y-122915739D01*
X160480273Y-122935574D01*
X160511034Y-122954809D01*
X160540718Y-122973377D01*
X160569214Y-122991208D01*
X160596414Y-123008235D01*
X160622210Y-123024388D01*
X160646491Y-123039601D01*
X160669148Y-123053803D01*
X160690073Y-123066927D01*
X160709156Y-123078905D01*
X160726289Y-123089668D01*
X160741361Y-123099147D01*
X160754264Y-123107275D01*
X160764889Y-123113982D01*
X160773126Y-123119201D01*
X160778866Y-123122863D01*
X160782000Y-123124899D01*
X160819714Y-123151948D01*
X160856379Y-123181898D01*
X160891543Y-123214351D01*
X160924943Y-123249032D01*
X160956316Y-123285669D01*
X160985398Y-123323987D01*
X161011927Y-123363713D01*
X161015805Y-123369990D01*
X161041596Y-123415187D01*
X161064501Y-123461765D01*
X161084521Y-123509724D01*
X161101655Y-123559066D01*
X161115903Y-123609791D01*
X161127267Y-123661900D01*
X161135745Y-123715393D01*
X161136270Y-123720541D01*
X161141339Y-123770271D01*
X161141763Y-123777297D01*
X161142215Y-123789801D01*
X161142478Y-123804463D01*
X161142562Y-123820686D01*
X161142476Y-123837876D01*
X161142229Y-123855438D01*
X161141830Y-123872777D01*
X161141288Y-123889298D01*
X161140613Y-123904405D01*
X161139814Y-123917504D01*
X161138899Y-123928000D01*
X161138038Y-123935646D01*
X161135751Y-123953773D01*
X161133072Y-123972660D01*
X161130151Y-123991319D01*
X161127140Y-124008761D01*
X161124191Y-124024000D01*
X161114700Y-124065284D01*
X161102890Y-124107200D01*
X161099802Y-124118161D01*
X161082149Y-124169791D01*
X161061831Y-124220079D01*
X161038939Y-124268933D01*
X161013562Y-124316259D01*
X161007400Y-124326400D01*
X160985792Y-124361962D01*
X160955717Y-124405950D01*
X160923430Y-124448129D01*
X160889019Y-124488405D01*
X160852576Y-124526685D01*
X160814189Y-124562874D01*
X160782093Y-124589999D01*
X160773951Y-124596880D01*
X160731950Y-124628608D01*
X160688278Y-124657966D01*
X160643024Y-124684859D01*
X160596278Y-124709194D01*
X160548132Y-124730877D01*
X160498675Y-124749814D01*
X160447997Y-124765913D01*
X160396189Y-124779079D01*
X160381250Y-124782238D01*
X160353848Y-124787296D01*
X160324944Y-124791785D01*
X160295600Y-124795532D01*
X160292047Y-124795894D01*
X160281367Y-124796680D01*
X160268285Y-124797324D01*
X160253360Y-124797825D01*
X160237152Y-124798179D01*
X160220221Y-124798383D01*
X160203127Y-124798435D01*
X160186429Y-124798333D01*
X160170688Y-124798072D01*
X160156463Y-124797651D01*
X160144314Y-124797068D01*
X160134800Y-124796318D01*
X160092420Y-124790944D01*
X160043836Y-124782221D01*
X159996758Y-124770860D01*
X159950899Y-124756771D01*
X159905976Y-124739865D01*
X159861706Y-124720055D01*
X159817803Y-124697250D01*
X159813088Y-124694644D01*
X159803653Y-124689472D01*
X159792566Y-124683433D01*
X159780550Y-124676921D01*
X159768327Y-124670326D01*
X159756622Y-124664043D01*
X159718444Y-124643609D01*
X159713238Y-124649004D01*
X159712211Y-124650079D01*
X159708997Y-124653446D01*
X159703762Y-124658936D01*
X159696611Y-124666438D01*
X159687650Y-124675841D01*
X159676983Y-124687036D01*
X159664715Y-124699911D01*
X159650953Y-124714357D01*
X159635800Y-124730262D01*
X159619363Y-124747516D01*
X159601747Y-124766009D01*
X159583056Y-124785631D01*
X159563397Y-124806271D01*
X159542873Y-124827818D01*
X159521591Y-124850162D01*
X159499656Y-124873193D01*
X159477173Y-124896800D01*
X159461831Y-124912908D01*
X159439470Y-124936384D01*
X159417637Y-124959304D01*
X159396445Y-124981550D01*
X159376004Y-125003004D01*
X159356428Y-125023550D01*
X159337827Y-125043069D01*
X159320314Y-125061445D01*
X159304001Y-125078560D01*
X159288999Y-125094297D01*
X159275421Y-125108538D01*
X159263378Y-125121165D01*
X159252982Y-125132063D01*
X159244345Y-125141112D01*
X159237579Y-125148196D01*
X159232796Y-125153198D01*
X159230108Y-125156000D01*
X159228739Y-125157423D01*
X159224643Y-125161698D01*
X159218545Y-125168075D01*
X159210575Y-125176415D01*
X159200865Y-125186582D01*
X159189546Y-125198438D01*
X159176750Y-125211844D01*
X159162609Y-125226664D01*
X159147253Y-125242759D01*
X159130815Y-125259991D01*
X159113425Y-125278224D01*
X159095215Y-125297319D01*
X159076316Y-125317138D01*
X159056860Y-125337544D01*
X159036978Y-125358400D01*
X159017218Y-125379121D01*
X158994209Y-125403227D01*
X158973240Y-125425166D01*
X158954223Y-125445029D01*
X158937072Y-125462904D01*
X158921700Y-125478882D01*
X158908020Y-125493051D01*
X158895943Y-125505501D01*
X158885384Y-125516322D01*
X158876255Y-125525604D01*
X158868468Y-125533435D01*
X158861937Y-125539906D01*
X158856575Y-125545106D01*
X158852294Y-125549125D01*
X158849007Y-125552051D01*
X158846626Y-125553976D01*
X158835949Y-125561400D01*
X158813895Y-125574084D01*
X158790027Y-125584719D01*
X158764921Y-125593096D01*
X158739151Y-125599008D01*
X158713293Y-125602246D01*
X158707827Y-125602589D01*
X158699714Y-125602948D01*
X158692608Y-125603095D01*
X158687600Y-125602999D01*
X158686884Y-125602953D01*
X158680970Y-125602571D01*
X158673531Y-125602085D01*
X158666000Y-125601588D01*
X158651463Y-125599965D01*
X158632565Y-125596297D01*
X158612911Y-125590984D01*
X158593406Y-125584278D01*
X158574951Y-125576428D01*
X158572807Y-125575276D01*
X158567722Y-125572245D01*
X158560405Y-125567696D01*
X158551095Y-125561788D01*
X158540036Y-125554683D01*
X158527469Y-125546540D01*
X158513636Y-125537520D01*
X158498777Y-125527783D01*
X158483136Y-125517491D01*
X158466953Y-125506803D01*
X158450470Y-125495881D01*
X158433929Y-125484884D01*
X158417572Y-125473973D01*
X158401641Y-125463309D01*
X158386376Y-125453051D01*
X158372020Y-125443361D01*
X158358814Y-125434400D01*
X158347000Y-125426327D01*
X158336821Y-125419302D01*
X158328516Y-125413488D01*
X158322329Y-125409043D01*
X158318500Y-125406129D01*
X158317695Y-125405467D01*
X158311923Y-125400393D01*
X158306302Y-125394787D01*
X158300696Y-125388433D01*
X158294973Y-125381115D01*
X158288996Y-125372617D01*
X158282632Y-125362722D01*
X158275745Y-125351213D01*
X158268202Y-125337876D01*
X158259868Y-125322492D01*
X158250608Y-125304847D01*
X158240287Y-125284724D01*
X158239897Y-125283951D01*
X158372481Y-125283951D01*
X158372627Y-125288534D01*
X158374654Y-125300068D01*
X158379215Y-125309982D01*
X158386493Y-125318738D01*
X158388063Y-125320032D01*
X158392360Y-125323213D01*
X158398911Y-125327867D01*
X158407471Y-125333830D01*
X158417794Y-125340939D01*
X158429636Y-125349030D01*
X158442753Y-125357940D01*
X158456899Y-125367505D01*
X158471831Y-125377563D01*
X158487302Y-125387948D01*
X158503069Y-125398499D01*
X158518886Y-125409052D01*
X158534509Y-125419442D01*
X158549694Y-125429507D01*
X158564195Y-125439084D01*
X158577767Y-125448008D01*
X158590166Y-125456116D01*
X158601148Y-125463245D01*
X158610467Y-125469232D01*
X158617878Y-125473912D01*
X158623138Y-125477122D01*
X158626000Y-125478700D01*
X158627411Y-125479305D01*
X158633793Y-125481731D01*
X158641511Y-125484338D01*
X158649200Y-125486657D01*
X158649457Y-125486729D01*
X158656055Y-125488406D01*
X158662381Y-125489596D01*
X158669302Y-125490400D01*
X158677686Y-125490919D01*
X158688400Y-125491256D01*
X158690989Y-125491312D01*
X158702543Y-125491414D01*
X158711944Y-125491124D01*
X158720061Y-125490329D01*
X158727762Y-125488915D01*
X158735914Y-125486768D01*
X158745386Y-125483774D01*
X158752645Y-125481140D01*
X158763674Y-125476067D01*
X158774252Y-125469679D01*
X158784891Y-125461611D01*
X158796103Y-125451499D01*
X158808400Y-125438979D01*
X158810388Y-125436875D01*
X158814747Y-125432280D01*
X158821162Y-125425530D01*
X158829549Y-125416712D01*
X158839824Y-125405914D01*
X158851904Y-125393223D01*
X158865706Y-125378728D01*
X158881145Y-125362516D01*
X158898138Y-125344675D01*
X158916602Y-125325292D01*
X158936452Y-125304457D01*
X158957605Y-125282255D01*
X158979977Y-125258776D01*
X159003485Y-125234107D01*
X159028046Y-125208336D01*
X159053574Y-125181550D01*
X159079988Y-125153837D01*
X159107203Y-125125286D01*
X159135135Y-125095983D01*
X159163701Y-125066017D01*
X159192817Y-125035476D01*
X159222400Y-125004447D01*
X159250174Y-124975313D01*
X159279003Y-124945066D01*
X159307189Y-124915488D01*
X159334653Y-124886660D01*
X159361318Y-124858665D01*
X159387104Y-124831585D01*
X159411935Y-124805503D01*
X159435730Y-124780501D01*
X159458413Y-124756662D01*
X159479905Y-124734067D01*
X159500127Y-124712800D01*
X159519001Y-124692941D01*
X159536449Y-124674575D01*
X159552393Y-124657783D01*
X159566754Y-124642648D01*
X159579455Y-124629251D01*
X159590416Y-124617675D01*
X159599559Y-124608004D01*
X159606807Y-124600318D01*
X159612081Y-124594700D01*
X159615303Y-124591233D01*
X159616394Y-124589999D01*
X159616220Y-124589707D01*
X159614042Y-124588082D01*
X159609893Y-124585598D01*
X159604440Y-124582666D01*
X159592492Y-124576533D01*
X159577438Y-124588266D01*
X159575642Y-124589662D01*
X159570049Y-124593982D01*
X159562435Y-124599842D01*
X159553159Y-124606967D01*
X159542578Y-124615081D01*
X159531051Y-124623910D01*
X159518936Y-124633179D01*
X159506592Y-124642613D01*
X159502051Y-124646082D01*
X159489327Y-124655802D01*
X159476709Y-124665443D01*
X159464603Y-124674696D01*
X159453415Y-124683248D01*
X159443551Y-124690790D01*
X159435418Y-124697012D01*
X159429422Y-124701602D01*
X159428886Y-124702012D01*
X159421234Y-124707859D01*
X159415813Y-124711924D01*
X159412335Y-124714362D01*
X159410509Y-124715332D01*
X159410047Y-124714988D01*
X159410659Y-124713488D01*
X159412055Y-124710989D01*
X159412376Y-124710423D01*
X159414301Y-124706985D01*
X159417524Y-124701194D01*
X159421878Y-124693354D01*
X159427194Y-124683766D01*
X159433306Y-124672735D01*
X159440046Y-124660563D01*
X159447246Y-124647554D01*
X159454739Y-124634010D01*
X159462357Y-124620234D01*
X159469933Y-124606530D01*
X159477298Y-124593201D01*
X159484286Y-124580549D01*
X159490728Y-124568879D01*
X159496458Y-124558492D01*
X159501308Y-124549692D01*
X159505109Y-124542782D01*
X159507695Y-124538065D01*
X159508898Y-124535844D01*
X159509039Y-124535565D01*
X159509485Y-124533997D01*
X159508836Y-124532501D01*
X159506653Y-124530697D01*
X159502497Y-124528204D01*
X159495926Y-124524644D01*
X159491418Y-124522266D01*
X159485701Y-124519329D01*
X159481421Y-124517223D01*
X159479267Y-124516295D01*
X159478391Y-124516727D01*
X159475139Y-124518899D01*
X159469710Y-124522759D01*
X159462313Y-124528150D01*
X159453155Y-124534920D01*
X159442446Y-124542911D01*
X159430393Y-124551971D01*
X159417204Y-124561943D01*
X159403088Y-124572672D01*
X159388254Y-124584004D01*
X159377121Y-124592516D01*
X159362947Y-124603315D01*
X159349709Y-124613355D01*
X159337609Y-124622487D01*
X159326846Y-124630563D01*
X159317620Y-124637432D01*
X159310130Y-124642946D01*
X159304577Y-124646955D01*
X159301159Y-124649310D01*
X159300078Y-124649863D01*
X159300111Y-124649788D01*
X159301213Y-124647672D01*
X159303716Y-124643035D01*
X159307486Y-124636124D01*
X159312385Y-124627186D01*
X159318279Y-124616466D01*
X159325032Y-124604212D01*
X159332508Y-124590669D01*
X159340573Y-124576085D01*
X159349091Y-124560705D01*
X159350316Y-124558494D01*
X159358745Y-124543265D01*
X159366678Y-124528900D01*
X159373982Y-124515643D01*
X159380526Y-124503734D01*
X159386176Y-124493414D01*
X159390801Y-124484926D01*
X159394268Y-124478511D01*
X159396445Y-124474410D01*
X159397200Y-124472864D01*
X159397200Y-124472860D01*
X159395852Y-124471741D01*
X159392218Y-124469477D01*
X159386851Y-124466398D01*
X159380301Y-124462829D01*
X159363401Y-124453833D01*
X159281501Y-124516561D01*
X159277827Y-124519375D01*
X159263584Y-124530282D01*
X159250015Y-124540672D01*
X159237353Y-124550366D01*
X159225832Y-124559186D01*
X159215684Y-124566952D01*
X159207143Y-124573487D01*
X159200442Y-124578611D01*
X159195815Y-124582147D01*
X159193495Y-124583915D01*
X159187389Y-124588540D01*
X159190546Y-124583070D01*
X159190563Y-124583039D01*
X159192773Y-124579146D01*
X159196203Y-124573023D01*
X159200691Y-124564967D01*
X159206073Y-124555273D01*
X159212186Y-124544238D01*
X159218868Y-124532156D01*
X159225955Y-124519324D01*
X159233285Y-124506038D01*
X159240694Y-124492593D01*
X159248020Y-124479286D01*
X159255100Y-124466412D01*
X159261771Y-124454266D01*
X159267869Y-124443145D01*
X159273232Y-124433345D01*
X159277698Y-124425162D01*
X159281102Y-124418890D01*
X159283283Y-124414827D01*
X159284076Y-124413267D01*
X159283960Y-124412920D01*
X159281958Y-124411106D01*
X159277982Y-124408408D01*
X159272667Y-124405273D01*
X159267436Y-124402404D01*
X159263584Y-124400523D01*
X159261206Y-124399903D01*
X159259611Y-124400377D01*
X159258103Y-124401778D01*
X159258049Y-124401838D01*
X159256515Y-124403680D01*
X159253074Y-124407869D01*
X159247827Y-124414283D01*
X159240872Y-124422799D01*
X159232308Y-124433298D01*
X159222235Y-124445657D01*
X159210751Y-124459753D01*
X159197956Y-124475467D01*
X159183947Y-124492676D01*
X159168826Y-124511258D01*
X159152689Y-124531093D01*
X159135637Y-124552057D01*
X159117769Y-124574031D01*
X159099183Y-124596891D01*
X159079978Y-124620517D01*
X159060255Y-124644786D01*
X159060187Y-124644869D01*
X159040238Y-124669409D01*
X159020676Y-124693457D01*
X159001609Y-124716879D01*
X158983147Y-124739543D01*
X158965397Y-124761316D01*
X158948468Y-124782066D01*
X158932470Y-124801658D01*
X158917510Y-124819961D01*
X158903697Y-124836842D01*
X158891140Y-124852167D01*
X158879947Y-124865805D01*
X158870228Y-124877622D01*
X158862090Y-124887485D01*
X158855643Y-124895262D01*
X158850994Y-124900819D01*
X158848253Y-124904024D01*
X158837262Y-124916266D01*
X158802719Y-124952255D01*
X158765848Y-124987213D01*
X158727295Y-125020544D01*
X158687708Y-125051655D01*
X158686729Y-125052386D01*
X158681721Y-125056118D01*
X158677018Y-125059594D01*
X158672434Y-125062938D01*
X158667780Y-125066274D01*
X158662869Y-125069725D01*
X158657513Y-125073415D01*
X158651525Y-125077468D01*
X158644717Y-125082008D01*
X158636902Y-125087158D01*
X158627892Y-125093042D01*
X158617499Y-125099784D01*
X158605536Y-125107507D01*
X158591815Y-125116336D01*
X158576149Y-125126394D01*
X158558349Y-125137805D01*
X158538229Y-125150692D01*
X158515600Y-125165180D01*
X158498905Y-125175880D01*
X158481534Y-125187038D01*
X158465014Y-125197676D01*
X158449551Y-125207659D01*
X158435351Y-125216855D01*
X158422617Y-125225130D01*
X158411555Y-125232351D01*
X158402371Y-125238384D01*
X158395269Y-125243096D01*
X158390455Y-125246354D01*
X158388134Y-125248025D01*
X158384532Y-125251378D01*
X158377913Y-125260582D01*
X158373858Y-125271528D01*
X158372481Y-125283951D01*
X158239897Y-125283951D01*
X158228772Y-125261906D01*
X158225843Y-125256065D01*
X158215949Y-125236260D01*
X158207396Y-125218959D01*
X158200092Y-125203894D01*
X158193942Y-125190797D01*
X158188852Y-125179397D01*
X158184728Y-125169426D01*
X158181475Y-125160616D01*
X158179001Y-125152697D01*
X158177210Y-125145401D01*
X158176009Y-125138458D01*
X158175509Y-125133600D01*
X158234868Y-125133600D01*
X158234903Y-125133580D01*
X158235867Y-125131959D01*
X158237752Y-125128240D01*
X158240190Y-125123147D01*
X158245236Y-125113475D01*
X158255994Y-125097169D01*
X158269300Y-125081128D01*
X158284764Y-125065800D01*
X158302000Y-125051636D01*
X158305021Y-125049480D01*
X158311503Y-125045126D01*
X158319999Y-125039626D01*
X158330062Y-125033261D01*
X158341247Y-125026313D01*
X158353109Y-125019062D01*
X158365200Y-125011790D01*
X158387219Y-124998625D01*
X158417598Y-124980305D01*
X158445507Y-124963253D01*
X158471153Y-124947318D01*
X158494740Y-124932350D01*
X158516477Y-124918198D01*
X158536569Y-124904713D01*
X158555222Y-124891743D01*
X158572644Y-124879139D01*
X158589040Y-124866749D01*
X158604617Y-124854424D01*
X158619582Y-124842014D01*
X158634140Y-124829367D01*
X158648499Y-124816334D01*
X158662864Y-124802764D01*
X158677442Y-124788507D01*
X158692440Y-124773412D01*
X158699590Y-124766083D01*
X158716384Y-124748479D01*
X158732796Y-124730683D01*
X158749089Y-124712381D01*
X158765525Y-124693261D01*
X158782366Y-124673008D01*
X158799875Y-124651308D01*
X158818314Y-124627850D01*
X158837945Y-124602318D01*
X158859032Y-124574400D01*
X158860951Y-124571838D01*
X158872763Y-124556031D01*
X158885171Y-124539358D01*
X158898019Y-124522031D01*
X158911151Y-124504268D01*
X158924409Y-124486281D01*
X158937638Y-124468285D01*
X158950681Y-124450497D01*
X158963381Y-124433129D01*
X158975581Y-124416397D01*
X158987125Y-124400516D01*
X158997856Y-124385700D01*
X159007619Y-124372164D01*
X159016255Y-124360123D01*
X159023609Y-124349791D01*
X159029523Y-124341384D01*
X159033842Y-124335115D01*
X159036409Y-124331200D01*
X159039358Y-124326400D01*
X159036112Y-124329600D01*
X159033617Y-124332119D01*
X159027320Y-124338776D01*
X159019195Y-124347652D01*
X159009383Y-124358586D01*
X158998022Y-124371415D01*
X158985253Y-124385977D01*
X158971215Y-124402109D01*
X158956049Y-124419649D01*
X158939893Y-124438435D01*
X158922887Y-124458306D01*
X158905172Y-124479097D01*
X158886886Y-124500648D01*
X158868170Y-124522796D01*
X158849164Y-124545379D01*
X158830007Y-124568234D01*
X158810838Y-124591200D01*
X158805908Y-124597116D01*
X158788768Y-124617628D01*
X158773342Y-124635982D01*
X158759397Y-124652443D01*
X158746703Y-124667273D01*
X158735026Y-124680737D01*
X158724136Y-124693098D01*
X158713800Y-124704620D01*
X158703788Y-124715566D01*
X158693866Y-124726200D01*
X158683804Y-124736786D01*
X158673369Y-124747587D01*
X158666825Y-124754265D01*
X158653092Y-124767938D01*
X158639271Y-124781197D01*
X158625171Y-124794186D01*
X158610602Y-124807052D01*
X158595373Y-124819938D01*
X158579291Y-124832989D01*
X158562168Y-124846352D01*
X158543810Y-124860170D01*
X158524028Y-124874589D01*
X158502630Y-124889754D01*
X158479425Y-124905810D01*
X158454222Y-124922901D01*
X158426831Y-124941173D01*
X158397059Y-124960770D01*
X158364716Y-124981839D01*
X158348430Y-124992501D01*
X158334119Y-125002111D01*
X158321867Y-125010645D01*
X158311312Y-125018367D01*
X158302092Y-125025542D01*
X158293847Y-125032434D01*
X158286216Y-125039308D01*
X158271814Y-125054314D01*
X158258911Y-125071218D01*
X158248475Y-125088936D01*
X158240743Y-125107064D01*
X158235951Y-125125200D01*
X158235387Y-125128527D01*
X158234885Y-125132180D01*
X158234868Y-125133600D01*
X158175509Y-125133600D01*
X158175303Y-125131600D01*
X158174999Y-125124558D01*
X158175002Y-125117063D01*
X158175219Y-125108846D01*
X158175222Y-125108752D01*
X158176111Y-125093944D01*
X158177851Y-125081210D01*
X158180700Y-125069484D01*
X158184917Y-125057702D01*
X158190761Y-125044800D01*
X158195882Y-125035256D01*
X158206087Y-125019862D01*
X158217808Y-125005796D01*
X158230318Y-124993994D01*
X158232942Y-124992049D01*
X158238194Y-124988409D01*
X158245735Y-124983318D01*
X158255352Y-124976917D01*
X158266829Y-124969346D01*
X158279955Y-124960744D01*
X158294514Y-124951252D01*
X158310293Y-124941010D01*
X158327078Y-124930158D01*
X158344656Y-124918835D01*
X158362812Y-124907183D01*
X158378754Y-124896961D01*
X158396644Y-124885469D01*
X158413862Y-124874386D01*
X158430182Y-124863858D01*
X158445380Y-124854032D01*
X158459231Y-124845053D01*
X158471509Y-124837066D01*
X158481990Y-124830219D01*
X158490449Y-124824656D01*
X158496661Y-124820524D01*
X158500400Y-124817968D01*
X158525198Y-124799935D01*
X158569462Y-124765114D01*
X158611181Y-124728676D01*
X158650614Y-124690389D01*
X158688020Y-124650023D01*
X158688823Y-124649098D01*
X158692438Y-124644828D01*
X158697888Y-124638294D01*
X158705038Y-124629661D01*
X158713753Y-124619093D01*
X158723899Y-124606754D01*
X158735341Y-124592808D01*
X158747945Y-124577420D01*
X158761576Y-124560754D01*
X158776099Y-124542974D01*
X158791381Y-124524244D01*
X158807286Y-124504729D01*
X158823680Y-124484593D01*
X158840428Y-124464000D01*
X158846572Y-124456440D01*
X158863156Y-124436038D01*
X158879307Y-124416170D01*
X158894891Y-124396998D01*
X158909778Y-124378684D01*
X158923835Y-124361392D01*
X158936930Y-124345284D01*
X158948931Y-124330522D01*
X158959706Y-124317268D01*
X158969123Y-124305685D01*
X158977050Y-124295935D01*
X158983354Y-124288181D01*
X158987904Y-124282586D01*
X158990568Y-124279311D01*
X159004150Y-124262623D01*
X159000407Y-124260111D01*
X158998316Y-124258831D01*
X158993701Y-124256200D01*
X158987605Y-124252843D01*
X158980790Y-124249183D01*
X158980759Y-124249167D01*
X158972996Y-124245039D01*
X158963604Y-124240027D01*
X158953764Y-124234761D01*
X158944658Y-124229873D01*
X158943213Y-124229099D01*
X158933590Y-124224047D01*
X158922544Y-124218383D01*
X158911330Y-124212746D01*
X158901200Y-124207772D01*
X158891508Y-124203001D01*
X158851069Y-124181048D01*
X158812198Y-124156516D01*
X158774637Y-124129231D01*
X158748012Y-124107200D01*
X159365200Y-124107200D01*
X159366000Y-124108000D01*
X159366800Y-124107200D01*
X159366000Y-124106400D01*
X159365200Y-124107200D01*
X158748012Y-124107200D01*
X158738122Y-124099017D01*
X158716643Y-124080124D01*
X158687722Y-124073240D01*
X158640616Y-124062616D01*
X158576664Y-124049916D01*
X158510634Y-124038663D01*
X158442997Y-124028917D01*
X158374221Y-124020737D01*
X158304778Y-124014185D01*
X158235136Y-124009320D01*
X158165767Y-124006203D01*
X158131933Y-124005115D01*
X158101767Y-124025135D01*
X158063196Y-124050172D01*
X158009849Y-124083036D01*
X157955791Y-124114375D01*
X157901360Y-124144017D01*
X157846898Y-124171790D01*
X157792744Y-124197521D01*
X157739240Y-124221039D01*
X157686726Y-124242171D01*
X157635541Y-124260746D01*
X157624923Y-124264334D01*
X157566200Y-124282564D01*
X157508346Y-124297750D01*
X157451276Y-124309897D01*
X157394906Y-124319011D01*
X157339151Y-124325095D01*
X157283927Y-124328156D01*
X157229150Y-124328198D01*
X157174735Y-124325226D01*
X157120598Y-124319246D01*
X157066655Y-124310263D01*
X157012821Y-124298281D01*
X157004013Y-124296033D01*
X156951468Y-124280905D01*
X156898465Y-124262750D01*
X156845203Y-124241650D01*
X156791881Y-124217690D01*
X156738699Y-124190953D01*
X156685855Y-124161521D01*
X156673062Y-124153899D01*
X156628830Y-124125186D01*
X156586634Y-124094004D01*
X156546476Y-124060357D01*
X156508362Y-124024249D01*
X156504917Y-124020565D01*
X156784932Y-124020565D01*
X156787074Y-124021923D01*
X156791468Y-124024377D01*
X156797994Y-124027858D01*
X156806537Y-124032297D01*
X156816978Y-124037625D01*
X156829200Y-124043772D01*
X156836838Y-124047550D01*
X156883471Y-124068898D01*
X156929974Y-124087172D01*
X156976641Y-124102450D01*
X157023764Y-124114811D01*
X157071636Y-124124334D01*
X157120550Y-124131096D01*
X157170800Y-124135177D01*
X157203236Y-124136346D01*
X157256012Y-124135837D01*
X157309823Y-124132429D01*
X157364542Y-124126157D01*
X157420047Y-124117054D01*
X157476212Y-124105153D01*
X157532914Y-124090487D01*
X157590028Y-124073089D01*
X157647429Y-124052992D01*
X157704994Y-124030231D01*
X157762598Y-124004837D01*
X157820118Y-123976845D01*
X157877427Y-123946287D01*
X157938197Y-123910979D01*
X158004100Y-123869292D01*
X158069043Y-123824630D01*
X158132964Y-123777051D01*
X158179795Y-123739462D01*
X158460103Y-123739462D01*
X158464688Y-123737745D01*
X158476150Y-123733031D01*
X158489619Y-123727043D01*
X158504594Y-123720033D01*
X158520574Y-123712251D01*
X158537058Y-123703948D01*
X158553544Y-123695373D01*
X158569530Y-123686779D01*
X158584516Y-123678415D01*
X158598000Y-123670532D01*
X158623030Y-123655094D01*
X158655952Y-123633516D01*
X158687996Y-123610957D01*
X158719491Y-123587146D01*
X158750765Y-123561816D01*
X158782149Y-123534698D01*
X158813971Y-123505521D01*
X158846561Y-123474018D01*
X158880247Y-123439919D01*
X158906494Y-123412800D01*
X158893222Y-123431200D01*
X158871101Y-123461112D01*
X158833837Y-123508320D01*
X158795267Y-123553404D01*
X158755532Y-123596230D01*
X158714776Y-123636664D01*
X158673143Y-123674572D01*
X158630775Y-123709819D01*
X158587816Y-123742272D01*
X158544410Y-123771798D01*
X158500699Y-123798261D01*
X158493175Y-123802575D01*
X158486227Y-123806644D01*
X158480788Y-123809923D01*
X158477285Y-123812154D01*
X158476146Y-123813078D01*
X158476830Y-123813010D01*
X158480157Y-123812246D01*
X158485853Y-123810776D01*
X158493486Y-123808717D01*
X158502622Y-123806182D01*
X158512829Y-123803288D01*
X158535715Y-123796454D01*
X158585475Y-123779565D01*
X158634052Y-123760199D01*
X158681577Y-123738276D01*
X158728181Y-123713715D01*
X158773994Y-123686436D01*
X158819148Y-123656360D01*
X158863772Y-123623404D01*
X158907998Y-123587490D01*
X158951956Y-123548537D01*
X158995777Y-123506463D01*
X159005241Y-123497050D01*
X159013195Y-123489217D01*
X159019167Y-123483477D01*
X159023155Y-123479878D01*
X159025158Y-123478463D01*
X159025175Y-123479279D01*
X159023204Y-123482371D01*
X159019244Y-123487783D01*
X159013293Y-123495562D01*
X159005351Y-123505752D01*
X158995415Y-123518400D01*
X158985911Y-123530348D01*
X158945405Y-123578531D01*
X158903568Y-123623985D01*
X158860454Y-123666664D01*
X158816116Y-123706522D01*
X158770608Y-123743510D01*
X158723984Y-123777584D01*
X158676297Y-123808697D01*
X158627600Y-123836803D01*
X158624935Y-123838246D01*
X158618021Y-123842023D01*
X158612341Y-123845169D01*
X158608425Y-123847391D01*
X158606800Y-123848393D01*
X158606809Y-123848609D01*
X158608888Y-123848495D01*
X158613449Y-123847669D01*
X158620081Y-123846235D01*
X158628374Y-123844294D01*
X158637916Y-123841949D01*
X158648297Y-123839300D01*
X158659107Y-123836451D01*
X158669935Y-123833503D01*
X158680370Y-123830559D01*
X158690000Y-123827720D01*
X158693488Y-123826657D01*
X158744402Y-123809399D01*
X158794404Y-123789156D01*
X158843543Y-123765904D01*
X158891864Y-123739616D01*
X158939417Y-123710267D01*
X158986246Y-123677831D01*
X159032400Y-123642283D01*
X159039509Y-123636493D01*
X159052961Y-123625312D01*
X159065992Y-123614145D01*
X159079125Y-123602523D01*
X159092885Y-123589981D01*
X159107796Y-123576049D01*
X159124382Y-123560261D01*
X159130962Y-123553965D01*
X159138698Y-123546620D01*
X159144401Y-123541304D01*
X159148219Y-123537893D01*
X159150301Y-123536262D01*
X159150797Y-123536286D01*
X159149855Y-123537840D01*
X159147624Y-123540800D01*
X159119843Y-123575506D01*
X159083117Y-123618607D01*
X159046157Y-123658777D01*
X159008784Y-123696169D01*
X158970822Y-123730935D01*
X158932095Y-123763229D01*
X158892426Y-123793204D01*
X158851638Y-123821011D01*
X158809555Y-123846803D01*
X158766000Y-123870734D01*
X158759689Y-123874015D01*
X158750941Y-123878608D01*
X158744679Y-123882053D01*
X158740983Y-123884411D01*
X158739933Y-123885740D01*
X158741611Y-123886101D01*
X158746096Y-123885553D01*
X158753469Y-123884157D01*
X158763810Y-123881972D01*
X158777200Y-123879057D01*
X158801503Y-123873404D01*
X158851332Y-123859527D01*
X158900164Y-123842771D01*
X158948143Y-123823073D01*
X158995413Y-123800371D01*
X159042118Y-123774605D01*
X159088400Y-123745712D01*
X159088976Y-123745331D01*
X159113971Y-123728383D01*
X159137739Y-123711367D01*
X159160801Y-123693866D01*
X159183678Y-123675460D01*
X159206890Y-123655732D01*
X159230958Y-123634262D01*
X159256400Y-123610634D01*
X159260947Y-123606351D01*
X159267739Y-123600001D01*
X159273352Y-123594815D01*
X159277501Y-123591054D01*
X159279901Y-123588978D01*
X159280267Y-123588847D01*
X159270610Y-123600842D01*
X159258722Y-123615527D01*
X159248272Y-123628305D01*
X159238948Y-123639534D01*
X159230438Y-123649569D01*
X159222432Y-123658766D01*
X159214618Y-123667481D01*
X159206685Y-123676071D01*
X159198322Y-123684891D01*
X159189217Y-123694297D01*
X159179060Y-123704647D01*
X159165570Y-123718177D01*
X159142835Y-123740201D01*
X159120907Y-123760363D01*
X159099189Y-123779189D01*
X159077085Y-123797205D01*
X159054000Y-123814935D01*
X159047528Y-123819727D01*
X159015583Y-123842185D01*
X158982571Y-123863528D01*
X158949173Y-123883350D01*
X158916068Y-123901245D01*
X158883934Y-123916805D01*
X158880396Y-123918433D01*
X158873734Y-123921643D01*
X158868676Y-123924283D01*
X158865663Y-123926117D01*
X158865140Y-123926906D01*
X158867362Y-123926893D01*
X158872394Y-123926337D01*
X158879609Y-123925293D01*
X158888499Y-123923847D01*
X158898561Y-123922089D01*
X158909287Y-123920108D01*
X158920173Y-123917992D01*
X158930712Y-123915829D01*
X158940400Y-123913709D01*
X158973669Y-123905393D01*
X159022486Y-123890442D01*
X159070743Y-123872357D01*
X159118413Y-123851153D01*
X159165473Y-123826843D01*
X159211896Y-123799443D01*
X159257657Y-123768966D01*
X159302731Y-123735427D01*
X159347093Y-123698839D01*
X159390716Y-123659219D01*
X159395140Y-123655035D01*
X159400373Y-123650163D01*
X159404256Y-123646644D01*
X159406469Y-123644767D01*
X159406693Y-123644819D01*
X159379210Y-123678525D01*
X159340440Y-123722365D01*
X159300523Y-123763331D01*
X159259491Y-123801396D01*
X159217379Y-123836532D01*
X159174220Y-123868712D01*
X159130048Y-123897908D01*
X159084897Y-123924092D01*
X159038800Y-123947237D01*
X159030123Y-123951238D01*
X159020936Y-123955419D01*
X159012672Y-123959123D01*
X159005988Y-123962058D01*
X159001543Y-123963927D01*
X158997218Y-123965781D01*
X158993992Y-123967449D01*
X158993043Y-123968375D01*
X158993603Y-123968508D01*
X158996849Y-123968423D01*
X159002491Y-123967917D01*
X159010016Y-123967057D01*
X159018914Y-123965911D01*
X159028673Y-123964545D01*
X159038782Y-123963028D01*
X159048728Y-123961427D01*
X159058000Y-123959809D01*
X159101515Y-123950509D01*
X159148910Y-123937332D01*
X159195943Y-123921088D01*
X159242484Y-123901844D01*
X159288401Y-123879669D01*
X159333563Y-123854630D01*
X159377842Y-123826795D01*
X159421105Y-123796233D01*
X159463223Y-123763012D01*
X159504065Y-123727200D01*
X159511010Y-123720809D01*
X159518529Y-123713984D01*
X159523916Y-123709248D01*
X159527274Y-123706529D01*
X159528706Y-123705757D01*
X159528315Y-123706859D01*
X159526206Y-123709764D01*
X159522479Y-123714400D01*
X159511273Y-123727748D01*
X159490658Y-123751078D01*
X159468442Y-123774879D01*
X159445267Y-123798504D01*
X159421773Y-123821305D01*
X159398604Y-123842634D01*
X159376400Y-123861844D01*
X159346554Y-123885637D01*
X159308024Y-123913450D01*
X159268106Y-123939246D01*
X159227274Y-123962739D01*
X159186001Y-123983645D01*
X159144760Y-124001676D01*
X159140239Y-124003506D01*
X159133049Y-124006483D01*
X159127354Y-124008926D01*
X159123647Y-124010622D01*
X159122424Y-124011356D01*
X159123693Y-124011438D01*
X159127670Y-124011219D01*
X159133796Y-124010710D01*
X159141513Y-124009970D01*
X159150262Y-124009057D01*
X159159484Y-124008030D01*
X159168620Y-124006949D01*
X159177112Y-124005870D01*
X159184400Y-124004853D01*
X159221678Y-123998302D01*
X159268353Y-123987255D01*
X159314722Y-123973134D01*
X159360619Y-123956008D01*
X159405873Y-123935946D01*
X159450319Y-123913018D01*
X159493788Y-123887294D01*
X159536112Y-123858844D01*
X159545179Y-123852313D01*
X159559456Y-123841773D01*
X159573234Y-123831234D01*
X159586975Y-123820320D01*
X159601141Y-123808656D01*
X159616193Y-123795864D01*
X159632592Y-123781571D01*
X159650800Y-123765398D01*
X159660400Y-123756809D01*
X159651654Y-123767204D01*
X159636788Y-123784445D01*
X159615591Y-123807800D01*
X159593250Y-123831169D01*
X159570323Y-123854001D01*
X159547368Y-123875744D01*
X159524941Y-123895845D01*
X159503600Y-123913752D01*
X159476321Y-123934876D01*
X159436550Y-123962772D01*
X159395498Y-123988336D01*
X159353539Y-124011354D01*
X159311049Y-124031610D01*
X159268400Y-124048888D01*
X159264766Y-124050248D01*
X159258950Y-124052514D01*
X159254679Y-124054296D01*
X159252686Y-124055295D01*
X159252565Y-124055479D01*
X159254013Y-124055892D01*
X159258105Y-124055936D01*
X159264429Y-124055650D01*
X159272572Y-124055075D01*
X159282119Y-124054251D01*
X159292657Y-124053218D01*
X159303772Y-124052014D01*
X159315053Y-124050682D01*
X159326084Y-124049259D01*
X159336453Y-124047787D01*
X159345746Y-124046305D01*
X159375575Y-124040530D01*
X159421459Y-124029004D01*
X159467028Y-124014355D01*
X159512194Y-123996627D01*
X159556874Y-123975863D01*
X159600982Y-123952107D01*
X159644434Y-123925403D01*
X159687144Y-123895794D01*
X159729028Y-123863324D01*
X159770000Y-123828038D01*
X159775333Y-123823228D01*
X159779900Y-123819195D01*
X159782437Y-123817125D01*
X159783117Y-123816902D01*
X159782114Y-123818406D01*
X159779600Y-123821521D01*
X159778249Y-123823146D01*
X159765828Y-123837519D01*
X159751528Y-123853212D01*
X159735922Y-123869643D01*
X159719581Y-123886231D01*
X159703077Y-123902392D01*
X159686983Y-123917546D01*
X159671871Y-123931111D01*
X159663716Y-123938139D01*
X159621682Y-123971983D01*
X159578458Y-124002861D01*
X159534021Y-124030788D01*
X159488348Y-124055778D01*
X159441416Y-124077845D01*
X159393200Y-124097002D01*
X159392143Y-124097386D01*
X159383048Y-124100770D01*
X159376792Y-124103306D01*
X159373415Y-124105021D01*
X159372961Y-124105942D01*
X159375470Y-124106097D01*
X159380985Y-124105514D01*
X159389548Y-124104220D01*
X159401200Y-124102242D01*
X159409287Y-124100782D01*
X159456464Y-124090375D01*
X159502830Y-124076933D01*
X159548264Y-124060538D01*
X159592646Y-124041271D01*
X159635853Y-124019213D01*
X159677764Y-123994445D01*
X159718260Y-123967047D01*
X159757217Y-123937103D01*
X159794515Y-123904691D01*
X159830032Y-123869894D01*
X159863648Y-123832792D01*
X159895242Y-123793467D01*
X159924691Y-123752000D01*
X159948480Y-123714342D01*
X159973476Y-123669525D01*
X159981514Y-123652800D01*
X160443600Y-123652800D01*
X160444400Y-123653600D01*
X160445200Y-123652800D01*
X160444400Y-123652000D01*
X160443600Y-123652800D01*
X159981514Y-123652800D01*
X159995489Y-123623724D01*
X160014562Y-123576827D01*
X160030735Y-123528720D01*
X160044052Y-123479289D01*
X160054552Y-123428420D01*
X160062278Y-123376000D01*
X160062856Y-123370824D01*
X160063551Y-123363246D01*
X160064100Y-123355093D01*
X160064518Y-123345929D01*
X160064819Y-123335314D01*
X160065018Y-123322813D01*
X160065131Y-123307987D01*
X160065171Y-123290400D01*
X160065160Y-123275317D01*
X160065081Y-123260097D01*
X160064898Y-123247085D01*
X160064581Y-123235745D01*
X160064094Y-123225541D01*
X160063407Y-123215937D01*
X160062486Y-123206396D01*
X160061298Y-123196384D01*
X160059811Y-123185364D01*
X160057992Y-123172800D01*
X160057629Y-123170366D01*
X160049026Y-123123564D01*
X160037531Y-123077725D01*
X160023215Y-123033016D01*
X160006149Y-122989601D01*
X159986405Y-122947648D01*
X159964052Y-122907320D01*
X159939163Y-122868784D01*
X159911808Y-122832204D01*
X159909535Y-122829409D01*
X159905425Y-122824632D01*
X159901380Y-122820482D01*
X159896848Y-122816488D01*
X159891275Y-122812182D01*
X159884111Y-122807094D01*
X159874800Y-122800753D01*
X159836923Y-122774608D01*
X159827333Y-122767571D01*
X160002075Y-122767571D01*
X160003600Y-122769856D01*
X160003937Y-122770324D01*
X160007411Y-122775306D01*
X160012313Y-122782516D01*
X160018374Y-122791546D01*
X160025326Y-122801986D01*
X160032899Y-122813426D01*
X160040825Y-122825460D01*
X160048835Y-122837676D01*
X160056660Y-122849667D01*
X160064032Y-122861024D01*
X160070682Y-122871338D01*
X160076340Y-122880199D01*
X160080738Y-122887200D01*
X160083947Y-122892379D01*
X160100248Y-122918835D01*
X160114912Y-122942908D01*
X160128066Y-122964829D01*
X160139835Y-122984827D01*
X160150345Y-123003133D01*
X160159723Y-123019977D01*
X160168095Y-123035587D01*
X160175588Y-123050195D01*
X160182326Y-123064031D01*
X160188437Y-123077323D01*
X160194047Y-123090303D01*
X160199282Y-123103200D01*
X160204600Y-123117049D01*
X160218758Y-123157996D01*
X160230640Y-123199296D01*
X160240389Y-123241539D01*
X160248144Y-123285311D01*
X160248799Y-123290400D01*
X160254048Y-123331200D01*
X160254420Y-123334851D01*
X160255915Y-123353906D01*
X160256968Y-123375461D01*
X160257580Y-123398965D01*
X160257750Y-123423866D01*
X160257480Y-123449612D01*
X160256768Y-123475651D01*
X160255616Y-123501431D01*
X160254023Y-123526400D01*
X160253930Y-123528531D01*
X160254194Y-123529262D01*
X160254871Y-123527433D01*
X160255891Y-123523398D01*
X160257183Y-123517513D01*
X160258675Y-123510132D01*
X160260297Y-123501609D01*
X160261978Y-123492300D01*
X160263647Y-123482558D01*
X160265233Y-123472740D01*
X160266664Y-123463200D01*
X160267763Y-123455441D01*
X160270135Y-123437736D01*
X160272041Y-123421660D01*
X160273529Y-123406523D01*
X160274646Y-123391636D01*
X160275437Y-123376309D01*
X160275951Y-123359854D01*
X160276233Y-123341581D01*
X160276331Y-123320800D01*
X160276332Y-123319572D01*
X160276297Y-123300922D01*
X160276136Y-123284831D01*
X160275811Y-123270696D01*
X160275285Y-123257912D01*
X160274520Y-123245875D01*
X160273478Y-123233984D01*
X160272121Y-123221633D01*
X160270411Y-123208219D01*
X160268310Y-123193139D01*
X160265417Y-123174324D01*
X160258219Y-123136128D01*
X160249227Y-123098431D01*
X160238141Y-123059920D01*
X160236847Y-123055735D01*
X160234567Y-123048242D01*
X160232777Y-123042197D01*
X160231632Y-123038134D01*
X160231291Y-123036589D01*
X160231391Y-123036667D01*
X160232688Y-123038544D01*
X160235225Y-123042543D01*
X160238695Y-123048174D01*
X160242792Y-123054946D01*
X160258413Y-123082462D01*
X160278376Y-123122621D01*
X160296241Y-123164770D01*
X160311889Y-123208566D01*
X160325201Y-123253665D01*
X160336056Y-123299724D01*
X160344334Y-123346400D01*
X160348125Y-123375566D01*
X160351518Y-123413334D01*
X160353395Y-123452662D01*
X160353763Y-123493871D01*
X160352631Y-123537277D01*
X160350006Y-123583200D01*
X160349264Y-123593600D01*
X160351543Y-123584000D01*
X160352908Y-123577938D01*
X160355744Y-123563515D01*
X160358595Y-123546796D01*
X160361381Y-123528381D01*
X160364021Y-123508875D01*
X160366438Y-123488881D01*
X160368551Y-123469001D01*
X160370282Y-123449840D01*
X160371550Y-123432000D01*
X160372657Y-123407777D01*
X160372852Y-123357474D01*
X160370253Y-123307288D01*
X160364902Y-123257577D01*
X160356844Y-123208695D01*
X160346122Y-123160999D01*
X160332779Y-123114844D01*
X160331871Y-123112014D01*
X160329666Y-123104938D01*
X160328031Y-123099382D01*
X160327113Y-123095850D01*
X160327056Y-123094850D01*
X160327542Y-123095426D01*
X160329874Y-123098832D01*
X160333326Y-123104409D01*
X160337620Y-123111668D01*
X160342474Y-123120117D01*
X160347611Y-123129265D01*
X160352749Y-123138622D01*
X160357609Y-123147697D01*
X160361912Y-123156000D01*
X160365324Y-123162812D01*
X160385792Y-123207704D01*
X160403430Y-123253949D01*
X160418256Y-123301603D01*
X160430285Y-123350725D01*
X160439534Y-123401371D01*
X160446018Y-123453600D01*
X160447062Y-123466232D01*
X160448116Y-123483890D01*
X160448914Y-123503231D01*
X160449441Y-123523443D01*
X160449683Y-123543717D01*
X160449626Y-123563242D01*
X160449255Y-123581206D01*
X160448555Y-123596800D01*
X160448013Y-123605658D01*
X160447378Y-123616089D01*
X160446798Y-123625679D01*
X160446320Y-123633644D01*
X160445992Y-123639200D01*
X160445295Y-123651200D01*
X160449133Y-123632800D01*
X160455604Y-123597903D01*
X160461025Y-123559499D01*
X160465114Y-123518796D01*
X160467911Y-123475471D01*
X160468579Y-123457347D01*
X160468438Y-123409700D01*
X160465644Y-123361592D01*
X160460266Y-123313558D01*
X160452373Y-123266132D01*
X160442034Y-123219852D01*
X160429317Y-123175252D01*
X160428834Y-123173731D01*
X160426589Y-123166468D01*
X160424838Y-123160501D01*
X160423748Y-123156412D01*
X160423484Y-123154783D01*
X160423817Y-123155076D01*
X160425512Y-123157505D01*
X160428368Y-123161992D01*
X160432094Y-123168079D01*
X160436402Y-123175305D01*
X160446468Y-123192971D01*
X160468014Y-123235304D01*
X160487022Y-123279414D01*
X160503447Y-123325125D01*
X160517249Y-123372266D01*
X160528386Y-123420663D01*
X160536814Y-123470143D01*
X160542493Y-123520533D01*
X160545379Y-123571660D01*
X160545431Y-123623350D01*
X160544999Y-123637216D01*
X160544398Y-123652186D01*
X160544368Y-123652800D01*
X160543691Y-123666517D01*
X160542907Y-123679695D01*
X160542079Y-123691210D01*
X160541237Y-123700548D01*
X160540410Y-123707200D01*
X160540303Y-123707925D01*
X160540220Y-123710290D01*
X160541050Y-123709600D01*
X160541063Y-123709575D01*
X160541811Y-123707136D01*
X160542963Y-123702049D01*
X160544427Y-123694817D01*
X160546114Y-123685939D01*
X160547931Y-123675916D01*
X160549789Y-123665250D01*
X160551596Y-123654441D01*
X160553261Y-123643991D01*
X160554694Y-123634400D01*
X160560429Y-123585570D01*
X160563822Y-123533339D01*
X160564385Y-123481423D01*
X160562134Y-123430047D01*
X160557085Y-123379436D01*
X160549255Y-123329816D01*
X160538661Y-123281413D01*
X160525319Y-123234452D01*
X160524839Y-123232939D01*
X160522599Y-123225666D01*
X160520864Y-123219679D01*
X160519797Y-123215564D01*
X160519562Y-123213905D01*
X160520126Y-123214243D01*
X160522065Y-123216850D01*
X160525106Y-123221621D01*
X160529019Y-123228151D01*
X160533573Y-123236036D01*
X160538540Y-123244871D01*
X160543690Y-123254250D01*
X160548792Y-123263767D01*
X160553618Y-123273019D01*
X160557938Y-123281600D01*
X160564917Y-123296259D01*
X160577571Y-123325272D01*
X160589465Y-123355704D01*
X160600134Y-123386400D01*
X160611372Y-123424139D01*
X160623033Y-123473087D01*
X160631864Y-123523411D01*
X160637857Y-123575028D01*
X160641002Y-123627854D01*
X160641289Y-123681805D01*
X160638711Y-123736800D01*
X160638629Y-123737929D01*
X160637962Y-123746516D01*
X160637283Y-123754413D01*
X160636668Y-123760786D01*
X160636192Y-123764800D01*
X160635982Y-123766406D01*
X160635852Y-123769449D01*
X160636306Y-123770178D01*
X160636458Y-123769952D01*
X160637338Y-123767194D01*
X160638577Y-123761818D01*
X160640098Y-123754267D01*
X160641826Y-123744981D01*
X160643684Y-123734404D01*
X160645597Y-123722976D01*
X160647488Y-123711140D01*
X160649280Y-123699337D01*
X160650898Y-123688010D01*
X160652266Y-123677600D01*
X160653895Y-123664065D01*
X160655979Y-123644784D01*
X160657554Y-123626920D01*
X160658677Y-123609551D01*
X160659402Y-123591756D01*
X160659786Y-123572613D01*
X160659884Y-123551200D01*
X160659518Y-123525026D01*
X160656924Y-123476185D01*
X160651788Y-123428796D01*
X160644050Y-123382457D01*
X160633651Y-123336769D01*
X160620528Y-123291332D01*
X160619534Y-123288202D01*
X160617246Y-123280872D01*
X160615460Y-123274969D01*
X160614338Y-123271032D01*
X160614041Y-123269600D01*
X160614105Y-123269650D01*
X160615324Y-123271409D01*
X160617798Y-123275310D01*
X160621209Y-123280843D01*
X160625237Y-123287498D01*
X160639549Y-123312463D01*
X160661128Y-123355221D01*
X160680086Y-123399763D01*
X160696406Y-123446031D01*
X160710070Y-123493966D01*
X160721061Y-123543511D01*
X160729361Y-123594608D01*
X160734952Y-123647200D01*
X160735874Y-123662137D01*
X160736512Y-123680241D01*
X160736825Y-123700212D01*
X160736823Y-123721378D01*
X160736516Y-123743066D01*
X160735913Y-123764605D01*
X160735024Y-123785321D01*
X160733859Y-123804544D01*
X160732428Y-123821600D01*
X160731714Y-123828800D01*
X160734001Y-123820000D01*
X160734026Y-123819901D01*
X160736405Y-123809574D01*
X160738919Y-123796603D01*
X160741491Y-123781528D01*
X160744046Y-123764894D01*
X160746509Y-123747242D01*
X160748803Y-123729114D01*
X160750853Y-123711053D01*
X160752584Y-123693601D01*
X160753919Y-123677300D01*
X160754061Y-123675202D01*
X160754655Y-123663460D01*
X160755097Y-123649491D01*
X160755389Y-123633974D01*
X160755529Y-123617587D01*
X160755518Y-123601007D01*
X160755355Y-123584913D01*
X160755040Y-123569982D01*
X160754573Y-123556891D01*
X160753954Y-123546319D01*
X160751682Y-123521327D01*
X160745930Y-123477105D01*
X160738081Y-123433470D01*
X160728269Y-123391131D01*
X160716631Y-123350800D01*
X160715559Y-123347429D01*
X160713272Y-123340082D01*
X160711500Y-123334171D01*
X160710403Y-123330232D01*
X160710137Y-123328800D01*
X160710224Y-123328826D01*
X160711647Y-123330527D01*
X160714285Y-123334587D01*
X160717904Y-123340586D01*
X160722269Y-123348104D01*
X160727143Y-123356721D01*
X160732291Y-123366017D01*
X160737479Y-123375573D01*
X160742472Y-123384969D01*
X160747033Y-123393784D01*
X160750928Y-123401600D01*
X160756270Y-123412834D01*
X160775739Y-123458419D01*
X160792417Y-123505509D01*
X160806280Y-123554018D01*
X160817307Y-123603860D01*
X160825474Y-123654949D01*
X160830760Y-123707200D01*
X160830776Y-123707428D01*
X160831334Y-123717539D01*
X160831769Y-123730166D01*
X160832081Y-123744675D01*
X160832270Y-123760431D01*
X160832337Y-123776799D01*
X160832280Y-123793145D01*
X160832099Y-123808833D01*
X160831795Y-123823228D01*
X160831366Y-123835695D01*
X160830813Y-123845600D01*
X160830787Y-123845950D01*
X160830120Y-123855082D01*
X160829464Y-123864080D01*
X160828893Y-123871926D01*
X160828482Y-123877600D01*
X160828368Y-123879344D01*
X160828326Y-123881825D01*
X160828650Y-123881867D01*
X160829397Y-123879295D01*
X160830625Y-123873931D01*
X160832391Y-123865600D01*
X160833694Y-123859115D01*
X160836825Y-123841885D01*
X160839919Y-123822714D01*
X160842842Y-123802488D01*
X160845467Y-123782089D01*
X160847660Y-123762400D01*
X160848262Y-123755754D01*
X160849201Y-123741986D01*
X160849982Y-123726095D01*
X160850595Y-123708745D01*
X160851028Y-123690600D01*
X160851271Y-123672324D01*
X160851313Y-123654582D01*
X160851144Y-123638037D01*
X160850751Y-123623355D01*
X160850125Y-123611200D01*
X160848466Y-123590728D01*
X160842884Y-123543467D01*
X160834974Y-123497212D01*
X160824826Y-123452446D01*
X160812528Y-123409649D01*
X160811376Y-123406030D01*
X160809054Y-123398587D01*
X160807239Y-123392554D01*
X160806091Y-123388475D01*
X160805772Y-123386894D01*
X160805777Y-123386891D01*
X160806792Y-123387988D01*
X160809073Y-123391467D01*
X160812375Y-123396897D01*
X160816453Y-123403848D01*
X160821063Y-123411888D01*
X160825959Y-123420588D01*
X160830898Y-123429515D01*
X160835634Y-123438239D01*
X160839923Y-123446330D01*
X160843520Y-123453356D01*
X160856026Y-123479658D01*
X160874673Y-123524658D01*
X160890570Y-123571122D01*
X160903731Y-123619110D01*
X160914171Y-123668680D01*
X160921907Y-123719891D01*
X160926953Y-123772800D01*
X160927001Y-123773506D01*
X160927490Y-123783561D01*
X160927828Y-123796036D01*
X160928022Y-123810369D01*
X160928079Y-123825999D01*
X160928005Y-123842363D01*
X160927806Y-123858900D01*
X160927490Y-123875047D01*
X160927063Y-123890244D01*
X160926531Y-123903927D01*
X160925901Y-123915536D01*
X160925179Y-123924507D01*
X160924630Y-123930277D01*
X160924135Y-123936660D01*
X160923905Y-123941332D01*
X160923987Y-123943560D01*
X160924057Y-123943711D01*
X160924708Y-123942872D01*
X160925705Y-123939267D01*
X160926993Y-123933243D01*
X160928518Y-123925150D01*
X160930225Y-123915337D01*
X160932059Y-123904153D01*
X160933965Y-123891947D01*
X160935889Y-123879069D01*
X160937777Y-123865866D01*
X160939572Y-123852689D01*
X160941221Y-123839886D01*
X160942669Y-123827807D01*
X160943862Y-123816800D01*
X160944133Y-123813923D01*
X160944964Y-123802336D01*
X160945646Y-123788422D01*
X160946177Y-123772733D01*
X160946554Y-123755822D01*
X160946775Y-123738240D01*
X160946837Y-123720541D01*
X160946737Y-123703275D01*
X160946473Y-123686996D01*
X160946041Y-123672256D01*
X160945440Y-123659606D01*
X160944666Y-123649600D01*
X160940257Y-123612195D01*
X160933953Y-123572099D01*
X160926115Y-123533680D01*
X160916606Y-123496270D01*
X160905287Y-123459200D01*
X160900438Y-123444846D01*
X160894427Y-123428103D01*
X160888285Y-123412336D01*
X160881630Y-123396615D01*
X160874082Y-123380012D01*
X160865260Y-123361600D01*
X160848850Y-123328000D01*
X160822555Y-123301600D01*
X160802388Y-123282060D01*
X160769806Y-123253419D01*
X160736206Y-123227438D01*
X160701194Y-123203800D01*
X160700125Y-123203128D01*
X160695901Y-123200481D01*
X160689247Y-123196316D01*
X160680301Y-123190719D01*
X160669202Y-123183777D01*
X160656089Y-123175578D01*
X160641101Y-123166208D01*
X160624377Y-123155753D01*
X160606056Y-123144301D01*
X160586278Y-123131939D01*
X160565181Y-123118754D01*
X160542904Y-123104832D01*
X160519587Y-123090260D01*
X160495368Y-123075125D01*
X160470386Y-123059515D01*
X160444782Y-123043515D01*
X160418692Y-123027213D01*
X160392258Y-123010696D01*
X160365617Y-122994050D01*
X160338908Y-122977363D01*
X160312272Y-122960721D01*
X160285846Y-122944211D01*
X160259771Y-122927920D01*
X160234184Y-122911935D01*
X160209225Y-122896343D01*
X160185033Y-122881231D01*
X160161747Y-122866685D01*
X160139506Y-122852792D01*
X160118450Y-122839640D01*
X160098716Y-122827315D01*
X160080445Y-122815904D01*
X160063775Y-122805494D01*
X160048845Y-122796172D01*
X160035795Y-122788024D01*
X160024763Y-122781138D01*
X160015889Y-122775600D01*
X160009311Y-122771498D01*
X160005168Y-122768918D01*
X160003600Y-122767947D01*
X160002516Y-122767352D01*
X160002075Y-122767571D01*
X159827333Y-122767571D01*
X159778205Y-122731522D01*
X159720603Y-122686037D01*
X159663600Y-122637753D01*
X159632335Y-122609860D01*
X159577801Y-122558793D01*
X159523529Y-122504919D01*
X159469751Y-122448488D01*
X159416703Y-122389749D01*
X159364619Y-122328950D01*
X159313734Y-122266341D01*
X159310065Y-122261721D01*
X159303860Y-122253978D01*
X159298471Y-122247343D01*
X159294186Y-122242167D01*
X159291297Y-122238804D01*
X159290092Y-122237606D01*
X159289943Y-122237831D01*
X159289158Y-122240403D01*
X159287887Y-122245486D01*
X159286237Y-122252625D01*
X159284313Y-122261368D01*
X159282222Y-122271261D01*
X159277878Y-122291677D01*
X159264496Y-122349341D01*
X159249185Y-122408587D01*
X159232118Y-122468846D01*
X159213466Y-122529551D01*
X159193402Y-122590131D01*
X159172098Y-122650018D01*
X159149727Y-122708643D01*
X159125216Y-122768558D01*
X159087779Y-122853128D01*
X159047351Y-122936934D01*
X159004035Y-123019812D01*
X158957930Y-123101594D01*
X158909140Y-123182116D01*
X158857766Y-123261210D01*
X158803909Y-123338711D01*
X158747671Y-123414454D01*
X158689153Y-123488272D01*
X158628458Y-123560000D01*
X158627278Y-123561347D01*
X158608352Y-123582752D01*
X158589530Y-123603578D01*
X158570311Y-123624364D01*
X158550192Y-123645646D01*
X158528672Y-123667963D01*
X158505247Y-123691851D01*
X158498836Y-123698360D01*
X158489303Y-123708107D01*
X158480747Y-123716937D01*
X158473382Y-123724626D01*
X158467422Y-123730948D01*
X158463080Y-123735678D01*
X158460569Y-123738591D01*
X158460103Y-123739462D01*
X158179795Y-123739462D01*
X158195803Y-123726613D01*
X158257501Y-123673374D01*
X158317995Y-123617392D01*
X158377226Y-123558725D01*
X158435134Y-123497431D01*
X158491657Y-123433569D01*
X158546735Y-123367197D01*
X158600308Y-123298373D01*
X158652316Y-123227154D01*
X158702697Y-123153600D01*
X158702753Y-123153514D01*
X158750255Y-123079536D01*
X158795560Y-123004208D01*
X158838574Y-122927736D01*
X158879204Y-122850323D01*
X158917360Y-122772174D01*
X158952947Y-122693495D01*
X158985873Y-122614489D01*
X159016047Y-122535361D01*
X159043374Y-122456316D01*
X159067764Y-122377558D01*
X159089122Y-122299291D01*
X159101376Y-122248997D01*
X159117577Y-122174159D01*
X159131031Y-122100431D01*
X159141774Y-122027549D01*
X159149835Y-121955250D01*
X159155250Y-121883268D01*
X159158049Y-121811339D01*
X159158266Y-121739200D01*
X159158203Y-121734986D01*
X159157883Y-121715914D01*
X159157526Y-121699315D01*
X159157104Y-121684585D01*
X159156585Y-121671120D01*
X159155941Y-121658314D01*
X159155142Y-121645564D01*
X159154159Y-121632264D01*
X159152961Y-121617811D01*
X159151519Y-121601600D01*
X159146248Y-121552493D01*
X159137517Y-121492074D01*
X159126451Y-121432864D01*
X159113102Y-121375030D01*
X159097520Y-121318743D01*
X159079759Y-121264170D01*
X159059868Y-121211481D01*
X159037901Y-121160843D01*
X159013908Y-121112427D01*
X158987941Y-121066400D01*
X158984122Y-121060105D01*
X158956007Y-121016817D01*
X158926015Y-120975725D01*
X158894257Y-120936946D01*
X158860845Y-120900595D01*
X158825890Y-120866787D01*
X158789505Y-120835639D01*
X158751802Y-120807267D01*
X158712892Y-120781785D01*
X158705763Y-120777463D01*
X158696849Y-120772117D01*
X158690589Y-120768479D01*
X158686949Y-120766555D01*
X158685893Y-120766350D01*
X158687385Y-120767871D01*
X158691391Y-120771123D01*
X158697874Y-120776114D01*
X158706800Y-120782849D01*
X158737004Y-120806408D01*
X158776495Y-120840226D01*
X158813369Y-120875551D01*
X158847717Y-120912510D01*
X158879627Y-120951230D01*
X158909191Y-120991836D01*
X158936498Y-121034453D01*
X158961639Y-121079208D01*
X158984703Y-121126228D01*
X159005781Y-121175636D01*
X159024962Y-121227561D01*
X159037570Y-121266606D01*
X159053158Y-121322884D01*
X159066395Y-121381101D01*
X159077279Y-121441117D01*
X159085804Y-121502789D01*
X159091964Y-121565977D01*
X159094097Y-121602300D01*
X159095756Y-121630540D01*
X159097174Y-121696336D01*
X159096213Y-121763224D01*
X159092869Y-121831063D01*
X159087136Y-121899711D01*
X159084331Y-121923637D01*
X159079010Y-121969028D01*
X159068485Y-122038872D01*
X159055557Y-122109102D01*
X159037138Y-122193175D01*
X159015413Y-122278194D01*
X158990629Y-122363126D01*
X158962853Y-122447832D01*
X158932152Y-122532167D01*
X158921175Y-122559587D01*
X158898594Y-122615991D01*
X158862247Y-122699160D01*
X158823177Y-122781533D01*
X158781453Y-122862967D01*
X158737142Y-122943319D01*
X158690312Y-123022449D01*
X158641029Y-123100212D01*
X158589362Y-123176468D01*
X158535377Y-123251074D01*
X158479143Y-123323887D01*
X158465874Y-123340401D01*
X158409467Y-123408030D01*
X158352030Y-123472790D01*
X158293588Y-123534660D01*
X158234169Y-123593616D01*
X158173800Y-123649638D01*
X158112505Y-123702701D01*
X158050312Y-123752785D01*
X157987248Y-123799867D01*
X157923338Y-123843924D01*
X157858609Y-123884935D01*
X157793088Y-123922877D01*
X157726800Y-123957728D01*
X157686885Y-123977063D01*
X157630366Y-124002300D01*
X157574525Y-124024645D01*
X157519124Y-124044168D01*
X157463925Y-124060940D01*
X157408691Y-124075032D01*
X157353184Y-124086514D01*
X157297167Y-124095455D01*
X157240400Y-124101928D01*
X157240065Y-124101958D01*
X157229535Y-124102686D01*
X157216414Y-124103242D01*
X157201279Y-124103630D01*
X157184711Y-124103853D01*
X157167287Y-124103914D01*
X157149586Y-124103816D01*
X157132189Y-124103563D01*
X157115672Y-124103157D01*
X157100616Y-124102602D01*
X157087599Y-124101900D01*
X157077200Y-124101055D01*
X157036443Y-124096053D01*
X156985868Y-124087438D01*
X156937240Y-124076345D01*
X156890497Y-124062757D01*
X156845574Y-124046657D01*
X156802408Y-124028028D01*
X156801222Y-124027471D01*
X156793186Y-124023756D01*
X156787870Y-124021412D01*
X156785158Y-124020371D01*
X156784932Y-124020565D01*
X156504917Y-124020565D01*
X156472297Y-123985685D01*
X156438284Y-123944668D01*
X156406329Y-123901204D01*
X156403820Y-123897559D01*
X156374469Y-123851991D01*
X156347230Y-123804089D01*
X156322135Y-123753945D01*
X156299218Y-123701652D01*
X156278512Y-123647305D01*
X156260050Y-123590995D01*
X156243865Y-123532816D01*
X156229991Y-123472862D01*
X156219863Y-123418724D01*
X156296730Y-123418724D01*
X156296941Y-123422000D01*
X156297496Y-123422271D01*
X156297748Y-123420000D01*
X156297525Y-123417799D01*
X156296941Y-123418000D01*
X156296730Y-123418724D01*
X156219863Y-123418724D01*
X156218460Y-123411225D01*
X156209307Y-123348000D01*
X156207321Y-123331708D01*
X156204862Y-123310238D01*
X156202782Y-123290133D01*
X156201055Y-123270887D01*
X156199650Y-123251991D01*
X156198541Y-123232939D01*
X156197698Y-123213225D01*
X156197094Y-123192340D01*
X156196699Y-123169779D01*
X156196486Y-123145035D01*
X156196427Y-123117600D01*
X156196456Y-123095463D01*
X156196542Y-123075993D01*
X156196671Y-123062359D01*
X156258231Y-123062359D01*
X156258499Y-123096000D01*
X156259425Y-123133210D01*
X156261483Y-123175986D01*
X156264659Y-123217717D01*
X156269036Y-123259173D01*
X156274696Y-123301124D01*
X156281724Y-123344343D01*
X156290202Y-123389600D01*
X156291591Y-123396528D01*
X156293436Y-123405391D01*
X156294797Y-123411369D01*
X156295716Y-123414627D01*
X156296237Y-123415330D01*
X156296400Y-123413644D01*
X156296174Y-123411532D01*
X156295502Y-123406886D01*
X156294492Y-123400464D01*
X156293251Y-123392977D01*
X156292296Y-123387182D01*
X156290109Y-123372935D01*
X156287803Y-123356776D01*
X156285491Y-123339576D01*
X156283290Y-123322201D01*
X156281315Y-123305519D01*
X156279679Y-123290400D01*
X156278764Y-123281100D01*
X156274731Y-123229915D01*
X156272148Y-123176854D01*
X156271023Y-123122745D01*
X156271031Y-123121530D01*
X156442561Y-123121530D01*
X156444784Y-123187630D01*
X156449688Y-123252221D01*
X156457281Y-123315200D01*
X156460631Y-123337134D01*
X156470681Y-123391583D01*
X156477283Y-123420000D01*
X156482939Y-123444347D01*
X156497360Y-123495309D01*
X156513900Y-123544355D01*
X156532515Y-123591369D01*
X156553160Y-123636236D01*
X156575792Y-123678840D01*
X156600365Y-123719067D01*
X156626836Y-123756800D01*
X156634922Y-123767348D01*
X156664644Y-123802870D01*
X156696238Y-123835814D01*
X156729632Y-123866143D01*
X156764757Y-123893817D01*
X156801542Y-123918798D01*
X156839917Y-123941048D01*
X156879810Y-123960528D01*
X156921153Y-123977199D01*
X156963873Y-123991024D01*
X157007902Y-124001963D01*
X157053168Y-124009979D01*
X157099600Y-124015032D01*
X157135778Y-124017005D01*
X157177631Y-124017290D01*
X157219694Y-124015366D01*
X157262637Y-124011201D01*
X157307127Y-124004761D01*
X157311439Y-124004032D01*
X157363873Y-123993579D01*
X157417037Y-123980103D01*
X157470815Y-123963655D01*
X157525086Y-123944291D01*
X157579734Y-123922064D01*
X157634639Y-123897028D01*
X157689683Y-123869236D01*
X157744748Y-123838742D01*
X157799716Y-123805600D01*
X157854467Y-123769864D01*
X157908884Y-123731587D01*
X157912620Y-123728847D01*
X157918864Y-123724182D01*
X157923805Y-123720382D01*
X157927009Y-123717780D01*
X157928046Y-123716712D01*
X157927998Y-123716706D01*
X157925907Y-123716762D01*
X157920918Y-123716977D01*
X157913287Y-123717339D01*
X157903269Y-123717832D01*
X157891122Y-123718444D01*
X157877101Y-123719160D01*
X157861463Y-123719967D01*
X157844463Y-123720852D01*
X157826359Y-123721801D01*
X157807407Y-123722800D01*
X157787862Y-123723835D01*
X157767981Y-123724894D01*
X157748020Y-123725962D01*
X157728236Y-123727025D01*
X157708885Y-123728070D01*
X157690222Y-123729084D01*
X157672505Y-123730052D01*
X157655989Y-123730962D01*
X157640931Y-123731799D01*
X157627587Y-123732549D01*
X157616213Y-123733200D01*
X157607065Y-123733738D01*
X157600400Y-123734148D01*
X157588400Y-123734918D01*
X157615600Y-123726143D01*
X157618314Y-123725268D01*
X157623306Y-123723658D01*
X157628068Y-123722125D01*
X157632775Y-123720613D01*
X157637599Y-123719068D01*
X157642712Y-123717436D01*
X157648288Y-123715661D01*
X157654498Y-123713690D01*
X157661516Y-123711469D01*
X157669515Y-123708941D01*
X157678667Y-123706054D01*
X157689144Y-123702753D01*
X157701120Y-123698983D01*
X157714767Y-123694690D01*
X157730259Y-123689819D01*
X157747766Y-123684315D01*
X157767464Y-123678125D01*
X157789523Y-123671194D01*
X157814117Y-123663468D01*
X157841419Y-123654891D01*
X157871600Y-123645410D01*
X157873975Y-123644664D01*
X157901940Y-123635862D01*
X157927923Y-123627653D01*
X157951826Y-123620070D01*
X157973550Y-123613143D01*
X157992999Y-123606906D01*
X158010074Y-123601388D01*
X158024677Y-123596623D01*
X158036711Y-123592642D01*
X158046078Y-123589476D01*
X158052681Y-123587158D01*
X158056421Y-123585719D01*
X158057200Y-123585190D01*
X158055711Y-123585142D01*
X158051145Y-123585037D01*
X158043694Y-123584884D01*
X158033531Y-123584686D01*
X158020824Y-123584444D01*
X158005745Y-123584163D01*
X157988463Y-123583845D01*
X157969149Y-123583494D01*
X157947974Y-123583111D01*
X157925108Y-123582700D01*
X157900720Y-123582265D01*
X157874982Y-123581807D01*
X157848063Y-123581331D01*
X157820135Y-123580838D01*
X157791367Y-123580332D01*
X157761929Y-123579816D01*
X157731993Y-123579293D01*
X157701728Y-123578765D01*
X157671305Y-123578237D01*
X157640894Y-123577710D01*
X157610665Y-123577187D01*
X157580789Y-123576672D01*
X157551436Y-123576168D01*
X157522776Y-123575677D01*
X157494980Y-123575203D01*
X157468218Y-123574748D01*
X157442660Y-123574315D01*
X157418478Y-123573908D01*
X157395840Y-123573529D01*
X157374918Y-123573182D01*
X157355881Y-123572868D01*
X157338900Y-123572592D01*
X157324146Y-123572356D01*
X157311789Y-123572163D01*
X157301999Y-123572017D01*
X157294946Y-123571919D01*
X157290800Y-123571873D01*
X157284602Y-123571783D01*
X157279084Y-123571600D01*
X157275627Y-123571356D01*
X157274800Y-123571080D01*
X157275090Y-123571025D01*
X157277985Y-123570585D01*
X157283872Y-123569728D01*
X157292623Y-123568473D01*
X157304111Y-123566838D01*
X157318208Y-123564840D01*
X157334786Y-123562498D01*
X157353718Y-123559829D01*
X157374876Y-123556852D01*
X157398132Y-123553583D01*
X157423359Y-123550043D01*
X157450429Y-123546247D01*
X157479213Y-123542214D01*
X157509585Y-123537963D01*
X157541417Y-123533510D01*
X157574581Y-123528874D01*
X157608948Y-123524073D01*
X157644393Y-123519125D01*
X157680786Y-123514048D01*
X157718000Y-123508859D01*
X157723266Y-123508125D01*
X157767802Y-123501917D01*
X157809289Y-123496133D01*
X157847834Y-123490759D01*
X157883544Y-123485780D01*
X157916527Y-123481179D01*
X157946889Y-123476941D01*
X157974739Y-123473052D01*
X158000184Y-123469496D01*
X158023331Y-123466257D01*
X158044288Y-123463321D01*
X158063162Y-123460672D01*
X158080060Y-123458295D01*
X158095091Y-123456174D01*
X158108361Y-123454295D01*
X158119978Y-123452642D01*
X158130049Y-123451199D01*
X158138683Y-123449952D01*
X158145985Y-123448885D01*
X158152064Y-123447983D01*
X158157027Y-123447230D01*
X158160981Y-123446612D01*
X158164034Y-123446113D01*
X158166294Y-123445717D01*
X158167867Y-123445410D01*
X158168862Y-123445176D01*
X158169385Y-123445000D01*
X158169544Y-123444866D01*
X158169447Y-123444760D01*
X158169200Y-123444666D01*
X158169182Y-123444661D01*
X158167257Y-123444336D01*
X158162325Y-123443546D01*
X158154530Y-123442313D01*
X158144018Y-123440660D01*
X158130933Y-123438609D01*
X158115420Y-123436183D01*
X158097625Y-123433405D01*
X158077692Y-123430296D01*
X158055765Y-123426880D01*
X158031991Y-123423180D01*
X158006514Y-123419217D01*
X157979478Y-123415014D01*
X157951030Y-123410594D01*
X157921313Y-123405980D01*
X157890472Y-123401194D01*
X157858653Y-123396259D01*
X157826000Y-123391197D01*
X157823875Y-123390867D01*
X157791259Y-123385809D01*
X157759479Y-123380875D01*
X157728681Y-123376088D01*
X157699010Y-123371470D01*
X157670611Y-123367046D01*
X157643630Y-123362836D01*
X157618213Y-123358865D01*
X157594504Y-123355155D01*
X157572649Y-123351728D01*
X157552794Y-123348608D01*
X157535083Y-123345818D01*
X157519662Y-123343379D01*
X157506677Y-123341316D01*
X157496273Y-123339650D01*
X157488596Y-123338405D01*
X157483790Y-123337603D01*
X157482000Y-123337267D01*
X157482252Y-123337205D01*
X157485069Y-123336985D01*
X157490862Y-123336648D01*
X157499482Y-123336200D01*
X157510779Y-123335648D01*
X157524603Y-123334999D01*
X157540805Y-123334258D01*
X157559236Y-123333433D01*
X157579746Y-123332530D01*
X157602185Y-123331555D01*
X157626404Y-123330516D01*
X157652253Y-123329418D01*
X157679584Y-123328268D01*
X157708245Y-123327074D01*
X157738089Y-123325841D01*
X157768964Y-123324576D01*
X157800723Y-123323285D01*
X157815551Y-123322684D01*
X157846980Y-123321405D01*
X157877484Y-123320157D01*
X157906911Y-123318947D01*
X157935109Y-123317780D01*
X157961927Y-123316663D01*
X157987213Y-123315603D01*
X158010817Y-123314606D01*
X158032586Y-123313679D01*
X158052370Y-123312828D01*
X158070016Y-123312059D01*
X158085374Y-123311380D01*
X158098291Y-123310796D01*
X158108617Y-123310314D01*
X158116199Y-123309940D01*
X158120887Y-123309681D01*
X158122529Y-123309544D01*
X158121492Y-123308573D01*
X158118094Y-123305662D01*
X158112442Y-123300905D01*
X158104648Y-123294395D01*
X158094827Y-123286226D01*
X158083091Y-123276491D01*
X158069554Y-123265283D01*
X158054328Y-123252697D01*
X158037528Y-123238826D01*
X158019266Y-123223763D01*
X157999655Y-123207601D01*
X157978809Y-123190435D01*
X157956840Y-123172357D01*
X157933863Y-123153461D01*
X157909990Y-123133840D01*
X157885334Y-123113589D01*
X157860010Y-123092800D01*
X157838495Y-123075138D01*
X157813382Y-123054513D01*
X157788913Y-123034404D01*
X157765210Y-123014911D01*
X157742394Y-122996136D01*
X157720588Y-122978180D01*
X157699914Y-122961143D01*
X157680494Y-122945126D01*
X157662450Y-122930230D01*
X157645904Y-122916556D01*
X157630978Y-122904205D01*
X157617794Y-122893277D01*
X157606475Y-122883873D01*
X157597143Y-122876094D01*
X157589920Y-122870041D01*
X157584927Y-122865814D01*
X157582287Y-122863516D01*
X157570327Y-122852124D01*
X157559545Y-122840684D01*
X157550220Y-122829290D01*
X157543558Y-122819845D01*
X157930200Y-122819845D01*
X158199519Y-122988722D01*
X158209626Y-122995060D01*
X158236190Y-123011713D01*
X158261980Y-123027877D01*
X158286868Y-123043472D01*
X158310724Y-123058416D01*
X158333419Y-123072628D01*
X158354825Y-123086029D01*
X158374811Y-123098537D01*
X158393249Y-123110071D01*
X158410010Y-123120551D01*
X158424964Y-123129895D01*
X158437982Y-123138024D01*
X158448936Y-123144856D01*
X158457695Y-123150310D01*
X158464131Y-123154306D01*
X158468115Y-123156763D01*
X158469518Y-123157600D01*
X158470229Y-123157198D01*
X158472241Y-123154900D01*
X158474536Y-123151563D01*
X158476347Y-123148350D01*
X158476907Y-123146421D01*
X158476842Y-123146350D01*
X158475010Y-123144889D01*
X158470760Y-123141649D01*
X158464224Y-123136729D01*
X158455533Y-123130228D01*
X158444821Y-123122241D01*
X158432220Y-123112869D01*
X158417861Y-123102209D01*
X158401878Y-123090359D01*
X158384401Y-123077417D01*
X158365565Y-123063481D01*
X158345499Y-123048649D01*
X158324338Y-123033019D01*
X158302213Y-123016689D01*
X158279257Y-122999758D01*
X158255600Y-122982323D01*
X158251020Y-122978948D01*
X158227453Y-122961580D01*
X158204591Y-122944725D01*
X158182569Y-122928482D01*
X158161519Y-122912950D01*
X158141575Y-122898227D01*
X158122871Y-122884413D01*
X158105541Y-122871607D01*
X158089719Y-122859906D01*
X158075538Y-122849411D01*
X158063131Y-122840219D01*
X158052633Y-122832431D01*
X158044177Y-122826144D01*
X158037898Y-122821458D01*
X158033927Y-122818471D01*
X158032400Y-122817282D01*
X158032380Y-122817262D01*
X158031918Y-122816841D01*
X158031464Y-122816443D01*
X158031146Y-122816123D01*
X158031089Y-122815938D01*
X158031420Y-122815945D01*
X158032266Y-122816199D01*
X158033752Y-122816757D01*
X158036006Y-122817676D01*
X158039153Y-122819010D01*
X158043321Y-122820817D01*
X158048635Y-122823153D01*
X158055223Y-122826073D01*
X158063210Y-122829635D01*
X158072723Y-122833894D01*
X158083888Y-122838907D01*
X158096833Y-122844730D01*
X158111682Y-122851419D01*
X158128564Y-122859031D01*
X158147604Y-122867621D01*
X158168928Y-122877246D01*
X158192663Y-122887962D01*
X158218936Y-122899825D01*
X158247873Y-122912892D01*
X158279600Y-122927218D01*
X158300560Y-122936682D01*
X158326300Y-122948303D01*
X158351207Y-122959547D01*
X158375121Y-122970341D01*
X158397882Y-122980614D01*
X158419330Y-122990293D01*
X158439303Y-122999306D01*
X158457643Y-123007580D01*
X158474188Y-123015043D01*
X158488778Y-123021623D01*
X158501254Y-123027248D01*
X158511454Y-123031844D01*
X158519219Y-123035341D01*
X158524388Y-123037665D01*
X158526800Y-123038744D01*
X158535600Y-123042623D01*
X158531600Y-123038720D01*
X158531378Y-123038517D01*
X158528974Y-123036504D01*
X158524287Y-123032684D01*
X158517499Y-123027201D01*
X158508789Y-123020199D01*
X158498338Y-123011824D01*
X158486328Y-123002219D01*
X158472939Y-122991530D01*
X158458351Y-122979899D01*
X158442744Y-122967473D01*
X158426301Y-122954396D01*
X158409200Y-122940811D01*
X158396148Y-122930446D01*
X158376705Y-122915001D01*
X158359567Y-122901378D01*
X158344607Y-122889474D01*
X158331700Y-122879187D01*
X158320717Y-122870416D01*
X158311533Y-122863058D01*
X158304021Y-122857010D01*
X158298054Y-122852172D01*
X158293505Y-122848440D01*
X158290247Y-122845714D01*
X158288155Y-122843889D01*
X158287101Y-122842866D01*
X158286958Y-122842540D01*
X158287600Y-122842811D01*
X158288910Y-122843335D01*
X158293018Y-122844885D01*
X158299673Y-122847361D01*
X158308631Y-122850675D01*
X158319652Y-122854738D01*
X158332495Y-122859462D01*
X158346918Y-122864760D01*
X158362680Y-122870542D01*
X158379539Y-122876721D01*
X158397256Y-122883208D01*
X158415587Y-122889916D01*
X158434292Y-122896756D01*
X158453129Y-122903640D01*
X158471858Y-122910480D01*
X158490237Y-122917188D01*
X158508024Y-122923675D01*
X158524979Y-122929853D01*
X158540860Y-122935635D01*
X158555426Y-122940931D01*
X158568436Y-122945654D01*
X158579647Y-122949716D01*
X158588820Y-122953029D01*
X158595712Y-122955504D01*
X158600083Y-122957052D01*
X158601691Y-122957587D01*
X158601894Y-122957548D01*
X158603615Y-122955871D01*
X158605726Y-122952509D01*
X158607682Y-122948545D01*
X158608937Y-122945064D01*
X158608948Y-122943151D01*
X158608288Y-122942599D01*
X158605340Y-122940203D01*
X158600230Y-122936079D01*
X158593165Y-122930392D01*
X158584349Y-122923308D01*
X158573988Y-122914991D01*
X158562287Y-122905607D01*
X158549452Y-122895319D01*
X158535688Y-122884293D01*
X158521200Y-122872694D01*
X158509536Y-122863344D01*
X158492408Y-122849551D01*
X158477621Y-122837557D01*
X158465204Y-122827386D01*
X158455183Y-122819061D01*
X158447585Y-122812603D01*
X158442437Y-122808035D01*
X158439767Y-122805380D01*
X158439600Y-122804660D01*
X158440125Y-122804789D01*
X158443548Y-122805677D01*
X158449690Y-122807295D01*
X158458280Y-122809570D01*
X158469045Y-122812429D01*
X158481714Y-122815802D01*
X158496015Y-122819614D01*
X158511678Y-122823795D01*
X158528430Y-122828271D01*
X158546000Y-122832971D01*
X158552518Y-122834716D01*
X158569840Y-122839352D01*
X158586255Y-122843745D01*
X158601490Y-122847823D01*
X158615273Y-122851511D01*
X158627329Y-122854738D01*
X158637387Y-122857429D01*
X158645172Y-122859512D01*
X158650412Y-122860914D01*
X158652834Y-122861562D01*
X158652836Y-122861563D01*
X158655886Y-122862206D01*
X158657911Y-122861703D01*
X158659721Y-122859477D01*
X158662125Y-122854953D01*
X158664418Y-122849922D01*
X158665100Y-122846757D01*
X158664326Y-122844709D01*
X158663819Y-122844225D01*
X158661073Y-122841855D01*
X158656198Y-122837761D01*
X158649428Y-122832135D01*
X158641000Y-122825172D01*
X158631146Y-122817066D01*
X158620102Y-122808010D01*
X158608102Y-122798197D01*
X158595382Y-122787822D01*
X158588407Y-122782134D01*
X158576186Y-122772136D01*
X158564885Y-122762852D01*
X158554728Y-122754467D01*
X158545938Y-122747167D01*
X158538739Y-122741139D01*
X158533355Y-122736568D01*
X158530009Y-122733640D01*
X158528925Y-122732542D01*
X158529306Y-122732569D01*
X158532263Y-122733047D01*
X158537857Y-122734043D01*
X158545746Y-122735491D01*
X158555588Y-122737324D01*
X158567041Y-122739478D01*
X158579763Y-122741887D01*
X158593411Y-122744485D01*
X158607643Y-122747207D01*
X158622117Y-122749986D01*
X158636492Y-122752758D01*
X158650424Y-122755456D01*
X158663571Y-122758016D01*
X158675592Y-122760370D01*
X158686145Y-122762454D01*
X158694886Y-122764203D01*
X158701474Y-122765549D01*
X158705566Y-122766429D01*
X158707123Y-122766579D01*
X158709055Y-122765677D01*
X158711125Y-122762952D01*
X158713880Y-122757838D01*
X158718628Y-122748433D01*
X158656043Y-122698216D01*
X158652985Y-122695760D01*
X158641013Y-122686092D01*
X158629965Y-122677088D01*
X158620067Y-122668939D01*
X158611544Y-122661834D01*
X158604623Y-122655961D01*
X158599530Y-122651512D01*
X158596490Y-122648674D01*
X158595730Y-122647638D01*
X158595873Y-122647633D01*
X158598423Y-122647896D01*
X158603763Y-122648610D01*
X158611583Y-122649728D01*
X158621571Y-122651204D01*
X158633417Y-122652992D01*
X158646811Y-122655045D01*
X158661442Y-122657317D01*
X158676998Y-122659761D01*
X158755995Y-122672246D01*
X158760389Y-122662523D01*
X158761908Y-122658945D01*
X158763526Y-122653676D01*
X158763278Y-122650899D01*
X158762127Y-122649855D01*
X158758673Y-122646956D01*
X158753191Y-122642445D01*
X158745937Y-122636532D01*
X158737168Y-122629423D01*
X158727137Y-122621326D01*
X158716102Y-122612449D01*
X158704318Y-122603001D01*
X158693970Y-122594698D01*
X158682986Y-122585846D01*
X158673042Y-122577789D01*
X158664381Y-122570726D01*
X158657248Y-122564857D01*
X158651886Y-122560383D01*
X158648539Y-122557502D01*
X158647451Y-122556416D01*
X158648617Y-122556482D01*
X158652656Y-122556985D01*
X158659275Y-122557904D01*
X158668156Y-122559193D01*
X158678983Y-122560805D01*
X158691439Y-122562694D01*
X158705206Y-122564812D01*
X158719968Y-122567114D01*
X158731952Y-122568988D01*
X158746123Y-122571185D01*
X158759122Y-122573181D01*
X158770619Y-122574926D01*
X158780282Y-122576370D01*
X158787779Y-122577463D01*
X158792778Y-122578156D01*
X158794949Y-122578397D01*
X158796726Y-122577790D01*
X158799048Y-122574950D01*
X158801667Y-122569397D01*
X158803248Y-122565206D01*
X158804395Y-122561376D01*
X158804522Y-122559587D01*
X158804225Y-122559445D01*
X158801474Y-122558310D01*
X158795976Y-122556109D01*
X158787896Y-122552906D01*
X158777397Y-122548764D01*
X158764643Y-122543748D01*
X158749797Y-122537921D01*
X158733023Y-122531347D01*
X158714485Y-122524089D01*
X158694347Y-122516211D01*
X158672771Y-122507777D01*
X158649921Y-122498851D01*
X158625962Y-122489496D01*
X158601056Y-122479777D01*
X158575368Y-122469756D01*
X158549061Y-122459498D01*
X158522298Y-122449066D01*
X158495244Y-122438524D01*
X158468061Y-122427935D01*
X158440914Y-122417365D01*
X158413966Y-122406875D01*
X158387381Y-122396531D01*
X158361321Y-122386395D01*
X158335952Y-122376531D01*
X158311437Y-122367003D01*
X158287938Y-122357876D01*
X158265620Y-122349211D01*
X158244647Y-122341075D01*
X158225182Y-122333529D01*
X158207388Y-122326638D01*
X158191430Y-122320465D01*
X158177470Y-122315074D01*
X158165673Y-122310530D01*
X158156202Y-122306895D01*
X158149221Y-122304233D01*
X158144893Y-122302609D01*
X158143382Y-122302085D01*
X158143326Y-122302419D01*
X158143573Y-122305146D01*
X158144290Y-122309961D01*
X158145372Y-122316109D01*
X158146137Y-122321084D01*
X158147127Y-122330744D01*
X158147920Y-122342461D01*
X158148501Y-122355553D01*
X158148854Y-122369340D01*
X158148895Y-122374497D01*
X158148964Y-122383138D01*
X158148815Y-122396266D01*
X158148392Y-122408043D01*
X158147680Y-122417786D01*
X158142553Y-122454519D01*
X158134190Y-122493322D01*
X158122917Y-122532029D01*
X158108867Y-122570384D01*
X158092176Y-122608129D01*
X158072977Y-122645006D01*
X158051407Y-122680757D01*
X158027600Y-122715124D01*
X158001690Y-122747849D01*
X157973812Y-122778675D01*
X157944100Y-122807344D01*
X157930200Y-122819845D01*
X157543558Y-122819845D01*
X157541660Y-122817154D01*
X157537848Y-122811144D01*
X157525595Y-122788181D01*
X157515576Y-122763170D01*
X157507817Y-122736327D01*
X157502342Y-122707866D01*
X157499177Y-122678003D01*
X157498513Y-122653114D01*
X157608761Y-122653114D01*
X157610016Y-122678224D01*
X157613590Y-122702021D01*
X157619550Y-122724286D01*
X157627964Y-122744800D01*
X157635908Y-122758602D01*
X157646507Y-122771971D01*
X157658611Y-122782681D01*
X157672086Y-122790618D01*
X157686800Y-122795666D01*
X157687598Y-122795843D01*
X157694097Y-122796910D01*
X157702009Y-122797761D01*
X157710191Y-122798314D01*
X157717502Y-122798490D01*
X157722800Y-122798208D01*
X157734264Y-122796401D01*
X157755818Y-122791505D01*
X157776223Y-122784646D01*
X157796622Y-122775472D01*
X157821828Y-122761239D01*
X157847307Y-122743646D01*
X157872066Y-122723325D01*
X157895910Y-122700504D01*
X157918645Y-122675414D01*
X157940077Y-122648284D01*
X157960012Y-122619345D01*
X157978256Y-122588828D01*
X157994615Y-122556960D01*
X158008895Y-122523974D01*
X158012320Y-122514997D01*
X158021897Y-122486177D01*
X158029360Y-122457407D01*
X158034682Y-122428997D01*
X158037836Y-122401256D01*
X158038795Y-122374497D01*
X158037532Y-122349027D01*
X158034019Y-122325158D01*
X158028229Y-122303200D01*
X158021397Y-122285831D01*
X158012452Y-122269655D01*
X158001902Y-122256242D01*
X157989737Y-122245582D01*
X157975946Y-122237668D01*
X157960520Y-122232491D01*
X157943448Y-122230043D01*
X157930838Y-122229900D01*
X157910319Y-122232102D01*
X157889070Y-122237186D01*
X157867272Y-122245063D01*
X157845107Y-122255643D01*
X157822756Y-122268834D01*
X157800400Y-122284548D01*
X157778221Y-122302693D01*
X157756400Y-122323179D01*
X157750232Y-122329476D01*
X157728879Y-122353183D01*
X157709041Y-122378216D01*
X157690786Y-122404355D01*
X157674181Y-122431381D01*
X157659292Y-122459073D01*
X157646187Y-122487212D01*
X157634932Y-122515578D01*
X157625595Y-122543951D01*
X157618242Y-122572111D01*
X157612941Y-122599838D01*
X157609758Y-122626912D01*
X157608761Y-122653114D01*
X157498513Y-122653114D01*
X157498348Y-122646951D01*
X157499879Y-122614925D01*
X157503795Y-122582141D01*
X157510122Y-122548813D01*
X157515706Y-122526329D01*
X157527536Y-122488127D01*
X157542201Y-122450003D01*
X157559501Y-122412347D01*
X157579235Y-122375548D01*
X157601204Y-122339998D01*
X157625206Y-122306086D01*
X157651042Y-122274203D01*
X157666567Y-122256321D01*
X157661884Y-122252290D01*
X157661545Y-122252000D01*
X157659013Y-122249842D01*
X157654196Y-122245740D01*
X157647207Y-122239790D01*
X157638157Y-122232087D01*
X157627156Y-122222725D01*
X157614317Y-122211800D01*
X157599751Y-122199405D01*
X157583569Y-122185636D01*
X157565882Y-122170587D01*
X157546803Y-122154353D01*
X157526442Y-122137030D01*
X157504911Y-122118712D01*
X157482321Y-122099493D01*
X157458783Y-122079468D01*
X157434410Y-122058733D01*
X157409312Y-122037381D01*
X157383600Y-122015509D01*
X157373942Y-122007292D01*
X157348442Y-121985594D01*
X157323595Y-121964447D01*
X157299514Y-121943946D01*
X157276310Y-121924187D01*
X157254095Y-121905265D01*
X157232979Y-121887273D01*
X157213076Y-121870309D01*
X157194495Y-121854466D01*
X157177349Y-121839840D01*
X157161748Y-121826526D01*
X157147806Y-121814620D01*
X157135632Y-121804215D01*
X157125339Y-121795407D01*
X157117037Y-121788292D01*
X157110840Y-121782965D01*
X157106857Y-121779519D01*
X157105200Y-121778052D01*
X157103261Y-121776125D01*
X157102202Y-121774848D01*
X157102981Y-121774908D01*
X157105920Y-121776369D01*
X157111345Y-121779299D01*
X157113615Y-121780535D01*
X157118604Y-121783253D01*
X157126154Y-121787366D01*
X157136138Y-121792806D01*
X157148431Y-121799503D01*
X157162904Y-121807390D01*
X157179433Y-121816396D01*
X157197891Y-121826453D01*
X157218150Y-121837493D01*
X157240086Y-121849445D01*
X157263570Y-121862242D01*
X157288477Y-121875814D01*
X157314681Y-121890093D01*
X157342054Y-121905009D01*
X157370470Y-121920494D01*
X157399804Y-121936478D01*
X157429927Y-121952894D01*
X157460715Y-121969671D01*
X157799141Y-122154090D01*
X157816171Y-122146506D01*
X157816335Y-122146433D01*
X157830243Y-122140636D01*
X157845037Y-122135140D01*
X157859497Y-122130374D01*
X157872400Y-122126766D01*
X157876127Y-122125731D01*
X157879623Y-122124428D01*
X157880823Y-122123474D01*
X157880401Y-122123057D01*
X157877843Y-122120702D01*
X157873051Y-122116348D01*
X157866120Y-122110080D01*
X157857144Y-122101984D01*
X157846218Y-122092143D01*
X157833436Y-122080644D01*
X157818895Y-122067572D01*
X157802689Y-122053011D01*
X157784911Y-122037047D01*
X157765659Y-122019765D01*
X157745025Y-122001251D01*
X157723105Y-121981588D01*
X157699994Y-121960863D01*
X157675787Y-121939161D01*
X157650578Y-121916566D01*
X157624462Y-121893164D01*
X157597535Y-121869040D01*
X157569890Y-121844279D01*
X157541623Y-121818966D01*
X157525567Y-121804589D01*
X157497589Y-121779535D01*
X157470266Y-121755067D01*
X157443694Y-121731271D01*
X157417970Y-121708232D01*
X157393190Y-121686036D01*
X157369449Y-121664770D01*
X157346843Y-121644520D01*
X157325470Y-121625372D01*
X157305424Y-121607412D01*
X157286801Y-121590725D01*
X157269699Y-121575398D01*
X157254212Y-121561518D01*
X157240437Y-121549169D01*
X157228470Y-121538439D01*
X157218407Y-121529412D01*
X157210344Y-121522176D01*
X157204377Y-121516816D01*
X157200602Y-121513419D01*
X157199116Y-121512070D01*
X157195431Y-121508557D01*
X157211781Y-121487078D01*
X157224335Y-121470737D01*
X157244079Y-121445541D01*
X157264997Y-121419392D01*
X157286460Y-121393081D01*
X157307979Y-121366963D01*
X157312190Y-121370838D01*
X157312331Y-121370971D01*
X157314345Y-121372883D01*
X157318555Y-121376896D01*
X157324866Y-121382919D01*
X157333183Y-121390859D01*
X157343411Y-121400627D01*
X157355455Y-121412132D01*
X157369220Y-121425282D01*
X157384610Y-121439988D01*
X157401530Y-121456157D01*
X157419886Y-121473700D01*
X157439583Y-121492524D01*
X157460525Y-121512541D01*
X157482617Y-121533658D01*
X157505764Y-121555784D01*
X157529872Y-121578830D01*
X157554844Y-121602703D01*
X157580586Y-121627314D01*
X157607003Y-121652571D01*
X157634000Y-121678383D01*
X157639220Y-121683374D01*
X157666189Y-121709160D01*
X157692594Y-121734406D01*
X157718338Y-121759019D01*
X157743324Y-121782908D01*
X157767454Y-121805978D01*
X157790632Y-121828136D01*
X157812760Y-121849291D01*
X157833741Y-121869349D01*
X157853478Y-121888217D01*
X157871874Y-121905803D01*
X157888832Y-121922013D01*
X157904254Y-121936754D01*
X157918044Y-121949934D01*
X157930103Y-121961460D01*
X157940336Y-121971239D01*
X157948644Y-121979178D01*
X157954931Y-121985184D01*
X157959100Y-121989165D01*
X157961053Y-121991026D01*
X157970505Y-122000000D01*
X157960698Y-121987200D01*
X157960239Y-121986607D01*
X157957695Y-121983355D01*
X157953280Y-121977738D01*
X157947079Y-121969861D01*
X157939174Y-121959830D01*
X157929648Y-121947749D01*
X157918584Y-121933725D01*
X157906066Y-121917862D01*
X157892177Y-121900265D01*
X157876999Y-121881041D01*
X157860616Y-121860293D01*
X157843112Y-121838128D01*
X157824568Y-121814650D01*
X157805068Y-121789965D01*
X157784696Y-121764178D01*
X157763534Y-121737395D01*
X157741666Y-121709720D01*
X157719174Y-121681259D01*
X157696142Y-121652117D01*
X157672653Y-121622400D01*
X157394415Y-121270400D01*
X157397785Y-121265600D01*
X157398416Y-121264828D01*
X157401245Y-121261733D01*
X157406008Y-121256722D01*
X157412481Y-121250022D01*
X157420444Y-121241859D01*
X157429677Y-121232459D01*
X157439958Y-121222049D01*
X157451065Y-121210854D01*
X157462778Y-121199101D01*
X157479634Y-121182306D01*
X157504955Y-121157444D01*
X157528942Y-121134394D01*
X157552031Y-121112760D01*
X157574661Y-121092144D01*
X157597270Y-121072150D01*
X157620295Y-121052383D01*
X157644173Y-121032445D01*
X157669343Y-121011940D01*
X157673201Y-121008841D01*
X157682955Y-121001082D01*
X157693296Y-120992947D01*
X157703915Y-120984671D01*
X157714502Y-120976489D01*
X157724747Y-120968639D01*
X157734340Y-120961355D01*
X157742970Y-120954874D01*
X157750329Y-120949432D01*
X157756105Y-120945264D01*
X157759989Y-120942606D01*
X157761670Y-120941694D01*
X157761853Y-120941858D01*
X157763722Y-120943920D01*
X157767507Y-120948242D01*
X157773095Y-120954693D01*
X157780372Y-120963139D01*
X157789226Y-120973448D01*
X157799543Y-120985489D01*
X157811211Y-120999129D01*
X157824116Y-121014235D01*
X157838146Y-121030677D01*
X157853187Y-121048320D01*
X157869126Y-121067034D01*
X157885850Y-121086685D01*
X157903246Y-121107142D01*
X157921200Y-121128272D01*
X157922596Y-121129915D01*
X157941086Y-121151682D01*
X157959338Y-121173167D01*
X157977210Y-121194203D01*
X157994563Y-121214626D01*
X158011254Y-121234269D01*
X158027144Y-121252965D01*
X158042090Y-121270550D01*
X158055951Y-121286857D01*
X158068588Y-121301721D01*
X158079858Y-121314975D01*
X158089621Y-121326454D01*
X158097736Y-121335991D01*
X158104061Y-121343421D01*
X158108456Y-121348578D01*
X158112321Y-121353111D01*
X158118887Y-121360817D01*
X158127198Y-121370577D01*
X158137074Y-121382177D01*
X158148333Y-121395404D01*
X158160792Y-121410044D01*
X158174270Y-121425884D01*
X158188586Y-121442709D01*
X158203557Y-121460307D01*
X158219002Y-121478464D01*
X158234739Y-121496966D01*
X158250586Y-121515600D01*
X158252784Y-121518183D01*
X158267853Y-121535895D01*
X158282321Y-121552886D01*
X158296054Y-121569001D01*
X158308917Y-121584082D01*
X158320778Y-121597975D01*
X158331503Y-121610521D01*
X158340957Y-121621567D01*
X158349009Y-121630954D01*
X158355523Y-121638527D01*
X158360366Y-121644130D01*
X158363405Y-121647606D01*
X158364506Y-121648800D01*
X158364460Y-121648637D01*
X158363163Y-121646566D01*
X158360350Y-121642410D01*
X158356281Y-121636545D01*
X158351219Y-121629349D01*
X158345422Y-121621200D01*
X158344426Y-121619805D01*
X158341104Y-121615146D01*
X158336126Y-121608158D01*
X158329584Y-121598971D01*
X158321571Y-121587716D01*
X158312179Y-121574522D01*
X158301500Y-121559519D01*
X158289627Y-121542837D01*
X158276652Y-121524606D01*
X158262669Y-121504955D01*
X158247768Y-121484016D01*
X158232042Y-121461916D01*
X158215585Y-121438788D01*
X158198488Y-121414759D01*
X158180843Y-121389961D01*
X158162744Y-121364523D01*
X158144282Y-121338574D01*
X158125551Y-121312246D01*
X158106641Y-121285667D01*
X158087646Y-121258968D01*
X158068659Y-121232279D01*
X158049771Y-121205729D01*
X158031075Y-121179448D01*
X158012663Y-121153566D01*
X157994628Y-121128214D01*
X157977062Y-121103520D01*
X157960058Y-121079616D01*
X157943708Y-121056630D01*
X157928104Y-121034692D01*
X157913340Y-121013934D01*
X157899506Y-120994483D01*
X157886696Y-120976471D01*
X157875002Y-120960027D01*
X157864516Y-120945281D01*
X157855331Y-120932363D01*
X157847540Y-120921403D01*
X157841234Y-120912531D01*
X157836506Y-120905876D01*
X157833449Y-120901569D01*
X157832154Y-120899739D01*
X157829182Y-120895479D01*
X157847991Y-120883860D01*
X157850001Y-120882624D01*
X157861181Y-120875884D01*
X157874497Y-120868039D01*
X157887379Y-120860571D01*
X158341725Y-120860571D01*
X158342220Y-120862637D01*
X158343995Y-120867288D01*
X158346930Y-120874269D01*
X158350907Y-120883324D01*
X158355807Y-120894199D01*
X158361512Y-120906637D01*
X158367902Y-120920382D01*
X158374859Y-120935179D01*
X158382265Y-120950773D01*
X158390000Y-120966908D01*
X158397946Y-120983327D01*
X158405983Y-120999776D01*
X158413994Y-121016000D01*
X158415919Y-121019872D01*
X158440899Y-121069363D01*
X158467530Y-121120826D01*
X158495528Y-121173744D01*
X158524605Y-121227602D01*
X158554475Y-121281884D01*
X158584852Y-121336074D01*
X158615449Y-121389656D01*
X158645981Y-121442115D01*
X158676161Y-121492935D01*
X158705703Y-121541600D01*
X158715956Y-121558228D01*
X158738347Y-121594147D01*
X158761230Y-121630342D01*
X158773056Y-121648800D01*
X158784379Y-121666473D01*
X158807568Y-121702195D01*
X158830572Y-121737168D01*
X158853163Y-121771048D01*
X158875117Y-121803494D01*
X158896207Y-121834163D01*
X158916208Y-121862712D01*
X158934892Y-121888800D01*
X158937267Y-121892071D01*
X158944824Y-121902439D01*
X158950749Y-121910483D01*
X158955214Y-121916425D01*
X158958393Y-121920488D01*
X158960460Y-121922896D01*
X158961587Y-121923871D01*
X158961947Y-121923637D01*
X158961942Y-121923582D01*
X158961211Y-121921545D01*
X158959390Y-121917105D01*
X158956678Y-121910729D01*
X158953271Y-121902884D01*
X158949370Y-121894037D01*
X158948451Y-121891972D01*
X158934086Y-121860403D01*
X158918078Y-121826460D01*
X158900569Y-121790400D01*
X158881698Y-121752482D01*
X158861607Y-121712964D01*
X158840435Y-121672104D01*
X158818323Y-121630161D01*
X158795412Y-121587394D01*
X158771841Y-121544060D01*
X158747752Y-121500417D01*
X158723285Y-121456726D01*
X158698581Y-121413243D01*
X158673779Y-121370226D01*
X158649020Y-121327936D01*
X158624445Y-121286629D01*
X158600194Y-121246564D01*
X158576408Y-121208000D01*
X158562289Y-121185483D01*
X158546369Y-121160379D01*
X158529663Y-121134297D01*
X158512444Y-121107651D01*
X158494982Y-121080854D01*
X158477549Y-121054317D01*
X158460416Y-121028454D01*
X158443855Y-121003679D01*
X158428136Y-120980402D01*
X158424076Y-120974463D01*
X158675986Y-120974463D01*
X158676273Y-120976293D01*
X158677030Y-120979600D01*
X158678352Y-120984785D01*
X158680333Y-120992251D01*
X158683069Y-121002400D01*
X158683175Y-121002793D01*
X158694570Y-121041963D01*
X158708141Y-121083405D01*
X158723869Y-121127066D01*
X158741732Y-121172892D01*
X158761708Y-121220831D01*
X158783776Y-121270831D01*
X158807915Y-121322838D01*
X158834104Y-121376800D01*
X158838405Y-121385450D01*
X158854030Y-121416294D01*
X158868937Y-121444720D01*
X158883397Y-121471203D01*
X158897677Y-121496217D01*
X158912049Y-121520238D01*
X158926781Y-121543740D01*
X158942143Y-121567200D01*
X158943255Y-121568864D01*
X158951000Y-121580455D01*
X158957106Y-121589507D01*
X158961712Y-121596120D01*
X158964956Y-121600391D01*
X158966979Y-121602419D01*
X158967918Y-121602300D01*
X158967915Y-121600134D01*
X158967107Y-121596018D01*
X158965633Y-121590051D01*
X158963634Y-121582329D01*
X158960728Y-121571378D01*
X158950148Y-121535102D01*
X158937503Y-121496492D01*
X158922818Y-121455613D01*
X158906116Y-121412528D01*
X158887420Y-121367302D01*
X158866756Y-121320000D01*
X158856211Y-121296642D01*
X158836229Y-121253460D01*
X158816840Y-121213049D01*
X158797931Y-121175187D01*
X158779386Y-121139653D01*
X158761092Y-121106225D01*
X158742933Y-121074681D01*
X158724797Y-121044800D01*
X158724177Y-121043808D01*
X158718997Y-121035650D01*
X158713207Y-121026721D01*
X158707068Y-121017406D01*
X158700841Y-121008087D01*
X158694789Y-120999148D01*
X158689172Y-120990974D01*
X158684252Y-120983948D01*
X158680291Y-120978455D01*
X158677551Y-120974877D01*
X158676291Y-120973600D01*
X158676075Y-120973706D01*
X158675986Y-120974463D01*
X158424076Y-120974463D01*
X158413531Y-120959038D01*
X158400311Y-120940000D01*
X158393428Y-120930225D01*
X158385004Y-120918369D01*
X158376769Y-120906885D01*
X158368928Y-120896056D01*
X158361690Y-120886160D01*
X158355260Y-120877479D01*
X158349845Y-120870293D01*
X158345652Y-120864882D01*
X158342887Y-120861528D01*
X158341757Y-120860510D01*
X158341725Y-120860571D01*
X157887379Y-120860571D01*
X157889375Y-120859414D01*
X157905244Y-120850335D01*
X157921530Y-120841128D01*
X157937663Y-120832120D01*
X157953069Y-120823635D01*
X157967175Y-120816000D01*
X157970470Y-120814229D01*
X157978863Y-120809653D01*
X157985984Y-120805675D01*
X157991443Y-120802517D01*
X157994852Y-120800405D01*
X157995819Y-120799562D01*
X157994565Y-120799709D01*
X157990574Y-120800781D01*
X157984316Y-120802721D01*
X157976209Y-120805384D01*
X157966672Y-120808622D01*
X157956122Y-120812292D01*
X157944977Y-120816247D01*
X157933654Y-120820341D01*
X157922572Y-120824429D01*
X157912148Y-120828364D01*
X157902800Y-120832002D01*
X157880096Y-120841237D01*
X157820857Y-120867463D01*
X157761808Y-120896705D01*
X157702915Y-120928985D01*
X157644140Y-120964325D01*
X157585449Y-121002750D01*
X157526806Y-121044282D01*
X157468176Y-121088943D01*
X157409522Y-121136758D01*
X157350810Y-121187748D01*
X157333739Y-121203308D01*
X157313613Y-121222237D01*
X157292258Y-121242852D01*
X157270084Y-121264735D01*
X157247501Y-121287469D01*
X157224920Y-121310638D01*
X157202749Y-121333826D01*
X157181399Y-121356613D01*
X157161279Y-121378585D01*
X157142800Y-121399324D01*
X157096663Y-121453321D01*
X157039398Y-121524364D01*
X156984141Y-121597517D01*
X156930990Y-121672600D01*
X156880047Y-121749434D01*
X156831408Y-121827840D01*
X156785175Y-121907640D01*
X156741447Y-121988653D01*
X156700322Y-122070702D01*
X156661900Y-122153608D01*
X156626280Y-122237190D01*
X156593562Y-122321271D01*
X156563845Y-122405672D01*
X156537229Y-122490212D01*
X156520040Y-122550972D01*
X156501188Y-122625377D01*
X156484934Y-122699109D01*
X156471290Y-122772065D01*
X156460265Y-122844139D01*
X156451870Y-122915227D01*
X156446114Y-122985224D01*
X156443008Y-123054027D01*
X156442561Y-123121530D01*
X156271031Y-123121530D01*
X156271365Y-123068414D01*
X156273181Y-123014690D01*
X156276479Y-122962400D01*
X156278278Y-122941041D01*
X156286503Y-122865242D01*
X156297670Y-122788379D01*
X156311754Y-122710545D01*
X156328730Y-122631835D01*
X156348574Y-122552342D01*
X156371262Y-122472158D01*
X156396769Y-122391379D01*
X156425070Y-122310097D01*
X156456142Y-122228406D01*
X156489959Y-122146400D01*
X156528994Y-122058742D01*
X156572007Y-121969193D01*
X156617555Y-121881058D01*
X156665535Y-121794511D01*
X156715841Y-121709729D01*
X156768370Y-121626887D01*
X156823017Y-121546161D01*
X156879678Y-121467725D01*
X156938249Y-121391756D01*
X156969442Y-121353153D01*
X157002241Y-121313818D01*
X157035126Y-121275732D01*
X157068478Y-121238483D01*
X157102679Y-121201661D01*
X157138110Y-121164856D01*
X157175153Y-121127657D01*
X157214189Y-121089654D01*
X157255600Y-121050436D01*
X157266764Y-121040116D01*
X157290684Y-121018667D01*
X157316521Y-120996280D01*
X157343712Y-120973411D01*
X157371700Y-120950514D01*
X157399922Y-120928045D01*
X157427820Y-120906458D01*
X157454833Y-120886210D01*
X157480400Y-120867755D01*
X157484336Y-120864985D01*
X157537894Y-120828874D01*
X157593110Y-120794488D01*
X157649613Y-120762019D01*
X157707027Y-120731655D01*
X157764980Y-120703587D01*
X157823099Y-120678003D01*
X157881010Y-120655095D01*
X157938339Y-120635051D01*
X157938994Y-120634837D01*
X157945987Y-120632486D01*
X157951602Y-120630481D01*
X157955281Y-120629027D01*
X157956466Y-120628332D01*
X157955074Y-120628458D01*
X157950991Y-120629438D01*
X157944637Y-120631185D01*
X157936420Y-120633577D01*
X157926747Y-120636488D01*
X157916026Y-120639794D01*
X157904664Y-120643370D01*
X157893068Y-120647093D01*
X157881648Y-120650837D01*
X157870809Y-120654479D01*
X157830627Y-120668762D01*
X157770846Y-120692259D01*
X157711988Y-120718165D01*
X157653913Y-120746563D01*
X157596475Y-120777540D01*
X157539533Y-120811182D01*
X157482942Y-120847575D01*
X157426561Y-120886804D01*
X157370246Y-120928955D01*
X157313854Y-120974114D01*
X157257242Y-121022366D01*
X157240962Y-121036786D01*
X157182853Y-121090384D01*
X157125250Y-121146809D01*
X157068406Y-121205773D01*
X157012568Y-121266990D01*
X156957989Y-121330171D01*
X156904917Y-121395030D01*
X156853603Y-121461280D01*
X156804297Y-121528632D01*
X156757250Y-121596800D01*
X156737352Y-121626842D01*
X156709162Y-121670630D01*
X156682351Y-121713870D01*
X156656566Y-121757172D01*
X156631453Y-121801145D01*
X156606660Y-121846401D01*
X156581831Y-121893549D01*
X156556615Y-121943200D01*
X156521869Y-122014733D01*
X156483115Y-122099885D01*
X156447469Y-122184513D01*
X156414912Y-122268676D01*
X156385429Y-122352428D01*
X156359003Y-122435828D01*
X156335616Y-122518932D01*
X156315252Y-122601797D01*
X156297894Y-122684479D01*
X156283526Y-122767036D01*
X156272129Y-122849524D01*
X156263689Y-122932000D01*
X156262937Y-122941176D01*
X156260836Y-122971284D01*
X156259370Y-123000911D01*
X156258511Y-123030966D01*
X156258231Y-123062359D01*
X156196671Y-123062359D01*
X156196705Y-123058733D01*
X156196960Y-123043188D01*
X156197328Y-123028863D01*
X156197826Y-123015263D01*
X156198472Y-123001892D01*
X156199284Y-122988255D01*
X156200280Y-122973858D01*
X156201479Y-122958204D01*
X156202899Y-122940800D01*
X156203486Y-122933885D01*
X156211996Y-122852650D01*
X156223529Y-122770646D01*
X156238042Y-122688002D01*
X156255495Y-122604848D01*
X156275844Y-122521312D01*
X156299048Y-122437523D01*
X156325065Y-122353610D01*
X156353852Y-122269703D01*
X156385369Y-122185931D01*
X156419573Y-122102421D01*
X156456422Y-122019305D01*
X156495874Y-121936709D01*
X156537888Y-121854765D01*
X156582420Y-121773600D01*
X156582550Y-121773371D01*
X156631352Y-121690083D01*
X156682138Y-121608794D01*
X156734839Y-121529580D01*
X156789389Y-121452519D01*
X156845718Y-121377689D01*
X156903759Y-121305167D01*
X156963445Y-121235030D01*
X157024706Y-121167356D01*
X157087475Y-121102223D01*
X157151685Y-121039707D01*
X157217266Y-120979886D01*
X157284152Y-120922838D01*
X157352275Y-120868640D01*
X157421565Y-120817369D01*
X157425417Y-120814631D01*
X157482501Y-120775542D01*
X157540562Y-120738527D01*
X157599357Y-120703708D01*
X157658644Y-120671209D01*
X157718181Y-120641150D01*
X157748391Y-120627200D01*
X157958800Y-120627200D01*
X157959600Y-120628000D01*
X157960400Y-120627200D01*
X157959600Y-120626400D01*
X157958800Y-120627200D01*
X157748391Y-120627200D01*
X157777727Y-120613654D01*
X157837040Y-120588845D01*
X157895879Y-120566844D01*
X157954000Y-120547773D01*
X158008625Y-120532322D01*
X158067341Y-120518391D01*
X158125387Y-120507422D01*
X158182712Y-120499412D01*
X158239265Y-120494360D01*
X158294997Y-120492262D01*
X158349856Y-120493117D01*
X158403792Y-120496922D01*
X158456755Y-120503675D01*
X158508694Y-120513374D01*
X158559558Y-120526017D01*
X158609298Y-120541601D01*
X158657862Y-120560123D01*
X158705200Y-120581583D01*
X158733975Y-120596357D01*
X158779442Y-120622358D01*
X158786959Y-120627200D01*
X158788716Y-120628332D01*
G37*
%TD*%
M02*
