M48
; DRILL file KiCad 10.0.1 date 2026-05-26T16:08:41
; FORMAT={-:-/ absolute / metric / decimal}
; #@! TF.CreationDate,2026-05-26T16:08:41+05:30
; #@! TF.GenerationSoftware,Kicad,Pcbnew,10.0.1
; #@! TF.FileFunction,Plated,1,2,PTH
FMAT,2
METRIC
; #@! TA.AperFunction,Plated,PTH,ViaDrill
T1C0.300
; #@! TA.AperFunction,Plated,PTH,ComponentDrill
T2C0.700
; #@! TA.AperFunction,Plated,PTH,ComponentDrill
T3C0.750
; #@! TA.AperFunction,Plated,PTH,ComponentDrill
T4C0.800
; #@! TA.AperFunction,Plated,PTH,ComponentDrill
T5C0.900
; #@! TA.AperFunction,Plated,PTH,ComponentDrill
T6C1.000
; #@! TA.AperFunction,Plated,PTH,ComponentDrill
T7C1.100
; #@! TA.AperFunction,Plated,PTH,ComponentDrill
T8C1.500
%
G90
G05
T1
X169.29Y-105.55
X201.36Y-106.89
T2
X187.96Y-112.05
X188.04Y-106.295
X190.58Y-103.755
X190.58Y-108.835
X191.13Y-115.51
X191.13Y-120.59
X193.04Y-112.05
T3
X183.6Y-110.98
X183.6Y-112.25
X183.6Y-113.52
T4
X173.66Y-105.73
X175.66Y-105.73
X177.66Y-105.73
X187.95Y-115.99
X187.95Y-118.49
T5
X196.85Y-105.58
X199.39Y-105.58
T6
X209.67Y-109.03
X224.67Y-109.03
T7
X174.9Y-109.96
X174.9Y-120.12
T8
X155.02Y-125.3
X171.56Y-105.73
X175.51Y-125.3
X179.76Y-105.73
T6
G00X158.01Y-107.07
M15
G01X158.01Y-109.27
M16
G05
G00X164.31Y-106.87
M15
G01X164.31Y-109.47
M16
G05
M30
