%TF.GenerationSoftware,KiCad,Pcbnew,10.0.1*%
%TF.CreationDate,2026-05-26T16:08:37+05:30*%
%TF.ProjectId,Water alarm Project,57617465-7220-4616-9c61-726d2050726f,rev?*%
%TF.SameCoordinates,Original*%
%TF.FileFunction,Copper,L1,Top*%
%TF.FilePolarity,Positive*%
%FSLAX46Y46*%
G04 Gerber Fmt 4.6, Leading zero omitted, Abs format (unit mm)*
G04 Created by KiCad (PCBNEW 10.0.1) date 2026-05-26 16:08:37*
%MOMM*%
%LPD*%
G01*
G04 APERTURE LIST*
G04 Aperture macros list*
%AMRoundRect*
0 Rectangle with rounded corners*
0 $1 Rounding radius*
0 $2 $3 $4 $5 $6 $7 $8 $9 X,Y pos of 4 corners*
0 Add a 4 corners polygon primitive as box body*
4,1,4,$2,$3,$4,$5,$6,$7,$8,$9,$2,$3,0*
0 Add four circle primitives for the rounded corners*
1,1,$1+$1,$2,$3*
1,1,$1+$1,$4,$5*
1,1,$1+$1,$6,$7*
1,1,$1+$1,$8,$9*
0 Add four rect primitives between the rounded corners*
20,1,$1+$1,$2,$3,$4,$5,0*
20,1,$1+$1,$4,$5,$6,$7,0*
20,1,$1+$1,$6,$7,$8,$9,0*
20,1,$1+$1,$8,$9,$2,$3,0*%
G04 Aperture macros list end*
%TA.AperFunction,ComponentPad*%
%ADD10O,1.500000X2.500000*%
%TD*%
%TA.AperFunction,ComponentPad*%
%ADD11R,1.500000X2.500000*%
%TD*%
%TA.AperFunction,ComponentPad*%
%ADD12O,2.200000X3.500000*%
%TD*%
%TA.AperFunction,ComponentPad*%
%ADD13C,1.600000*%
%TD*%
%TA.AperFunction,ComponentPad*%
%ADD14C,3.000000*%
%TD*%
%TA.AperFunction,ComponentPad*%
%ADD15R,3.000000X3.000000*%
%TD*%
%TA.AperFunction,ComponentPad*%
%ADD16R,2.000000X4.600000*%
%TD*%
%TA.AperFunction,ComponentPad*%
%ADD17O,2.000000X4.200000*%
%TD*%
%TA.AperFunction,ComponentPad*%
%ADD18C,2.000000*%
%TD*%
%TA.AperFunction,ComponentPad*%
%ADD19R,2.000000X2.000000*%
%TD*%
%TA.AperFunction,ComponentPad*%
%ADD20C,1.750000*%
%TD*%
%TA.AperFunction,ComponentPad*%
%ADD21R,1.500000X1.050000*%
%TD*%
%TA.AperFunction,ComponentPad*%
%ADD22O,1.500000X1.050000*%
%TD*%
%TA.AperFunction,ComponentPad*%
%ADD23RoundRect,0.249999X0.850001X-0.850001X0.850001X0.850001X-0.850001X0.850001X-0.850001X-0.850001X0*%
%TD*%
%TA.AperFunction,ComponentPad*%
%ADD24C,2.200000*%
%TD*%
%TA.AperFunction,ComponentPad*%
%ADD25R,1.800000X1.800000*%
%TD*%
%TA.AperFunction,ComponentPad*%
%ADD26C,1.800000*%
%TD*%
%TA.AperFunction,ComponentPad*%
%ADD27C,1.400000*%
%TD*%
%TA.AperFunction,ViaPad*%
%ADD28C,0.600000*%
%TD*%
%TA.AperFunction,Conductor*%
%ADD29C,0.200000*%
%TD*%
G04 APERTURE END LIST*
D10*
%TO.P,SW1,3,C_3*%
%TO.N,unconnected-(SW1-C-Pad3)*%
X177660000Y-105730000D03*
%TO.P,SW1,2,B_2*%
%TO.N,VCC*%
X175660000Y-105730000D03*
D11*
%TO.P,SW1,1,A_1*%
%TO.N,Net-(D2-A)*%
X173660000Y-105730000D03*
D12*
%TO.P,SW1,*%
%TO.N,*%
X179760000Y-105730000D03*
X171560000Y-105730000D03*
%TD*%
D13*
%TO.P,C1,2*%
%TO.N,GND*%
X187950000Y-115990000D03*
%TO.P,C1,1*%
%TO.N,/Gate*%
X187950000Y-118490000D03*
%TD*%
D14*
%TO.P,BT1,2,-_2*%
%TO.N,GND*%
X155020000Y-125300001D03*
D15*
%TO.P,BT1,1,+_1*%
%TO.N,Net-(BT1-+)*%
X175510000Y-125300001D03*
%TD*%
D16*
%TO.P,J1,1*%
%TO.N,VCC*%
X164310000Y-108170000D03*
D17*
%TO.P,J1,2*%
%TO.N,GND*%
X158010000Y-108170000D03*
%TD*%
D18*
%TO.P,BZ1,2,-_2*%
%TO.N,Net-(BZ1--)*%
X224670000Y-109030000D03*
D19*
%TO.P,BZ1,1,+_1*%
%TO.N,VCC*%
X209670000Y-109030000D03*
%TD*%
D20*
%TO.P,RV1,1,1_1*%
%TO.N,Net-(BZ1--)*%
X190580000Y-108835000D03*
%TO.P,RV1,2,2_2*%
%TO.N,Net-(Q1-D)*%
X188040000Y-106295000D03*
%TO.P,RV1,3,3_3*%
X190580000Y-103755000D03*
%TD*%
D21*
%TO.P,Q1,1,S_1*%
%TO.N,GND*%
X183600000Y-113520000D03*
D22*
%TO.P,Q1,2,G_2*%
%TO.N,/Gate*%
X183600000Y-112250000D03*
%TO.P,Q1,3,D_3*%
%TO.N,Net-(Q1-D)*%
X183600000Y-110980000D03*
%TD*%
D23*
%TO.P,D2,1,K_1*%
%TO.N,Net-(BT1-+)*%
X174900000Y-120120000D03*
D24*
%TO.P,D2,2,A_2*%
%TO.N,Net-(D2-A)*%
X174900000Y-109960000D03*
%TD*%
D25*
%TO.P,D1,1,K_1*%
%TO.N,Net-(D1-K)*%
X199390000Y-105580000D03*
D26*
%TO.P,D1,2,A_2*%
%TO.N,VCC*%
X196850000Y-105580000D03*
%TD*%
D27*
%TO.P,R2,1*%
%TO.N,Net-(D1-K)*%
X193040000Y-112050000D03*
%TO.P,R2,2*%
%TO.N,GND*%
X187960001Y-112050000D03*
%TD*%
%TO.P,R1,1*%
%TO.N,/Gate*%
X191130000Y-120590000D03*
%TO.P,R1,2*%
%TO.N,GND*%
X191130000Y-115510000D03*
%TD*%
D28*
%TO.N,Net-(D1-K)*%
X201360000Y-106890000D03*
%TO.N,VCC*%
X169290000Y-105550000D03*
%TD*%
%TO.N,/Gate*%
D29*
X187920000Y-118520000D02*
X187950000Y-118490000D01*
X185750000Y-117700000D02*
X186570000Y-118520000D01*
X186570000Y-118520000D02*
X187920000Y-118520000D01*
X185750000Y-113795000D02*
X185750000Y-117700000D01*
X184205000Y-112250000D02*
X185750000Y-113795000D01*
X183600000Y-112250000D02*
X184205000Y-112250000D01*
X190050000Y-120590000D02*
X187950000Y-118490000D01*
X191130000Y-120590000D02*
X190050000Y-120590000D01*
%TO.N,Net-(D2-A)*%
X173550000Y-105840000D02*
X173660000Y-105730000D01*
X173550000Y-108610000D02*
X173550000Y-105840000D01*
X174900000Y-109960000D02*
X173550000Y-108610000D01*
%TO.N,Net-(BT1-+)*%
X174900000Y-124690001D02*
X175510000Y-125300001D01*
X174900000Y-120120000D02*
X174900000Y-124690001D01*
%TO.N,Net-(D1-K)*%
X200680000Y-105580000D02*
X199390000Y-105580000D01*
X201360000Y-106260000D02*
X200680000Y-105580000D01*
X201360000Y-106890000D02*
X201360000Y-106260000D01*
%TO.N,VCC*%
X200300000Y-109030000D02*
X196850000Y-105580000D01*
X209670000Y-109030000D02*
X200300000Y-109030000D01*
%TO.N,Net-(BZ1--)*%
X196935000Y-108835000D02*
X199390000Y-111290000D01*
X199390000Y-111290000D02*
X222410000Y-111290000D01*
X222410000Y-111290000D02*
X224670000Y-109030000D01*
X190580000Y-108835000D02*
X196935000Y-108835000D01*
%TO.N,Net-(Q1-D)*%
X190580000Y-103755000D02*
X188040000Y-106295000D01*
X183600000Y-110735000D02*
X188040000Y-106295000D01*
X183600000Y-110980000D02*
X183600000Y-110735000D01*
%TO.N,unconnected-(SW1-C-Pad3)*%
X177660000Y-105730000D02*
X177670000Y-105740000D01*
%TO.N,VCC*%
X166670000Y-108170000D02*
X169290000Y-105550000D01*
X164310000Y-108170000D02*
X166670000Y-108170000D01*
X167970000Y-102670000D02*
X174560000Y-102670000D01*
X164260000Y-106380000D02*
X167970000Y-102670000D01*
X164260000Y-108120000D02*
X164260000Y-106380000D01*
X174560000Y-102670000D02*
X175660000Y-103770000D01*
X175660000Y-103770000D02*
X175660000Y-105730000D01*
X164310000Y-108170000D02*
X164260000Y-108120000D01*
%TO.N,GND*%
X155020000Y-111160000D02*
X158010000Y-108170000D01*
X155020000Y-125300001D02*
X155020000Y-111160000D01*
%TD*%
%TA.AperFunction,Conductor*%
%TO.N,VCC*%
G36*
X189994611Y-102300185D02*
G01*
X190040366Y-102352989D01*
X190050310Y-102422147D01*
X190021285Y-102485703D01*
X189983867Y-102514985D01*
X189859080Y-102578567D01*
X189759145Y-102651174D01*
X189683922Y-102705828D01*
X189683920Y-102705830D01*
X189683919Y-102705830D01*
X189530830Y-102858919D01*
X189530830Y-102858920D01*
X189530828Y-102858922D01*
X189476174Y-102934145D01*
X189403567Y-103034080D01*
X189305273Y-103226990D01*
X189305272Y-103226993D01*
X189238370Y-103432901D01*
X189204500Y-103646746D01*
X189204500Y-103863253D01*
X189238370Y-104077098D01*
X189238370Y-104077101D01*
X189256651Y-104133363D01*
X189258646Y-104203205D01*
X189226401Y-104259362D01*
X188544362Y-104941401D01*
X188483039Y-104974886D01*
X188418363Y-104971651D01*
X188362100Y-104953370D01*
X188201714Y-104927967D01*
X188148254Y-104919500D01*
X187931746Y-104919500D01*
X187860465Y-104930790D01*
X187717901Y-104953370D01*
X187511993Y-105020272D01*
X187511990Y-105020273D01*
X187319080Y-105118567D01*
X187219145Y-105191174D01*
X187143922Y-105245828D01*
X187143920Y-105245830D01*
X187143919Y-105245830D01*
X186990830Y-105398919D01*
X186990830Y-105398920D01*
X186990828Y-105398922D01*
X186970686Y-105426645D01*
X186863567Y-105574080D01*
X186765273Y-105766990D01*
X186765272Y-105766993D01*
X186698370Y-105972901D01*
X186686146Y-106050080D01*
X186664500Y-106186746D01*
X186664500Y-106403254D01*
X186678874Y-106494008D01*
X186698370Y-106617098D01*
X186698370Y-106617101D01*
X186716651Y-106673363D01*
X186718646Y-106743205D01*
X186686401Y-106799362D01*
X183567584Y-109918181D01*
X183506261Y-109951666D01*
X183479903Y-109954500D01*
X183273992Y-109954500D01*
X183075880Y-109993907D01*
X183075872Y-109993909D01*
X182889247Y-110071212D01*
X182889237Y-110071217D01*
X182721281Y-110183441D01*
X182578441Y-110326281D01*
X182466217Y-110494237D01*
X182466212Y-110494247D01*
X182388909Y-110680872D01*
X182388907Y-110680880D01*
X182349500Y-110878992D01*
X182349500Y-111081007D01*
X182388907Y-111279119D01*
X182388909Y-111279127D01*
X182466213Y-111465755D01*
X182519904Y-111546109D01*
X182540782Y-111612787D01*
X182522297Y-111680167D01*
X182519904Y-111683891D01*
X182466213Y-111764244D01*
X182388909Y-111950872D01*
X182388907Y-111950880D01*
X182349500Y-112148992D01*
X182349500Y-112351007D01*
X182388907Y-112549119D01*
X182388909Y-112549127D01*
X182422325Y-112629800D01*
X182429794Y-112699270D01*
X182410038Y-112744660D01*
X182410454Y-112744887D01*
X182407919Y-112749528D01*
X182407037Y-112751556D01*
X182406206Y-112752665D01*
X182406202Y-112752672D01*
X182355908Y-112887517D01*
X182349501Y-112947116D01*
X182349500Y-112947135D01*
X182349500Y-114092870D01*
X182349501Y-114092876D01*
X182355908Y-114152483D01*
X182406202Y-114287328D01*
X182406206Y-114287335D01*
X182492452Y-114402544D01*
X182492455Y-114402547D01*
X182607664Y-114488793D01*
X182607671Y-114488797D01*
X182742517Y-114539091D01*
X182742516Y-114539091D01*
X182749444Y-114539835D01*
X182802127Y-114545500D01*
X184397872Y-114545499D01*
X184457483Y-114539091D01*
X184592331Y-114488796D01*
X184707546Y-114402546D01*
X184793796Y-114287331D01*
X184844091Y-114152483D01*
X184850500Y-114092873D01*
X184850499Y-114044095D01*
X184856737Y-114022850D01*
X184858317Y-114000762D01*
X184866388Y-113989980D01*
X184870182Y-113977059D01*
X184886917Y-113962556D01*
X184900189Y-113944829D01*
X184912806Y-113940122D01*
X184922985Y-113931303D01*
X184944903Y-113928151D01*
X184965653Y-113920412D01*
X184978813Y-113923274D01*
X184992144Y-113921358D01*
X185012288Y-113930556D01*
X185033926Y-113935264D01*
X185051647Y-113948530D01*
X185055700Y-113950381D01*
X185062180Y-113956415D01*
X185113181Y-114007416D01*
X185146666Y-114068739D01*
X185149500Y-114095097D01*
X185149500Y-117613330D01*
X185149499Y-117613348D01*
X185149499Y-117779054D01*
X185149498Y-117779054D01*
X185190423Y-117931785D01*
X185219358Y-117981900D01*
X185219359Y-117981904D01*
X185219360Y-117981904D01*
X185269479Y-118068714D01*
X185269481Y-118068717D01*
X185388349Y-118187585D01*
X185388355Y-118187590D01*
X186085139Y-118884374D01*
X186085149Y-118884385D01*
X186089479Y-118888715D01*
X186089480Y-118888716D01*
X186201284Y-119000520D01*
X186288095Y-119050639D01*
X186288097Y-119050641D01*
X186326151Y-119072611D01*
X186338215Y-119079577D01*
X186490943Y-119120500D01*
X186737398Y-119120500D01*
X186804437Y-119140185D01*
X186837716Y-119171615D01*
X186958028Y-119337213D01*
X187102786Y-119481971D01*
X187257749Y-119594556D01*
X187268390Y-119602287D01*
X187384607Y-119661503D01*
X187450776Y-119695218D01*
X187450778Y-119695218D01*
X187450781Y-119695220D01*
X187555137Y-119729127D01*
X187645465Y-119758477D01*
X187710768Y-119768820D01*
X187847648Y-119790500D01*
X187847649Y-119790500D01*
X188052351Y-119790500D01*
X188052352Y-119790500D01*
X188254534Y-119758477D01*
X188268842Y-119753827D01*
X188338682Y-119751831D01*
X188394842Y-119784077D01*
X189565139Y-120954374D01*
X189565149Y-120954385D01*
X189569479Y-120958715D01*
X189569480Y-120958716D01*
X189681284Y-121070520D01*
X189681286Y-121070521D01*
X189681290Y-121070524D01*
X189771833Y-121122798D01*
X189818216Y-121149577D01*
X189930019Y-121179534D01*
X189970942Y-121190500D01*
X189970943Y-121190500D01*
X190026940Y-121190500D01*
X190034620Y-121191462D01*
X190059849Y-121202433D01*
X190086247Y-121210185D01*
X190093564Y-121217095D01*
X190098693Y-121219326D01*
X190103434Y-121226417D01*
X190119524Y-121241612D01*
X190214310Y-121372073D01*
X190347927Y-121505690D01*
X190500801Y-121616760D01*
X190575486Y-121654814D01*
X190669163Y-121702545D01*
X190669165Y-121702545D01*
X190669168Y-121702547D01*
X190758910Y-121731706D01*
X190848881Y-121760940D01*
X191035514Y-121790500D01*
X191035519Y-121790500D01*
X191224486Y-121790500D01*
X191411118Y-121760940D01*
X191590832Y-121702547D01*
X191759199Y-121616760D01*
X191912073Y-121505690D01*
X192045690Y-121372073D01*
X192156760Y-121219199D01*
X192242547Y-121050832D01*
X192300940Y-120871118D01*
X192330500Y-120684486D01*
X192330500Y-120495513D01*
X192300940Y-120308881D01*
X192242545Y-120129163D01*
X192156759Y-119960800D01*
X192045690Y-119807927D01*
X191912073Y-119674310D01*
X191759199Y-119563240D01*
X191590836Y-119477454D01*
X191411118Y-119419059D01*
X191224486Y-119389500D01*
X191224481Y-119389500D01*
X191035519Y-119389500D01*
X191035514Y-119389500D01*
X190848881Y-119419059D01*
X190669163Y-119477454D01*
X190500800Y-119563240D01*
X190413579Y-119626610D01*
X190347927Y-119674310D01*
X190347925Y-119674312D01*
X190347924Y-119674312D01*
X190253417Y-119768820D01*
X190192094Y-119802305D01*
X190122402Y-119797321D01*
X190078055Y-119768820D01*
X189244077Y-118934842D01*
X189210592Y-118873519D01*
X189213828Y-118808841D01*
X189216264Y-118801344D01*
X189218477Y-118794534D01*
X189250500Y-118592352D01*
X189250500Y-118387648D01*
X189218477Y-118185465D01*
X189155218Y-117990776D01*
X189106197Y-117894568D01*
X189062287Y-117808390D01*
X189031691Y-117766278D01*
X188941971Y-117642786D01*
X188797213Y-117498028D01*
X188631613Y-117377715D01*
X188631612Y-117377714D01*
X188631610Y-117377713D01*
X188578171Y-117350484D01*
X188527376Y-117302510D01*
X188510581Y-117234689D01*
X188533118Y-117168554D01*
X188578172Y-117129515D01*
X188631610Y-117102287D01*
X188724590Y-117034732D01*
X188797213Y-116981971D01*
X188797215Y-116981968D01*
X188797219Y-116981966D01*
X188941966Y-116837219D01*
X188941968Y-116837215D01*
X188941971Y-116837213D01*
X189055508Y-116680940D01*
X189062287Y-116671610D01*
X189155220Y-116489219D01*
X189218477Y-116294534D01*
X189250500Y-116092352D01*
X189250500Y-115887648D01*
X189218477Y-115685466D01*
X189155220Y-115490781D01*
X189155218Y-115490778D01*
X189155216Y-115490770D01*
X189143076Y-115466944D01*
X189143074Y-115466942D01*
X189116869Y-115415513D01*
X189929500Y-115415513D01*
X189929500Y-115604486D01*
X189959059Y-115791118D01*
X190017454Y-115970836D01*
X190079370Y-116092351D01*
X190103240Y-116139199D01*
X190214310Y-116292073D01*
X190347927Y-116425690D01*
X190500801Y-116536760D01*
X190580347Y-116577290D01*
X190669163Y-116622545D01*
X190669165Y-116622545D01*
X190669168Y-116622547D01*
X190765497Y-116653846D01*
X190848881Y-116680940D01*
X191035514Y-116710500D01*
X191035519Y-116710500D01*
X191224486Y-116710500D01*
X191411118Y-116680940D01*
X191439823Y-116671613D01*
X191590832Y-116622547D01*
X191759199Y-116536760D01*
X191912073Y-116425690D01*
X192045690Y-116292073D01*
X192156760Y-116139199D01*
X192242547Y-115970832D01*
X192300940Y-115791118D01*
X192330500Y-115604486D01*
X192330500Y-115415513D01*
X192300940Y-115228881D01*
X192242545Y-115049163D01*
X192156759Y-114880800D01*
X192154516Y-114877713D01*
X192045690Y-114727927D01*
X191912073Y-114594310D01*
X191759199Y-114483240D01*
X191590836Y-114397454D01*
X191411118Y-114339059D01*
X191224486Y-114309500D01*
X191224481Y-114309500D01*
X191035519Y-114309500D01*
X191035514Y-114309500D01*
X190848881Y-114339059D01*
X190669163Y-114397454D01*
X190500800Y-114483240D01*
X190493152Y-114488797D01*
X190347927Y-114594310D01*
X190347925Y-114594312D01*
X190347924Y-114594312D01*
X190214312Y-114727924D01*
X190214312Y-114727925D01*
X190214310Y-114727927D01*
X190173004Y-114784780D01*
X190103240Y-114880800D01*
X190017454Y-115049163D01*
X189959059Y-115228881D01*
X189929500Y-115415513D01*
X189116869Y-115415513D01*
X189112167Y-115406285D01*
X189062287Y-115308390D01*
X189004521Y-115228881D01*
X188941971Y-115142786D01*
X188797213Y-114998028D01*
X188631613Y-114877715D01*
X188631612Y-114877714D01*
X188631610Y-114877713D01*
X188574653Y-114848691D01*
X188449223Y-114784781D01*
X188254534Y-114721522D01*
X188079995Y-114693878D01*
X188052352Y-114689500D01*
X187847648Y-114689500D01*
X187823329Y-114693351D01*
X187645465Y-114721522D01*
X187450776Y-114784781D01*
X187268386Y-114877715D01*
X187102786Y-114998028D01*
X186958028Y-115142786D01*
X186837715Y-115308386D01*
X186744781Y-115490776D01*
X186681522Y-115685465D01*
X186649500Y-115887648D01*
X186649500Y-116092351D01*
X186681522Y-116294534D01*
X186744781Y-116489223D01*
X186837715Y-116671613D01*
X186958028Y-116837213D01*
X187102786Y-116981971D01*
X187268388Y-117102286D01*
X187321828Y-117129516D01*
X187372623Y-117177490D01*
X187389418Y-117245312D01*
X187366880Y-117311446D01*
X187321828Y-117350484D01*
X187268388Y-117377713D01*
X187102786Y-117498028D01*
X186958028Y-117642786D01*
X186868308Y-117766278D01*
X186812979Y-117808944D01*
X186743365Y-117814923D01*
X186681570Y-117782318D01*
X186680309Y-117781074D01*
X186386819Y-117487584D01*
X186353334Y-117426261D01*
X186350500Y-117399903D01*
X186350500Y-113884059D01*
X186350501Y-113884046D01*
X186350501Y-113715945D01*
X186350501Y-113715943D01*
X186309577Y-113563215D01*
X186280639Y-113513095D01*
X186230520Y-113426284D01*
X186118716Y-113314480D01*
X186118715Y-113314479D01*
X186114385Y-113310149D01*
X186114374Y-113310139D01*
X184851589Y-112047354D01*
X184842525Y-112030754D01*
X184829392Y-112017143D01*
X184818991Y-111987655D01*
X184818104Y-111986031D01*
X184817652Y-111983859D01*
X184815859Y-111974843D01*
X184815858Y-111974840D01*
X184812014Y-111955513D01*
X186759501Y-111955513D01*
X186759501Y-112144486D01*
X186789060Y-112331118D01*
X186847455Y-112510836D01*
X186908071Y-112629800D01*
X186933241Y-112679199D01*
X187044311Y-112832073D01*
X187177928Y-112965690D01*
X187330802Y-113076760D01*
X187410348Y-113117290D01*
X187499164Y-113162545D01*
X187499166Y-113162545D01*
X187499169Y-113162547D01*
X187595498Y-113193846D01*
X187678882Y-113220940D01*
X187865515Y-113250500D01*
X187865520Y-113250500D01*
X188054487Y-113250500D01*
X188241119Y-113220940D01*
X188420833Y-113162547D01*
X188589200Y-113076760D01*
X188742074Y-112965690D01*
X188875691Y-112832073D01*
X188986761Y-112679199D01*
X189072548Y-112510832D01*
X189130941Y-112331118D01*
X189160501Y-112144486D01*
X189160501Y-111955513D01*
X191839500Y-111955513D01*
X191839500Y-112144486D01*
X191869059Y-112331118D01*
X191927454Y-112510836D01*
X191988070Y-112629800D01*
X192013240Y-112679199D01*
X192124310Y-112832073D01*
X192257927Y-112965690D01*
X192410801Y-113076760D01*
X192490347Y-113117290D01*
X192579163Y-113162545D01*
X192579165Y-113162545D01*
X192579168Y-113162547D01*
X192675497Y-113193846D01*
X192758881Y-113220940D01*
X192945514Y-113250500D01*
X192945519Y-113250500D01*
X193134486Y-113250500D01*
X193321118Y-113220940D01*
X193500832Y-113162547D01*
X193669199Y-113076760D01*
X193822073Y-112965690D01*
X193955690Y-112832073D01*
X194066760Y-112679199D01*
X194152547Y-112510832D01*
X194210940Y-112331118D01*
X194240500Y-112144486D01*
X194240500Y-111955513D01*
X194210940Y-111768881D01*
X194173734Y-111654374D01*
X194152547Y-111589168D01*
X194152545Y-111589165D01*
X194152545Y-111589163D01*
X194107290Y-111500347D01*
X194066760Y-111420801D01*
X193955690Y-111267927D01*
X193822073Y-111134310D01*
X193669199Y-111023240D01*
X193500836Y-110937454D01*
X193321118Y-110879059D01*
X193134486Y-110849500D01*
X193134481Y-110849500D01*
X192945519Y-110849500D01*
X192945514Y-110849500D01*
X192758881Y-110879059D01*
X192579163Y-110937454D01*
X192410800Y-111023240D01*
X192331380Y-111080943D01*
X192257927Y-111134310D01*
X192257925Y-111134312D01*
X192257924Y-111134312D01*
X192124312Y-111267924D01*
X192124312Y-111267925D01*
X192124310Y-111267927D01*
X192116173Y-111279127D01*
X192013240Y-111420800D01*
X191927454Y-111589163D01*
X191869059Y-111768881D01*
X191839500Y-111955513D01*
X189160501Y-111955513D01*
X189130941Y-111768881D01*
X189093735Y-111654374D01*
X189072548Y-111589168D01*
X189072546Y-111589165D01*
X189072546Y-111589163D01*
X189027291Y-111500347D01*
X188986761Y-111420801D01*
X188875691Y-111267927D01*
X188742074Y-111134310D01*
X188589200Y-111023240D01*
X188420837Y-110937454D01*
X188241119Y-110879059D01*
X188054487Y-110849500D01*
X188054482Y-110849500D01*
X187865520Y-110849500D01*
X187865515Y-110849500D01*
X187678882Y-110879059D01*
X187499164Y-110937454D01*
X187330801Y-111023240D01*
X187251381Y-111080943D01*
X187177928Y-111134310D01*
X187177926Y-111134312D01*
X187177925Y-111134312D01*
X187044313Y-111267924D01*
X187044313Y-111267925D01*
X187044311Y-111267927D01*
X187036174Y-111279127D01*
X186933241Y-111420800D01*
X186847455Y-111589163D01*
X186789060Y-111768881D01*
X186759501Y-111955513D01*
X184812014Y-111955513D01*
X184811091Y-111950873D01*
X184733786Y-111764244D01*
X184680094Y-111683889D01*
X184659217Y-111617214D01*
X184677701Y-111549834D01*
X184680078Y-111546134D01*
X184733786Y-111465756D01*
X184811091Y-111279127D01*
X184850500Y-111081003D01*
X184850500Y-110878997D01*
X184811091Y-110680873D01*
X184752664Y-110539821D01*
X184745196Y-110470353D01*
X184776471Y-110407873D01*
X184779517Y-110404716D01*
X186457487Y-108726746D01*
X189204500Y-108726746D01*
X189204500Y-108943254D01*
X189210117Y-108978716D01*
X189238370Y-109157098D01*
X189305272Y-109363006D01*
X189305273Y-109363009D01*
X189393329Y-109535826D01*
X189403567Y-109555919D01*
X189530828Y-109731078D01*
X189683922Y-109884172D01*
X189859081Y-110011433D01*
X189947398Y-110056433D01*
X190051990Y-110109726D01*
X190051993Y-110109727D01*
X190137078Y-110137372D01*
X190257903Y-110176630D01*
X190471746Y-110210500D01*
X190471747Y-110210500D01*
X190688253Y-110210500D01*
X190688254Y-110210500D01*
X190902097Y-110176630D01*
X191108009Y-110109726D01*
X191300919Y-110011433D01*
X191476078Y-109884172D01*
X191629172Y-109731078D01*
X191756433Y-109555919D01*
X191783292Y-109503204D01*
X191831267Y-109452409D01*
X191893777Y-109435500D01*
X196634903Y-109435500D01*
X196701942Y-109455185D01*
X196722584Y-109471819D01*
X198905139Y-111654374D01*
X198905149Y-111654385D01*
X198909479Y-111658715D01*
X198909480Y-111658716D01*
X199021284Y-111770520D01*
X199108095Y-111820639D01*
X199108097Y-111820641D01*
X199158213Y-111849576D01*
X199158215Y-111849577D01*
X199310942Y-111890500D01*
X199310943Y-111890500D01*
X222323331Y-111890500D01*
X222323347Y-111890501D01*
X222330943Y-111890501D01*
X222489054Y-111890501D01*
X222489057Y-111890501D01*
X222641785Y-111849577D01*
X222691904Y-111820639D01*
X222778716Y-111770520D01*
X222890520Y-111658716D01*
X222890520Y-111658714D01*
X222900728Y-111648507D01*
X222900730Y-111648504D01*
X224066437Y-110482796D01*
X224127758Y-110449313D01*
X224192433Y-110452547D01*
X224318632Y-110493553D01*
X224406110Y-110507408D01*
X224551903Y-110530500D01*
X224551908Y-110530500D01*
X224788097Y-110530500D01*
X225021368Y-110493553D01*
X225054468Y-110482798D01*
X225245992Y-110420568D01*
X225456433Y-110313343D01*
X225647510Y-110174517D01*
X225814517Y-110007510D01*
X225953343Y-109816433D01*
X226060568Y-109605992D01*
X226133553Y-109381368D01*
X226169074Y-109157098D01*
X226170500Y-109148097D01*
X226170500Y-108911902D01*
X226133553Y-108678631D01*
X226079704Y-108512903D01*
X226060568Y-108454008D01*
X226060566Y-108454005D01*
X226060566Y-108454003D01*
X225985659Y-108306991D01*
X225953343Y-108243567D01*
X225814517Y-108052490D01*
X225647510Y-107885483D01*
X225456433Y-107746657D01*
X225245996Y-107639433D01*
X225021368Y-107566446D01*
X224788097Y-107529500D01*
X224788092Y-107529500D01*
X224551908Y-107529500D01*
X224551903Y-107529500D01*
X224318631Y-107566446D01*
X224094003Y-107639433D01*
X223883566Y-107746657D01*
X223826783Y-107787913D01*
X223692490Y-107885483D01*
X223692488Y-107885485D01*
X223692487Y-107885485D01*
X223525485Y-108052487D01*
X223525485Y-108052488D01*
X223525483Y-108052490D01*
X223465862Y-108134550D01*
X223386657Y-108243566D01*
X223279433Y-108454003D01*
X223206446Y-108678631D01*
X223169500Y-108911902D01*
X223169500Y-109148097D01*
X223206447Y-109381369D01*
X223206447Y-109381372D01*
X223247450Y-109507564D01*
X223249445Y-109577405D01*
X223217200Y-109633563D01*
X222197584Y-110653181D01*
X222136261Y-110686666D01*
X222109903Y-110689500D01*
X210995911Y-110689500D01*
X210928872Y-110669815D01*
X210883117Y-110617011D01*
X210873173Y-110547853D01*
X210902198Y-110484297D01*
X210921600Y-110466234D01*
X211027187Y-110387190D01*
X211027190Y-110387187D01*
X211113350Y-110272093D01*
X211113354Y-110272086D01*
X211163596Y-110137379D01*
X211163598Y-110137372D01*
X211169999Y-110077844D01*
X211170000Y-110077827D01*
X211170000Y-109280000D01*
X210103012Y-109280000D01*
X210135925Y-109222993D01*
X210170000Y-109095826D01*
X210170000Y-108964174D01*
X210135925Y-108837007D01*
X210103012Y-108780000D01*
X211170000Y-108780000D01*
X211170000Y-107982172D01*
X211169999Y-107982155D01*
X211163598Y-107922627D01*
X211163596Y-107922620D01*
X211113354Y-107787913D01*
X211113350Y-107787906D01*
X211027190Y-107672812D01*
X211027187Y-107672809D01*
X210912093Y-107586649D01*
X210912086Y-107586645D01*
X210777379Y-107536403D01*
X210777372Y-107536401D01*
X210717844Y-107530000D01*
X209920000Y-107530000D01*
X209920000Y-108596988D01*
X209862993Y-108564075D01*
X209735826Y-108530000D01*
X209604174Y-108530000D01*
X209477007Y-108564075D01*
X209420000Y-108596988D01*
X209420000Y-107530000D01*
X208622155Y-107530000D01*
X208562627Y-107536401D01*
X208562620Y-107536403D01*
X208427913Y-107586645D01*
X208427906Y-107586649D01*
X208312812Y-107672809D01*
X208312809Y-107672812D01*
X208226649Y-107787906D01*
X208226645Y-107787913D01*
X208176403Y-107922620D01*
X208176401Y-107922627D01*
X208170000Y-107982155D01*
X208170000Y-108780000D01*
X209236988Y-108780000D01*
X209204075Y-108837007D01*
X209170000Y-108964174D01*
X209170000Y-109095826D01*
X209204075Y-109222993D01*
X209236988Y-109280000D01*
X208170000Y-109280000D01*
X208170000Y-110077844D01*
X208176401Y-110137372D01*
X208176403Y-110137379D01*
X208226645Y-110272086D01*
X208226649Y-110272093D01*
X208312809Y-110387187D01*
X208312812Y-110387190D01*
X208418400Y-110466234D01*
X208460271Y-110522168D01*
X208465255Y-110591859D01*
X208431769Y-110653182D01*
X208370446Y-110686666D01*
X208344089Y-110689500D01*
X199690097Y-110689500D01*
X199623058Y-110669815D01*
X199602416Y-110653181D01*
X197422590Y-108473355D01*
X197422588Y-108473352D01*
X197303717Y-108354481D01*
X197303716Y-108354480D01*
X197196948Y-108292838D01*
X197196947Y-108292837D01*
X197166783Y-108275422D01*
X197110881Y-108260443D01*
X197014057Y-108234499D01*
X196855943Y-108234499D01*
X196848347Y-108234499D01*
X196848331Y-108234500D01*
X191893777Y-108234500D01*
X191884352Y-108231732D01*
X191874613Y-108233010D01*
X191851381Y-108222051D01*
X191826738Y-108214815D01*
X191818621Y-108206597D01*
X191811421Y-108203201D01*
X191797607Y-108185322D01*
X191788640Y-108176244D01*
X191785760Y-108171639D01*
X191756433Y-108114081D01*
X191629172Y-107938922D01*
X191476078Y-107785828D01*
X191300919Y-107658567D01*
X191263365Y-107639432D01*
X191108009Y-107560273D01*
X191108006Y-107560272D01*
X190902098Y-107493370D01*
X190780376Y-107474091D01*
X190688254Y-107459500D01*
X190471746Y-107459500D01*
X190400465Y-107470790D01*
X190257901Y-107493370D01*
X190051993Y-107560272D01*
X190051990Y-107560273D01*
X189859080Y-107658567D01*
X189815129Y-107690500D01*
X189683922Y-107785828D01*
X189683920Y-107785830D01*
X189683919Y-107785830D01*
X189530830Y-107938919D01*
X189530830Y-107938920D01*
X189530828Y-107938922D01*
X189529254Y-107941089D01*
X189403567Y-108114080D01*
X189305273Y-108306990D01*
X189305272Y-108306993D01*
X189238370Y-108512901D01*
X189219839Y-108629901D01*
X189204500Y-108726746D01*
X186457487Y-108726746D01*
X187535638Y-107648595D01*
X187596959Y-107615112D01*
X187661634Y-107618346D01*
X187717903Y-107636630D01*
X187931746Y-107670500D01*
X187931747Y-107670500D01*
X188148253Y-107670500D01*
X188148254Y-107670500D01*
X188362097Y-107636630D01*
X188568009Y-107569726D01*
X188760919Y-107471433D01*
X188936078Y-107344172D01*
X189089172Y-107191078D01*
X189216433Y-107015919D01*
X189314726Y-106823009D01*
X189351436Y-106710025D01*
X189372405Y-106645490D01*
X189372405Y-106645488D01*
X189381630Y-106617097D01*
X189415500Y-106403254D01*
X189415500Y-106186746D01*
X189381630Y-105972903D01*
X189363346Y-105916634D01*
X189361352Y-105846794D01*
X189393595Y-105790638D01*
X189714415Y-105469818D01*
X195450000Y-105469818D01*
X195450000Y-105690181D01*
X195484473Y-105907835D01*
X195552567Y-106117410D01*
X195652611Y-106313756D01*
X195698932Y-106377513D01*
X196407861Y-105668584D01*
X196430667Y-105753694D01*
X196489910Y-105856306D01*
X196573694Y-105940090D01*
X196676306Y-105999333D01*
X196761414Y-106022137D01*
X196052485Y-106731065D01*
X196052485Y-106731066D01*
X196116243Y-106777388D01*
X196312589Y-106877432D01*
X196522164Y-106945526D01*
X196739819Y-106980000D01*
X196960181Y-106980000D01*
X197177835Y-106945526D01*
X197387410Y-106877432D01*
X197583760Y-106777386D01*
X197647513Y-106731066D01*
X197647514Y-106731066D01*
X196938585Y-106022138D01*
X197023694Y-105999333D01*
X197126306Y-105940090D01*
X197210090Y-105856306D01*
X197269333Y-105753694D01*
X197292138Y-105668585D01*
X197953181Y-106329628D01*
X197986666Y-106390951D01*
X197989500Y-106417308D01*
X197989500Y-106527869D01*
X197989501Y-106527876D01*
X197995908Y-106587483D01*
X198046202Y-106722328D01*
X198046206Y-106722335D01*
X198132452Y-106837544D01*
X198132455Y-106837547D01*
X198247664Y-106923793D01*
X198247671Y-106923797D01*
X198382517Y-106974091D01*
X198382516Y-106974091D01*
X198389444Y-106974835D01*
X198442127Y-106980500D01*
X200337872Y-106980499D01*
X200397483Y-106974091D01*
X200412755Y-106968394D01*
X200482445Y-106963408D01*
X200543769Y-106996891D01*
X200577256Y-107058213D01*
X200577708Y-107060383D01*
X200590261Y-107123491D01*
X200590264Y-107123501D01*
X200650602Y-107269172D01*
X200650609Y-107269185D01*
X200738210Y-107400288D01*
X200738213Y-107400292D01*
X200849707Y-107511786D01*
X200849711Y-107511789D01*
X200980814Y-107599390D01*
X200980827Y-107599397D01*
X201077484Y-107639433D01*
X201126503Y-107659737D01*
X201281153Y-107690499D01*
X201281156Y-107690500D01*
X201281158Y-107690500D01*
X201438844Y-107690500D01*
X201438845Y-107690499D01*
X201593497Y-107659737D01*
X201726854Y-107604499D01*
X201739172Y-107599397D01*
X201739172Y-107599396D01*
X201739179Y-107599394D01*
X201870289Y-107511789D01*
X201981789Y-107400289D01*
X202069394Y-107269179D01*
X202129737Y-107123497D01*
X202160500Y-106968842D01*
X202160500Y-106811158D01*
X202160500Y-106811155D01*
X202160499Y-106811153D01*
X202153782Y-106777386D01*
X202129737Y-106656503D01*
X202125175Y-106645490D01*
X202069397Y-106510827D01*
X202069390Y-106510814D01*
X201981398Y-106379125D01*
X201960520Y-106312447D01*
X201960500Y-106310234D01*
X201960500Y-106180945D01*
X201960500Y-106180943D01*
X201960382Y-106180500D01*
X201919577Y-106028215D01*
X201873678Y-105948716D01*
X201840520Y-105891284D01*
X201728716Y-105779480D01*
X201728715Y-105779479D01*
X201724385Y-105775149D01*
X201724374Y-105775139D01*
X201167590Y-105218355D01*
X201167588Y-105218352D01*
X201048717Y-105099481D01*
X201048716Y-105099480D01*
X201006509Y-105075112D01*
X200967337Y-105052496D01*
X200967331Y-105052493D01*
X200961904Y-105049360D01*
X200911785Y-105020423D01*
X200872756Y-105009965D01*
X200863643Y-105005867D01*
X200844388Y-104989377D01*
X200822743Y-104976183D01*
X200818298Y-104967033D01*
X200810575Y-104960419D01*
X200803292Y-104936140D01*
X200792215Y-104913335D01*
X200790581Y-104893763D01*
X200790501Y-104893495D01*
X200790546Y-104893338D01*
X200790499Y-104892775D01*
X200790499Y-104632129D01*
X200790498Y-104632123D01*
X200790497Y-104632116D01*
X200784091Y-104572517D01*
X200748062Y-104475919D01*
X200733797Y-104437671D01*
X200733793Y-104437664D01*
X200647547Y-104322455D01*
X200647544Y-104322452D01*
X200532335Y-104236206D01*
X200532328Y-104236202D01*
X200397482Y-104185908D01*
X200397483Y-104185908D01*
X200337883Y-104179501D01*
X200337881Y-104179500D01*
X200337873Y-104179500D01*
X200337864Y-104179500D01*
X198442129Y-104179500D01*
X198442123Y-104179501D01*
X198382516Y-104185908D01*
X198247671Y-104236202D01*
X198247664Y-104236206D01*
X198132455Y-104322452D01*
X198132452Y-104322455D01*
X198046206Y-104437664D01*
X198046202Y-104437671D01*
X197995908Y-104572517D01*
X197989501Y-104632116D01*
X197989501Y-104632123D01*
X197989500Y-104632135D01*
X197989500Y-104742691D01*
X197969815Y-104809730D01*
X197953181Y-104830372D01*
X197292138Y-105491414D01*
X197269333Y-105406306D01*
X197210090Y-105303694D01*
X197126306Y-105219910D01*
X197023694Y-105160667D01*
X196938583Y-105137861D01*
X197647513Y-104428932D01*
X197583756Y-104382611D01*
X197387410Y-104282567D01*
X197177835Y-104214473D01*
X196960181Y-104180000D01*
X196739819Y-104180000D01*
X196522164Y-104214473D01*
X196312589Y-104282567D01*
X196116233Y-104382616D01*
X196052485Y-104428931D01*
X196052485Y-104428932D01*
X196761414Y-105137861D01*
X196676306Y-105160667D01*
X196573694Y-105219910D01*
X196489910Y-105303694D01*
X196430667Y-105406306D01*
X196407861Y-105491414D01*
X195698932Y-104782485D01*
X195698931Y-104782485D01*
X195652616Y-104846233D01*
X195552567Y-105042589D01*
X195484473Y-105252164D01*
X195450000Y-105469818D01*
X189714415Y-105469818D01*
X190075638Y-105108595D01*
X190136959Y-105075112D01*
X190201634Y-105078346D01*
X190257903Y-105096630D01*
X190471746Y-105130500D01*
X190471747Y-105130500D01*
X190688253Y-105130500D01*
X190688254Y-105130500D01*
X190902097Y-105096630D01*
X191108009Y-105029726D01*
X191300919Y-104931433D01*
X191476078Y-104804172D01*
X191629172Y-104651078D01*
X191756433Y-104475919D01*
X191854726Y-104283009D01*
X191921630Y-104077097D01*
X191955500Y-103863254D01*
X191955500Y-103646746D01*
X191921630Y-103432903D01*
X191854726Y-103226991D01*
X191854726Y-103226990D01*
X191756432Y-103034080D01*
X191629172Y-102858922D01*
X191476078Y-102705828D01*
X191300919Y-102578567D01*
X191176133Y-102514985D01*
X191125337Y-102467010D01*
X191108542Y-102399189D01*
X191131080Y-102333054D01*
X191185795Y-102289603D01*
X191232428Y-102280500D01*
X228685500Y-102280500D01*
X228752539Y-102300185D01*
X228798294Y-102352989D01*
X228809500Y-102404500D01*
X228809500Y-134705500D01*
X228789815Y-134772539D01*
X228737011Y-134818294D01*
X228685500Y-134829500D01*
X153054500Y-134829500D01*
X152987461Y-134809815D01*
X152941706Y-134757011D01*
X152930500Y-134705500D01*
X152930500Y-131048711D01*
X180281791Y-131048711D01*
X180281791Y-131291288D01*
X180313452Y-131531785D01*
X180376238Y-131766104D01*
X180469064Y-131990205D01*
X180469067Y-131990212D01*
X180590355Y-132200289D01*
X180590357Y-132200292D01*
X180590358Y-132200293D01*
X180738024Y-132392736D01*
X180738030Y-132392743D01*
X180909547Y-132564260D01*
X180909553Y-132564265D01*
X181102002Y-132711936D01*
X181312079Y-132833224D01*
X181536191Y-132926054D01*
X181770502Y-132988838D01*
X181950877Y-133012584D01*
X182011002Y-133020500D01*
X182011003Y-133020500D01*
X182253580Y-133020500D01*
X182301679Y-133014167D01*
X182494080Y-132988838D01*
X182728391Y-132926054D01*
X182952503Y-132833224D01*
X183162580Y-132711936D01*
X183355029Y-132564265D01*
X183526556Y-132392738D01*
X183674227Y-132200289D01*
X183795515Y-131990212D01*
X183888345Y-131766100D01*
X183951129Y-131531789D01*
X183982791Y-131291288D01*
X183982791Y-131048712D01*
X183982791Y-131048711D01*
X223339500Y-131048711D01*
X223339500Y-131291288D01*
X223371161Y-131531785D01*
X223433947Y-131766104D01*
X223526773Y-131990205D01*
X223526776Y-131990212D01*
X223648064Y-132200289D01*
X223648066Y-132200292D01*
X223648067Y-132200293D01*
X223795733Y-132392736D01*
X223795739Y-132392743D01*
X223967256Y-132564260D01*
X223967262Y-132564265D01*
X224159711Y-132711936D01*
X224369788Y-132833224D01*
X224593900Y-132926054D01*
X224828211Y-132988838D01*
X225008586Y-133012584D01*
X225068711Y-133020500D01*
X225068712Y-133020500D01*
X225311289Y-133020500D01*
X225359388Y-133014167D01*
X225551789Y-132988838D01*
X225786100Y-132926054D01*
X226010212Y-132833224D01*
X226220289Y-132711936D01*
X226412738Y-132564265D01*
X226584265Y-132392738D01*
X226731936Y-132200289D01*
X226853224Y-131990212D01*
X226946054Y-131766100D01*
X227008838Y-131531789D01*
X227040500Y-131291288D01*
X227040500Y-131048712D01*
X227008838Y-130808211D01*
X226946054Y-130573900D01*
X226853224Y-130349788D01*
X226731936Y-130139711D01*
X226584265Y-129947262D01*
X226584260Y-129947256D01*
X226412743Y-129775739D01*
X226412736Y-129775733D01*
X226220293Y-129628067D01*
X226220292Y-129628066D01*
X226220289Y-129628064D01*
X226010212Y-129506776D01*
X226010205Y-129506773D01*
X225786104Y-129413947D01*
X225551785Y-129351161D01*
X225311289Y-129319500D01*
X225311288Y-129319500D01*
X225068712Y-129319500D01*
X225068711Y-129319500D01*
X224828214Y-129351161D01*
X224593895Y-129413947D01*
X224369794Y-129506773D01*
X224369785Y-129506777D01*
X224159706Y-129628067D01*
X223967263Y-129775733D01*
X223967256Y-129775739D01*
X223795739Y-129947256D01*
X223795733Y-129947263D01*
X223648067Y-130139706D01*
X223526777Y-130349785D01*
X223526773Y-130349794D01*
X223433947Y-130573895D01*
X223371161Y-130808214D01*
X223339500Y-131048711D01*
X183982791Y-131048711D01*
X183951129Y-130808211D01*
X183888345Y-130573900D01*
X183795515Y-130349788D01*
X183674227Y-130139711D01*
X183526556Y-129947262D01*
X183526551Y-129947256D01*
X183355034Y-129775739D01*
X183355027Y-129775733D01*
X183162584Y-129628067D01*
X183162583Y-129628066D01*
X183162580Y-129628064D01*
X182952503Y-129506776D01*
X182952496Y-129506773D01*
X182728395Y-129413947D01*
X182494076Y-129351161D01*
X182253580Y-129319500D01*
X182253579Y-129319500D01*
X182011003Y-129319500D01*
X182011002Y-129319500D01*
X181770505Y-129351161D01*
X181536186Y-129413947D01*
X181312085Y-129506773D01*
X181312076Y-129506777D01*
X181101997Y-129628067D01*
X180909554Y-129775733D01*
X180909547Y-129775739D01*
X180738030Y-129947256D01*
X180738024Y-129947263D01*
X180590358Y-130139706D01*
X180469068Y-130349785D01*
X180469064Y-130349794D01*
X180376238Y-130573895D01*
X180313452Y-130808214D01*
X180281791Y-131048711D01*
X152930500Y-131048711D01*
X152930500Y-126106449D01*
X152950185Y-126039410D01*
X153002989Y-125993655D01*
X153072147Y-125983711D01*
X153135703Y-126012736D01*
X153169061Y-126058996D01*
X153221954Y-126186691D01*
X153221958Y-126186701D01*
X153353075Y-126413804D01*
X153512718Y-126621852D01*
X153512726Y-126621861D01*
X153698140Y-126807275D01*
X153698148Y-126807282D01*
X153906196Y-126966925D01*
X154133299Y-127098042D01*
X154133309Y-127098047D01*
X154375571Y-127198395D01*
X154375581Y-127198399D01*
X154628884Y-127266271D01*
X154877188Y-127298961D01*
X154888864Y-127300499D01*
X154888880Y-127300501D01*
X154888887Y-127300501D01*
X155151113Y-127300501D01*
X155151120Y-127300501D01*
X155411116Y-127266271D01*
X155664419Y-127198399D01*
X155906697Y-127098044D01*
X156133803Y-126966925D01*
X156341851Y-126807283D01*
X156341855Y-126807278D01*
X156341860Y-126807275D01*
X156527274Y-126621861D01*
X156527277Y-126621856D01*
X156527282Y-126621852D01*
X156686924Y-126413804D01*
X156818043Y-126186698D01*
X156918398Y-125944420D01*
X156986270Y-125691117D01*
X157020500Y-125431121D01*
X157020500Y-125168881D01*
X156986270Y-124908885D01*
X156918398Y-124655582D01*
X156893473Y-124595408D01*
X156818046Y-124413310D01*
X156818041Y-124413300D01*
X156686924Y-124186197D01*
X156527281Y-123978149D01*
X156527274Y-123978141D01*
X156341860Y-123792727D01*
X156341851Y-123792719D01*
X156133803Y-123633076D01*
X155906700Y-123501959D01*
X155906690Y-123501955D01*
X155697047Y-123415118D01*
X155642644Y-123371277D01*
X155620579Y-123304983D01*
X155620500Y-123300557D01*
X155620500Y-119219982D01*
X173299500Y-119219982D01*
X173299500Y-121020017D01*
X173310000Y-121122796D01*
X173328070Y-121177328D01*
X173365186Y-121289335D01*
X173457288Y-121438656D01*
X173581344Y-121562712D01*
X173730665Y-121654814D01*
X173897202Y-121709999D01*
X173999990Y-121720500D01*
X174175500Y-121720500D01*
X174242539Y-121740185D01*
X174288294Y-121792989D01*
X174299500Y-121844500D01*
X174299500Y-123175501D01*
X174279815Y-123242540D01*
X174227011Y-123288295D01*
X174175501Y-123299501D01*
X173962130Y-123299501D01*
X173962123Y-123299502D01*
X173902516Y-123305909D01*
X173767671Y-123356203D01*
X173767664Y-123356207D01*
X173652455Y-123442453D01*
X173652452Y-123442456D01*
X173566206Y-123557665D01*
X173566202Y-123557672D01*
X173515908Y-123692518D01*
X173509501Y-123752117D01*
X173509501Y-123752124D01*
X173509500Y-123752136D01*
X173509500Y-126847871D01*
X173509501Y-126847877D01*
X173515908Y-126907484D01*
X173566202Y-127042329D01*
X173566206Y-127042336D01*
X173652452Y-127157545D01*
X173652455Y-127157548D01*
X173767664Y-127243794D01*
X173767671Y-127243798D01*
X173902517Y-127294092D01*
X173902516Y-127294092D01*
X173909444Y-127294836D01*
X173962127Y-127300501D01*
X177057872Y-127300500D01*
X177117483Y-127294092D01*
X177252331Y-127243797D01*
X177367546Y-127157547D01*
X177453796Y-127042332D01*
X177504091Y-126907484D01*
X177510500Y-126847874D01*
X177510499Y-123752129D01*
X177504091Y-123692518D01*
X177453796Y-123557670D01*
X177453795Y-123557669D01*
X177453793Y-123557665D01*
X177367547Y-123442456D01*
X177367544Y-123442453D01*
X177252335Y-123356207D01*
X177252328Y-123356203D01*
X177117482Y-123305909D01*
X177117483Y-123305909D01*
X177057883Y-123299502D01*
X177057881Y-123299501D01*
X177057873Y-123299501D01*
X177057865Y-123299501D01*
X175624500Y-123299501D01*
X175557461Y-123279816D01*
X175511706Y-123227012D01*
X175500500Y-123175501D01*
X175500500Y-121844500D01*
X175520185Y-121777461D01*
X175572989Y-121731706D01*
X175624500Y-121720500D01*
X175800005Y-121720500D01*
X175800010Y-121720500D01*
X175902798Y-121709999D01*
X176069335Y-121654814D01*
X176218656Y-121562712D01*
X176342712Y-121438656D01*
X176434814Y-121289335D01*
X176489999Y-121122798D01*
X176500500Y-121020010D01*
X176500500Y-119219990D01*
X176489999Y-119117202D01*
X176434814Y-118950665D01*
X176342712Y-118801344D01*
X176218656Y-118677288D01*
X176080953Y-118592352D01*
X176069337Y-118585187D01*
X176069332Y-118585185D01*
X176067863Y-118584698D01*
X175902798Y-118530001D01*
X175902796Y-118530000D01*
X175800017Y-118519500D01*
X175800010Y-118519500D01*
X173999990Y-118519500D01*
X173999982Y-118519500D01*
X173897203Y-118530000D01*
X173897202Y-118530001D01*
X173814669Y-118557349D01*
X173730667Y-118585185D01*
X173730662Y-118585187D01*
X173581342Y-118677289D01*
X173457289Y-118801342D01*
X173365187Y-118950662D01*
X173365186Y-118950665D01*
X173310001Y-119117202D01*
X173310001Y-119117203D01*
X173310000Y-119117203D01*
X173299500Y-119219982D01*
X155620500Y-119219982D01*
X155620500Y-111460097D01*
X155640185Y-111393058D01*
X155656819Y-111372416D01*
X156735923Y-110293312D01*
X156797246Y-110259827D01*
X156866938Y-110264811D01*
X156911285Y-110293312D01*
X157032490Y-110414517D01*
X157223567Y-110553343D01*
X157299159Y-110591859D01*
X157434003Y-110660566D01*
X157434005Y-110660566D01*
X157434008Y-110660568D01*
X157554412Y-110699689D01*
X157658631Y-110733553D01*
X157891903Y-110770500D01*
X157891908Y-110770500D01*
X158128097Y-110770500D01*
X158361368Y-110733553D01*
X158585992Y-110660568D01*
X158796433Y-110553343D01*
X158987510Y-110414517D01*
X159154517Y-110247510D01*
X159293343Y-110056433D01*
X159400568Y-109845992D01*
X159473553Y-109621368D01*
X159483919Y-109555919D01*
X159510500Y-109388097D01*
X159510500Y-106951902D01*
X159473553Y-106718631D01*
X159430940Y-106587483D01*
X159400568Y-106494008D01*
X159400566Y-106494005D01*
X159400566Y-106494003D01*
X159337383Y-106370000D01*
X159293343Y-106283567D01*
X159154517Y-106092490D01*
X158987510Y-105925483D01*
X158845292Y-105822155D01*
X162810000Y-105822155D01*
X162810000Y-107920000D01*
X163810000Y-107920000D01*
X163810000Y-108420000D01*
X162810000Y-108420000D01*
X162810000Y-110517844D01*
X162816401Y-110577372D01*
X162816403Y-110577379D01*
X162866645Y-110712086D01*
X162866649Y-110712093D01*
X162952809Y-110827187D01*
X162952812Y-110827190D01*
X163067906Y-110913350D01*
X163067913Y-110913354D01*
X163202620Y-110963596D01*
X163202627Y-110963598D01*
X163262155Y-110969999D01*
X163262172Y-110970000D01*
X164060000Y-110970000D01*
X164060000Y-109903012D01*
X164117007Y-109935925D01*
X164244174Y-109970000D01*
X164375826Y-109970000D01*
X164502993Y-109935925D01*
X164560000Y-109903012D01*
X164560000Y-110970000D01*
X165357828Y-110970000D01*
X165357844Y-110969999D01*
X165417372Y-110963598D01*
X165417379Y-110963596D01*
X165552086Y-110913354D01*
X165552093Y-110913350D01*
X165667187Y-110827190D01*
X165667190Y-110827187D01*
X165753350Y-110712093D01*
X165753354Y-110712086D01*
X165803596Y-110577379D01*
X165803598Y-110577372D01*
X165809999Y-110517844D01*
X165810000Y-110517827D01*
X165810000Y-108420000D01*
X164810000Y-108420000D01*
X164810000Y-107920000D01*
X165810000Y-107920000D01*
X165810000Y-105822172D01*
X165809999Y-105822155D01*
X165803598Y-105762627D01*
X165803596Y-105762620D01*
X165753354Y-105627913D01*
X165753350Y-105627906D01*
X165667190Y-105512812D01*
X165667187Y-105512809D01*
X165552093Y-105426649D01*
X165552086Y-105426645D01*
X165417379Y-105376403D01*
X165417372Y-105376401D01*
X165357844Y-105370000D01*
X164560000Y-105370000D01*
X164560000Y-106436988D01*
X164502993Y-106404075D01*
X164375826Y-106370000D01*
X164244174Y-106370000D01*
X164117007Y-106404075D01*
X164060000Y-106436988D01*
X164060000Y-105370000D01*
X163262155Y-105370000D01*
X163202627Y-105376401D01*
X163202620Y-105376403D01*
X163067913Y-105426645D01*
X163067906Y-105426649D01*
X162952812Y-105512809D01*
X162952809Y-105512812D01*
X162866649Y-105627906D01*
X162866645Y-105627913D01*
X162816403Y-105762620D01*
X162816401Y-105762627D01*
X162810000Y-105822155D01*
X158845292Y-105822155D01*
X158796433Y-105786657D01*
X158782347Y-105779480D01*
X158585996Y-105679433D01*
X158361368Y-105606446D01*
X158128097Y-105569500D01*
X158128092Y-105569500D01*
X157891908Y-105569500D01*
X157891903Y-105569500D01*
X157658631Y-105606446D01*
X157434003Y-105679433D01*
X157223566Y-105786657D01*
X157144135Y-105844368D01*
X157032490Y-105925483D01*
X157032488Y-105925485D01*
X157032487Y-105925485D01*
X156865485Y-106092487D01*
X156865485Y-106092488D01*
X156865483Y-106092490D01*
X156805862Y-106174550D01*
X156726657Y-106283566D01*
X156619433Y-106494003D01*
X156546446Y-106718631D01*
X156509500Y-106951902D01*
X156509500Y-108769902D01*
X156489815Y-108836941D01*
X156473181Y-108857583D01*
X154539481Y-110791282D01*
X154539479Y-110791285D01*
X154489361Y-110878094D01*
X154489359Y-110878096D01*
X154460425Y-110928209D01*
X154460424Y-110928210D01*
X154444544Y-110987472D01*
X154419499Y-111080943D01*
X154419499Y-111080945D01*
X154419499Y-111249046D01*
X154419500Y-111249059D01*
X154419500Y-123300557D01*
X154399815Y-123367596D01*
X154347011Y-123413351D01*
X154342953Y-123415118D01*
X154133309Y-123501955D01*
X154133299Y-123501959D01*
X153906196Y-123633076D01*
X153698148Y-123792719D01*
X153512718Y-123978149D01*
X153353075Y-124186197D01*
X153221958Y-124413300D01*
X153221953Y-124413310D01*
X153169061Y-124541005D01*
X153125220Y-124595408D01*
X153058926Y-124617473D01*
X152991226Y-124600194D01*
X152943616Y-124549056D01*
X152930500Y-124493552D01*
X152930500Y-104954038D01*
X169959500Y-104954038D01*
X169959500Y-106505962D01*
X169960270Y-106510821D01*
X169998910Y-106754785D01*
X170076760Y-106994383D01*
X170142544Y-107123489D01*
X170173286Y-107183825D01*
X170191132Y-107218848D01*
X170339201Y-107422649D01*
X170339205Y-107422654D01*
X170517345Y-107600794D01*
X170517350Y-107600798D01*
X170640814Y-107690499D01*
X170721155Y-107748870D01*
X170864184Y-107821747D01*
X170945616Y-107863239D01*
X170945618Y-107863239D01*
X170945621Y-107863241D01*
X171185215Y-107941090D01*
X171434038Y-107980500D01*
X171434039Y-107980500D01*
X171685961Y-107980500D01*
X171685962Y-107980500D01*
X171934785Y-107941090D01*
X172174379Y-107863241D01*
X172398845Y-107748870D01*
X172602656Y-107600793D01*
X172694511Y-107508937D01*
X172696523Y-107507838D01*
X172697694Y-107505866D01*
X172727023Y-107491183D01*
X172755831Y-107475454D01*
X172758760Y-107475296D01*
X172760173Y-107474590D01*
X172795444Y-107473330D01*
X172802514Y-107474090D01*
X172802517Y-107474091D01*
X172838757Y-107477987D01*
X172903305Y-107504724D01*
X172943154Y-107562116D01*
X172949500Y-107601276D01*
X172949500Y-108523330D01*
X172949499Y-108523348D01*
X172949499Y-108689054D01*
X172949498Y-108689054D01*
X172990423Y-108841785D01*
X173019358Y-108891900D01*
X173019359Y-108891904D01*
X173019360Y-108891904D01*
X173069479Y-108978714D01*
X173069481Y-108978717D01*
X173188349Y-109097585D01*
X173188355Y-109097590D01*
X173367841Y-109277076D01*
X173401326Y-109338399D01*
X173398091Y-109403074D01*
X173375755Y-109471819D01*
X173338910Y-109585214D01*
X173333184Y-109621368D01*
X173299500Y-109834038D01*
X173299500Y-110085962D01*
X173332341Y-110293312D01*
X173338910Y-110334785D01*
X173416760Y-110574383D01*
X173471020Y-110680872D01*
X173527277Y-110791284D01*
X173531132Y-110798848D01*
X173679201Y-111002649D01*
X173679205Y-111002654D01*
X173857345Y-111180794D01*
X173857350Y-111180798D01*
X173951286Y-111249046D01*
X174061155Y-111328870D01*
X174187131Y-111393058D01*
X174285616Y-111443239D01*
X174285618Y-111443239D01*
X174285621Y-111443241D01*
X174525215Y-111521090D01*
X174774038Y-111560500D01*
X174774039Y-111560500D01*
X175025961Y-111560500D01*
X175025962Y-111560500D01*
X175274785Y-111521090D01*
X175514379Y-111443241D01*
X175738845Y-111328870D01*
X175942656Y-111180793D01*
X176120793Y-111002656D01*
X176268870Y-110798845D01*
X176383241Y-110574379D01*
X176461090Y-110334785D01*
X176500500Y-110085962D01*
X176500500Y-109834038D01*
X176461090Y-109585215D01*
X176383241Y-109345621D01*
X176383239Y-109345618D01*
X176383239Y-109345616D01*
X176320759Y-109222993D01*
X176268870Y-109121155D01*
X176165383Y-108978717D01*
X176120798Y-108917350D01*
X176120794Y-108917345D01*
X175942654Y-108739205D01*
X175942649Y-108739201D01*
X175738848Y-108591132D01*
X175738847Y-108591131D01*
X175738845Y-108591130D01*
X175668747Y-108555413D01*
X175514383Y-108476760D01*
X175274785Y-108398910D01*
X175266413Y-108397584D01*
X175025962Y-108359500D01*
X174774038Y-108359500D01*
X174649626Y-108379205D01*
X174525214Y-108398910D01*
X174460307Y-108420000D01*
X174343074Y-108458091D01*
X174327862Y-108458525D01*
X174313603Y-108463844D01*
X174293647Y-108459502D01*
X174273234Y-108460086D01*
X174259147Y-108451997D01*
X174245330Y-108448992D01*
X174217076Y-108427841D01*
X174186819Y-108397584D01*
X174153334Y-108336261D01*
X174150500Y-108309903D01*
X174150500Y-107604499D01*
X174170185Y-107537460D01*
X174222989Y-107491705D01*
X174274500Y-107480499D01*
X174457871Y-107480499D01*
X174457872Y-107480499D01*
X174517483Y-107474091D01*
X174652331Y-107423796D01*
X174767546Y-107337546D01*
X174796535Y-107298821D01*
X174852467Y-107256952D01*
X174922158Y-107251968D01*
X174968686Y-107272816D01*
X175004856Y-107299095D01*
X175180162Y-107388418D01*
X175367283Y-107449218D01*
X175410000Y-107455984D01*
X175410000Y-106045686D01*
X175414394Y-106050080D01*
X175505606Y-106102741D01*
X175607339Y-106130000D01*
X175712661Y-106130000D01*
X175814394Y-106102741D01*
X175905606Y-106050080D01*
X175910000Y-106045686D01*
X175910000Y-107455983D01*
X175952716Y-107449218D01*
X176139837Y-107388418D01*
X176315143Y-107299095D01*
X176474321Y-107183444D01*
X176474322Y-107183443D01*
X176571965Y-107085801D01*
X176633288Y-107052316D01*
X176702980Y-107057300D01*
X176747327Y-107085801D01*
X176845354Y-107183828D01*
X177004595Y-107299524D01*
X177074704Y-107335246D01*
X177179970Y-107388882D01*
X177179972Y-107388882D01*
X177179975Y-107388884D01*
X177280317Y-107421487D01*
X177367173Y-107449709D01*
X177561578Y-107480500D01*
X177561583Y-107480500D01*
X177758422Y-107480500D01*
X177952826Y-107449709D01*
X178032574Y-107423797D01*
X178140025Y-107388884D01*
X178315405Y-107299524D01*
X178315409Y-107299520D01*
X178319087Y-107297647D01*
X178387756Y-107284751D01*
X178452497Y-107311027D01*
X178475699Y-107335245D01*
X178539207Y-107422656D01*
X178539209Y-107422658D01*
X178717345Y-107600794D01*
X178717350Y-107600798D01*
X178840814Y-107690499D01*
X178921155Y-107748870D01*
X179064184Y-107821747D01*
X179145616Y-107863239D01*
X179145618Y-107863239D01*
X179145621Y-107863241D01*
X179385215Y-107941090D01*
X179634038Y-107980500D01*
X179634039Y-107980500D01*
X179885961Y-107980500D01*
X179885962Y-107980500D01*
X180134785Y-107941090D01*
X180374379Y-107863241D01*
X180598845Y-107748870D01*
X180802656Y-107600793D01*
X180980793Y-107422656D01*
X181128870Y-107218845D01*
X181243241Y-106994379D01*
X181321090Y-106754785D01*
X181360500Y-106505962D01*
X181360500Y-104954038D01*
X181321090Y-104705215D01*
X181243241Y-104465621D01*
X181243239Y-104465618D01*
X181243239Y-104465616D01*
X181170294Y-104322455D01*
X181128870Y-104241155D01*
X181088731Y-104185908D01*
X180980798Y-104037350D01*
X180980794Y-104037345D01*
X180802654Y-103859205D01*
X180802649Y-103859201D01*
X180598848Y-103711132D01*
X180598847Y-103711131D01*
X180598845Y-103711130D01*
X180528747Y-103675413D01*
X180374383Y-103596760D01*
X180134785Y-103518910D01*
X179885962Y-103479500D01*
X179634038Y-103479500D01*
X179509626Y-103499205D01*
X179385214Y-103518910D01*
X179145616Y-103596760D01*
X178921151Y-103711132D01*
X178717350Y-103859201D01*
X178717345Y-103859205D01*
X178539209Y-104037341D01*
X178539202Y-104037350D01*
X178475699Y-104124753D01*
X178420369Y-104167419D01*
X178350756Y-104173397D01*
X178319087Y-104162352D01*
X178140029Y-104071117D01*
X177952826Y-104010290D01*
X177758422Y-103979500D01*
X177758417Y-103979500D01*
X177561583Y-103979500D01*
X177561578Y-103979500D01*
X177367173Y-104010290D01*
X177179970Y-104071117D01*
X177004594Y-104160476D01*
X176957301Y-104194837D01*
X176845354Y-104276172D01*
X176845352Y-104276174D01*
X176845350Y-104276175D01*
X176747325Y-104374199D01*
X176686002Y-104407683D01*
X176616310Y-104402698D01*
X176571964Y-104374198D01*
X176474321Y-104276555D01*
X176315143Y-104160904D01*
X176139835Y-104071581D01*
X175952705Y-104010778D01*
X175910000Y-104004014D01*
X175910000Y-105414314D01*
X175905606Y-105409920D01*
X175814394Y-105357259D01*
X175712661Y-105330000D01*
X175607339Y-105330000D01*
X175505606Y-105357259D01*
X175414394Y-105409920D01*
X175410000Y-105414314D01*
X175410000Y-104004014D01*
X175409999Y-104004014D01*
X175367294Y-104010778D01*
X175180164Y-104071581D01*
X175004855Y-104160905D01*
X175004848Y-104160910D01*
X174968684Y-104187184D01*
X174902877Y-104210663D01*
X174834824Y-104194837D01*
X174796534Y-104161177D01*
X174769267Y-104124753D01*
X174767546Y-104122454D01*
X174767544Y-104122453D01*
X174767544Y-104122452D01*
X174652335Y-104036206D01*
X174652328Y-104036202D01*
X174517482Y-103985908D01*
X174517483Y-103985908D01*
X174457883Y-103979501D01*
X174457881Y-103979500D01*
X174457873Y-103979500D01*
X174457864Y-103979500D01*
X172862129Y-103979500D01*
X172862123Y-103979501D01*
X172795443Y-103986669D01*
X172726683Y-103974262D01*
X172694509Y-103951060D01*
X172602654Y-103859205D01*
X172602649Y-103859201D01*
X172398848Y-103711132D01*
X172398847Y-103711131D01*
X172398845Y-103711130D01*
X172328747Y-103675413D01*
X172174383Y-103596760D01*
X171934785Y-103518910D01*
X171685962Y-103479500D01*
X171434038Y-103479500D01*
X171309626Y-103499205D01*
X171185214Y-103518910D01*
X170945616Y-103596760D01*
X170721151Y-103711132D01*
X170517350Y-103859201D01*
X170517345Y-103859205D01*
X170339205Y-104037345D01*
X170339201Y-104037350D01*
X170191132Y-104241151D01*
X170076760Y-104465616D01*
X169998910Y-104705214D01*
X169983237Y-104804169D01*
X169959500Y-104954038D01*
X152930500Y-104954038D01*
X152930500Y-102404500D01*
X152950185Y-102337461D01*
X153002989Y-102291706D01*
X153054500Y-102280500D01*
X189927572Y-102280500D01*
X189994611Y-102300185D01*
G37*
%TD.AperFunction*%
%TD*%
M02*
