%TF.GenerationSoftware,KiCad,Pcbnew,10.0.1*%
%TF.CreationDate,2026-05-25T15:11:06+05:30*%
%TF.ProjectId,Water alarm Project,57617465-7220-4616-9c61-726d2050726f,rev?*%
%TF.SameCoordinates,Original*%
%TF.FileFunction,Copper,L2,Bot*%
%TF.FilePolarity,Positive*%
%FSLAX46Y46*%
G04 Gerber Fmt 4.6, Leading zero omitted, Abs format (unit mm)*
G04 Created by KiCad (PCBNEW 10.0.1) date 2026-05-25 15:11:06*
%MOMM*%
%LPD*%
G01*
G04 APERTURE LIST*
G04 Aperture macros list*
%AMRoundRect*
0 Rectangle with rounded corners*
0 $1 Rounding radius*
0 $2 $3 $4 $5 $6 $7 $8 $9 X,Y pos of 4 corners*
0 Add a 4 corners polygon primitive as box body*
4,1,4,$2,$3,$4,$5,$6,$7,$8,$9,$2,$3,0*
0 Add four circle primitives for the rounded corners*
1,1,$1+$1,$2,$3*
1,1,$1+$1,$4,$5*
1,1,$1+$1,$6,$7*
1,1,$1+$1,$8,$9*
0 Add four rect primitives between the rounded corners*
20,1,$1+$1,$2,$3,$4,$5,0*
20,1,$1+$1,$4,$5,$6,$7,0*
20,1,$1+$1,$6,$7,$8,$9,0*
20,1,$1+$1,$8,$9,$2,$3,0*%
G04 Aperture macros list end*
%TA.AperFunction,ComponentPad*%
%ADD10C,1.600000*%
%TD*%
%TA.AperFunction,ComponentPad*%
%ADD11R,2.000000X4.600000*%
%TD*%
%TA.AperFunction,ComponentPad*%
%ADD12O,2.000000X4.200000*%
%TD*%
%TA.AperFunction,ComponentPad*%
%ADD13RoundRect,0.250000X1.050000X-1.050000X1.050000X1.050000X-1.050000X1.050000X-1.050000X-1.050000X0*%
%TD*%
%TA.AperFunction,ComponentPad*%
%ADD14C,2.600000*%
%TD*%
%TA.AperFunction,ComponentPad*%
%ADD15R,1.800000X1.800000*%
%TD*%
%TA.AperFunction,ComponentPad*%
%ADD16C,1.800000*%
%TD*%
%TA.AperFunction,ComponentPad*%
%ADD17R,2.000000X2.000000*%
%TD*%
%TA.AperFunction,ComponentPad*%
%ADD18C,2.000000*%
%TD*%
%TA.AperFunction,ComponentPad*%
%ADD19C,1.400000*%
%TD*%
%TA.AperFunction,ComponentPad*%
%ADD20R,1.800000X1.100000*%
%TD*%
%TA.AperFunction,ComponentPad*%
%ADD21RoundRect,0.275000X-0.625000X0.275000X-0.625000X-0.275000X0.625000X-0.275000X0.625000X0.275000X0*%
%TD*%
%TA.AperFunction,ViaPad*%
%ADD22C,0.600000*%
%TD*%
%TA.AperFunction,Conductor*%
%ADD23C,0.200000*%
%TD*%
G04 APERTURE END LIST*
D10*
%TO.P,C1,1*%
%TO.N,/Gate*%
X176790000Y-99010000D03*
%TO.P,C1,2*%
%TO.N,GND*%
X176790000Y-101510000D03*
%TD*%
D11*
%TO.P,J1,1*%
%TO.N,VCC*%
X180910000Y-115350000D03*
D12*
%TO.P,J1,2*%
%TO.N,GND*%
X187210000Y-115350000D03*
%TD*%
D13*
%TO.P,J2,1,Pin_1_1*%
%TO.N,VCC*%
X183267500Y-107040000D03*
D14*
%TO.P,J2,2,Pin_2_2*%
%TO.N,/Gate*%
X183267500Y-102040000D03*
%TD*%
D15*
%TO.P,D1,1,K_1*%
%TO.N,Net-(D1-K)*%
X180172000Y-96186000D03*
D16*
%TO.P,D1,2,A_2*%
%TO.N,VCC*%
X182712000Y-96186000D03*
%TD*%
D17*
%TO.P,BZ1,1,+_1*%
%TO.N,VCC*%
X156782000Y-111846000D03*
D18*
%TO.P,BZ1,2,+_1*%
%TO.N,Net-(BZ1--)*%
X156782000Y-96846000D03*
%TD*%
D19*
%TO.P,R2,1*%
%TO.N,Net-(D1-K)*%
X168083949Y-91583949D03*
%TO.P,R2,2*%
%TO.N,GND*%
X171676051Y-95176051D03*
%TD*%
%TO.P,R1,1*%
%TO.N,/Gate*%
X174562000Y-96906000D03*
%TO.P,R1,2*%
%TO.N,GND*%
X174562000Y-101986000D03*
%TD*%
D20*
%TO.P,Q1,1,S_1*%
%TO.N,GND*%
X175118000Y-104500000D03*
D21*
%TO.P,Q1,2,G_2*%
%TO.N,/Gate*%
X177188000Y-105770000D03*
%TO.P,Q1,3,D_3*%
%TO.N,Net-(BZ1--)*%
X175118000Y-107040000D03*
%TD*%
D22*
%TO.N,/Gate*%
X170822000Y-103046000D03*
%TD*%
%TO.N,/Gate*%
D23*
X172016000Y-105770000D02*
X176788000Y-105770000D01*
X170822000Y-103046000D02*
X170822000Y-104576000D01*
X170822000Y-104576000D02*
X172016000Y-105770000D01*
%TD*%
%TA.AperFunction,Conductor*%
%TO.N,VCC*%
G36*
X189073736Y-90120726D02*
G01*
X189363796Y-90138271D01*
X189378659Y-90140076D01*
X189660797Y-90191780D01*
X189675334Y-90195363D01*
X189949182Y-90280698D01*
X189963163Y-90286000D01*
X190224734Y-90403724D01*
X190237987Y-90410680D01*
X190483458Y-90559071D01*
X190495776Y-90567573D01*
X190624292Y-90668259D01*
X190721573Y-90744474D01*
X190732781Y-90754404D01*
X190935595Y-90957218D01*
X190945525Y-90968426D01*
X191122422Y-91194217D01*
X191130928Y-91206541D01*
X191279319Y-91452012D01*
X191286277Y-91465269D01*
X191403994Y-91726823D01*
X191409304Y-91740825D01*
X191494635Y-92014664D01*
X191498219Y-92029202D01*
X191549923Y-92311340D01*
X191551728Y-92326205D01*
X191569274Y-92616263D01*
X191569500Y-92623750D01*
X191569500Y-125376249D01*
X191569274Y-125383736D01*
X191551728Y-125673794D01*
X191549923Y-125688659D01*
X191498219Y-125970797D01*
X191494635Y-125985335D01*
X191409304Y-126259174D01*
X191403994Y-126273176D01*
X191286277Y-126534730D01*
X191279319Y-126547987D01*
X191130928Y-126793458D01*
X191122422Y-126805782D01*
X190945525Y-127031573D01*
X190935595Y-127042781D01*
X190732781Y-127245595D01*
X190721573Y-127255525D01*
X190495782Y-127432422D01*
X190483458Y-127440928D01*
X190237987Y-127589319D01*
X190224730Y-127596277D01*
X189963176Y-127713994D01*
X189949174Y-127719304D01*
X189675335Y-127804635D01*
X189660797Y-127808219D01*
X189378659Y-127859923D01*
X189363794Y-127861728D01*
X189073736Y-127879274D01*
X189066249Y-127879500D01*
X155943751Y-127879500D01*
X155936264Y-127879274D01*
X155646205Y-127861728D01*
X155631340Y-127859923D01*
X155349202Y-127808219D01*
X155334664Y-127804635D01*
X155060825Y-127719304D01*
X155046827Y-127713995D01*
X154894096Y-127645256D01*
X154785269Y-127596277D01*
X154772012Y-127589319D01*
X154526541Y-127440928D01*
X154514217Y-127432422D01*
X154288426Y-127255525D01*
X154277218Y-127245595D01*
X154074404Y-127042781D01*
X154064474Y-127031573D01*
X153887573Y-126805776D01*
X153879071Y-126793458D01*
X153730680Y-126547987D01*
X153723722Y-126534730D01*
X153606000Y-126273163D01*
X153600698Y-126259182D01*
X153515363Y-125985334D01*
X153511780Y-125970797D01*
X153497752Y-125894250D01*
X153460075Y-125688657D01*
X153458271Y-125673794D01*
X153440726Y-125383736D01*
X153440500Y-125376249D01*
X153440500Y-124148711D01*
X185809500Y-124148711D01*
X185809500Y-124391288D01*
X185841161Y-124631785D01*
X185903947Y-124866104D01*
X185996773Y-125090205D01*
X185996776Y-125090212D01*
X186118064Y-125300289D01*
X186118066Y-125300292D01*
X186118067Y-125300293D01*
X186265733Y-125492736D01*
X186265739Y-125492743D01*
X186437256Y-125664260D01*
X186437263Y-125664266D01*
X186469053Y-125688659D01*
X186629711Y-125811936D01*
X186839788Y-125933224D01*
X187063900Y-126026054D01*
X187298211Y-126088838D01*
X187478586Y-126112584D01*
X187538711Y-126120500D01*
X187538712Y-126120500D01*
X187781289Y-126120500D01*
X187829388Y-126114167D01*
X188021789Y-126088838D01*
X188256100Y-126026054D01*
X188480212Y-125933224D01*
X188690289Y-125811936D01*
X188882738Y-125664265D01*
X189054265Y-125492738D01*
X189201936Y-125300289D01*
X189323224Y-125090212D01*
X189416054Y-124866100D01*
X189478838Y-124631789D01*
X189510500Y-124391288D01*
X189510500Y-124148712D01*
X189478838Y-123908211D01*
X189416054Y-123673900D01*
X189323224Y-123449788D01*
X189201936Y-123239711D01*
X189054265Y-123047262D01*
X189054260Y-123047256D01*
X188882743Y-122875739D01*
X188882736Y-122875733D01*
X188690293Y-122728067D01*
X188690292Y-122728066D01*
X188690289Y-122728064D01*
X188480212Y-122606776D01*
X188480205Y-122606773D01*
X188256104Y-122513947D01*
X188021785Y-122451161D01*
X187781289Y-122419500D01*
X187781288Y-122419500D01*
X187538712Y-122419500D01*
X187538711Y-122419500D01*
X187298214Y-122451161D01*
X187063895Y-122513947D01*
X186839794Y-122606773D01*
X186839785Y-122606777D01*
X186629706Y-122728067D01*
X186437263Y-122875733D01*
X186437256Y-122875739D01*
X186265739Y-123047256D01*
X186265733Y-123047263D01*
X186118067Y-123239706D01*
X185996777Y-123449785D01*
X185996773Y-123449794D01*
X185903947Y-123673895D01*
X185841161Y-123908214D01*
X185809500Y-124148711D01*
X153440500Y-124148711D01*
X153440500Y-110798155D01*
X155282000Y-110798155D01*
X155282000Y-111596000D01*
X156348988Y-111596000D01*
X156316075Y-111653007D01*
X156282000Y-111780174D01*
X156282000Y-111911826D01*
X156316075Y-112038993D01*
X156348988Y-112096000D01*
X155282000Y-112096000D01*
X155282000Y-112893844D01*
X155288401Y-112953372D01*
X155288403Y-112953379D01*
X155338645Y-113088086D01*
X155338649Y-113088093D01*
X155424809Y-113203187D01*
X155424812Y-113203190D01*
X155539906Y-113289350D01*
X155539913Y-113289354D01*
X155674620Y-113339596D01*
X155674627Y-113339598D01*
X155734155Y-113345999D01*
X155734172Y-113346000D01*
X156532000Y-113346000D01*
X156532000Y-112279012D01*
X156589007Y-112311925D01*
X156716174Y-112346000D01*
X156847826Y-112346000D01*
X156974993Y-112311925D01*
X157032000Y-112279012D01*
X157032000Y-113346000D01*
X157829828Y-113346000D01*
X157829844Y-113345999D01*
X157889372Y-113339598D01*
X157889379Y-113339596D01*
X158024086Y-113289354D01*
X158024093Y-113289350D01*
X158139187Y-113203190D01*
X158139190Y-113203187D01*
X158225350Y-113088093D01*
X158225354Y-113088086D01*
X158257404Y-113002155D01*
X179410000Y-113002155D01*
X179410000Y-115100000D01*
X180410000Y-115100000D01*
X180410000Y-115600000D01*
X179410000Y-115600000D01*
X179410000Y-117697844D01*
X179416401Y-117757372D01*
X179416403Y-117757379D01*
X179466645Y-117892086D01*
X179466649Y-117892093D01*
X179552809Y-118007187D01*
X179552812Y-118007190D01*
X179667906Y-118093350D01*
X179667913Y-118093354D01*
X179802620Y-118143596D01*
X179802627Y-118143598D01*
X179862155Y-118149999D01*
X179862172Y-118150000D01*
X180660000Y-118150000D01*
X180660000Y-117083012D01*
X180717007Y-117115925D01*
X180844174Y-117150000D01*
X180975826Y-117150000D01*
X181102993Y-117115925D01*
X181160000Y-117083012D01*
X181160000Y-118150000D01*
X181957828Y-118150000D01*
X181957844Y-118149999D01*
X182017372Y-118143598D01*
X182017379Y-118143596D01*
X182152086Y-118093354D01*
X182152093Y-118093350D01*
X182267187Y-118007190D01*
X182267190Y-118007187D01*
X182353350Y-117892093D01*
X182353354Y-117892086D01*
X182403596Y-117757379D01*
X182403598Y-117757372D01*
X182409999Y-117697844D01*
X182410000Y-117697827D01*
X182410000Y-115600000D01*
X181410000Y-115600000D01*
X181410000Y-115100000D01*
X182410000Y-115100000D01*
X182410000Y-114131902D01*
X185709500Y-114131902D01*
X185709500Y-116568097D01*
X185746446Y-116801368D01*
X185819433Y-117025996D01*
X185865255Y-117115925D01*
X185926657Y-117236433D01*
X186065483Y-117427510D01*
X186232490Y-117594517D01*
X186423567Y-117733343D01*
X186522991Y-117784002D01*
X186634003Y-117840566D01*
X186634005Y-117840566D01*
X186634008Y-117840568D01*
X186754412Y-117879689D01*
X186858631Y-117913553D01*
X187091903Y-117950500D01*
X187091908Y-117950500D01*
X187328097Y-117950500D01*
X187561368Y-117913553D01*
X187785992Y-117840568D01*
X187996433Y-117733343D01*
X188187510Y-117594517D01*
X188354517Y-117427510D01*
X188493343Y-117236433D01*
X188600568Y-117025992D01*
X188673553Y-116801368D01*
X188710500Y-116568097D01*
X188710500Y-114131902D01*
X188673553Y-113898631D01*
X188639689Y-113794412D01*
X188600568Y-113674008D01*
X188600566Y-113674005D01*
X188600566Y-113674003D01*
X188493342Y-113463566D01*
X188354517Y-113272490D01*
X188187510Y-113105483D01*
X187996433Y-112966657D01*
X187785996Y-112859433D01*
X187561368Y-112786446D01*
X187328097Y-112749500D01*
X187328092Y-112749500D01*
X187091908Y-112749500D01*
X187091903Y-112749500D01*
X186858631Y-112786446D01*
X186634003Y-112859433D01*
X186423566Y-112966657D01*
X186314550Y-113045862D01*
X186232490Y-113105483D01*
X186232488Y-113105485D01*
X186232487Y-113105485D01*
X186065485Y-113272487D01*
X186065485Y-113272488D01*
X186065483Y-113272490D01*
X186016726Y-113339598D01*
X185926657Y-113463566D01*
X185819433Y-113674003D01*
X185746446Y-113898631D01*
X185709500Y-114131902D01*
X182410000Y-114131902D01*
X182410000Y-113002172D01*
X182409999Y-113002155D01*
X182403598Y-112942627D01*
X182403596Y-112942620D01*
X182353354Y-112807913D01*
X182353350Y-112807906D01*
X182267190Y-112692812D01*
X182267187Y-112692809D01*
X182152093Y-112606649D01*
X182152086Y-112606645D01*
X182017379Y-112556403D01*
X182017372Y-112556401D01*
X181957844Y-112550000D01*
X181160000Y-112550000D01*
X181160000Y-113616988D01*
X181102993Y-113584075D01*
X180975826Y-113550000D01*
X180844174Y-113550000D01*
X180717007Y-113584075D01*
X180660000Y-113616988D01*
X180660000Y-112550000D01*
X179862155Y-112550000D01*
X179802627Y-112556401D01*
X179802620Y-112556403D01*
X179667913Y-112606645D01*
X179667906Y-112606649D01*
X179552812Y-112692809D01*
X179552809Y-112692812D01*
X179466649Y-112807906D01*
X179466645Y-112807913D01*
X179416403Y-112942620D01*
X179416401Y-112942627D01*
X179410000Y-113002155D01*
X158257404Y-113002155D01*
X158274799Y-112955518D01*
X158274799Y-112955517D01*
X158274800Y-112955515D01*
X158275597Y-112953377D01*
X158275598Y-112953372D01*
X158281999Y-112893844D01*
X158282000Y-112893827D01*
X158282000Y-112096000D01*
X157215012Y-112096000D01*
X157247925Y-112038993D01*
X157282000Y-111911826D01*
X157282000Y-111780174D01*
X157247925Y-111653007D01*
X157215012Y-111596000D01*
X158282000Y-111596000D01*
X158282000Y-110798172D01*
X158281999Y-110798155D01*
X158275598Y-110738627D01*
X158275596Y-110738620D01*
X158225354Y-110603913D01*
X158225350Y-110603906D01*
X158139190Y-110488812D01*
X158139187Y-110488809D01*
X158024093Y-110402649D01*
X158024086Y-110402645D01*
X157889379Y-110352403D01*
X157889372Y-110352401D01*
X157829844Y-110346000D01*
X157032000Y-110346000D01*
X157032000Y-111412988D01*
X156974993Y-111380075D01*
X156847826Y-111346000D01*
X156716174Y-111346000D01*
X156589007Y-111380075D01*
X156532000Y-111412988D01*
X156532000Y-110346000D01*
X155734155Y-110346000D01*
X155674627Y-110352401D01*
X155674620Y-110352403D01*
X155539913Y-110402645D01*
X155539906Y-110402649D01*
X155424812Y-110488809D01*
X155424809Y-110488812D01*
X155338649Y-110603906D01*
X155338645Y-110603913D01*
X155288403Y-110738620D01*
X155288401Y-110738627D01*
X155282000Y-110798155D01*
X153440500Y-110798155D01*
X153440500Y-102967153D01*
X170021500Y-102967153D01*
X170021500Y-103124846D01*
X170052261Y-103279489D01*
X170052264Y-103279501D01*
X170112602Y-103425172D01*
X170112609Y-103425185D01*
X170200602Y-103556874D01*
X170221480Y-103623551D01*
X170221500Y-103625765D01*
X170221500Y-104489330D01*
X170221499Y-104489348D01*
X170221499Y-104655054D01*
X170221498Y-104655054D01*
X170262423Y-104807785D01*
X170291358Y-104857900D01*
X170291359Y-104857904D01*
X170291360Y-104857904D01*
X170341479Y-104944714D01*
X170341481Y-104944717D01*
X170460349Y-105063585D01*
X170460355Y-105063590D01*
X171531139Y-106134374D01*
X171531149Y-106134385D01*
X171535479Y-106138715D01*
X171535480Y-106138716D01*
X171647284Y-106250520D01*
X171647286Y-106250521D01*
X171695616Y-106278424D01*
X171695615Y-106278424D01*
X171695618Y-106278425D01*
X171784209Y-106329574D01*
X171784210Y-106329575D01*
X171784212Y-106329575D01*
X171784215Y-106329577D01*
X171936943Y-106370501D01*
X171936946Y-106370501D01*
X172102653Y-106370501D01*
X172102669Y-106370500D01*
X173634674Y-106370500D01*
X173701713Y-106390185D01*
X173747468Y-106442989D01*
X173757412Y-106512147D01*
X173751717Y-106535448D01*
X173732159Y-106591343D01*
X173732157Y-106591349D01*
X173732157Y-106591351D01*
X173717500Y-106721441D01*
X173717500Y-107358558D01*
X173732157Y-107488648D01*
X173732159Y-107488658D01*
X173789877Y-107653604D01*
X173789878Y-107653606D01*
X173882853Y-107801576D01*
X174006424Y-107925147D01*
X174154394Y-108018122D01*
X174319343Y-108075841D01*
X174319349Y-108075841D01*
X174319351Y-108075842D01*
X174360750Y-108080506D01*
X174449442Y-108090499D01*
X174449445Y-108090500D01*
X174449448Y-108090500D01*
X175786555Y-108090500D01*
X175786556Y-108090499D01*
X175916657Y-108075841D01*
X176081606Y-108018122D01*
X176229576Y-107925147D01*
X176353147Y-107801576D01*
X176446122Y-107653606D01*
X176503841Y-107488657D01*
X176518500Y-107358552D01*
X176518500Y-106944500D01*
X176538185Y-106877461D01*
X176590989Y-106831706D01*
X176642500Y-106820500D01*
X177856555Y-106820500D01*
X177856556Y-106820499D01*
X177986657Y-106805841D01*
X178151606Y-106748122D01*
X178299576Y-106655147D01*
X178423147Y-106531576D01*
X178516122Y-106383606D01*
X178573841Y-106218657D01*
X178588500Y-106088552D01*
X178588500Y-105940013D01*
X181467500Y-105940013D01*
X181467500Y-106790000D01*
X182667499Y-106790000D01*
X182642479Y-106850402D01*
X182617500Y-106975981D01*
X182617500Y-107104019D01*
X182642479Y-107229598D01*
X182667499Y-107290000D01*
X181467501Y-107290000D01*
X181467501Y-108139986D01*
X181477994Y-108242697D01*
X181533141Y-108409119D01*
X181533143Y-108409124D01*
X181625184Y-108558345D01*
X181749154Y-108682315D01*
X181898375Y-108774356D01*
X181898380Y-108774358D01*
X182064802Y-108829505D01*
X182064809Y-108829506D01*
X182167519Y-108839999D01*
X183017499Y-108839999D01*
X183017500Y-108839998D01*
X183017500Y-107640001D01*
X183077902Y-107665021D01*
X183203481Y-107690000D01*
X183331519Y-107690000D01*
X183457098Y-107665021D01*
X183517500Y-107640001D01*
X183517500Y-108839999D01*
X184367472Y-108839999D01*
X184367486Y-108839998D01*
X184470197Y-108829505D01*
X184636619Y-108774358D01*
X184636624Y-108774356D01*
X184785845Y-108682315D01*
X184909815Y-108558345D01*
X185001856Y-108409124D01*
X185001858Y-108409119D01*
X185057005Y-108242697D01*
X185057006Y-108242690D01*
X185067499Y-108139986D01*
X185067500Y-108139973D01*
X185067500Y-107290000D01*
X183867501Y-107290000D01*
X183892521Y-107229598D01*
X183917500Y-107104019D01*
X183917500Y-106975981D01*
X183892521Y-106850402D01*
X183867501Y-106790000D01*
X185067499Y-106790000D01*
X185067499Y-105940028D01*
X185067498Y-105940013D01*
X185057005Y-105837302D01*
X185001858Y-105670880D01*
X185001856Y-105670875D01*
X184909815Y-105521654D01*
X184785845Y-105397684D01*
X184636624Y-105305643D01*
X184636619Y-105305641D01*
X184470197Y-105250494D01*
X184470190Y-105250493D01*
X184367486Y-105240000D01*
X183517500Y-105240000D01*
X183517500Y-106439998D01*
X183457098Y-106414979D01*
X183331519Y-106390000D01*
X183203481Y-106390000D01*
X183077902Y-106414979D01*
X183017500Y-106439998D01*
X183017500Y-105240000D01*
X182167528Y-105240000D01*
X182167512Y-105240001D01*
X182064802Y-105250494D01*
X181898380Y-105305641D01*
X181898375Y-105305643D01*
X181749154Y-105397684D01*
X181625184Y-105521654D01*
X181533143Y-105670875D01*
X181533141Y-105670880D01*
X181477994Y-105837302D01*
X181477993Y-105837309D01*
X181467500Y-105940013D01*
X178588500Y-105940013D01*
X178588500Y-105451448D01*
X178573841Y-105321343D01*
X178516122Y-105156394D01*
X178423147Y-105008424D01*
X178299576Y-104884853D01*
X178151606Y-104791878D01*
X178151605Y-104791877D01*
X178151604Y-104791877D01*
X177986658Y-104734159D01*
X177986648Y-104734157D01*
X177856558Y-104719500D01*
X177856552Y-104719500D01*
X176642499Y-104719500D01*
X176575460Y-104699815D01*
X176529705Y-104647011D01*
X176518499Y-104595500D01*
X176518499Y-103902129D01*
X176518498Y-103902123D01*
X176518497Y-103902116D01*
X176512091Y-103842517D01*
X176499848Y-103809693D01*
X176461797Y-103707671D01*
X176461793Y-103707664D01*
X176375547Y-103592455D01*
X176375544Y-103592452D01*
X176260335Y-103506206D01*
X176260328Y-103506202D01*
X176125482Y-103455908D01*
X176125483Y-103455908D01*
X176065883Y-103449501D01*
X176065881Y-103449500D01*
X176065873Y-103449500D01*
X176065864Y-103449500D01*
X174170129Y-103449500D01*
X174170123Y-103449501D01*
X174110516Y-103455908D01*
X173975671Y-103506202D01*
X173975664Y-103506206D01*
X173860455Y-103592452D01*
X173860452Y-103592455D01*
X173774206Y-103707664D01*
X173774202Y-103707671D01*
X173723908Y-103842517D01*
X173717501Y-103902116D01*
X173717500Y-103902127D01*
X173717500Y-104496943D01*
X173717501Y-105045500D01*
X173697816Y-105112539D01*
X173645013Y-105158294D01*
X173593501Y-105169500D01*
X172316097Y-105169500D01*
X172249058Y-105149815D01*
X172228416Y-105133181D01*
X171458819Y-104363584D01*
X171425334Y-104302261D01*
X171422500Y-104275903D01*
X171422500Y-103625765D01*
X171442185Y-103558726D01*
X171443398Y-103556874D01*
X171454491Y-103540273D01*
X171531394Y-103425179D01*
X171591737Y-103279497D01*
X171622500Y-103124842D01*
X171622500Y-102967158D01*
X171622500Y-102967155D01*
X171622499Y-102967153D01*
X171591737Y-102812503D01*
X171577643Y-102778477D01*
X171531397Y-102666827D01*
X171531390Y-102666814D01*
X171443789Y-102535711D01*
X171443786Y-102535707D01*
X171332292Y-102424213D01*
X171332288Y-102424210D01*
X171201185Y-102336609D01*
X171201172Y-102336602D01*
X171055501Y-102276264D01*
X171055489Y-102276261D01*
X170900845Y-102245500D01*
X170900842Y-102245500D01*
X170743158Y-102245500D01*
X170743155Y-102245500D01*
X170588510Y-102276261D01*
X170588498Y-102276264D01*
X170442827Y-102336602D01*
X170442814Y-102336609D01*
X170311711Y-102424210D01*
X170311707Y-102424213D01*
X170200213Y-102535707D01*
X170200210Y-102535711D01*
X170112609Y-102666814D01*
X170112602Y-102666827D01*
X170052264Y-102812498D01*
X170052261Y-102812510D01*
X170021500Y-102967153D01*
X153440500Y-102967153D01*
X153440500Y-101891513D01*
X173361500Y-101891513D01*
X173361500Y-102080486D01*
X173391059Y-102267118D01*
X173449454Y-102446836D01*
X173535239Y-102615197D01*
X173535240Y-102615199D01*
X173646310Y-102768073D01*
X173779927Y-102901690D01*
X173932801Y-103012760D01*
X173991071Y-103042450D01*
X174101163Y-103098545D01*
X174101165Y-103098545D01*
X174101168Y-103098547D01*
X174197497Y-103129846D01*
X174280881Y-103156940D01*
X174467514Y-103186500D01*
X174467519Y-103186500D01*
X174656486Y-103186500D01*
X174843118Y-103156940D01*
X175022832Y-103098547D01*
X175191199Y-103012760D01*
X175344073Y-102901690D01*
X175477690Y-102768073D01*
X175588760Y-102615199D01*
X175668994Y-102457729D01*
X175716967Y-102406935D01*
X175784788Y-102390139D01*
X175850923Y-102412676D01*
X175867159Y-102426344D01*
X175942786Y-102501971D01*
X176097749Y-102614556D01*
X176108390Y-102622287D01*
X176195779Y-102666814D01*
X176290776Y-102715218D01*
X176290778Y-102715218D01*
X176290781Y-102715220D01*
X176395137Y-102749127D01*
X176485465Y-102778477D01*
X176586557Y-102794488D01*
X176687648Y-102810500D01*
X176687649Y-102810500D01*
X176892351Y-102810500D01*
X176892352Y-102810500D01*
X177094534Y-102778477D01*
X177289219Y-102715220D01*
X177471610Y-102622287D01*
X177590778Y-102535707D01*
X177637213Y-102501971D01*
X177637215Y-102501968D01*
X177637219Y-102501966D01*
X177781966Y-102357219D01*
X177781968Y-102357215D01*
X177781971Y-102357213D01*
X177863134Y-102245500D01*
X177902287Y-102191610D01*
X177995220Y-102009219D01*
X178023561Y-101921995D01*
X181467000Y-101921995D01*
X181467000Y-102158004D01*
X181467001Y-102158020D01*
X181490512Y-102336609D01*
X181497807Y-102392014D01*
X181512497Y-102446836D01*
X181558894Y-102619993D01*
X181649214Y-102838045D01*
X181649219Y-102838056D01*
X181685957Y-102901687D01*
X181767227Y-103042450D01*
X181767229Y-103042453D01*
X181767230Y-103042454D01*
X181910906Y-103229697D01*
X181910912Y-103229704D01*
X182077795Y-103396587D01*
X182077802Y-103396593D01*
X182187806Y-103481001D01*
X182265050Y-103540273D01*
X182355432Y-103592455D01*
X182469443Y-103658280D01*
X182469448Y-103658282D01*
X182469451Y-103658284D01*
X182687507Y-103748606D01*
X182915486Y-103809693D01*
X183149489Y-103840500D01*
X183149496Y-103840500D01*
X183385504Y-103840500D01*
X183385511Y-103840500D01*
X183619514Y-103809693D01*
X183847493Y-103748606D01*
X184065549Y-103658284D01*
X184269950Y-103540273D01*
X184457199Y-103396592D01*
X184624092Y-103229699D01*
X184767773Y-103042450D01*
X184885784Y-102838049D01*
X184976106Y-102619993D01*
X185037193Y-102392014D01*
X185068000Y-102158011D01*
X185068000Y-101921989D01*
X185037193Y-101687986D01*
X184976106Y-101460007D01*
X184885784Y-101241951D01*
X184885782Y-101241948D01*
X184885780Y-101241943D01*
X184843618Y-101168918D01*
X184767773Y-101037550D01*
X184624092Y-100850301D01*
X184624087Y-100850295D01*
X184457204Y-100683412D01*
X184457197Y-100683406D01*
X184269954Y-100539730D01*
X184269953Y-100539729D01*
X184269950Y-100539727D01*
X184188457Y-100492677D01*
X184065556Y-100421719D01*
X184065545Y-100421714D01*
X183847493Y-100331394D01*
X183814338Y-100322510D01*
X183619514Y-100270307D01*
X183619513Y-100270306D01*
X183619510Y-100270306D01*
X183385520Y-100239501D01*
X183385517Y-100239500D01*
X183385511Y-100239500D01*
X183149489Y-100239500D01*
X183149483Y-100239500D01*
X183149479Y-100239501D01*
X182915489Y-100270306D01*
X182687506Y-100331394D01*
X182469454Y-100421714D01*
X182469443Y-100421719D01*
X182265045Y-100539730D01*
X182077802Y-100683406D01*
X182077795Y-100683412D01*
X181910912Y-100850295D01*
X181910906Y-100850302D01*
X181767230Y-101037545D01*
X181649219Y-101241943D01*
X181649214Y-101241954D01*
X181558894Y-101460006D01*
X181497806Y-101687989D01*
X181467001Y-101921979D01*
X181467000Y-101921995D01*
X178023561Y-101921995D01*
X178058477Y-101814534D01*
X178090500Y-101612352D01*
X178090500Y-101407648D01*
X178058477Y-101205465D01*
X178006320Y-101044944D01*
X177995220Y-101010781D01*
X177995218Y-101010778D01*
X177995218Y-101010776D01*
X177925248Y-100873454D01*
X177902287Y-100828390D01*
X177871126Y-100785500D01*
X177781971Y-100662786D01*
X177637213Y-100518028D01*
X177471613Y-100397715D01*
X177471612Y-100397714D01*
X177471610Y-100397713D01*
X177418171Y-100370484D01*
X177367376Y-100322510D01*
X177350581Y-100254689D01*
X177373118Y-100188554D01*
X177418172Y-100149515D01*
X177471610Y-100122287D01*
X177564590Y-100054732D01*
X177637213Y-100001971D01*
X177637215Y-100001968D01*
X177637219Y-100001966D01*
X177781966Y-99857219D01*
X177781968Y-99857215D01*
X177781971Y-99857213D01*
X177834732Y-99784590D01*
X177902287Y-99691610D01*
X177995220Y-99509219D01*
X178058477Y-99314534D01*
X178090500Y-99112352D01*
X178090500Y-98907648D01*
X178058477Y-98705466D01*
X177995220Y-98510781D01*
X177995218Y-98510778D01*
X177995218Y-98510776D01*
X177961503Y-98444607D01*
X177902287Y-98328390D01*
X177888601Y-98309553D01*
X177781971Y-98162786D01*
X177637213Y-98018028D01*
X177471613Y-97897715D01*
X177471612Y-97897714D01*
X177471610Y-97897713D01*
X177414653Y-97868691D01*
X177289223Y-97804781D01*
X177094534Y-97741522D01*
X176919995Y-97713878D01*
X176892352Y-97709500D01*
X176687648Y-97709500D01*
X176663329Y-97713351D01*
X176485465Y-97741522D01*
X176290776Y-97804781D01*
X176108386Y-97897715D01*
X175942786Y-98018028D01*
X175798028Y-98162786D01*
X175677715Y-98328386D01*
X175584781Y-98510776D01*
X175521522Y-98705465D01*
X175489500Y-98907648D01*
X175489500Y-99112351D01*
X175521522Y-99314534D01*
X175584781Y-99509223D01*
X175677715Y-99691613D01*
X175798028Y-99857213D01*
X175942786Y-100001971D01*
X176108388Y-100122286D01*
X176161828Y-100149516D01*
X176212623Y-100197490D01*
X176229418Y-100265312D01*
X176206880Y-100331446D01*
X176161828Y-100370484D01*
X176108388Y-100397713D01*
X175942786Y-100518028D01*
X175798028Y-100662786D01*
X175677715Y-100828386D01*
X175584779Y-101010780D01*
X175573679Y-101044944D01*
X175534241Y-101102619D01*
X175469882Y-101129816D01*
X175401036Y-101117900D01*
X175368068Y-101094305D01*
X175344075Y-101070312D01*
X175344073Y-101070310D01*
X175191199Y-100959240D01*
X175022836Y-100873454D01*
X174843118Y-100815059D01*
X174656486Y-100785500D01*
X174656481Y-100785500D01*
X174467519Y-100785500D01*
X174467514Y-100785500D01*
X174280881Y-100815059D01*
X174101163Y-100873454D01*
X173932800Y-100959240D01*
X173861861Y-101010781D01*
X173779927Y-101070310D01*
X173779925Y-101070312D01*
X173779924Y-101070312D01*
X173646312Y-101203924D01*
X173646312Y-101203925D01*
X173646310Y-101203927D01*
X173645193Y-101205465D01*
X173535240Y-101356800D01*
X173449454Y-101525163D01*
X173391059Y-101704881D01*
X173361500Y-101891513D01*
X153440500Y-101891513D01*
X153440500Y-96727902D01*
X155281500Y-96727902D01*
X155281500Y-96964097D01*
X155318446Y-97197368D01*
X155391433Y-97421996D01*
X155471987Y-97580091D01*
X155498657Y-97632433D01*
X155637483Y-97823510D01*
X155804490Y-97990517D01*
X155995567Y-98129343D01*
X156061193Y-98162781D01*
X156206003Y-98236566D01*
X156206005Y-98236566D01*
X156206008Y-98236568D01*
X156326412Y-98275689D01*
X156430631Y-98309553D01*
X156663903Y-98346500D01*
X156663908Y-98346500D01*
X156900097Y-98346500D01*
X157133368Y-98309553D01*
X157357992Y-98236568D01*
X157568433Y-98129343D01*
X157759510Y-97990517D01*
X157926517Y-97823510D01*
X158065343Y-97632433D01*
X158172568Y-97421992D01*
X158245553Y-97197368D01*
X158255611Y-97133863D01*
X158282500Y-96964097D01*
X158282500Y-96811513D01*
X173361500Y-96811513D01*
X173361500Y-97000486D01*
X173391059Y-97187118D01*
X173449454Y-97366836D01*
X173532487Y-97529796D01*
X173535240Y-97535199D01*
X173646310Y-97688073D01*
X173779927Y-97821690D01*
X173932801Y-97932760D01*
X174012347Y-97973290D01*
X174101163Y-98018545D01*
X174101165Y-98018545D01*
X174101168Y-98018547D01*
X174197497Y-98049846D01*
X174280881Y-98076940D01*
X174467514Y-98106500D01*
X174467519Y-98106500D01*
X174656486Y-98106500D01*
X174843118Y-98076940D01*
X175022832Y-98018547D01*
X175191199Y-97932760D01*
X175344073Y-97821690D01*
X175477690Y-97688073D01*
X175588760Y-97535199D01*
X175674547Y-97366832D01*
X175732940Y-97187118D01*
X175758885Y-97023308D01*
X175762500Y-97000486D01*
X175762500Y-96811513D01*
X175732940Y-96624881D01*
X175690619Y-96494632D01*
X175674547Y-96445168D01*
X175674545Y-96445165D01*
X175674545Y-96445163D01*
X175624523Y-96346991D01*
X175588760Y-96276801D01*
X175477690Y-96123927D01*
X175344073Y-95990310D01*
X175191199Y-95879240D01*
X175149835Y-95858164D01*
X175022836Y-95793454D01*
X174843118Y-95735059D01*
X174656486Y-95705500D01*
X174656481Y-95705500D01*
X174467519Y-95705500D01*
X174467514Y-95705500D01*
X174280881Y-95735059D01*
X174101163Y-95793454D01*
X173932800Y-95879240D01*
X173858499Y-95933224D01*
X173779927Y-95990310D01*
X173779925Y-95990312D01*
X173779924Y-95990312D01*
X173646312Y-96123924D01*
X173646312Y-96123925D01*
X173646310Y-96123927D01*
X173644255Y-96126756D01*
X173535240Y-96276800D01*
X173449454Y-96445163D01*
X173391059Y-96624881D01*
X173361500Y-96811513D01*
X158282500Y-96811513D01*
X158282500Y-96727902D01*
X158245553Y-96494631D01*
X158178608Y-96288598D01*
X158172568Y-96270008D01*
X158172566Y-96270005D01*
X158172566Y-96270003D01*
X158098135Y-96123925D01*
X158065343Y-96059567D01*
X157926517Y-95868490D01*
X157759510Y-95701483D01*
X157568433Y-95562657D01*
X157357996Y-95455433D01*
X157133368Y-95382446D01*
X156900097Y-95345500D01*
X156900092Y-95345500D01*
X156663908Y-95345500D01*
X156663903Y-95345500D01*
X156430631Y-95382446D01*
X156206003Y-95455433D01*
X155995566Y-95562657D01*
X155893404Y-95636883D01*
X155804490Y-95701483D01*
X155804488Y-95701485D01*
X155804487Y-95701485D01*
X155637485Y-95868487D01*
X155637485Y-95868488D01*
X155637483Y-95868490D01*
X155577862Y-95950550D01*
X155498657Y-96059566D01*
X155391433Y-96270003D01*
X155318446Y-96494631D01*
X155281500Y-96727902D01*
X153440500Y-96727902D01*
X153440500Y-95081564D01*
X170475551Y-95081564D01*
X170475551Y-95270537D01*
X170505110Y-95457169D01*
X170563505Y-95636887D01*
X170614006Y-95736000D01*
X170649291Y-95805250D01*
X170760361Y-95958124D01*
X170893978Y-96091741D01*
X171046852Y-96202811D01*
X171126398Y-96243341D01*
X171215214Y-96288596D01*
X171215216Y-96288596D01*
X171215219Y-96288598D01*
X171311548Y-96319897D01*
X171394932Y-96346991D01*
X171581565Y-96376551D01*
X171581570Y-96376551D01*
X171770537Y-96376551D01*
X171957169Y-96346991D01*
X172136883Y-96288598D01*
X172305250Y-96202811D01*
X172458124Y-96091741D01*
X172591741Y-95958124D01*
X172702811Y-95805250D01*
X172788598Y-95636883D01*
X172846991Y-95457169D01*
X172850285Y-95436371D01*
X172876551Y-95270537D01*
X172876551Y-95238135D01*
X178771500Y-95238135D01*
X178771500Y-97133870D01*
X178771501Y-97133876D01*
X178777908Y-97193483D01*
X178828202Y-97328328D01*
X178828206Y-97328335D01*
X178914452Y-97443544D01*
X178914455Y-97443547D01*
X179029664Y-97529793D01*
X179029671Y-97529797D01*
X179164517Y-97580091D01*
X179164516Y-97580091D01*
X179171444Y-97580835D01*
X179224127Y-97586500D01*
X181119872Y-97586499D01*
X181179483Y-97580091D01*
X181314331Y-97529796D01*
X181429546Y-97443546D01*
X181515796Y-97328331D01*
X181566091Y-97193483D01*
X181572500Y-97133873D01*
X181572499Y-97023304D01*
X181592183Y-96956268D01*
X181608818Y-96935626D01*
X182269861Y-96274584D01*
X182292667Y-96359694D01*
X182351910Y-96462306D01*
X182435694Y-96546090D01*
X182538306Y-96605333D01*
X182623414Y-96628137D01*
X181914485Y-97337065D01*
X181914485Y-97337066D01*
X181978243Y-97383388D01*
X182174589Y-97483432D01*
X182384164Y-97551526D01*
X182601819Y-97586000D01*
X182822181Y-97586000D01*
X183039835Y-97551526D01*
X183249410Y-97483432D01*
X183445760Y-97383386D01*
X183509513Y-97337066D01*
X183509514Y-97337066D01*
X182800585Y-96628138D01*
X182885694Y-96605333D01*
X182988306Y-96546090D01*
X183072090Y-96462306D01*
X183131333Y-96359694D01*
X183154138Y-96274585D01*
X183863066Y-96983514D01*
X183863066Y-96983513D01*
X183909386Y-96919760D01*
X184009432Y-96723410D01*
X184077526Y-96513835D01*
X184112000Y-96296181D01*
X184112000Y-96075818D01*
X184077526Y-95858164D01*
X184009432Y-95648589D01*
X183909388Y-95452243D01*
X183863066Y-95388485D01*
X183863065Y-95388485D01*
X183154137Y-96097413D01*
X183131333Y-96012306D01*
X183072090Y-95909694D01*
X182988306Y-95825910D01*
X182885694Y-95766667D01*
X182800583Y-95743861D01*
X183509513Y-95034932D01*
X183445756Y-94988611D01*
X183249410Y-94888567D01*
X183039835Y-94820473D01*
X182822181Y-94786000D01*
X182601819Y-94786000D01*
X182384164Y-94820473D01*
X182174589Y-94888567D01*
X181978233Y-94988616D01*
X181914485Y-95034931D01*
X181914485Y-95034932D01*
X182623414Y-95743861D01*
X182538306Y-95766667D01*
X182435694Y-95825910D01*
X182351910Y-95909694D01*
X182292667Y-96012306D01*
X182269861Y-96097414D01*
X181608818Y-95436371D01*
X181575333Y-95375048D01*
X181572499Y-95348690D01*
X181572499Y-95238129D01*
X181572498Y-95238123D01*
X181572497Y-95238116D01*
X181566091Y-95178517D01*
X181533156Y-95090214D01*
X181515797Y-95043671D01*
X181515793Y-95043664D01*
X181429547Y-94928455D01*
X181429544Y-94928452D01*
X181314335Y-94842206D01*
X181314328Y-94842202D01*
X181179482Y-94791908D01*
X181179483Y-94791908D01*
X181119883Y-94785501D01*
X181119881Y-94785500D01*
X181119873Y-94785500D01*
X181119864Y-94785500D01*
X179224129Y-94785500D01*
X179224123Y-94785501D01*
X179164516Y-94791908D01*
X179029671Y-94842202D01*
X179029664Y-94842206D01*
X178914455Y-94928452D01*
X178914452Y-94928455D01*
X178828206Y-95043664D01*
X178828202Y-95043671D01*
X178777908Y-95178517D01*
X178771501Y-95238116D01*
X178771501Y-95238123D01*
X178771500Y-95238135D01*
X172876551Y-95238135D01*
X172876551Y-95081564D01*
X172846991Y-94894932D01*
X172788596Y-94715214D01*
X172702810Y-94546851D01*
X172591741Y-94393978D01*
X172458124Y-94260361D01*
X172456793Y-94259394D01*
X172436964Y-94244986D01*
X172436946Y-94244974D01*
X172305250Y-94149291D01*
X172304112Y-94148711D01*
X185809500Y-94148711D01*
X185809500Y-94391288D01*
X185841161Y-94631785D01*
X185903947Y-94866104D01*
X185973878Y-95034931D01*
X185996776Y-95090212D01*
X186118064Y-95300289D01*
X186118066Y-95300292D01*
X186118067Y-95300293D01*
X186265733Y-95492736D01*
X186265739Y-95492743D01*
X186437256Y-95664260D01*
X186437263Y-95664266D01*
X186529523Y-95735059D01*
X186629711Y-95811936D01*
X186839788Y-95933224D01*
X187063900Y-96026054D01*
X187298211Y-96088838D01*
X187478586Y-96112584D01*
X187538711Y-96120500D01*
X187538712Y-96120500D01*
X187781289Y-96120500D01*
X187829388Y-96114167D01*
X188021789Y-96088838D01*
X188256100Y-96026054D01*
X188480212Y-95933224D01*
X188690289Y-95811936D01*
X188882738Y-95664265D01*
X189054265Y-95492738D01*
X189201936Y-95300289D01*
X189323224Y-95090212D01*
X189416054Y-94866100D01*
X189478838Y-94631789D01*
X189510500Y-94391288D01*
X189510500Y-94148712D01*
X189478838Y-93908211D01*
X189416054Y-93673900D01*
X189323224Y-93449788D01*
X189201936Y-93239711D01*
X189054265Y-93047262D01*
X189054260Y-93047256D01*
X188882743Y-92875739D01*
X188882736Y-92875733D01*
X188690293Y-92728067D01*
X188690292Y-92728066D01*
X188690289Y-92728064D01*
X188487024Y-92610709D01*
X188480214Y-92606777D01*
X188480205Y-92606773D01*
X188256104Y-92513947D01*
X188021785Y-92451161D01*
X187781289Y-92419500D01*
X187781288Y-92419500D01*
X187538712Y-92419500D01*
X187538711Y-92419500D01*
X187298214Y-92451161D01*
X187063895Y-92513947D01*
X186839794Y-92606773D01*
X186839785Y-92606777D01*
X186629706Y-92728067D01*
X186437263Y-92875733D01*
X186437256Y-92875739D01*
X186265739Y-93047256D01*
X186265733Y-93047263D01*
X186118067Y-93239706D01*
X185996777Y-93449785D01*
X185996773Y-93449794D01*
X185903947Y-93673895D01*
X185841161Y-93908214D01*
X185809500Y-94148711D01*
X172304112Y-94148711D01*
X172136887Y-94063505D01*
X171957169Y-94005110D01*
X171770537Y-93975551D01*
X171770532Y-93975551D01*
X171581570Y-93975551D01*
X171581565Y-93975551D01*
X171394932Y-94005110D01*
X171215214Y-94063505D01*
X171046851Y-94149291D01*
X170959630Y-94212661D01*
X170893978Y-94260361D01*
X170893976Y-94260363D01*
X170893975Y-94260363D01*
X170760363Y-94393975D01*
X170760363Y-94393976D01*
X170760361Y-94393978D01*
X170712661Y-94459630D01*
X170649291Y-94546851D01*
X170563505Y-94715214D01*
X170505110Y-94894932D01*
X170475551Y-95081564D01*
X153440500Y-95081564D01*
X153440500Y-92623750D01*
X153440726Y-92616263D01*
X153452628Y-92419500D01*
X153458271Y-92326201D01*
X153460076Y-92311340D01*
X153478071Y-92213148D01*
X153511780Y-92029198D01*
X153515364Y-92014664D01*
X153600699Y-91740812D01*
X153605997Y-91726842D01*
X153712834Y-91489462D01*
X166883449Y-91489462D01*
X166883449Y-91678435D01*
X166913008Y-91865067D01*
X166971403Y-92044785D01*
X167057189Y-92213148D01*
X167168259Y-92366022D01*
X167301876Y-92499639D01*
X167454750Y-92610709D01*
X167534296Y-92651239D01*
X167623112Y-92696494D01*
X167623114Y-92696494D01*
X167623117Y-92696496D01*
X167719446Y-92727795D01*
X167802830Y-92754889D01*
X167989463Y-92784449D01*
X167989468Y-92784449D01*
X168178435Y-92784449D01*
X168365067Y-92754889D01*
X168544781Y-92696496D01*
X168713148Y-92610709D01*
X168866022Y-92499639D01*
X168999639Y-92366022D01*
X169110709Y-92213148D01*
X169196496Y-92044781D01*
X169254889Y-91865067D01*
X169275701Y-91733665D01*
X169284449Y-91678435D01*
X169284449Y-91489462D01*
X169254889Y-91302830D01*
X169196494Y-91123112D01*
X169117677Y-90968426D01*
X169110709Y-90954750D01*
X168999639Y-90801876D01*
X168866022Y-90668259D01*
X168713148Y-90557189D01*
X168664183Y-90532240D01*
X168544785Y-90471403D01*
X168365067Y-90413008D01*
X168178435Y-90383449D01*
X168178430Y-90383449D01*
X167989468Y-90383449D01*
X167989463Y-90383449D01*
X167802830Y-90413008D01*
X167623112Y-90471403D01*
X167454749Y-90557189D01*
X167367528Y-90620559D01*
X167301876Y-90668259D01*
X167301874Y-90668261D01*
X167301873Y-90668261D01*
X167168261Y-90801873D01*
X167168261Y-90801874D01*
X167168259Y-90801876D01*
X167120559Y-90867528D01*
X167057189Y-90954749D01*
X166971403Y-91123112D01*
X166913008Y-91302830D01*
X166883449Y-91489462D01*
X153712834Y-91489462D01*
X153723727Y-91465258D01*
X153730681Y-91452010D01*
X153749763Y-91420445D01*
X153749763Y-91420444D01*
X153820863Y-91302830D01*
X153879075Y-91206534D01*
X153887567Y-91194230D01*
X154064481Y-90968417D01*
X154074396Y-90957226D01*
X154277226Y-90754396D01*
X154288417Y-90744481D01*
X154514230Y-90567567D01*
X154526534Y-90559075D01*
X154772012Y-90410680D01*
X154785258Y-90403727D01*
X155046842Y-90285997D01*
X155060812Y-90280699D01*
X155334668Y-90195362D01*
X155349198Y-90191780D01*
X155631344Y-90140075D01*
X155646201Y-90138271D01*
X155936264Y-90120726D01*
X155943751Y-90120500D01*
X156005892Y-90120500D01*
X189004108Y-90120500D01*
X189066249Y-90120500D01*
X189073736Y-90120726D01*
G37*
%TD.AperFunction*%
%TD*%
M02*
