M48
; DRILL file KiCad 10.0.1 date 2026-05-25T15:11:20
; FORMAT={-:-/ absolute / metric / decimal}
; #@! TF.CreationDate,2026-05-25T15:11:20+05:30
; #@! TF.GenerationSoftware,Kicad,Pcbnew,10.0.1
; #@! TF.FileFunction,Plated,1,2,PTH
FMAT,2
METRIC
; #@! TA.AperFunction,Plated,PTH,ViaDrill
T1C0.300
; #@! TA.AperFunction,Plated,PTH,ComponentDrill
T2C0.700
; #@! TA.AperFunction,Plated,PTH,ComponentDrill
T3C0.750
; #@! TA.AperFunction,Plated,PTH,ComponentDrill
T4C0.800
; #@! TA.AperFunction,Plated,PTH,ComponentDrill
T5C0.900
; #@! TA.AperFunction,Plated,PTH,ComponentDrill
T6C1.000
; #@! TA.AperFunction,Plated,PTH,ComponentDrill
T7C1.300
%
G90
G05
T1
X170.822Y-103.046
T2
X168.084Y-91.584
X171.676Y-95.176
X174.562Y-96.906
X174.562Y-101.986
T3
X175.518Y-104.5
X175.518Y-107.04
X176.788Y-105.77
T4
X176.79Y-99.01
X176.79Y-101.51
T5
X180.172Y-96.186
X182.712Y-96.186
T6
X156.782Y-96.846
X156.782Y-111.846
T7
X183.267Y-102.04
X183.267Y-107.04
T6
G00X180.91Y-116.65
M15
G01X180.91Y-114.05
M16
G05
G00X187.21Y-116.45
M15
G01X187.21Y-114.25
M16
G05
M30
